<svg xmlns="http://www.w3.org/2000/svg" width="860" height="420">
<defs>
<clipPath id="axes-clip-1"><rect x="70" y="45" width="760" height="315"/></clipPath>
</defs>
<rect x="0" y="0" width="860" height="420" stroke="none" fill="#ffffff"/>
<rect x="70" y="45" width="760" height="315" stroke="none" fill="#f7f7f7"/>
<g clip-path="url(#axes-clip-1)">
<line x1="70" y1="318.62" x2="830" y2="318.62" stroke="#e5e5e5" stroke-width="0.8" fill="none"/>
<line x1="70" y1="266.9" x2="830" y2="266.9" stroke="#e5e5e5" stroke-width="0.8" fill="none"/>
<line x1="70" y1="215.17" x2="830" y2="215.17" stroke="#e5e5e5" stroke-width="0.8" fill="none"/>
<line x1="70" y1="163.45" x2="830" y2="163.45" stroke="#e5e5e5" stroke-width="0.8" fill="none"/>
<line x1="70" y1="111.72" x2="830" y2="111.72" stroke="#e5e5e5" stroke-width="0.8" fill="none"/>
<line x1="70" y1="60" x2="830" y2="60" stroke="#e5e5e5" stroke-width="0.8" fill="none"/>
</g>
<g clip-path="url(#axes-clip-1)">
<line x1="196.67" y1="295.34" x2="196.67" y2="328.97" stroke="#4c72b0" stroke-width="1.5" fill="none"/>
<line x1="196.67" y1="241.03" x2="196.67" y2="194.48" stroke="#4c72b0" stroke-width="1.5" fill="none"/>
<line x1="171.33" y1="328.97" x2="222" y2="328.97" stroke="#4c72b0" stroke-width="1.5" fill="none"/>
<line x1="171.33" y1="194.48" x2="222" y2="194.48" stroke="#4c72b0" stroke-width="1.5" fill="none"/>
<rect x="133.33" y="241.03" width="126.67" height="54.31" rx="2" ry="2" stroke="#4c72b0" stroke-width="1.5" fill="rgba(76,114,176,0.698)"/>
<line x1="133.33" y1="272.07" x2="260" y2="272.07" stroke="#ffffff" stroke-width="2" fill="none"/>
<line x1="450" y1="171.21" x2="450" y2="215.17" stroke="#4c72b0" stroke-width="1.5" fill="none"/>
<line x1="450" y1="114.31" x2="450" y2="60" stroke="#4c72b0" stroke-width="1.5" fill="none"/>
<line x1="424.67" y1="215.17" x2="475.33" y2="215.17" stroke="#4c72b0" stroke-width="1.5" fill="none"/>
<line x1="424.67" y1="60" x2="475.33" y2="60" stroke="#4c72b0" stroke-width="1.5" fill="none"/>
<rect x="386.67" y="114.31" width="126.67" height="56.9" rx="2" ry="2" stroke="#4c72b0" stroke-width="1.5" fill="rgba(76,114,176,0.698)"/>
<line x1="386.67" y1="137.59" x2="513.33" y2="137.59" stroke="#ffffff" stroke-width="2" fill="none"/>
<line x1="703.33" y1="336.72" x2="703.33" y2="360" stroke="#4c72b0" stroke-width="1.5" fill="none"/>
<line x1="703.33" y1="290.17" x2="703.33" y2="266.9" stroke="#4c72b0" stroke-width="1.5" fill="none"/>
<line x1="678" y1="360" x2="728.67" y2="360" stroke="#4c72b0" stroke-width="1.5" fill="none"/>
<line x1="678" y1="266.9" x2="728.67" y2="266.9" stroke="#4c72b0" stroke-width="1.5" fill="none"/>
<rect x="640" y="290.17" width="126.67" height="46.55" rx="2" ry="2" stroke="#4c72b0" stroke-width="1.5" fill="rgba(76,114,176,0.698)"/>
<line x1="640" y1="313.45" x2="766.67" y2="313.45" stroke="#ffffff" stroke-width="2" fill="none"/>
</g>
<line x1="70" y1="360" x2="830" y2="360" stroke="#888888" stroke-width="1.2" fill="none"/>
<line x1="70" y1="45" x2="70" y2="360" stroke="#888888" stroke-width="1.2" fill="none"/>
<line x1="196.67" y1="360" x2="196.67" y2="365" stroke="#888888" stroke-width="1" fill="none"/>
<text x="196.67" y="368" font-size="11" font-family="system-ui, -apple-system, BlinkMacSystemFont, 'Segoe UI', sans-serif" text-anchor="middle" dominant-baseline="hanging" fill="#333333">Control</text>
<line x1="450" y1="360" x2="450" y2="365" stroke="#888888" stroke-width="1" fill="none"/>
<text x="450" y="368" font-size="11" font-family="system-ui, -apple-system, BlinkMacSystemFont, 'Segoe UI', sans-serif" text-anchor="middle" dominant-baseline="hanging" fill="#333333">Treatment A</text>
<line x1="703.33" y1="360" x2="703.33" y2="365" stroke="#888888" stroke-width="1" fill="none"/>
<text x="703.33" y="368" font-size="11" font-family="system-ui, -apple-system, BlinkMacSystemFont, 'Segoe UI', sans-serif" text-anchor="middle" dominant-baseline="hanging" fill="#333333">Treatment B</text>
<line x1="65" y1="318.62" x2="70" y2="318.62" stroke="#888888" stroke-width="1" fill="none"/>
<text x="62" y="318.62" font-size="11" font-family="system-ui, -apple-system, BlinkMacSystemFont, 'Segoe UI', sans-serif" text-anchor="end" dominant-baseline="middle" fill="#333333">10</text>
<line x1="65" y1="266.9" x2="70" y2="266.9" stroke="#888888" stroke-width="1" fill="none"/>
<text x="62" y="266.9" font-size="11" font-family="system-ui, -apple-system, BlinkMacSystemFont, 'Segoe UI', sans-serif" text-anchor="end" dominant-baseline="middle" fill="#333333">15</text>
<line x1="65" y1="215.17" x2="70" y2="215.17" stroke="#888888" stroke-width="1" fill="none"/>
<text x="62" y="215.17" font-size="11" font-family="system-ui, -apple-system, BlinkMacSystemFont, 'Segoe UI', sans-serif" text-anchor="end" dominant-baseline="middle" fill="#333333">20</text>
<line x1="65" y1="163.45" x2="70" y2="163.45" stroke="#888888" stroke-width="1" fill="none"/>
<text x="62" y="163.45" font-size="11" font-family="system-ui, -apple-system, BlinkMacSystemFont, 'Segoe UI', sans-serif" text-anchor="end" dominant-baseline="middle" fill="#333333">25</text>
<line x1="65" y1="111.72" x2="70" y2="111.72" stroke="#888888" stroke-width="1" fill="none"/>
<text x="62" y="111.72" font-size="11" font-family="system-ui, -apple-system, BlinkMacSystemFont, 'Segoe UI', sans-serif" text-anchor="end" dominant-baseline="middle" fill="#333333">30</text>
<line x1="65" y1="60" x2="70" y2="60" stroke="#888888" stroke-width="1" fill="none"/>
<text x="62" y="60" font-size="11" font-family="system-ui, -apple-system, BlinkMacSystemFont, 'Segoe UI', sans-serif" text-anchor="end" dominant-baseline="middle" fill="#333333">35</text>
<text x="22" y="202.5" transform="rotate(-90,22,202.5)" font-size="12" font-family="system-ui, -apple-system, BlinkMacSystemFont, 'Segoe UI', sans-serif" text-anchor="middle" dominant-baseline="middle" fill="#333333">Score</text>
<text x="450" y="30" font-size="16" font-family="system-ui, -apple-system, BlinkMacSystemFont, 'Segoe UI', sans-serif" font-weight="bold" text-anchor="middle" dominant-baseline="auto" fill="#1a1a1a">Experimental Results</text>
</svg>
