<svg xmlns="http://www.w3.org/2000/svg" width="860" height="480">
<defs>
<clipPath id="axes-clip-1"><rect x="70" y="45" width="760" height="375"/></clipPath>
</defs>
<rect x="0" y="0" width="860" height="480" stroke="none" fill="#ffffff"/>
<rect x="70" y="45" width="760" height="375" stroke="none" fill="#f7f7f7"/>
<g clip-path="url(#axes-clip-1)">
<line x1="70" y1="412.51" x2="830" y2="412.51" stroke="#e5e5e5" stroke-width="0.8" fill="none"/>
<line x1="70" y1="350.07" x2="830" y2="350.07" stroke="#e5e5e5" stroke-width="0.8" fill="none"/>
<line x1="70" y1="287.63" x2="830" y2="287.63" stroke="#e5e5e5" stroke-width="0.8" fill="none"/>
<line x1="70" y1="225.19" x2="830" y2="225.19" stroke="#e5e5e5" stroke-width="0.8" fill="none"/>
<line x1="70" y1="162.76" x2="830" y2="162.76" stroke="#e5e5e5" stroke-width="0.8" fill="none"/>
<line x1="70" y1="100.32" x2="830" y2="100.32" stroke="#e5e5e5" stroke-width="0.8" fill="none"/>
</g>
<g clip-path="url(#axes-clip-1)">
<line x1="157.11" y1="45" x2="157.11" y2="420" stroke="#e5e5e5" stroke-width="0.8" fill="none"/>
<line x1="307.31" y1="45" x2="307.31" y2="420" stroke="#e5e5e5" stroke-width="0.8" fill="none"/>
<line x1="457.51" y1="45" x2="457.51" y2="420" stroke="#e5e5e5" stroke-width="0.8" fill="none"/>
<line x1="607.71" y1="45" x2="607.71" y2="420" stroke="#e5e5e5" stroke-width="0.8" fill="none"/>
<line x1="757.91" y1="45" x2="757.91" y2="420" stroke="#e5e5e5" stroke-width="0.8" fill="none"/>
</g>
<g clip-path="url(#axes-clip-1)">
<circle cx="118.06" cy="420" r="40" stroke="rgba(255,255,255,0.706)" stroke-width="1" fill="#4c72b0" fill-opacity="0.65"/>
<circle cx="538.62" cy="220.2" r="39.56" stroke="rgba(255,255,255,0.706)" stroke-width="1" fill="#4c72b0" fill-opacity="0.65"/>
<circle cx="830" cy="207.71" r="11.82" stroke="rgba(255,255,255,0.706)" stroke-width="1" fill="#4c72b0" fill-opacity="0.65"/>
<circle cx="70" cy="285.13" r="8.78" stroke="rgba(255,255,255,0.706)" stroke-width="1" fill="#4c72b0" fill-opacity="0.65"/>
<circle cx="136.09" cy="62.86" r="6.44" stroke="rgba(255,255,255,0.706)" stroke-width="1" fill="#4c72b0" fill-opacity="0.65"/>
<circle cx="142.09" cy="72.85" r="5.41" stroke="rgba(255,255,255,0.706)" stroke-width="1" fill="#4c72b0" fill-opacity="0.65"/>
<circle cx="100.04" cy="132.79" r="5" stroke="rgba(255,255,255,0.706)" stroke-width="1" fill="#4c72b0" fill-opacity="0.65"/>
<circle cx="94.03" cy="97.82" r="5" stroke="rgba(255,255,255,0.706)" stroke-width="1" fill="#4c72b0" fill-opacity="0.65"/>
</g>
<line x1="70" y1="420" x2="830" y2="420" stroke="#888888" stroke-width="1.2" fill="none"/>
<line x1="70" y1="45" x2="70" y2="420" stroke="#888888" stroke-width="1.2" fill="none"/>
<line x1="157.11" y1="420" x2="157.11" y2="425" stroke="#888888" stroke-width="1" fill="none"/>
<text x="157.11" y="428" font-size="11" font-family="system-ui, -apple-system, BlinkMacSystemFont, 'Segoe UI', sans-serif" text-anchor="middle" dominant-baseline="hanging" fill="#333333">5</text>
<line x1="307.31" y1="420" x2="307.31" y2="425" stroke="#888888" stroke-width="1" fill="none"/>
<text x="307.31" y="428" font-size="11" font-family="system-ui, -apple-system, BlinkMacSystemFont, 'Segoe UI', sans-serif" text-anchor="middle" dominant-baseline="hanging" fill="#333333">10</text>
<line x1="457.51" y1="420" x2="457.51" y2="425" stroke="#888888" stroke-width="1" fill="none"/>
<text x="457.51" y="428" font-size="11" font-family="system-ui, -apple-system, BlinkMacSystemFont, 'Segoe UI', sans-serif" text-anchor="middle" dominant-baseline="hanging" fill="#333333">15</text>
<line x1="607.71" y1="420" x2="607.71" y2="425" stroke="#888888" stroke-width="1" fill="none"/>
<text x="607.71" y="428" font-size="11" font-family="system-ui, -apple-system, BlinkMacSystemFont, 'Segoe UI', sans-serif" text-anchor="middle" dominant-baseline="hanging" fill="#333333">20</text>
<line x1="757.91" y1="420" x2="757.91" y2="425" stroke="#888888" stroke-width="1" fill="none"/>
<text x="757.91" y="428" font-size="11" font-family="system-ui, -apple-system, BlinkMacSystemFont, 'Segoe UI', sans-serif" text-anchor="middle" dominant-baseline="hanging" fill="#333333">25</text>
<line x1="65" y1="412.51" x2="70" y2="412.51" stroke="#888888" stroke-width="1" fill="none"/>
<text x="62" y="412.51" font-size="11" font-family="system-ui, -apple-system, BlinkMacSystemFont, 'Segoe UI', sans-serif" text-anchor="end" dominant-baseline="middle" fill="#333333">70</text>
<line x1="65" y1="350.07" x2="70" y2="350.07" stroke="#888888" stroke-width="1" fill="none"/>
<text x="62" y="350.07" font-size="11" font-family="system-ui, -apple-system, BlinkMacSystemFont, 'Segoe UI', sans-serif" text-anchor="end" dominant-baseline="middle" fill="#333333">72</text>
<line x1="65" y1="287.63" x2="70" y2="287.63" stroke="#888888" stroke-width="1" fill="none"/>
<text x="62" y="287.63" font-size="11" font-family="system-ui, -apple-system, BlinkMacSystemFont, 'Segoe UI', sans-serif" text-anchor="end" dominant-baseline="middle" fill="#333333">75</text>
<line x1="65" y1="225.19" x2="70" y2="225.19" stroke="#888888" stroke-width="1" fill="none"/>
<text x="62" y="225.19" font-size="11" font-family="system-ui, -apple-system, BlinkMacSystemFont, 'Segoe UI', sans-serif" text-anchor="end" dominant-baseline="middle" fill="#333333">78</text>
<line x1="65" y1="162.76" x2="70" y2="162.76" stroke="#888888" stroke-width="1" fill="none"/>
<text x="62" y="162.76" font-size="11" font-family="system-ui, -apple-system, BlinkMacSystemFont, 'Segoe UI', sans-serif" text-anchor="end" dominant-baseline="middle" fill="#333333">80</text>
<line x1="65" y1="100.32" x2="70" y2="100.32" stroke="#888888" stroke-width="1" fill="none"/>
<text x="62" y="100.32" font-size="11" font-family="system-ui, -apple-system, BlinkMacSystemFont, 'Segoe UI', sans-serif" text-anchor="end" dominant-baseline="middle" fill="#333333">82</text>
<text x="450" y="450" font-size="12" font-family="system-ui, -apple-system, BlinkMacSystemFont, 'Segoe UI', sans-serif" text-anchor="middle" dominant-baseline="hanging" fill="#333333">GDP ($ trillion)</text>
<text x="22" y="232.5" transform="rotate(-90,22,232.5)" font-size="12" font-family="system-ui, -apple-system, BlinkMacSystemFont, 'Segoe UI', sans-serif" text-anchor="middle" dominant-baseline="middle" fill="#333333">Life expectancy (years)</text>
<text x="450" y="30" font-size="16" font-family="system-ui, -apple-system, BlinkMacSystemFont, 'Segoe UI', sans-serif" font-weight="bold" text-anchor="middle" dominant-baseline="auto" fill="#1a1a1a">GDP vs Life Expectancy (bubble = population)</text>
<rect x="723.8" y="55" width="96.2" height="42" rx="4" ry="4" stroke="#e5e5e5" stroke-width="0.8" fill="rgba(255,255,255,0.898)"/>
<line x1="733.8" y1="76" x2="753.8" y2="76" stroke="#4c72b0" stroke-width="2.5" fill="none" stroke-linecap="round"/>
<circle cx="743.8" cy="76" r="3" stroke="none" fill="#4c72b0"/>
<text x="757.8" y="76" font-size="12" font-family="system-ui, -apple-system, BlinkMacSystemFont, 'Segoe UI', sans-serif" text-anchor="start" dominant-baseline="middle" fill="#333333">country</text>
</svg>
