<svg xmlns="http://www.w3.org/2000/svg" width="860" height="420">
<defs>
<clipPath id="axes-clip-1"><rect x="70" y="45" width="760" height="315"/></clipPath>
</defs>
<rect x="0" y="0" width="860" height="420" stroke="none" fill="#ffffff"/>
<rect x="70" y="45" width="760" height="315" stroke="none" fill="#f7f7f7"/>
<g clip-path="url(#axes-clip-1)">
<line x1="70" y1="310.61" x2="830" y2="310.61" stroke="#e5e5e5" stroke-width="0.8" fill="none"/>
<line x1="70" y1="250.07" x2="830" y2="250.07" stroke="#e5e5e5" stroke-width="0.8" fill="none"/>
<line x1="70" y1="189.54" x2="830" y2="189.54" stroke="#e5e5e5" stroke-width="0.8" fill="none"/>
<line x1="70" y1="129.01" x2="830" y2="129.01" stroke="#e5e5e5" stroke-width="0.8" fill="none"/>
<line x1="70" y1="68.47" x2="830" y2="68.47" stroke="#e5e5e5" stroke-width="0.8" fill="none"/>
</g>
<g clip-path="url(#axes-clip-1)">
<line x1="97.47" y1="45" x2="97.47" y2="360" stroke="#e5e5e5" stroke-width="0.8" fill="none"/>
<line x1="189.04" y1="45" x2="189.04" y2="360" stroke="#e5e5e5" stroke-width="0.8" fill="none"/>
<line x1="280.6" y1="45" x2="280.6" y2="360" stroke="#e5e5e5" stroke-width="0.8" fill="none"/>
<line x1="372.17" y1="45" x2="372.17" y2="360" stroke="#e5e5e5" stroke-width="0.8" fill="none"/>
<line x1="463.73" y1="45" x2="463.73" y2="360" stroke="#e5e5e5" stroke-width="0.8" fill="none"/>
<line x1="555.3" y1="45" x2="555.3" y2="360" stroke="#e5e5e5" stroke-width="0.8" fill="none"/>
<line x1="646.87" y1="45" x2="646.87" y2="360" stroke="#e5e5e5" stroke-width="0.8" fill="none"/>
<line x1="738.43" y1="45" x2="738.43" y2="360" stroke="#e5e5e5" stroke-width="0.8" fill="none"/>
<line x1="830" y1="45" x2="830" y2="360" stroke="#e5e5e5" stroke-width="0.8" fill="none"/>
</g>
<g clip-path="url(#axes-clip-1)">
<circle cx="70" cy="356.25" r="6" stroke="rgba(255,255,255,0.784)" stroke-width="1.2" fill="#4c72b0"/>
<circle cx="134.1" cy="312.18" r="6" stroke="rgba(255,255,255,0.784)" stroke-width="1.2" fill="#4c72b0"/>
<circle cx="198.19" cy="198.62" r="6" stroke="rgba(255,255,255,0.784)" stroke-width="1.2" fill="#4c72b0"/>
<circle cx="262.29" cy="109.88" r="6" stroke="rgba(255,255,255,0.784)" stroke-width="1.2" fill="#4c72b0"/>
<circle cx="390.48" cy="141.84" r="6" stroke="rgba(255,255,255,0.784)" stroke-width="1.2" fill="#4c72b0"/>
<circle cx="555.3" cy="197.77" r="6" stroke="rgba(255,255,255,0.784)" stroke-width="1.2" fill="#4c72b0"/>
<circle cx="830" cy="251.77" r="6" stroke="rgba(255,255,255,0.784)" stroke-width="1.2" fill="#4c72b0"/>
<line x1="70" y1="360" x2="70" y2="352.49" stroke="#4c72b0" stroke-width="1.5" fill="none"/>
<line x1="67" y1="360" x2="73" y2="360" stroke="#4c72b0" stroke-width="1.5" fill="none"/>
<line x1="67" y1="352.49" x2="73" y2="352.49" stroke="#4c72b0" stroke-width="1.5" fill="none"/>
<line x1="134.1" y1="327.19" x2="134.1" y2="297.17" stroke="#4c72b0" stroke-width="1.5" fill="none"/>
<line x1="131.1" y1="327.19" x2="137.1" y2="327.19" stroke="#4c72b0" stroke-width="1.5" fill="none"/>
<line x1="131.1" y1="297.17" x2="137.1" y2="297.17" stroke="#4c72b0" stroke-width="1.5" fill="none"/>
<line x1="198.19" y1="233.61" x2="198.19" y2="163.63" stroke="#4c72b0" stroke-width="1.5" fill="none"/>
<line x1="195.19" y1="233.61" x2="201.19" y2="233.61" stroke="#4c72b0" stroke-width="1.5" fill="none"/>
<line x1="195.19" y1="163.63" x2="201.19" y2="163.63" stroke="#4c72b0" stroke-width="1.5" fill="none"/>
<line x1="262.29" y1="159.76" x2="262.29" y2="60" stroke="#4c72b0" stroke-width="1.5" fill="none"/>
<line x1="259.29" y1="159.76" x2="265.29" y2="159.76" stroke="#4c72b0" stroke-width="1.5" fill="none"/>
<line x1="259.29" y1="60" x2="265.29" y2="60" stroke="#4c72b0" stroke-width="1.5" fill="none"/>
<line x1="390.48" y1="185.06" x2="390.48" y2="98.62" stroke="#4c72b0" stroke-width="1.5" fill="none"/>
<line x1="387.48" y1="185.06" x2="393.48" y2="185.06" stroke="#4c72b0" stroke-width="1.5" fill="none"/>
<line x1="387.48" y1="98.62" x2="393.48" y2="98.62" stroke="#4c72b0" stroke-width="1.5" fill="none"/>
<line x1="555.3" y1="233.85" x2="555.3" y2="161.69" stroke="#4c72b0" stroke-width="1.5" fill="none"/>
<line x1="552.3" y1="233.85" x2="558.3" y2="233.85" stroke="#4c72b0" stroke-width="1.5" fill="none"/>
<line x1="552.3" y1="161.69" x2="558.3" y2="161.69" stroke="#4c72b0" stroke-width="1.5" fill="none"/>
<line x1="830" y1="278.52" x2="830" y2="225.01" stroke="#4c72b0" stroke-width="1.5" fill="none"/>
<line x1="827" y1="278.52" x2="833" y2="278.52" stroke="#4c72b0" stroke-width="1.5" fill="none"/>
<line x1="827" y1="225.01" x2="833" y2="225.01" stroke="#4c72b0" stroke-width="1.5" fill="none"/>
</g>
<line x1="70" y1="360" x2="830" y2="360" stroke="#888888" stroke-width="1.2" fill="none"/>
<line x1="70" y1="45" x2="70" y2="360" stroke="#888888" stroke-width="1.2" fill="none"/>
<line x1="97.47" y1="360" x2="97.47" y2="365" stroke="#888888" stroke-width="1" fill="none"/>
<text x="97.47" y="368" font-size="11" font-family="system-ui, -apple-system, BlinkMacSystemFont, 'Segoe UI', sans-serif" text-anchor="middle" dominant-baseline="hanging" fill="#333333">10</text>
<line x1="189.04" y1="360" x2="189.04" y2="365" stroke="#888888" stroke-width="1" fill="none"/>
<text x="189.04" y="368" font-size="11" font-family="system-ui, -apple-system, BlinkMacSystemFont, 'Segoe UI', sans-serif" text-anchor="middle" dominant-baseline="hanging" fill="#333333">20</text>
<line x1="280.6" y1="360" x2="280.6" y2="365" stroke="#888888" stroke-width="1" fill="none"/>
<text x="280.6" y="368" font-size="11" font-family="system-ui, -apple-system, BlinkMacSystemFont, 'Segoe UI', sans-serif" text-anchor="middle" dominant-baseline="hanging" fill="#333333">30</text>
<line x1="372.17" y1="360" x2="372.17" y2="365" stroke="#888888" stroke-width="1" fill="none"/>
<text x="372.17" y="368" font-size="11" font-family="system-ui, -apple-system, BlinkMacSystemFont, 'Segoe UI', sans-serif" text-anchor="middle" dominant-baseline="hanging" fill="#333333">40</text>
<line x1="463.73" y1="360" x2="463.73" y2="365" stroke="#888888" stroke-width="1" fill="none"/>
<text x="463.73" y="368" font-size="11" font-family="system-ui, -apple-system, BlinkMacSystemFont, 'Segoe UI', sans-serif" text-anchor="middle" dominant-baseline="hanging" fill="#333333">50</text>
<line x1="555.3" y1="360" x2="555.3" y2="365" stroke="#888888" stroke-width="1" fill="none"/>
<text x="555.3" y="368" font-size="11" font-family="system-ui, -apple-system, BlinkMacSystemFont, 'Segoe UI', sans-serif" text-anchor="middle" dominant-baseline="hanging" fill="#333333">60</text>
<line x1="646.87" y1="360" x2="646.87" y2="365" stroke="#888888" stroke-width="1" fill="none"/>
<text x="646.87" y="368" font-size="11" font-family="system-ui, -apple-system, BlinkMacSystemFont, 'Segoe UI', sans-serif" text-anchor="middle" dominant-baseline="hanging" fill="#333333">70</text>
<line x1="738.43" y1="360" x2="738.43" y2="365" stroke="#888888" stroke-width="1" fill="none"/>
<text x="738.43" y="368" font-size="11" font-family="system-ui, -apple-system, BlinkMacSystemFont, 'Segoe UI', sans-serif" text-anchor="middle" dominant-baseline="hanging" fill="#333333">80</text>
<line x1="830" y1="360" x2="830" y2="365" stroke="#888888" stroke-width="1" fill="none"/>
<text x="830" y="368" font-size="11" font-family="system-ui, -apple-system, BlinkMacSystemFont, 'Segoe UI', sans-serif" text-anchor="middle" dominant-baseline="hanging" fill="#333333">90</text>
<line x1="65" y1="310.61" x2="70" y2="310.61" stroke="#888888" stroke-width="1" fill="none"/>
<text x="62" y="310.61" font-size="11" font-family="system-ui, -apple-system, BlinkMacSystemFont, 'Segoe UI', sans-serif" text-anchor="end" dominant-baseline="middle" fill="#333333">50</text>
<line x1="65" y1="250.07" x2="70" y2="250.07" stroke="#888888" stroke-width="1" fill="none"/>
<text x="62" y="250.07" font-size="11" font-family="system-ui, -apple-system, BlinkMacSystemFont, 'Segoe UI', sans-serif" text-anchor="end" dominant-baseline="middle" fill="#333333">100</text>
<line x1="65" y1="189.54" x2="70" y2="189.54" stroke="#888888" stroke-width="1" fill="none"/>
<text x="62" y="189.54" font-size="11" font-family="system-ui, -apple-system, BlinkMacSystemFont, 'Segoe UI', sans-serif" text-anchor="end" dominant-baseline="middle" fill="#333333">150</text>
<line x1="65" y1="129.01" x2="70" y2="129.01" stroke="#888888" stroke-width="1" fill="none"/>
<text x="62" y="129.01" font-size="11" font-family="system-ui, -apple-system, BlinkMacSystemFont, 'Segoe UI', sans-serif" text-anchor="end" dominant-baseline="middle" fill="#333333">200</text>
<line x1="65" y1="68.47" x2="70" y2="68.47" stroke="#888888" stroke-width="1" fill="none"/>
<text x="62" y="68.47" font-size="11" font-family="system-ui, -apple-system, BlinkMacSystemFont, 'Segoe UI', sans-serif" text-anchor="end" dominant-baseline="middle" fill="#333333">250</text>
<text x="450" y="390" font-size="12" font-family="system-ui, -apple-system, BlinkMacSystemFont, 'Segoe UI', sans-serif" text-anchor="middle" dominant-baseline="hanging" fill="#333333">Days after dose</text>
<text x="22" y="202.5" transform="rotate(-90,22,202.5)" font-size="12" font-family="system-ui, -apple-system, BlinkMacSystemFont, 'Segoe UI', sans-serif" text-anchor="middle" dominant-baseline="middle" fill="#333333">Titre (AU/mL) ± σ</text>
<text x="450" y="30" font-size="16" font-family="system-ui, -apple-system, BlinkMacSystemFont, 'Segoe UI', sans-serif" font-weight="bold" text-anchor="middle" dominant-baseline="auto" fill="#1a1a1a">Antibody Response Post-Vaccination</text>
<rect x="704" y="55" width="116" height="64" rx="4" ry="4" stroke="#e5e5e5" stroke-width="0.8" fill="rgba(255,255,255,0.898)"/>
<line x1="714" y1="76" x2="734" y2="76" stroke="#4c72b0" stroke-width="2.5" fill="none" stroke-linecap="round"/>
<circle cx="724" cy="76" r="3" stroke="none" fill="#4c72b0"/>
<text x="738" y="76" font-size="12" font-family="system-ui, -apple-system, BlinkMacSystemFont, 'Segoe UI', sans-serif" text-anchor="start" dominant-baseline="middle" fill="#333333">mean titre</text>
<line x1="714" y1="98" x2="734" y2="98" stroke="#4c72b0" stroke-width="2.5" fill="none" stroke-linecap="round"/>
<circle cx="724" cy="98" r="3" stroke="none" fill="#4c72b0"/>
<text x="738" y="98" font-size="12" font-family="system-ui, -apple-system, BlinkMacSystemFont, 'Segoe UI', sans-serif" text-anchor="start" dominant-baseline="middle" fill="#333333">Series</text>
</svg>
