<svg xmlns="http://www.w3.org/2000/svg" width="860" height="420">
<defs>
<clipPath id="axes-clip-1"><rect x="70" y="45" width="760" height="315"/></clipPath>
<linearGradient id="linefill-0" x1="0" y1="202.51" x2="0" y2="202.51" gradientUnits="userSpaceOnUse">
  <stop offset="0" stop-color="#4c72b0" stop-opacity="0.35"/>
  <stop offset="1" stop-color="#4c72b0" stop-opacity="0.02"/>
</linearGradient>
<linearGradient id="linefill-1" x1="0" y1="59.32" x2="0" y2="202.51" gradientUnits="userSpaceOnUse">
  <stop offset="0" stop-color="#dd8452" stop-opacity="0.35"/>
  <stop offset="1" stop-color="#dd8452" stop-opacity="0.02"/>
</linearGradient>
</defs>
<rect x="0" y="0" width="860" height="420" stroke="none" fill="#ffffff"/>
<rect x="70" y="45" width="760" height="315" stroke="none" fill="#f7f7f7"/>
<g clip-path="url(#axes-clip-1)">
<line x1="70" y1="345.71" x2="830" y2="345.71" stroke="#e5e5e5" stroke-width="0.8" fill="none"/>
<line x1="70" y1="309.91" x2="830" y2="309.91" stroke="#e5e5e5" stroke-width="0.8" fill="none"/>
<line x1="70" y1="274.11" x2="830" y2="274.11" stroke="#e5e5e5" stroke-width="0.8" fill="none"/>
<line x1="70" y1="238.31" x2="830" y2="238.31" stroke="#e5e5e5" stroke-width="0.8" fill="none"/>
<line x1="70" y1="202.51" x2="830" y2="202.51" stroke="#e5e5e5" stroke-width="0.8" fill="none"/>
<line x1="70" y1="166.72" x2="830" y2="166.72" stroke="#e5e5e5" stroke-width="0.8" fill="none"/>
<line x1="70" y1="130.92" x2="830" y2="130.92" stroke="#e5e5e5" stroke-width="0.8" fill="none"/>
<line x1="70" y1="95.12" x2="830" y2="95.12" stroke="#e5e5e5" stroke-width="0.8" fill="none"/>
<line x1="70" y1="59.32" x2="830" y2="59.32" stroke="#e5e5e5" stroke-width="0.8" fill="none"/>
</g>
<g clip-path="url(#axes-clip-1)">
<line x1="70" y1="45" x2="70" y2="360" stroke="#e5e5e5" stroke-width="0.8" fill="none"/>
<line x1="190.96" y1="45" x2="190.96" y2="360" stroke="#e5e5e5" stroke-width="0.8" fill="none"/>
<line x1="311.92" y1="45" x2="311.92" y2="360" stroke="#e5e5e5" stroke-width="0.8" fill="none"/>
<line x1="432.87" y1="45" x2="432.87" y2="360" stroke="#e5e5e5" stroke-width="0.8" fill="none"/>
<line x1="553.83" y1="45" x2="553.83" y2="360" stroke="#e5e5e5" stroke-width="0.8" fill="none"/>
<line x1="674.79" y1="45" x2="674.79" y2="360" stroke="#e5e5e5" stroke-width="0.8" fill="none"/>
<line x1="795.75" y1="45" x2="795.75" y2="360" stroke="#e5e5e5" stroke-width="0.8" fill="none"/>
</g>
<g clip-path="url(#axes-clip-1)">
<path d="M70 202.51 C71.6 198.73 76.41 187.3 79.62 179.83 C82.83 172.37 86.03 164.9 89.24 157.72 C92.45 150.54 95.65 143.46 98.86 136.74 C102.07 130.03 105.27 123.51 108.48 117.43 C111.69 111.35 114.89 105.55 118.1 100.26 C121.31 94.96 124.51 90.04 127.72 85.67 C130.93 81.3 134.14 77.37 137.34 74.03 C140.55 70.69 143.76 67.86 146.96 65.64 C150.17 63.42 153.38 61.75 156.58 60.7 C159.79 59.65 163 59.2 166.2 59.35 C169.41 59.5 172.62 60.26 175.82 61.6 C179.03 62.95 182.24 64.91 185.44 67.42 C188.65 69.93 191.86 73.04 195.06 76.65 C198.27 80.25 201.48 84.44 204.68 89.05 C207.89 93.67 211.1 98.82 214.3 104.32 C217.51 109.83 220.72 115.82 223.92 122.07 C227.13 128.33 230.34 135 233.54 141.85 C236.75 148.7 239.96 155.9 243.16 163.17 C246.37 170.44 249.58 177.96 252.78 185.47 C255.99 192.98 259.2 200.65 262.41 208.21 C265.61 215.76 268.82 223.39 272.03 230.8 C275.23 238.21 278.44 245.6 281.65 252.68 C284.85 259.76 288.06 266.72 291.27 273.29 C294.47 279.86 297.68 286.22 300.89 292.11 C304.09 298.01 307.3 303.6 310.51 308.68 C313.71 313.75 316.92 318.43 320.13 322.56 C323.33 326.68 326.54 330.34 329.75 333.41 C332.95 336.47 336.16 339.02 339.37 340.95 C342.57 342.89 345.78 344.25 348.99 345 C352.19 345.75 355.4 345.91 358.61 345.46 C361.81 345 365.02 343.94 368.23 342.3 C371.43 340.66 374.64 338.4 377.85 335.61 C381.05 332.82 384.26 329.43 387.47 325.57 C390.68 321.7 393.88 317.26 397.09 312.41 C400.3 307.56 403.5 302.19 406.71 296.48 C409.92 290.78 413.12 284.6 416.33 278.18 C419.54 271.76 422.74 264.94 425.95 257.97 C429.16 251 432.36 243.7 435.57 236.36 C438.78 229.01 441.98 221.43 445.19 213.89 C448.4 206.35 451.6 198.67 454.81 191.14 C458.02 183.6 461.22 176.02 464.43 168.67 C467.64 161.32 470.84 154.03 474.05 147.06 C477.26 140.09 480.46 133.27 483.67 126.85 C486.88 120.43 490.08 114.25 493.29 108.55 C496.5 102.84 499.7 97.46 502.91 92.62 C506.12 87.77 509.32 83.33 512.53 79.46 C515.74 75.6 518.95 72.2 522.15 69.42 C525.36 66.63 528.57 64.37 531.77 62.73 C534.98 61.09 538.19 60.02 541.39 59.57 C544.6 59.12 547.81 59.27 551.01 60.03 C554.22 60.78 557.43 62.14 560.63 64.08 C563.84 66.01 567.05 68.55 570.25 71.62 C573.46 74.69 576.67 78.35 579.87 82.47 C583.08 86.59 586.29 91.28 589.49 96.35 C592.7 101.43 595.91 107.02 599.11 112.92 C602.32 118.81 605.53 125.17 608.73 131.74 C611.94 138.31 615.15 145.27 618.35 152.35 C621.56 159.43 624.77 166.82 627.97 174.23 C631.18 181.64 634.39 189.27 637.59 196.82 C640.8 204.38 644.01 212.05 647.22 219.56 C650.42 227.06 653.63 234.59 656.84 241.86 C660.04 249.13 663.25 256.33 666.46 263.17 C669.66 270.02 672.87 276.7 676.08 282.96 C679.28 289.21 682.49 295.2 685.7 300.7 C688.9 306.21 692.11 311.36 695.32 315.97 C698.52 320.59 701.73 324.77 704.94 328.38 C708.14 331.99 711.35 335.1 714.56 337.61 C717.76 340.11 720.97 342.08 724.18 343.42 C727.38 344.77 730.59 345.53 733.8 345.68 C737 345.83 740.21 345.37 743.42 344.33 C746.62 343.28 749.83 341.61 753.04 339.39 C756.24 337.17 759.45 334.33 762.66 331 C765.86 327.66 769.07 323.73 772.28 319.36 C775.49 314.99 778.69 310.06 781.9 304.77 C785.11 299.48 788.31 293.68 791.52 287.6 C794.73 281.52 797.93 275 801.14 268.28 C804.35 261.57 807.55 254.49 810.76 247.31 C813.97 240.12 817.17 232.66 820.38 225.2 C823.59 217.73 828.4 206.29 830 202.51 L830 202.51 L70 202.51 Z" stroke="none" fill="url(#linefill-0)"/>
<path d="M70 202.51 C71.6 198.73 76.41 187.3 79.62 179.83 C82.83 172.37 86.03 164.9 89.24 157.72 C92.45 150.54 95.65 143.46 98.86 136.74 C102.07 130.03 105.27 123.51 108.48 117.43 C111.69 111.35 114.89 105.55 118.1 100.26 C121.31 94.96 124.51 90.04 127.72 85.67 C130.93 81.3 134.14 77.37 137.34 74.03 C140.55 70.69 143.76 67.86 146.96 65.64 C150.17 63.42 153.38 61.75 156.58 60.7 C159.79 59.65 163 59.2 166.2 59.35 C169.41 59.5 172.62 60.26 175.82 61.6 C179.03 62.95 182.24 64.91 185.44 67.42 C188.65 69.93 191.86 73.04 195.06 76.65 C198.27 80.25 201.48 84.44 204.68 89.05 C207.89 93.67 211.1 98.82 214.3 104.32 C217.51 109.83 220.72 115.82 223.92 122.07 C227.13 128.33 230.34 135 233.54 141.85 C236.75 148.7 239.96 155.9 243.16 163.17 C246.37 170.44 249.58 177.96 252.78 185.47 C255.99 192.98 259.2 200.65 262.41 208.21 C265.61 215.76 268.82 223.39 272.03 230.8 C275.23 238.21 278.44 245.6 281.65 252.68 C284.85 259.76 288.06 266.72 291.27 273.29 C294.47 279.86 297.68 286.22 300.89 292.11 C304.09 298.01 307.3 303.6 310.51 308.68 C313.71 313.75 316.92 318.43 320.13 322.56 C323.33 326.68 326.54 330.34 329.75 333.41 C332.95 336.47 336.16 339.02 339.37 340.95 C342.57 342.89 345.78 344.25 348.99 345 C352.19 345.75 355.4 345.91 358.61 345.46 C361.81 345 365.02 343.94 368.23 342.3 C371.43 340.66 374.64 338.4 377.85 335.61 C381.05 332.82 384.26 329.43 387.47 325.57 C390.68 321.7 393.88 317.26 397.09 312.41 C400.3 307.56 403.5 302.19 406.71 296.48 C409.92 290.78 413.12 284.6 416.33 278.18 C419.54 271.76 422.74 264.94 425.95 257.97 C429.16 251 432.36 243.7 435.57 236.36 C438.78 229.01 441.98 221.43 445.19 213.89 C448.4 206.35 451.6 198.67 454.81 191.14 C458.02 183.6 461.22 176.02 464.43 168.67 C467.64 161.32 470.84 154.03 474.05 147.06 C477.26 140.09 480.46 133.27 483.67 126.85 C486.88 120.43 490.08 114.25 493.29 108.55 C496.5 102.84 499.7 97.46 502.91 92.62 C506.12 87.77 509.32 83.33 512.53 79.46 C515.74 75.6 518.95 72.2 522.15 69.42 C525.36 66.63 528.57 64.37 531.77 62.73 C534.98 61.09 538.19 60.02 541.39 59.57 C544.6 59.12 547.81 59.27 551.01 60.03 C554.22 60.78 557.43 62.14 560.63 64.08 C563.84 66.01 567.05 68.55 570.25 71.62 C573.46 74.69 576.67 78.35 579.87 82.47 C583.08 86.59 586.29 91.28 589.49 96.35 C592.7 101.43 595.91 107.02 599.11 112.92 C602.32 118.81 605.53 125.17 608.73 131.74 C611.94 138.31 615.15 145.27 618.35 152.35 C621.56 159.43 624.77 166.82 627.97 174.23 C631.18 181.64 634.39 189.27 637.59 196.82 C640.8 204.38 644.01 212.05 647.22 219.56 C650.42 227.06 653.63 234.59 656.84 241.86 C660.04 249.13 663.25 256.33 666.46 263.17 C669.66 270.02 672.87 276.7 676.08 282.96 C679.28 289.21 682.49 295.2 685.7 300.7 C688.9 306.21 692.11 311.36 695.32 315.97 C698.52 320.59 701.73 324.77 704.94 328.38 C708.14 331.99 711.35 335.1 714.56 337.61 C717.76 340.11 720.97 342.08 724.18 343.42 C727.38 344.77 730.59 345.53 733.8 345.68 C737 345.83 740.21 345.37 743.42 344.33 C746.62 343.28 749.83 341.61 753.04 339.39 C756.24 337.17 759.45 334.33 762.66 331 C765.86 327.66 769.07 323.73 772.28 319.36 C775.49 314.99 778.69 310.06 781.9 304.77 C785.11 299.48 788.31 293.68 791.52 287.6 C794.73 281.52 797.93 275 801.14 268.28 C804.35 261.57 807.55 254.49 810.76 247.31 C813.97 240.12 817.17 232.66 820.38 225.2 C823.59 217.73 828.4 206.29 830 202.51" stroke="#4c72b0" stroke-width="2.5" fill="none" stroke-linecap="round" stroke-linejoin="round"/>
<circle cx="70" cy="202.51" r="5" stroke="#ffffff" stroke-width="1" fill="#4c72b0"/>
<circle cx="79.62" cy="179.83" r="5" stroke="#ffffff" stroke-width="1" fill="#4c72b0"/>
<circle cx="89.24" cy="157.72" r="5" stroke="#ffffff" stroke-width="1" fill="#4c72b0"/>
<circle cx="98.86" cy="136.74" r="5" stroke="#ffffff" stroke-width="1" fill="#4c72b0"/>
<circle cx="108.48" cy="117.43" r="5" stroke="#ffffff" stroke-width="1" fill="#4c72b0"/>
<circle cx="118.1" cy="100.26" r="5" stroke="#ffffff" stroke-width="1" fill="#4c72b0"/>
<circle cx="127.72" cy="85.67" r="5" stroke="#ffffff" stroke-width="1" fill="#4c72b0"/>
<circle cx="137.34" cy="74.03" r="5" stroke="#ffffff" stroke-width="1" fill="#4c72b0"/>
<circle cx="146.96" cy="65.64" r="5" stroke="#ffffff" stroke-width="1" fill="#4c72b0"/>
<circle cx="156.58" cy="60.7" r="5" stroke="#ffffff" stroke-width="1" fill="#4c72b0"/>
<circle cx="166.2" cy="59.35" r="5" stroke="#ffffff" stroke-width="1" fill="#4c72b0"/>
<circle cx="175.82" cy="61.6" r="5" stroke="#ffffff" stroke-width="1" fill="#4c72b0"/>
<circle cx="185.44" cy="67.42" r="5" stroke="#ffffff" stroke-width="1" fill="#4c72b0"/>
<circle cx="195.06" cy="76.65" r="5" stroke="#ffffff" stroke-width="1" fill="#4c72b0"/>
<circle cx="204.68" cy="89.05" r="5" stroke="#ffffff" stroke-width="1" fill="#4c72b0"/>
<circle cx="214.3" cy="104.32" r="5" stroke="#ffffff" stroke-width="1" fill="#4c72b0"/>
<circle cx="223.92" cy="122.07" r="5" stroke="#ffffff" stroke-width="1" fill="#4c72b0"/>
<circle cx="233.54" cy="141.85" r="5" stroke="#ffffff" stroke-width="1" fill="#4c72b0"/>
<circle cx="243.16" cy="163.17" r="5" stroke="#ffffff" stroke-width="1" fill="#4c72b0"/>
<circle cx="252.78" cy="185.47" r="5" stroke="#ffffff" stroke-width="1" fill="#4c72b0"/>
<circle cx="262.41" cy="208.21" r="5" stroke="#ffffff" stroke-width="1" fill="#4c72b0"/>
<circle cx="272.03" cy="230.8" r="5" stroke="#ffffff" stroke-width="1" fill="#4c72b0"/>
<circle cx="281.65" cy="252.68" r="5" stroke="#ffffff" stroke-width="1" fill="#4c72b0"/>
<circle cx="291.27" cy="273.29" r="5" stroke="#ffffff" stroke-width="1" fill="#4c72b0"/>
<circle cx="300.89" cy="292.11" r="5" stroke="#ffffff" stroke-width="1" fill="#4c72b0"/>
<circle cx="310.51" cy="308.68" r="5" stroke="#ffffff" stroke-width="1" fill="#4c72b0"/>
<circle cx="320.13" cy="322.56" r="5" stroke="#ffffff" stroke-width="1" fill="#4c72b0"/>
<circle cx="329.75" cy="333.41" r="5" stroke="#ffffff" stroke-width="1" fill="#4c72b0"/>
<circle cx="339.37" cy="340.95" r="5" stroke="#ffffff" stroke-width="1" fill="#4c72b0"/>
<circle cx="348.99" cy="345" r="5" stroke="#ffffff" stroke-width="1" fill="#4c72b0"/>
<circle cx="358.61" cy="345.46" r="5" stroke="#ffffff" stroke-width="1" fill="#4c72b0"/>
<circle cx="368.23" cy="342.3" r="5" stroke="#ffffff" stroke-width="1" fill="#4c72b0"/>
<circle cx="377.85" cy="335.61" r="5" stroke="#ffffff" stroke-width="1" fill="#4c72b0"/>
<circle cx="387.47" cy="325.57" r="5" stroke="#ffffff" stroke-width="1" fill="#4c72b0"/>
<circle cx="397.09" cy="312.41" r="5" stroke="#ffffff" stroke-width="1" fill="#4c72b0"/>
<circle cx="406.71" cy="296.48" r="5" stroke="#ffffff" stroke-width="1" fill="#4c72b0"/>
<circle cx="416.33" cy="278.18" r="5" stroke="#ffffff" stroke-width="1" fill="#4c72b0"/>
<circle cx="425.95" cy="257.97" r="5" stroke="#ffffff" stroke-width="1" fill="#4c72b0"/>
<circle cx="435.57" cy="236.36" r="5" stroke="#ffffff" stroke-width="1" fill="#4c72b0"/>
<circle cx="445.19" cy="213.89" r="5" stroke="#ffffff" stroke-width="1" fill="#4c72b0"/>
<circle cx="454.81" cy="191.14" r="5" stroke="#ffffff" stroke-width="1" fill="#4c72b0"/>
<circle cx="464.43" cy="168.67" r="5" stroke="#ffffff" stroke-width="1" fill="#4c72b0"/>
<circle cx="474.05" cy="147.06" r="5" stroke="#ffffff" stroke-width="1" fill="#4c72b0"/>
<circle cx="483.67" cy="126.85" r="5" stroke="#ffffff" stroke-width="1" fill="#4c72b0"/>
<circle cx="493.29" cy="108.55" r="5" stroke="#ffffff" stroke-width="1" fill="#4c72b0"/>
<circle cx="502.91" cy="92.62" r="5" stroke="#ffffff" stroke-width="1" fill="#4c72b0"/>
<circle cx="512.53" cy="79.46" r="5" stroke="#ffffff" stroke-width="1" fill="#4c72b0"/>
<circle cx="522.15" cy="69.42" r="5" stroke="#ffffff" stroke-width="1" fill="#4c72b0"/>
<circle cx="531.77" cy="62.73" r="5" stroke="#ffffff" stroke-width="1" fill="#4c72b0"/>
<circle cx="541.39" cy="59.57" r="5" stroke="#ffffff" stroke-width="1" fill="#4c72b0"/>
<circle cx="551.01" cy="60.03" r="5" stroke="#ffffff" stroke-width="1" fill="#4c72b0"/>
<circle cx="560.63" cy="64.08" r="5" stroke="#ffffff" stroke-width="1" fill="#4c72b0"/>
<circle cx="570.25" cy="71.62" r="5" stroke="#ffffff" stroke-width="1" fill="#4c72b0"/>
<circle cx="579.87" cy="82.47" r="5" stroke="#ffffff" stroke-width="1" fill="#4c72b0"/>
<circle cx="589.49" cy="96.35" r="5" stroke="#ffffff" stroke-width="1" fill="#4c72b0"/>
<circle cx="599.11" cy="112.92" r="5" stroke="#ffffff" stroke-width="1" fill="#4c72b0"/>
<circle cx="608.73" cy="131.74" r="5" stroke="#ffffff" stroke-width="1" fill="#4c72b0"/>
<circle cx="618.35" cy="152.35" r="5" stroke="#ffffff" stroke-width="1" fill="#4c72b0"/>
<circle cx="627.97" cy="174.23" r="5" stroke="#ffffff" stroke-width="1" fill="#4c72b0"/>
<circle cx="637.59" cy="196.82" r="5" stroke="#ffffff" stroke-width="1" fill="#4c72b0"/>
<circle cx="647.22" cy="219.56" r="5" stroke="#ffffff" stroke-width="1" fill="#4c72b0"/>
<circle cx="656.84" cy="241.86" r="5" stroke="#ffffff" stroke-width="1" fill="#4c72b0"/>
<circle cx="666.46" cy="263.17" r="5" stroke="#ffffff" stroke-width="1" fill="#4c72b0"/>
<circle cx="676.08" cy="282.96" r="5" stroke="#ffffff" stroke-width="1" fill="#4c72b0"/>
<circle cx="685.7" cy="300.7" r="5" stroke="#ffffff" stroke-width="1" fill="#4c72b0"/>
<circle cx="695.32" cy="315.97" r="5" stroke="#ffffff" stroke-width="1" fill="#4c72b0"/>
<circle cx="704.94" cy="328.38" r="5" stroke="#ffffff" stroke-width="1" fill="#4c72b0"/>
<circle cx="714.56" cy="337.61" r="5" stroke="#ffffff" stroke-width="1" fill="#4c72b0"/>
<circle cx="724.18" cy="343.42" r="5" stroke="#ffffff" stroke-width="1" fill="#4c72b0"/>
<circle cx="733.8" cy="345.68" r="5" stroke="#ffffff" stroke-width="1" fill="#4c72b0"/>
<circle cx="743.42" cy="344.33" r="5" stroke="#ffffff" stroke-width="1" fill="#4c72b0"/>
<circle cx="753.04" cy="339.39" r="5" stroke="#ffffff" stroke-width="1" fill="#4c72b0"/>
<circle cx="762.66" cy="331" r="5" stroke="#ffffff" stroke-width="1" fill="#4c72b0"/>
<circle cx="772.28" cy="319.36" r="5" stroke="#ffffff" stroke-width="1" fill="#4c72b0"/>
<circle cx="781.9" cy="304.77" r="5" stroke="#ffffff" stroke-width="1" fill="#4c72b0"/>
<circle cx="791.52" cy="287.6" r="5" stroke="#ffffff" stroke-width="1" fill="#4c72b0"/>
<circle cx="801.14" cy="268.28" r="5" stroke="#ffffff" stroke-width="1" fill="#4c72b0"/>
<circle cx="810.76" cy="247.31" r="5" stroke="#ffffff" stroke-width="1" fill="#4c72b0"/>
<circle cx="820.38" cy="225.2" r="5" stroke="#ffffff" stroke-width="1" fill="#4c72b0"/>
<circle cx="830" cy="202.51" r="5" stroke="#ffffff" stroke-width="1" fill="#4c72b0"/>
<path d="M70 59.32 C71.6 59.62 76.41 59.93 79.62 61.13 C82.83 62.32 86.03 64.14 89.24 66.5 C92.45 68.87 95.65 71.84 98.86 75.32 C102.07 78.79 105.27 82.85 108.48 87.34 C111.69 91.83 114.89 96.87 118.1 102.27 C121.31 107.67 124.51 113.56 127.72 119.73 C130.93 125.9 134.14 132.5 137.34 139.29 C140.55 146.07 143.76 153.21 146.96 160.44 C150.17 167.66 153.38 175.16 156.58 182.65 C159.79 190.14 163 197.8 166.2 205.36 C169.41 212.92 172.62 220.56 175.82 228 C179.03 235.44 182.24 242.87 185.44 250 C188.65 257.13 191.86 264.15 195.06 270.8 C198.27 277.45 201.48 283.88 204.68 289.87 C207.89 295.87 211.1 301.56 214.3 306.74 C217.51 311.93 220.72 316.73 223.92 320.98 C227.13 325.23 230.34 329.02 233.54 332.23 C236.75 335.43 239.96 338.12 243.16 340.2 C246.37 342.28 249.58 343.79 252.78 344.69 C255.99 345.59 259.2 345.9 262.41 345.6 C265.61 345.3 268.82 344.38 272.03 342.89 C275.23 341.4 278.44 339.28 281.65 336.64 C284.85 333.99 288.06 330.73 291.27 327 C294.47 323.26 297.68 318.95 300.89 314.22 C304.09 309.48 307.3 304.22 310.51 298.61 C313.71 293.01 316.92 286.92 320.13 280.58 C323.33 274.25 326.54 267.49 329.75 260.58 C332.95 253.67 336.16 246.43 339.37 239.12 C342.57 231.81 345.78 224.25 348.99 216.73 C352.19 209.2 355.4 201.52 358.61 193.98 C361.81 186.43 365.02 178.82 368.23 171.44 C371.43 164.06 374.64 156.72 377.85 149.69 C381.05 142.67 384.26 135.78 387.47 129.28 C390.68 122.78 393.88 116.51 397.09 110.71 C400.3 104.91 403.5 99.43 406.71 94.46 C409.92 89.5 413.12 84.94 416.33 80.94 C419.54 76.95 422.74 73.42 425.95 70.49 C429.16 67.56 432.36 65.16 435.57 63.38 C438.78 61.59 441.98 60.37 445.19 59.77 C448.4 59.17 451.6 59.17 454.81 59.77 C458.02 60.37 461.22 61.59 464.43 63.38 C467.64 65.16 470.84 67.56 474.05 70.49 C477.26 73.42 480.46 76.95 483.67 80.94 C486.88 84.94 490.08 89.5 493.29 94.46 C496.5 99.43 499.7 104.91 502.91 110.71 C506.12 116.51 509.32 122.78 512.53 129.28 C515.74 135.78 518.95 142.67 522.15 149.69 C525.36 156.72 528.57 164.06 531.77 171.44 C534.98 178.82 538.19 186.43 541.39 193.98 C544.6 201.52 547.81 209.2 551.01 216.73 C554.22 224.25 557.43 231.81 560.63 239.12 C563.84 246.43 567.05 253.67 570.25 260.58 C573.46 267.49 576.67 274.25 579.87 280.58 C583.08 286.92 586.29 293.01 589.49 298.61 C592.7 304.22 595.91 309.48 599.11 314.22 C602.32 318.95 605.53 323.26 608.73 327 C611.94 330.73 615.15 333.99 618.35 336.64 C621.56 339.28 624.77 341.4 627.97 342.89 C631.18 344.38 634.39 345.3 637.59 345.6 C640.8 345.9 644.01 345.59 647.22 344.69 C650.42 343.79 653.63 342.28 656.84 340.2 C660.04 338.12 663.25 335.43 666.46 332.23 C669.66 329.02 672.87 325.23 676.08 320.98 C679.28 316.73 682.49 311.93 685.7 306.74 C688.9 301.56 692.11 295.87 695.32 289.87 C698.52 283.88 701.73 277.45 704.94 270.8 C708.14 264.15 711.35 257.13 714.56 250 C717.76 242.87 720.97 235.44 724.18 228 C727.38 220.56 730.59 212.92 733.8 205.36 C737 197.8 740.21 190.14 743.42 182.65 C746.62 175.16 749.83 167.66 753.04 160.44 C756.24 153.21 759.45 146.07 762.66 139.29 C765.86 132.5 769.07 125.9 772.28 119.73 C775.49 113.56 778.69 107.67 781.9 102.27 C785.11 96.87 788.31 91.83 791.52 87.34 C794.73 82.85 797.93 78.79 801.14 75.32 C804.35 71.84 807.55 68.87 810.76 66.5 C813.97 64.14 817.17 62.32 820.38 61.13 C823.59 59.93 828.4 59.62 830 59.32 L830 202.51 L70 202.51 Z" stroke="none" fill="url(#linefill-1)"/>
<path d="M70 59.32 C71.6 59.62 76.41 59.93 79.62 61.13 C82.83 62.32 86.03 64.14 89.24 66.5 C92.45 68.87 95.65 71.84 98.86 75.32 C102.07 78.79 105.27 82.85 108.48 87.34 C111.69 91.83 114.89 96.87 118.1 102.27 C121.31 107.67 124.51 113.56 127.72 119.73 C130.93 125.9 134.14 132.5 137.34 139.29 C140.55 146.07 143.76 153.21 146.96 160.44 C150.17 167.66 153.38 175.16 156.58 182.65 C159.79 190.14 163 197.8 166.2 205.36 C169.41 212.92 172.62 220.56 175.82 228 C179.03 235.44 182.24 242.87 185.44 250 C188.65 257.13 191.86 264.15 195.06 270.8 C198.27 277.45 201.48 283.88 204.68 289.87 C207.89 295.87 211.1 301.56 214.3 306.74 C217.51 311.93 220.72 316.73 223.92 320.98 C227.13 325.23 230.34 329.02 233.54 332.23 C236.75 335.43 239.96 338.12 243.16 340.2 C246.37 342.28 249.58 343.79 252.78 344.69 C255.99 345.59 259.2 345.9 262.41 345.6 C265.61 345.3 268.82 344.38 272.03 342.89 C275.23 341.4 278.44 339.28 281.65 336.64 C284.85 333.99 288.06 330.73 291.27 327 C294.47 323.26 297.68 318.95 300.89 314.22 C304.09 309.48 307.3 304.22 310.51 298.61 C313.71 293.01 316.92 286.92 320.13 280.58 C323.33 274.25 326.54 267.49 329.75 260.58 C332.95 253.67 336.16 246.43 339.37 239.12 C342.57 231.81 345.78 224.25 348.99 216.73 C352.19 209.2 355.4 201.52 358.61 193.98 C361.81 186.43 365.02 178.82 368.23 171.44 C371.43 164.06 374.64 156.72 377.85 149.69 C381.05 142.67 384.26 135.78 387.47 129.28 C390.68 122.78 393.88 116.51 397.09 110.71 C400.3 104.91 403.5 99.43 406.71 94.46 C409.92 89.5 413.12 84.94 416.33 80.94 C419.54 76.95 422.74 73.42 425.95 70.49 C429.16 67.56 432.36 65.16 435.57 63.38 C438.78 61.59 441.98 60.37 445.19 59.77 C448.4 59.17 451.6 59.17 454.81 59.77 C458.02 60.37 461.22 61.59 464.43 63.38 C467.64 65.16 470.84 67.56 474.05 70.49 C477.26 73.42 480.46 76.95 483.67 80.94 C486.88 84.94 490.08 89.5 493.29 94.46 C496.5 99.43 499.7 104.91 502.91 110.71 C506.12 116.51 509.32 122.78 512.53 129.28 C515.74 135.78 518.95 142.67 522.15 149.69 C525.36 156.72 528.57 164.06 531.77 171.44 C534.98 178.82 538.19 186.43 541.39 193.98 C544.6 201.52 547.81 209.2 551.01 216.73 C554.22 224.25 557.43 231.81 560.63 239.12 C563.84 246.43 567.05 253.67 570.25 260.58 C573.46 267.49 576.67 274.25 579.87 280.58 C583.08 286.92 586.29 293.01 589.49 298.61 C592.7 304.22 595.91 309.48 599.11 314.22 C602.32 318.95 605.53 323.26 608.73 327 C611.94 330.73 615.15 333.99 618.35 336.64 C621.56 339.28 624.77 341.4 627.97 342.89 C631.18 344.38 634.39 345.3 637.59 345.6 C640.8 345.9 644.01 345.59 647.22 344.69 C650.42 343.79 653.63 342.28 656.84 340.2 C660.04 338.12 663.25 335.43 666.46 332.23 C669.66 329.02 672.87 325.23 676.08 320.98 C679.28 316.73 682.49 311.93 685.7 306.74 C688.9 301.56 692.11 295.87 695.32 289.87 C698.52 283.88 701.73 277.45 704.94 270.8 C708.14 264.15 711.35 257.13 714.56 250 C717.76 242.87 720.97 235.44 724.18 228 C727.38 220.56 730.59 212.92 733.8 205.36 C737 197.8 740.21 190.14 743.42 182.65 C746.62 175.16 749.83 167.66 753.04 160.44 C756.24 153.21 759.45 146.07 762.66 139.29 C765.86 132.5 769.07 125.9 772.28 119.73 C775.49 113.56 778.69 107.67 781.9 102.27 C785.11 96.87 788.31 91.83 791.52 87.34 C794.73 82.85 797.93 78.79 801.14 75.32 C804.35 71.84 807.55 68.87 810.76 66.5 C813.97 64.14 817.17 62.32 820.38 61.13 C823.59 59.93 828.4 59.62 830 59.32" stroke="#dd8452" stroke-width="2.5" fill="none" stroke-linecap="round" stroke-linejoin="round"/>
<circle cx="70" cy="59.32" r="5" stroke="#ffffff" stroke-width="1" fill="#dd8452"/>
<circle cx="79.62" cy="61.13" r="5" stroke="#ffffff" stroke-width="1" fill="#dd8452"/>
<circle cx="89.24" cy="66.5" r="5" stroke="#ffffff" stroke-width="1" fill="#dd8452"/>
<circle cx="98.86" cy="75.32" r="5" stroke="#ffffff" stroke-width="1" fill="#dd8452"/>
<circle cx="108.48" cy="87.34" r="5" stroke="#ffffff" stroke-width="1" fill="#dd8452"/>
<circle cx="118.1" cy="102.27" r="5" stroke="#ffffff" stroke-width="1" fill="#dd8452"/>
<circle cx="127.72" cy="119.73" r="5" stroke="#ffffff" stroke-width="1" fill="#dd8452"/>
<circle cx="137.34" cy="139.29" r="5" stroke="#ffffff" stroke-width="1" fill="#dd8452"/>
<circle cx="146.96" cy="160.44" r="5" stroke="#ffffff" stroke-width="1" fill="#dd8452"/>
<circle cx="156.58" cy="182.65" r="5" stroke="#ffffff" stroke-width="1" fill="#dd8452"/>
<circle cx="166.2" cy="205.36" r="5" stroke="#ffffff" stroke-width="1" fill="#dd8452"/>
<circle cx="175.82" cy="228" r="5" stroke="#ffffff" stroke-width="1" fill="#dd8452"/>
<circle cx="185.44" cy="250" r="5" stroke="#ffffff" stroke-width="1" fill="#dd8452"/>
<circle cx="195.06" cy="270.8" r="5" stroke="#ffffff" stroke-width="1" fill="#dd8452"/>
<circle cx="204.68" cy="289.87" r="5" stroke="#ffffff" stroke-width="1" fill="#dd8452"/>
<circle cx="214.3" cy="306.74" r="5" stroke="#ffffff" stroke-width="1" fill="#dd8452"/>
<circle cx="223.92" cy="320.98" r="5" stroke="#ffffff" stroke-width="1" fill="#dd8452"/>
<circle cx="233.54" cy="332.23" r="5" stroke="#ffffff" stroke-width="1" fill="#dd8452"/>
<circle cx="243.16" cy="340.2" r="5" stroke="#ffffff" stroke-width="1" fill="#dd8452"/>
<circle cx="252.78" cy="344.69" r="5" stroke="#ffffff" stroke-width="1" fill="#dd8452"/>
<circle cx="262.41" cy="345.6" r="5" stroke="#ffffff" stroke-width="1" fill="#dd8452"/>
<circle cx="272.03" cy="342.89" r="5" stroke="#ffffff" stroke-width="1" fill="#dd8452"/>
<circle cx="281.65" cy="336.64" r="5" stroke="#ffffff" stroke-width="1" fill="#dd8452"/>
<circle cx="291.27" cy="327" r="5" stroke="#ffffff" stroke-width="1" fill="#dd8452"/>
<circle cx="300.89" cy="314.22" r="5" stroke="#ffffff" stroke-width="1" fill="#dd8452"/>
<circle cx="310.51" cy="298.61" r="5" stroke="#ffffff" stroke-width="1" fill="#dd8452"/>
<circle cx="320.13" cy="280.58" r="5" stroke="#ffffff" stroke-width="1" fill="#dd8452"/>
<circle cx="329.75" cy="260.58" r="5" stroke="#ffffff" stroke-width="1" fill="#dd8452"/>
<circle cx="339.37" cy="239.12" r="5" stroke="#ffffff" stroke-width="1" fill="#dd8452"/>
<circle cx="348.99" cy="216.73" r="5" stroke="#ffffff" stroke-width="1" fill="#dd8452"/>
<circle cx="358.61" cy="193.98" r="5" stroke="#ffffff" stroke-width="1" fill="#dd8452"/>
<circle cx="368.23" cy="171.44" r="5" stroke="#ffffff" stroke-width="1" fill="#dd8452"/>
<circle cx="377.85" cy="149.69" r="5" stroke="#ffffff" stroke-width="1" fill="#dd8452"/>
<circle cx="387.47" cy="129.28" r="5" stroke="#ffffff" stroke-width="1" fill="#dd8452"/>
<circle cx="397.09" cy="110.71" r="5" stroke="#ffffff" stroke-width="1" fill="#dd8452"/>
<circle cx="406.71" cy="94.46" r="5" stroke="#ffffff" stroke-width="1" fill="#dd8452"/>
<circle cx="416.33" cy="80.94" r="5" stroke="#ffffff" stroke-width="1" fill="#dd8452"/>
<circle cx="425.95" cy="70.49" r="5" stroke="#ffffff" stroke-width="1" fill="#dd8452"/>
<circle cx="435.57" cy="63.38" r="5" stroke="#ffffff" stroke-width="1" fill="#dd8452"/>
<circle cx="445.19" cy="59.77" r="5" stroke="#ffffff" stroke-width="1" fill="#dd8452"/>
<circle cx="454.81" cy="59.77" r="5" stroke="#ffffff" stroke-width="1" fill="#dd8452"/>
<circle cx="464.43" cy="63.38" r="5" stroke="#ffffff" stroke-width="1" fill="#dd8452"/>
<circle cx="474.05" cy="70.49" r="5" stroke="#ffffff" stroke-width="1" fill="#dd8452"/>
<circle cx="483.67" cy="80.94" r="5" stroke="#ffffff" stroke-width="1" fill="#dd8452"/>
<circle cx="493.29" cy="94.46" r="5" stroke="#ffffff" stroke-width="1" fill="#dd8452"/>
<circle cx="502.91" cy="110.71" r="5" stroke="#ffffff" stroke-width="1" fill="#dd8452"/>
<circle cx="512.53" cy="129.28" r="5" stroke="#ffffff" stroke-width="1" fill="#dd8452"/>
<circle cx="522.15" cy="149.69" r="5" stroke="#ffffff" stroke-width="1" fill="#dd8452"/>
<circle cx="531.77" cy="171.44" r="5" stroke="#ffffff" stroke-width="1" fill="#dd8452"/>
<circle cx="541.39" cy="193.98" r="5" stroke="#ffffff" stroke-width="1" fill="#dd8452"/>
<circle cx="551.01" cy="216.73" r="5" stroke="#ffffff" stroke-width="1" fill="#dd8452"/>
<circle cx="560.63" cy="239.12" r="5" stroke="#ffffff" stroke-width="1" fill="#dd8452"/>
<circle cx="570.25" cy="260.58" r="5" stroke="#ffffff" stroke-width="1" fill="#dd8452"/>
<circle cx="579.87" cy="280.58" r="5" stroke="#ffffff" stroke-width="1" fill="#dd8452"/>
<circle cx="589.49" cy="298.61" r="5" stroke="#ffffff" stroke-width="1" fill="#dd8452"/>
<circle cx="599.11" cy="314.22" r="5" stroke="#ffffff" stroke-width="1" fill="#dd8452"/>
<circle cx="608.73" cy="327" r="5" stroke="#ffffff" stroke-width="1" fill="#dd8452"/>
<circle cx="618.35" cy="336.64" r="5" stroke="#ffffff" stroke-width="1" fill="#dd8452"/>
<circle cx="627.97" cy="342.89" r="5" stroke="#ffffff" stroke-width="1" fill="#dd8452"/>
<circle cx="637.59" cy="345.6" r="5" stroke="#ffffff" stroke-width="1" fill="#dd8452"/>
<circle cx="647.22" cy="344.69" r="5" stroke="#ffffff" stroke-width="1" fill="#dd8452"/>
<circle cx="656.84" cy="340.2" r="5" stroke="#ffffff" stroke-width="1" fill="#dd8452"/>
<circle cx="666.46" cy="332.23" r="5" stroke="#ffffff" stroke-width="1" fill="#dd8452"/>
<circle cx="676.08" cy="320.98" r="5" stroke="#ffffff" stroke-width="1" fill="#dd8452"/>
<circle cx="685.7" cy="306.74" r="5" stroke="#ffffff" stroke-width="1" fill="#dd8452"/>
<circle cx="695.32" cy="289.87" r="5" stroke="#ffffff" stroke-width="1" fill="#dd8452"/>
<circle cx="704.94" cy="270.8" r="5" stroke="#ffffff" stroke-width="1" fill="#dd8452"/>
<circle cx="714.56" cy="250" r="5" stroke="#ffffff" stroke-width="1" fill="#dd8452"/>
<circle cx="724.18" cy="228" r="5" stroke="#ffffff" stroke-width="1" fill="#dd8452"/>
<circle cx="733.8" cy="205.36" r="5" stroke="#ffffff" stroke-width="1" fill="#dd8452"/>
<circle cx="743.42" cy="182.65" r="5" stroke="#ffffff" stroke-width="1" fill="#dd8452"/>
<circle cx="753.04" cy="160.44" r="5" stroke="#ffffff" stroke-width="1" fill="#dd8452"/>
<circle cx="762.66" cy="139.29" r="5" stroke="#ffffff" stroke-width="1" fill="#dd8452"/>
<circle cx="772.28" cy="119.73" r="5" stroke="#ffffff" stroke-width="1" fill="#dd8452"/>
<circle cx="781.9" cy="102.27" r="5" stroke="#ffffff" stroke-width="1" fill="#dd8452"/>
<circle cx="791.52" cy="87.34" r="5" stroke="#ffffff" stroke-width="1" fill="#dd8452"/>
<circle cx="801.14" cy="75.32" r="5" stroke="#ffffff" stroke-width="1" fill="#dd8452"/>
<circle cx="810.76" cy="66.5" r="5" stroke="#ffffff" stroke-width="1" fill="#dd8452"/>
<circle cx="820.38" cy="61.13" r="5" stroke="#ffffff" stroke-width="1" fill="#dd8452"/>
<circle cx="830" cy="59.32" r="5" stroke="#ffffff" stroke-width="1" fill="#dd8452"/>
</g>
<line x1="70" y1="360" x2="830" y2="360" stroke="#888888" stroke-width="1.2" fill="none"/>
<line x1="70" y1="45" x2="70" y2="360" stroke="#888888" stroke-width="1.2" fill="none"/>
<line x1="70" y1="360" x2="70" y2="365" stroke="#888888" stroke-width="1" fill="none"/>
<text x="70" y="368" font-size="11" font-family="system-ui, -apple-system, BlinkMacSystemFont, 'Segoe UI', sans-serif" text-anchor="middle" dominant-baseline="hanging" fill="#333333">0</text>
<line x1="190.96" y1="360" x2="190.96" y2="365" stroke="#888888" stroke-width="1" fill="none"/>
<text x="190.96" y="368" font-size="11" font-family="system-ui, -apple-system, BlinkMacSystemFont, 'Segoe UI', sans-serif" text-anchor="middle" dominant-baseline="hanging" fill="#333333">2</text>
<line x1="311.92" y1="360" x2="311.92" y2="365" stroke="#888888" stroke-width="1" fill="none"/>
<text x="311.92" y="368" font-size="11" font-family="system-ui, -apple-system, BlinkMacSystemFont, 'Segoe UI', sans-serif" text-anchor="middle" dominant-baseline="hanging" fill="#333333">4</text>
<line x1="432.87" y1="360" x2="432.87" y2="365" stroke="#888888" stroke-width="1" fill="none"/>
<text x="432.87" y="368" font-size="11" font-family="system-ui, -apple-system, BlinkMacSystemFont, 'Segoe UI', sans-serif" text-anchor="middle" dominant-baseline="hanging" fill="#333333">6</text>
<line x1="553.83" y1="360" x2="553.83" y2="365" stroke="#888888" stroke-width="1" fill="none"/>
<text x="553.83" y="368" font-size="11" font-family="system-ui, -apple-system, BlinkMacSystemFont, 'Segoe UI', sans-serif" text-anchor="middle" dominant-baseline="hanging" fill="#333333">8</text>
<line x1="674.79" y1="360" x2="674.79" y2="365" stroke="#888888" stroke-width="1" fill="none"/>
<text x="674.79" y="368" font-size="11" font-family="system-ui, -apple-system, BlinkMacSystemFont, 'Segoe UI', sans-serif" text-anchor="middle" dominant-baseline="hanging" fill="#333333">10</text>
<line x1="795.75" y1="360" x2="795.75" y2="365" stroke="#888888" stroke-width="1" fill="none"/>
<text x="795.75" y="368" font-size="11" font-family="system-ui, -apple-system, BlinkMacSystemFont, 'Segoe UI', sans-serif" text-anchor="middle" dominant-baseline="hanging" fill="#333333">12</text>
<line x1="65" y1="345.71" x2="70" y2="345.71" stroke="#888888" stroke-width="1" fill="none"/>
<text x="62" y="345.71" font-size="11" font-family="system-ui, -apple-system, BlinkMacSystemFont, 'Segoe UI', sans-serif" text-anchor="end" dominant-baseline="middle" fill="#333333">-1.0</text>
<line x1="65" y1="309.91" x2="70" y2="309.91" stroke="#888888" stroke-width="1" fill="none"/>
<text x="62" y="309.91" font-size="11" font-family="system-ui, -apple-system, BlinkMacSystemFont, 'Segoe UI', sans-serif" text-anchor="end" dominant-baseline="middle" fill="#333333">-0.8</text>
<line x1="65" y1="274.11" x2="70" y2="274.11" stroke="#888888" stroke-width="1" fill="none"/>
<text x="62" y="274.11" font-size="11" font-family="system-ui, -apple-system, BlinkMacSystemFont, 'Segoe UI', sans-serif" text-anchor="end" dominant-baseline="middle" fill="#333333">-0.5</text>
<line x1="65" y1="238.31" x2="70" y2="238.31" stroke="#888888" stroke-width="1" fill="none"/>
<text x="62" y="238.31" font-size="11" font-family="system-ui, -apple-system, BlinkMacSystemFont, 'Segoe UI', sans-serif" text-anchor="end" dominant-baseline="middle" fill="#333333">-0.2</text>
<line x1="65" y1="202.51" x2="70" y2="202.51" stroke="#888888" stroke-width="1" fill="none"/>
<text x="62" y="202.51" font-size="11" font-family="system-ui, -apple-system, BlinkMacSystemFont, 'Segoe UI', sans-serif" text-anchor="end" dominant-baseline="middle" fill="#333333">0.0</text>
<line x1="65" y1="166.72" x2="70" y2="166.72" stroke="#888888" stroke-width="1" fill="none"/>
<text x="62" y="166.72" font-size="11" font-family="system-ui, -apple-system, BlinkMacSystemFont, 'Segoe UI', sans-serif" text-anchor="end" dominant-baseline="middle" fill="#333333">0.2</text>
<line x1="65" y1="130.92" x2="70" y2="130.92" stroke="#888888" stroke-width="1" fill="none"/>
<text x="62" y="130.92" font-size="11" font-family="system-ui, -apple-system, BlinkMacSystemFont, 'Segoe UI', sans-serif" text-anchor="end" dominant-baseline="middle" fill="#333333">0.5</text>
<line x1="65" y1="95.12" x2="70" y2="95.12" stroke="#888888" stroke-width="1" fill="none"/>
<text x="62" y="95.12" font-size="11" font-family="system-ui, -apple-system, BlinkMacSystemFont, 'Segoe UI', sans-serif" text-anchor="end" dominant-baseline="middle" fill="#333333">0.8</text>
<line x1="65" y1="59.32" x2="70" y2="59.32" stroke="#888888" stroke-width="1" fill="none"/>
<text x="62" y="59.32" font-size="11" font-family="system-ui, -apple-system, BlinkMacSystemFont, 'Segoe UI', sans-serif" text-anchor="end" dominant-baseline="middle" fill="#333333">1.0</text>
<text x="450" y="390" font-size="12" font-family="system-ui, -apple-system, BlinkMacSystemFont, 'Segoe UI', sans-serif" text-anchor="middle" dominant-baseline="hanging" fill="#333333">x (radians)</text>
<text x="22" y="202.5" transform="rotate(-90,22,202.5)" font-size="12" font-family="system-ui, -apple-system, BlinkMacSystemFont, 'Segoe UI', sans-serif" text-anchor="middle" dominant-baseline="middle" fill="#333333">amplitude</text>
<text x="450" y="30" font-size="16" font-family="system-ui, -apple-system, BlinkMacSystemFont, 'Segoe UI', sans-serif" font-weight="bold" text-anchor="middle" dominant-baseline="auto" fill="#1a1a1a">Smooth + Fill</text>
<rect x="730.4" y="55" width="89.6" height="64" rx="4" ry="4" stroke="#e5e5e5" stroke-width="0.8" fill="rgba(255,255,255,0.898)"/>
<line x1="740.4" y1="76" x2="760.4" y2="76" stroke="#4c72b0" stroke-width="2.5" fill="none" stroke-linecap="round"/>
<circle cx="750.4" cy="76" r="3" stroke="none" fill="#4c72b0"/>
<text x="764.4" y="76" font-size="12" font-family="system-ui, -apple-system, BlinkMacSystemFont, 'Segoe UI', sans-serif" text-anchor="start" dominant-baseline="middle" fill="#333333">sin(x)</text>
<line x1="740.4" y1="98" x2="760.4" y2="98" stroke="#dd8452" stroke-width="2.5" fill="none" stroke-linecap="round"/>
<circle cx="750.4" cy="98" r="3" stroke="none" fill="#dd8452"/>
<text x="764.4" y="98" font-size="12" font-family="system-ui, -apple-system, BlinkMacSystemFont, 'Segoe UI', sans-serif" text-anchor="start" dominant-baseline="middle" fill="#333333">cos(x)</text>
</svg>
