<svg xmlns="http://www.w3.org/2000/svg" width="700" height="380">
<defs>
<clipPath id="axes-clip-1"><rect x="70" y="45" width="600" height="275"/></clipPath>
</defs>
<rect x="0" y="0" width="700" height="380" stroke="none" fill="#ffffff"/>
<rect x="70" y="45" width="600" height="275" stroke="none" fill="#f7f7f7"/>
<g clip-path="url(#axes-clip-1)">
<line x1="70" y1="320" x2="670" y2="320" stroke="#e5e5e5" stroke-width="0.8" fill="none"/>
<line x1="70" y1="278.82" x2="670" y2="278.82" stroke="#e5e5e5" stroke-width="0.8" fill="none"/>
<line x1="70" y1="237.64" x2="670" y2="237.64" stroke="#e5e5e5" stroke-width="0.8" fill="none"/>
<line x1="70" y1="196.46" x2="670" y2="196.46" stroke="#e5e5e5" stroke-width="0.8" fill="none"/>
<line x1="70" y1="155.28" x2="670" y2="155.28" stroke="#e5e5e5" stroke-width="0.8" fill="none"/>
<line x1="70" y1="114.1" x2="670" y2="114.1" stroke="#e5e5e5" stroke-width="0.8" fill="none"/>
<line x1="70" y1="72.92" x2="670" y2="72.92" stroke="#e5e5e5" stroke-width="0.8" fill="none"/>
</g>
<g clip-path="url(#axes-clip-1)">
<rect x="79.38" y="58.1" width="56.25" height="261.9" rx="4" ry="4" stroke="none" fill="#4c72b0"/>
<rect x="154.38" y="116.98" width="56.25" height="203.02" rx="4" ry="4" stroke="none" fill="#4c72b0"/>
<rect x="229.38" y="161.46" width="56.25" height="158.54" rx="4" ry="4" stroke="none" fill="#4c72b0"/>
<rect x="304.38" y="193.99" width="56.25" height="126.01" rx="4" ry="4" stroke="none" fill="#4c72b0"/>
<rect x="379.38" y="206.34" width="56.25" height="113.66" rx="4" ry="4" stroke="none" fill="#4c72b0"/>
<rect x="454.38" y="223.23" width="56.25" height="96.77" rx="4" ry="4" stroke="none" fill="#4c72b0"/>
<rect x="529.38" y="264.41" width="56.25" height="55.59" rx="4" ry="4" stroke="none" fill="#4c72b0"/>
<rect x="604.38" y="266.05" width="56.25" height="53.95" rx="4" ry="4" stroke="none" fill="#4c72b0"/>
</g>
<line x1="70" y1="320" x2="670" y2="320" stroke="#888888" stroke-width="1.2" fill="none"/>
<line x1="70" y1="45" x2="70" y2="320" stroke="#888888" stroke-width="1.2" fill="none"/>
<line x1="107.5" y1="320" x2="107.5" y2="325" stroke="#888888" stroke-width="1" fill="none"/>
<text x="107.5" y="328" font-size="11" font-family="system-ui, -apple-system, BlinkMacSystemFont, 'Segoe UI', sans-serif" text-anchor="middle" dominant-baseline="hanging" fill="#333333">JavaScript</text>
<line x1="182.5" y1="320" x2="182.5" y2="325" stroke="#888888" stroke-width="1" fill="none"/>
<text x="182.5" y="328" font-size="11" font-family="system-ui, -apple-system, BlinkMacSystemFont, 'Segoe UI', sans-serif" text-anchor="middle" dominant-baseline="hanging" fill="#333333">Python</text>
<line x1="257.5" y1="320" x2="257.5" y2="325" stroke="#888888" stroke-width="1" fill="none"/>
<text x="257.5" y="328" font-size="11" font-family="system-ui, -apple-system, BlinkMacSystemFont, 'Segoe UI', sans-serif" text-anchor="middle" dominant-baseline="hanging" fill="#333333">TypeScript</text>
<line x1="332.5" y1="320" x2="332.5" y2="325" stroke="#888888" stroke-width="1" fill="none"/>
<text x="332.5" y="328" font-size="11" font-family="system-ui, -apple-system, BlinkMacSystemFont, 'Segoe UI', sans-serif" text-anchor="middle" dominant-baseline="hanging" fill="#333333">Java</text>
<line x1="407.5" y1="320" x2="407.5" y2="325" stroke="#888888" stroke-width="1" fill="none"/>
<text x="407.5" y="328" font-size="11" font-family="system-ui, -apple-system, BlinkMacSystemFont, 'Segoe UI', sans-serif" text-anchor="middle" dominant-baseline="hanging" fill="#333333">C#</text>
<line x1="482.5" y1="320" x2="482.5" y2="325" stroke="#888888" stroke-width="1" fill="none"/>
<text x="482.5" y="328" font-size="11" font-family="system-ui, -apple-system, BlinkMacSystemFont, 'Segoe UI', sans-serif" text-anchor="middle" dominant-baseline="hanging" fill="#333333">C++</text>
<line x1="557.5" y1="320" x2="557.5" y2="325" stroke="#888888" stroke-width="1" fill="none"/>
<text x="557.5" y="328" font-size="11" font-family="system-ui, -apple-system, BlinkMacSystemFont, 'Segoe UI', sans-serif" text-anchor="middle" dominant-baseline="hanging" fill="#333333">Go</text>
<line x1="632.5" y1="320" x2="632.5" y2="325" stroke="#888888" stroke-width="1" fill="none"/>
<text x="632.5" y="328" font-size="11" font-family="system-ui, -apple-system, BlinkMacSystemFont, 'Segoe UI', sans-serif" text-anchor="middle" dominant-baseline="hanging" fill="#333333">Rust</text>
<line x1="65" y1="320" x2="70" y2="320" stroke="#888888" stroke-width="1" fill="none"/>
<text x="62" y="320" font-size="11" font-family="system-ui, -apple-system, BlinkMacSystemFont, 'Segoe UI', sans-serif" text-anchor="end" dominant-baseline="middle" fill="#333333">0</text>
<line x1="65" y1="278.82" x2="70" y2="278.82" stroke="#888888" stroke-width="1" fill="none"/>
<text x="62" y="278.82" font-size="11" font-family="system-ui, -apple-system, BlinkMacSystemFont, 'Segoe UI', sans-serif" text-anchor="end" dominant-baseline="middle" fill="#333333">10</text>
<line x1="65" y1="237.64" x2="70" y2="237.64" stroke="#888888" stroke-width="1" fill="none"/>
<text x="62" y="237.64" font-size="11" font-family="system-ui, -apple-system, BlinkMacSystemFont, 'Segoe UI', sans-serif" text-anchor="end" dominant-baseline="middle" fill="#333333">20</text>
<line x1="65" y1="196.46" x2="70" y2="196.46" stroke="#888888" stroke-width="1" fill="none"/>
<text x="62" y="196.46" font-size="11" font-family="system-ui, -apple-system, BlinkMacSystemFont, 'Segoe UI', sans-serif" text-anchor="end" dominant-baseline="middle" fill="#333333">30</text>
<line x1="65" y1="155.28" x2="70" y2="155.28" stroke="#888888" stroke-width="1" fill="none"/>
<text x="62" y="155.28" font-size="11" font-family="system-ui, -apple-system, BlinkMacSystemFont, 'Segoe UI', sans-serif" text-anchor="end" dominant-baseline="middle" fill="#333333">40</text>
<line x1="65" y1="114.1" x2="70" y2="114.1" stroke="#888888" stroke-width="1" fill="none"/>
<text x="62" y="114.1" font-size="11" font-family="system-ui, -apple-system, BlinkMacSystemFont, 'Segoe UI', sans-serif" text-anchor="end" dominant-baseline="middle" fill="#333333">50</text>
<line x1="65" y1="72.92" x2="70" y2="72.92" stroke="#888888" stroke-width="1" fill="none"/>
<text x="62" y="72.92" font-size="11" font-family="system-ui, -apple-system, BlinkMacSystemFont, 'Segoe UI', sans-serif" text-anchor="end" dominant-baseline="middle" fill="#333333">60</text>
<text x="22" y="182.5" transform="rotate(-90,22,182.5)" font-size="12" font-family="system-ui, -apple-system, BlinkMacSystemFont, 'Segoe UI', sans-serif" text-anchor="middle" dominant-baseline="middle" fill="#333333">Usage (%)</text>
<text x="370" y="30" font-size="16" font-family="system-ui, -apple-system, BlinkMacSystemFont, 'Segoe UI', sans-serif" font-weight="bold" text-anchor="middle" dominant-baseline="auto" fill="#1a1a1a">Most Used Languages — Stack Overflow 2023</text>
<rect x="504.4" y="55" width="155.6" height="42" rx="4" ry="4" stroke="#e5e5e5" stroke-width="0.8" fill="rgba(255,255,255,0.898)"/>
<rect x="514.4" y="71" width="20" height="10" rx="2" ry="2" stroke="none" fill="#4c72b0"/>
<text x="538.4" y="76" font-size="12" font-family="system-ui, -apple-system, BlinkMacSystemFont, 'Segoe UI', sans-serif" text-anchor="start" dominant-baseline="middle" fill="#333333">% of respondents</text>
</svg>
