<svg xmlns="http://www.w3.org/2000/svg" width="700" height="380">
<defs>
<clipPath id="axes-clip-1"><rect x="70" y="45" width="600" height="275"/></clipPath>
</defs>
<rect x="0" y="0" width="700" height="380" stroke="none" fill="#ffffff"/>
<rect x="70" y="45" width="600" height="275" stroke="none" fill="#f7f7f7"/>
<g clip-path="url(#axes-clip-1)">
<line x1="70" y1="45" x2="70" y2="320" stroke="#e5e5e5" stroke-width="0.8" fill="none"/>
<line x1="136.91" y1="45" x2="136.91" y2="320" stroke="#e5e5e5" stroke-width="0.8" fill="none"/>
<line x1="203.82" y1="45" x2="203.82" y2="320" stroke="#e5e5e5" stroke-width="0.8" fill="none"/>
<line x1="270.74" y1="45" x2="270.74" y2="320" stroke="#e5e5e5" stroke-width="0.8" fill="none"/>
<line x1="337.65" y1="45" x2="337.65" y2="320" stroke="#e5e5e5" stroke-width="0.8" fill="none"/>
<line x1="404.56" y1="45" x2="404.56" y2="320" stroke="#e5e5e5" stroke-width="0.8" fill="none"/>
<line x1="471.47" y1="45" x2="471.47" y2="320" stroke="#e5e5e5" stroke-width="0.8" fill="none"/>
<line x1="538.38" y1="45" x2="538.38" y2="320" stroke="#e5e5e5" stroke-width="0.8" fill="none"/>
<line x1="605.3" y1="45" x2="605.3" y2="320" stroke="#e5e5e5" stroke-width="0.8" fill="none"/>
</g>
<g clip-path="url(#axes-clip-1)">
<rect x="70" y="48.44" width="571.43" height="20.62" rx="4" ry="4" stroke="none" fill="#4c72b0"/>
<rect x="70" y="75.94" width="543.33" height="20.62" rx="4" ry="4" stroke="none" fill="#4c72b0"/>
<rect x="70" y="103.44" width="293.07" height="20.62" rx="4" ry="4" stroke="none" fill="#4c72b0"/>
<rect x="70" y="130.94" width="305.12" height="20.62" rx="4" ry="4" stroke="none" fill="#4c72b0"/>
<rect x="70" y="158.44" width="228.84" height="20.62" rx="4" ry="4" stroke="none" fill="#4c72b0"/>
<rect x="70" y="185.94" width="208.77" height="20.62" rx="4" ry="4" stroke="none" fill="#4c72b0"/>
<rect x="70" y="213.44" width="239.54" height="20.62" rx="4" ry="4" stroke="none" fill="#4c72b0"/>
<rect x="70" y="240.94" width="160.59" height="20.62" rx="4" ry="4" stroke="none" fill="#4c72b0"/>
<rect x="70" y="268.44" width="161.93" height="20.62" rx="4" ry="4" stroke="none" fill="#4c72b0"/>
<rect x="70" y="295.94" width="140.52" height="20.62" rx="4" ry="4" stroke="none" fill="#4c72b0"/>
</g>
<line x1="70" y1="320" x2="670" y2="320" stroke="#888888" stroke-width="1.2" fill="none"/>
<line x1="70" y1="45" x2="70" y2="320" stroke="#888888" stroke-width="1.2" fill="none"/>
<line x1="70" y1="320" x2="70" y2="325" stroke="#888888" stroke-width="1" fill="none"/>
<text x="70" y="328" font-size="11" font-family="system-ui, -apple-system, BlinkMacSystemFont, 'Segoe UI', sans-serif" text-anchor="middle" dominant-baseline="hanging" fill="#333333">0</text>
<line x1="136.91" y1="320" x2="136.91" y2="325" stroke="#888888" stroke-width="1" fill="none"/>
<text x="136.91" y="328" font-size="11" font-family="system-ui, -apple-system, BlinkMacSystemFont, 'Segoe UI', sans-serif" text-anchor="middle" dominant-baseline="hanging" fill="#333333">5</text>
<line x1="203.82" y1="320" x2="203.82" y2="325" stroke="#888888" stroke-width="1" fill="none"/>
<text x="203.82" y="328" font-size="11" font-family="system-ui, -apple-system, BlinkMacSystemFont, 'Segoe UI', sans-serif" text-anchor="middle" dominant-baseline="hanging" fill="#333333">10</text>
<line x1="270.74" y1="320" x2="270.74" y2="325" stroke="#888888" stroke-width="1" fill="none"/>
<text x="270.74" y="328" font-size="11" font-family="system-ui, -apple-system, BlinkMacSystemFont, 'Segoe UI', sans-serif" text-anchor="middle" dominant-baseline="hanging" fill="#333333">15</text>
<line x1="337.65" y1="320" x2="337.65" y2="325" stroke="#888888" stroke-width="1" fill="none"/>
<text x="337.65" y="328" font-size="11" font-family="system-ui, -apple-system, BlinkMacSystemFont, 'Segoe UI', sans-serif" text-anchor="middle" dominant-baseline="hanging" fill="#333333">20</text>
<line x1="404.56" y1="320" x2="404.56" y2="325" stroke="#888888" stroke-width="1" fill="none"/>
<text x="404.56" y="328" font-size="11" font-family="system-ui, -apple-system, BlinkMacSystemFont, 'Segoe UI', sans-serif" text-anchor="middle" dominant-baseline="hanging" fill="#333333">25</text>
<line x1="471.47" y1="320" x2="471.47" y2="325" stroke="#888888" stroke-width="1" fill="none"/>
<text x="471.47" y="328" font-size="11" font-family="system-ui, -apple-system, BlinkMacSystemFont, 'Segoe UI', sans-serif" text-anchor="middle" dominant-baseline="hanging" fill="#333333">30</text>
<line x1="538.38" y1="320" x2="538.38" y2="325" stroke="#888888" stroke-width="1" fill="none"/>
<text x="538.38" y="328" font-size="11" font-family="system-ui, -apple-system, BlinkMacSystemFont, 'Segoe UI', sans-serif" text-anchor="middle" dominant-baseline="hanging" fill="#333333">35</text>
<line x1="605.3" y1="320" x2="605.3" y2="325" stroke="#888888" stroke-width="1" fill="none"/>
<text x="605.3" y="328" font-size="11" font-family="system-ui, -apple-system, BlinkMacSystemFont, 'Segoe UI', sans-serif" text-anchor="middle" dominant-baseline="hanging" fill="#333333">40</text>
<line x1="65" y1="58.75" x2="70" y2="58.75" stroke="#888888" stroke-width="1" fill="none"/>
<text x="62" y="58.75" font-size="11" font-family="system-ui, -apple-system, BlinkMacSystemFont, 'Segoe UI', sans-serif" text-anchor="end" dominant-baseline="middle" fill="#333333">Node.js</text>
<line x1="65" y1="86.25" x2="70" y2="86.25" stroke="#888888" stroke-width="1" fill="none"/>
<text x="62" y="86.25" font-size="11" font-family="system-ui, -apple-system, BlinkMacSystemFont, 'Segoe UI', sans-serif" text-anchor="end" dominant-baseline="middle" fill="#333333">React</text>
<line x1="65" y1="113.75" x2="70" y2="113.75" stroke="#888888" stroke-width="1" fill="none"/>
<text x="62" y="113.75" font-size="11" font-family="system-ui, -apple-system, BlinkMacSystemFont, 'Segoe UI', sans-serif" text-anchor="end" dominant-baseline="middle" fill="#333333">jQuery</text>
<line x1="65" y1="141.25" x2="70" y2="141.25" stroke="#888888" stroke-width="1" fill="none"/>
<text x="62" y="141.25" font-size="11" font-family="system-ui, -apple-system, BlinkMacSystemFont, 'Segoe UI', sans-serif" text-anchor="end" dominant-baseline="middle" fill="#333333">Express</text>
<line x1="65" y1="168.75" x2="70" y2="168.75" stroke="#888888" stroke-width="1" fill="none"/>
<text x="62" y="168.75" font-size="11" font-family="system-ui, -apple-system, BlinkMacSystemFont, 'Segoe UI', sans-serif" text-anchor="end" dominant-baseline="middle" fill="#333333">Angular</text>
<line x1="65" y1="196.25" x2="70" y2="196.25" stroke="#888888" stroke-width="1" fill="none"/>
<text x="62" y="196.25" font-size="11" font-family="system-ui, -apple-system, BlinkMacSystemFont, 'Segoe UI', sans-serif" text-anchor="end" dominant-baseline="middle" fill="#333333">Vue.js</text>
<line x1="65" y1="223.75" x2="70" y2="223.75" stroke="#888888" stroke-width="1" fill="none"/>
<text x="62" y="223.75" font-size="11" font-family="system-ui, -apple-system, BlinkMacSystemFont, 'Segoe UI', sans-serif" text-anchor="end" dominant-baseline="middle" fill="#333333">Next.js</text>
<line x1="65" y1="251.25" x2="70" y2="251.25" stroke="#888888" stroke-width="1" fill="none"/>
<text x="62" y="251.25" font-size="11" font-family="system-ui, -apple-system, BlinkMacSystemFont, 'Segoe UI', sans-serif" text-anchor="end" dominant-baseline="middle" fill="#333333">Django</text>
<line x1="65" y1="278.75" x2="70" y2="278.75" stroke="#888888" stroke-width="1" fill="none"/>
<text x="62" y="278.75" font-size="11" font-family="system-ui, -apple-system, BlinkMacSystemFont, 'Segoe UI', sans-serif" text-anchor="end" dominant-baseline="middle" fill="#333333">FastAPI</text>
<line x1="65" y1="306.25" x2="70" y2="306.25" stroke="#888888" stroke-width="1" fill="none"/>
<text x="62" y="306.25" font-size="11" font-family="system-ui, -apple-system, BlinkMacSystemFont, 'Segoe UI', sans-serif" text-anchor="end" dominant-baseline="middle" fill="#333333">Spring Boot</text>
<text x="370" y="350" font-size="12" font-family="system-ui, -apple-system, BlinkMacSystemFont, 'Segoe UI', sans-serif" text-anchor="middle" dominant-baseline="hanging" fill="#333333">Usage (%)</text>
<text x="370" y="30" font-size="16" font-family="system-ui, -apple-system, BlinkMacSystemFont, 'Segoe UI', sans-serif" font-weight="bold" text-anchor="middle" dominant-baseline="auto" fill="#1a1a1a">Top Web Frameworks — Stack Overflow 2023</text>
<rect x="504.4" y="55" width="155.6" height="42" rx="4" ry="4" stroke="#e5e5e5" stroke-width="0.8" fill="rgba(255,255,255,0.898)"/>
<rect x="514.4" y="71" width="20" height="10" rx="2" ry="2" stroke="none" fill="#4c72b0"/>
<text x="538.4" y="76" font-size="12" font-family="system-ui, -apple-system, BlinkMacSystemFont, 'Segoe UI', sans-serif" text-anchor="start" dominant-baseline="middle" fill="#333333">% of respondents</text>
</svg>
