<svg xmlns="http://www.w3.org/2000/svg" width="700" height="380">
<defs>
<clipPath id="axes-clip-1"><rect x="70" y="45" width="600" height="275"/></clipPath>
</defs>
<rect x="0" y="0" width="700" height="380" stroke="none" fill="#ffffff"/>
<rect x="70" y="45" width="600" height="275" stroke="none" fill="#f7f7f7"/>
<g clip-path="url(#axes-clip-1)">
<line x1="70" y1="320" x2="670" y2="320" stroke="#e5e5e5" stroke-width="0.8" fill="none"/>
<line x1="70" y1="274.37" x2="670" y2="274.37" stroke="#e5e5e5" stroke-width="0.8" fill="none"/>
<line x1="70" y1="228.74" x2="670" y2="228.74" stroke="#e5e5e5" stroke-width="0.8" fill="none"/>
<line x1="70" y1="183.12" x2="670" y2="183.12" stroke="#e5e5e5" stroke-width="0.8" fill="none"/>
<line x1="70" y1="137.49" x2="670" y2="137.49" stroke="#e5e5e5" stroke-width="0.8" fill="none"/>
<line x1="70" y1="91.86" x2="670" y2="91.86" stroke="#e5e5e5" stroke-width="0.8" fill="none"/>
<line x1="70" y1="46.23" x2="670" y2="46.23" stroke="#e5e5e5" stroke-width="0.8" fill="none"/>
</g>
<g clip-path="url(#axes-clip-1)">
<rect x="88.75" y="234.22" width="112.5" height="85.78" stroke="none" fill="#4c72b0"/>
<rect x="88.75" y="176.73" width="112.5" height="57.49" stroke="none" fill="#dd8452"/>
<rect x="88.75" y="152.09" width="112.5" height="24.64" stroke="none" fill="#55a868"/>
<rect x="88.75" y="86.38" width="112.5" height="65.7" stroke="none" fill="#c44e52"/>
<rect x="238.75" y="230.39" width="112.5" height="89.61" stroke="none" fill="#4c72b0"/>
<rect x="238.75" y="171.07" width="112.5" height="59.32" stroke="none" fill="#dd8452"/>
<rect x="238.75" y="145.52" width="112.5" height="25.55" stroke="none" fill="#55a868"/>
<rect x="238.75" y="73.43" width="112.5" height="72.09" stroke="none" fill="#c44e52"/>
<rect x="388.75" y="226.92" width="112.5" height="93.08" stroke="none" fill="#4c72b0"/>
<rect x="388.75" y="165.78" width="112.5" height="61.14" stroke="none" fill="#dd8452"/>
<rect x="388.75" y="141.14" width="112.5" height="24.64" stroke="none" fill="#55a868"/>
<rect x="388.75" y="62.66" width="112.5" height="78.48" stroke="none" fill="#c44e52"/>
<rect x="538.75" y="230.57" width="112.5" height="89.43" stroke="none" fill="#4c72b0"/>
<rect x="538.75" y="170.34" width="112.5" height="60.23" stroke="none" fill="#dd8452"/>
<rect x="538.75" y="144.79" width="112.5" height="25.55" stroke="none" fill="#55a868"/>
<rect x="538.75" y="58.1" width="112.5" height="86.69" stroke="none" fill="#c44e52"/>
</g>
<line x1="70" y1="320" x2="670" y2="320" stroke="#888888" stroke-width="1.2" fill="none"/>
<line x1="70" y1="45" x2="70" y2="320" stroke="#888888" stroke-width="1.2" fill="none"/>
<line x1="145" y1="320" x2="145" y2="325" stroke="#888888" stroke-width="1" fill="none"/>
<text x="145" y="328" font-size="11" font-family="system-ui, -apple-system, BlinkMacSystemFont, 'Segoe UI', sans-serif" text-anchor="middle" dominant-baseline="hanging" fill="#333333">2020</text>
<line x1="295" y1="320" x2="295" y2="325" stroke="#888888" stroke-width="1" fill="none"/>
<text x="295" y="328" font-size="11" font-family="system-ui, -apple-system, BlinkMacSystemFont, 'Segoe UI', sans-serif" text-anchor="middle" dominant-baseline="hanging" fill="#333333">2021</text>
<line x1="445" y1="320" x2="445" y2="325" stroke="#888888" stroke-width="1" fill="none"/>
<text x="445" y="328" font-size="11" font-family="system-ui, -apple-system, BlinkMacSystemFont, 'Segoe UI', sans-serif" text-anchor="middle" dominant-baseline="hanging" fill="#333333">2022</text>
<line x1="595" y1="320" x2="595" y2="325" stroke="#888888" stroke-width="1" fill="none"/>
<text x="595" y="328" font-size="11" font-family="system-ui, -apple-system, BlinkMacSystemFont, 'Segoe UI', sans-serif" text-anchor="middle" dominant-baseline="hanging" fill="#333333">2023</text>
<line x1="65" y1="320" x2="70" y2="320" stroke="#888888" stroke-width="1" fill="none"/>
<text x="62" y="320" font-size="11" font-family="system-ui, -apple-system, BlinkMacSystemFont, 'Segoe UI', sans-serif" text-anchor="end" dominant-baseline="middle" fill="#333333">0</text>
<line x1="65" y1="274.37" x2="70" y2="274.37" stroke="#888888" stroke-width="1" fill="none"/>
<text x="62" y="274.37" font-size="11" font-family="system-ui, -apple-system, BlinkMacSystemFont, 'Segoe UI', sans-serif" text-anchor="end" dominant-baseline="middle" fill="#333333">5.0k</text>
<line x1="65" y1="228.74" x2="70" y2="228.74" stroke="#888888" stroke-width="1" fill="none"/>
<text x="62" y="228.74" font-size="11" font-family="system-ui, -apple-system, BlinkMacSystemFont, 'Segoe UI', sans-serif" text-anchor="end" dominant-baseline="middle" fill="#333333">10.0k</text>
<line x1="65" y1="183.12" x2="70" y2="183.12" stroke="#888888" stroke-width="1" fill="none"/>
<text x="62" y="183.12" font-size="11" font-family="system-ui, -apple-system, BlinkMacSystemFont, 'Segoe UI', sans-serif" text-anchor="end" dominant-baseline="middle" fill="#333333">15.0k</text>
<line x1="65" y1="137.49" x2="70" y2="137.49" stroke="#888888" stroke-width="1" fill="none"/>
<text x="62" y="137.49" font-size="11" font-family="system-ui, -apple-system, BlinkMacSystemFont, 'Segoe UI', sans-serif" text-anchor="end" dominant-baseline="middle" fill="#333333">20.0k</text>
<line x1="65" y1="91.86" x2="70" y2="91.86" stroke="#888888" stroke-width="1" fill="none"/>
<text x="62" y="91.86" font-size="11" font-family="system-ui, -apple-system, BlinkMacSystemFont, 'Segoe UI', sans-serif" text-anchor="end" dominant-baseline="middle" fill="#333333">25.0k</text>
<line x1="65" y1="46.23" x2="70" y2="46.23" stroke="#888888" stroke-width="1" fill="none"/>
<text x="62" y="46.23" font-size="11" font-family="system-ui, -apple-system, BlinkMacSystemFont, 'Segoe UI', sans-serif" text-anchor="end" dominant-baseline="middle" fill="#333333">30.0k</text>
<text x="22" y="182.5" transform="rotate(-90,22,182.5)" font-size="12" font-family="system-ui, -apple-system, BlinkMacSystemFont, 'Segoe UI', sans-serif" text-anchor="middle" dominant-baseline="middle" fill="#333333">TWh</text>
<text x="370" y="30" font-size="16" font-family="system-ui, -apple-system, BlinkMacSystemFont, 'Segoe UI', sans-serif" font-weight="bold" text-anchor="middle" dominant-baseline="auto" fill="#1a1a1a">Global Electricity Generation by Source</text>
<rect x="544" y="55" width="116" height="108" rx="4" ry="4" stroke="#e5e5e5" stroke-width="0.8" fill="rgba(255,255,255,0.898)"/>
<rect x="554" y="71" width="20" height="10" rx="2" ry="2" stroke="none" fill="#4c72b0"/>
<text x="578" y="76" font-size="12" font-family="system-ui, -apple-system, BlinkMacSystemFont, 'Segoe UI', sans-serif" text-anchor="start" dominant-baseline="middle" fill="#333333">Coal</text>
<rect x="554" y="93" width="20" height="10" rx="2" ry="2" stroke="none" fill="#dd8452"/>
<text x="578" y="98" font-size="12" font-family="system-ui, -apple-system, BlinkMacSystemFont, 'Segoe UI', sans-serif" text-anchor="start" dominant-baseline="middle" fill="#333333">Gas</text>
<rect x="554" y="115" width="20" height="10" rx="2" ry="2" stroke="none" fill="#55a868"/>
<text x="578" y="120" font-size="12" font-family="system-ui, -apple-system, BlinkMacSystemFont, 'Segoe UI', sans-serif" text-anchor="start" dominant-baseline="middle" fill="#333333">Nuclear</text>
<rect x="554" y="137" width="20" height="10" rx="2" ry="2" stroke="none" fill="#c44e52"/>
<text x="578" y="142" font-size="12" font-family="system-ui, -apple-system, BlinkMacSystemFont, 'Segoe UI', sans-serif" text-anchor="start" dominant-baseline="middle" fill="#333333">Renewables</text>
</svg>
