<svg xmlns="http://www.w3.org/2000/svg" width="700" height="380">
<defs>
<clipPath id="axes-clip-1"><rect x="70" y="45" width="600" height="275"/></clipPath>
</defs>
<rect x="0" y="0" width="700" height="380" stroke="none" fill="#ffffff"/>
<rect x="70" y="45" width="600" height="275" stroke="none" fill="#f7f7f7"/>
<g clip-path="url(#axes-clip-1)">
<line x1="70" y1="293.81" x2="670" y2="293.81" stroke="#e5e5e5" stroke-width="0.8" fill="none"/>
<line x1="70" y1="261.07" x2="670" y2="261.07" stroke="#e5e5e5" stroke-width="0.8" fill="none"/>
<line x1="70" y1="228.33" x2="670" y2="228.33" stroke="#e5e5e5" stroke-width="0.8" fill="none"/>
<line x1="70" y1="195.6" x2="670" y2="195.6" stroke="#e5e5e5" stroke-width="0.8" fill="none"/>
<line x1="70" y1="162.86" x2="670" y2="162.86" stroke="#e5e5e5" stroke-width="0.8" fill="none"/>
<line x1="70" y1="130.12" x2="670" y2="130.12" stroke="#e5e5e5" stroke-width="0.8" fill="none"/>
<line x1="70" y1="97.38" x2="670" y2="97.38" stroke="#e5e5e5" stroke-width="0.8" fill="none"/>
<line x1="70" y1="64.64" x2="670" y2="64.64" stroke="#e5e5e5" stroke-width="0.8" fill="none"/>
</g>
<g clip-path="url(#axes-clip-1)">
<line x1="114.78" y1="45" x2="114.78" y2="320" stroke="#e5e5e5" stroke-width="0.8" fill="none"/>
<line x1="204.33" y1="45" x2="204.33" y2="320" stroke="#e5e5e5" stroke-width="0.8" fill="none"/>
<line x1="293.88" y1="45" x2="293.88" y2="320" stroke="#e5e5e5" stroke-width="0.8" fill="none"/>
<line x1="383.43" y1="45" x2="383.43" y2="320" stroke="#e5e5e5" stroke-width="0.8" fill="none"/>
<line x1="472.99" y1="45" x2="472.99" y2="320" stroke="#e5e5e5" stroke-width="0.8" fill="none"/>
<line x1="562.54" y1="45" x2="562.54" y2="320" stroke="#e5e5e5" stroke-width="0.8" fill="none"/>
<line x1="652.09" y1="45" x2="652.09" y2="320" stroke="#e5e5e5" stroke-width="0.8" fill="none"/>
</g>
<g clip-path="url(#axes-clip-1)">
<circle cx="132.69" cy="254.52" r="45" stroke="rgba(255,255,255,0.706)" stroke-width="1" fill="#4c72b0" fill-opacity="0.65"/>
<circle cx="607.31" cy="110.48" r="16.56" stroke="rgba(255,255,255,0.706)" stroke-width="1" fill="#4c72b0" fill-opacity="0.65"/>
<circle cx="96.87" cy="320" r="13.5" stroke="rgba(255,255,255,0.706)" stroke-width="1" fill="#4c72b0" fill-opacity="0.65"/>
<circle cx="338.66" cy="162.86" r="13.37" stroke="rgba(255,255,255,0.706)" stroke-width="1" fill="#4c72b0" fill-opacity="0.65"/>
<circle cx="186.42" cy="202.14" r="11.64" stroke="rgba(255,255,255,0.706)" stroke-width="1" fill="#4c72b0" fill-opacity="0.65"/>
<circle cx="455.07" cy="58.1" r="11.11" stroke="rgba(255,255,255,0.706)" stroke-width="1" fill="#4c72b0" fill-opacity="0.65"/>
<circle cx="70" cy="306.9" r="10.98" stroke="rgba(255,255,255,0.706)" stroke-width="1" fill="#4c72b0" fill-opacity="0.65"/>
<circle cx="401.34" cy="84.29" r="9.99" stroke="rgba(255,255,255,0.706)" stroke-width="1" fill="#4c72b0" fill-opacity="0.65"/>
<circle cx="365.52" cy="136.67" r="9.57" stroke="rgba(255,255,255,0.706)" stroke-width="1" fill="#4c72b0" fill-opacity="0.65"/>
<circle cx="490.9" cy="84.29" r="8.8" stroke="rgba(255,255,255,0.706)" stroke-width="1" fill="#4c72b0" fill-opacity="0.65"/>
<circle cx="517.76" cy="71.19" r="8.45" stroke="rgba(255,255,255,0.706)" stroke-width="1" fill="#4c72b0" fill-opacity="0.65"/>
<circle cx="670" cy="71.19" r="8" stroke="rgba(255,255,255,0.706)" stroke-width="1" fill="#4c72b0" fill-opacity="0.65"/>
</g>
<line x1="70" y1="320" x2="670" y2="320" stroke="#888888" stroke-width="1.2" fill="none"/>
<line x1="70" y1="45" x2="70" y2="320" stroke="#888888" stroke-width="1.2" fill="none"/>
<line x1="114.78" y1="320" x2="114.78" y2="325" stroke="#888888" stroke-width="1" fill="none"/>
<text x="114.78" y="328" font-size="11" font-family="system-ui, -apple-system, BlinkMacSystemFont, 'Segoe UI', sans-serif" text-anchor="middle" dominant-baseline="hanging" fill="#333333">10</text>
<line x1="204.33" y1="320" x2="204.33" y2="325" stroke="#888888" stroke-width="1" fill="none"/>
<text x="204.33" y="328" font-size="11" font-family="system-ui, -apple-system, BlinkMacSystemFont, 'Segoe UI', sans-serif" text-anchor="middle" dominant-baseline="hanging" fill="#333333">20</text>
<line x1="293.88" y1="320" x2="293.88" y2="325" stroke="#888888" stroke-width="1" fill="none"/>
<text x="293.88" y="328" font-size="11" font-family="system-ui, -apple-system, BlinkMacSystemFont, 'Segoe UI', sans-serif" text-anchor="middle" dominant-baseline="hanging" fill="#333333">30</text>
<line x1="383.43" y1="320" x2="383.43" y2="325" stroke="#888888" stroke-width="1" fill="none"/>
<text x="383.43" y="328" font-size="11" font-family="system-ui, -apple-system, BlinkMacSystemFont, 'Segoe UI', sans-serif" text-anchor="middle" dominant-baseline="hanging" fill="#333333">40</text>
<line x1="472.99" y1="320" x2="472.99" y2="325" stroke="#888888" stroke-width="1" fill="none"/>
<text x="472.99" y="328" font-size="11" font-family="system-ui, -apple-system, BlinkMacSystemFont, 'Segoe UI', sans-serif" text-anchor="middle" dominant-baseline="hanging" fill="#333333">50</text>
<line x1="562.54" y1="320" x2="562.54" y2="325" stroke="#888888" stroke-width="1" fill="none"/>
<text x="562.54" y="328" font-size="11" font-family="system-ui, -apple-system, BlinkMacSystemFont, 'Segoe UI', sans-serif" text-anchor="middle" dominant-baseline="hanging" fill="#333333">60</text>
<line x1="652.09" y1="320" x2="652.09" y2="325" stroke="#888888" stroke-width="1" fill="none"/>
<text x="652.09" y="328" font-size="11" font-family="system-ui, -apple-system, BlinkMacSystemFont, 'Segoe UI', sans-serif" text-anchor="middle" dominant-baseline="hanging" fill="#333333">70</text>
<line x1="65" y1="293.81" x2="70" y2="293.81" stroke="#888888" stroke-width="1" fill="none"/>
<text x="62" y="293.81" font-size="11" font-family="system-ui, -apple-system, BlinkMacSystemFont, 'Segoe UI', sans-serif" text-anchor="end" dominant-baseline="middle" fill="#333333">65</text>
<line x1="65" y1="261.07" x2="70" y2="261.07" stroke="#888888" stroke-width="1" fill="none"/>
<text x="62" y="261.07" font-size="11" font-family="system-ui, -apple-system, BlinkMacSystemFont, 'Segoe UI', sans-serif" text-anchor="end" dominant-baseline="middle" fill="#333333">68</text>
<line x1="65" y1="228.33" x2="70" y2="228.33" stroke="#888888" stroke-width="1" fill="none"/>
<text x="62" y="228.33" font-size="11" font-family="system-ui, -apple-system, BlinkMacSystemFont, 'Segoe UI', sans-serif" text-anchor="end" dominant-baseline="middle" fill="#333333">70</text>
<line x1="65" y1="195.6" x2="70" y2="195.6" stroke="#888888" stroke-width="1" fill="none"/>
<text x="62" y="195.6" font-size="11" font-family="system-ui, -apple-system, BlinkMacSystemFont, 'Segoe UI', sans-serif" text-anchor="end" dominant-baseline="middle" fill="#333333">72</text>
<line x1="65" y1="162.86" x2="70" y2="162.86" stroke="#888888" stroke-width="1" fill="none"/>
<text x="62" y="162.86" font-size="11" font-family="system-ui, -apple-system, BlinkMacSystemFont, 'Segoe UI', sans-serif" text-anchor="end" dominant-baseline="middle" fill="#333333">75</text>
<line x1="65" y1="130.12" x2="70" y2="130.12" stroke="#888888" stroke-width="1" fill="none"/>
<text x="62" y="130.12" font-size="11" font-family="system-ui, -apple-system, BlinkMacSystemFont, 'Segoe UI', sans-serif" text-anchor="end" dominant-baseline="middle" fill="#333333">78</text>
<line x1="65" y1="97.38" x2="70" y2="97.38" stroke="#888888" stroke-width="1" fill="none"/>
<text x="62" y="97.38" font-size="11" font-family="system-ui, -apple-system, BlinkMacSystemFont, 'Segoe UI', sans-serif" text-anchor="end" dominant-baseline="middle" fill="#333333">80</text>
<line x1="65" y1="64.64" x2="70" y2="64.64" stroke="#888888" stroke-width="1" fill="none"/>
<text x="62" y="64.64" font-size="11" font-family="system-ui, -apple-system, BlinkMacSystemFont, 'Segoe UI', sans-serif" text-anchor="end" dominant-baseline="middle" fill="#333333">82</text>
<text x="370" y="350" font-size="12" font-family="system-ui, -apple-system, BlinkMacSystemFont, 'Segoe UI', sans-serif" text-anchor="middle" dominant-baseline="hanging" fill="#333333">GDP per Capita ($k)</text>
<text x="22" y="182.5" transform="rotate(-90,22,182.5)" font-size="12" font-family="system-ui, -apple-system, BlinkMacSystemFont, 'Segoe UI', sans-serif" text-anchor="middle" dominant-baseline="middle" fill="#333333">Life Expectancy (years)</text>
<text x="370" y="30" font-size="16" font-family="system-ui, -apple-system, BlinkMacSystemFont, 'Segoe UI', sans-serif" font-weight="bold" text-anchor="middle" dominant-baseline="auto" fill="#1a1a1a">GDP per Capita vs Life Expectancy vs Population</text>
<rect x="550.6" y="55" width="109.4" height="42" rx="4" ry="4" stroke="#e5e5e5" stroke-width="0.8" fill="rgba(255,255,255,0.898)"/>
<line x1="560.6" y1="76" x2="580.6" y2="76" stroke="#4c72b0" stroke-width="2.5" fill="none" stroke-linecap="round"/>
<circle cx="570.6" cy="76" r="3" stroke="none" fill="#4c72b0"/>
<text x="584.6" y="76" font-size="12" font-family="system-ui, -apple-system, BlinkMacSystemFont, 'Segoe UI', sans-serif" text-anchor="start" dominant-baseline="middle" fill="#333333">countries</text>
</svg>
