<svg xmlns="http://www.w3.org/2000/svg" width="700" height="380">
<defs>
<clipPath id="axes-clip-1"><rect x="70" y="45" width="600" height="275"/></clipPath>
</defs>
<rect x="0" y="0" width="700" height="380" stroke="none" fill="#ffffff"/>
<rect x="70" y="45" width="600" height="275" stroke="none" fill="#f7f7f7"/>
<g clip-path="url(#axes-clip-1)">
<line x1="70" y1="287.45" x2="670" y2="287.45" stroke="#e5e5e5" stroke-width="0.8" fill="none"/>
<line x1="70" y1="250.45" x2="670" y2="250.45" stroke="#e5e5e5" stroke-width="0.8" fill="none"/>
<line x1="70" y1="213.46" x2="670" y2="213.46" stroke="#e5e5e5" stroke-width="0.8" fill="none"/>
<line x1="70" y1="176.47" x2="670" y2="176.47" stroke="#e5e5e5" stroke-width="0.8" fill="none"/>
<line x1="70" y1="139.48" x2="670" y2="139.48" stroke="#e5e5e5" stroke-width="0.8" fill="none"/>
<line x1="70" y1="102.49" x2="670" y2="102.49" stroke="#e5e5e5" stroke-width="0.8" fill="none"/>
<line x1="70" y1="65.49" x2="670" y2="65.49" stroke="#e5e5e5" stroke-width="0.8" fill="none"/>
</g>
<g clip-path="url(#axes-clip-1)">
<line x1="145" y1="317.6" x2="145" y2="320" stroke="#4c72b0" stroke-width="1.5" fill="none"/>
<line x1="145" y1="313.71" x2="145" y2="310.38" stroke="#4c72b0" stroke-width="1.5" fill="none"/>
<line x1="130" y1="320" x2="160" y2="320" stroke="#4c72b0" stroke-width="1.5" fill="none"/>
<line x1="130" y1="310.38" x2="160" y2="310.38" stroke="#4c72b0" stroke-width="1.5" fill="none"/>
<rect x="107.5" y="313.71" width="75" height="3.88" rx="2" ry="2" stroke="#4c72b0" stroke-width="1.5" fill="rgba(76,114,176,0.698)"/>
<line x1="107.5" y1="315.93" x2="182.5" y2="315.93" stroke="#ffffff" stroke-width="2" fill="none"/>
<circle cx="145" cy="304.09" r="3" stroke="#4c72b0" stroke-width="1" fill="#4c72b0" fill-opacity="0.7"/>
<circle cx="145" cy="297.8" r="3" stroke="#4c72b0" stroke-width="1" fill="#4c72b0" fill-opacity="0.7"/>
<line x1="295" y1="298.54" x2="295" y2="307.79" stroke="#4c72b0" stroke-width="1.5" fill="none"/>
<line x1="295" y1="282.27" x2="295" y2="257.85" stroke="#4c72b0" stroke-width="1.5" fill="none"/>
<line x1="280" y1="307.79" x2="310" y2="307.79" stroke="#4c72b0" stroke-width="1.5" fill="none"/>
<line x1="280" y1="257.85" x2="310" y2="257.85" stroke="#4c72b0" stroke-width="1.5" fill="none"/>
<rect x="257.5" y="282.27" width="75" height="16.28" rx="2" ry="2" stroke="#4c72b0" stroke-width="1.5" fill="rgba(76,114,176,0.698)"/>
<line x1="257.5" y1="292.63" x2="332.5" y2="292.63" stroke="#ffffff" stroke-width="2" fill="none"/>
<circle cx="295" cy="243.06" r="3" stroke="#4c72b0" stroke-width="1" fill="#4c72b0" fill-opacity="0.7"/>
<circle cx="295" cy="183.87" r="3" stroke="#4c72b0" stroke-width="1" fill="#4c72b0" fill-opacity="0.7"/>
<line x1="445" y1="235.66" x2="445" y2="257.85" stroke="#4c72b0" stroke-width="1.5" fill="none"/>
<line x1="445" y1="192.19" x2="445" y2="143.18" stroke="#4c72b0" stroke-width="1.5" fill="none"/>
<line x1="430" y1="257.85" x2="460" y2="257.85" stroke="#4c72b0" stroke-width="1.5" fill="none"/>
<line x1="430" y1="143.18" x2="460" y2="143.18" stroke="#4c72b0" stroke-width="1.5" fill="none"/>
<rect x="407.5" y="192.19" width="75" height="43.47" rx="2" ry="2" stroke="#4c72b0" stroke-width="1.5" fill="rgba(76,114,176,0.698)"/>
<line x1="407.5" y1="219.01" x2="482.5" y2="219.01" stroke="#ffffff" stroke-width="2" fill="none"/>
<circle cx="445" cy="109.88" r="3" stroke="#4c72b0" stroke-width="1" fill="#4c72b0" fill-opacity="0.7"/>
<circle cx="445" cy="58.1" r="3" stroke="#4c72b0" stroke-width="1" fill="#4c72b0" fill-opacity="0.7"/>
<line x1="595" y1="309.64" x2="595" y2="316.3" stroke="#4c72b0" stroke-width="1.5" fill="none"/>
<line x1="595" y1="295.59" x2="595" y2="276.35" stroke="#4c72b0" stroke-width="1.5" fill="none"/>
<line x1="580" y1="316.3" x2="610" y2="316.3" stroke="#4c72b0" stroke-width="1.5" fill="none"/>
<line x1="580" y1="276.35" x2="610" y2="276.35" stroke="#4c72b0" stroke-width="1.5" fill="none"/>
<rect x="557.5" y="295.59" width="75" height="14.06" rx="2" ry="2" stroke="#4c72b0" stroke-width="1.5" fill="rgba(76,114,176,0.698)"/>
<line x1="557.5" y1="303.72" x2="632.5" y2="303.72" stroke="#ffffff" stroke-width="2" fill="none"/>
<circle cx="595" cy="263.4" r="3" stroke="#4c72b0" stroke-width="1" fill="#4c72b0" fill-opacity="0.7"/>
</g>
<line x1="70" y1="320" x2="670" y2="320" stroke="#888888" stroke-width="1.2" fill="none"/>
<line x1="70" y1="45" x2="70" y2="320" stroke="#888888" stroke-width="1.2" fill="none"/>
<line x1="145" y1="320" x2="145" y2="325" stroke="#888888" stroke-width="1" fill="none"/>
<text x="145" y="328" font-size="11" font-family="system-ui, -apple-system, BlinkMacSystemFont, 'Segoe UI', sans-serif" text-anchor="middle" dominant-baseline="hanging" fill="#333333">Auth</text>
<line x1="295" y1="320" x2="295" y2="325" stroke="#888888" stroke-width="1" fill="none"/>
<text x="295" y="328" font-size="11" font-family="system-ui, -apple-system, BlinkMacSystemFont, 'Segoe UI', sans-serif" text-anchor="middle" dominant-baseline="hanging" fill="#333333">Search</text>
<line x1="445" y1="320" x2="445" y2="325" stroke="#888888" stroke-width="1" fill="none"/>
<text x="445" y="328" font-size="11" font-family="system-ui, -apple-system, BlinkMacSystemFont, 'Segoe UI', sans-serif" text-anchor="middle" dominant-baseline="hanging" fill="#333333">Checkout</text>
<line x1="595" y1="320" x2="595" y2="325" stroke="#888888" stroke-width="1" fill="none"/>
<text x="595" y="328" font-size="11" font-family="system-ui, -apple-system, BlinkMacSystemFont, 'Segoe UI', sans-serif" text-anchor="middle" dominant-baseline="hanging" fill="#333333">Feed</text>
<line x1="65" y1="287.45" x2="70" y2="287.45" stroke="#888888" stroke-width="1" fill="none"/>
<text x="62" y="287.45" font-size="11" font-family="system-ui, -apple-system, BlinkMacSystemFont, 'Segoe UI', sans-serif" text-anchor="end" dominant-baseline="middle" fill="#333333">100</text>
<line x1="65" y1="250.45" x2="70" y2="250.45" stroke="#888888" stroke-width="1" fill="none"/>
<text x="62" y="250.45" font-size="11" font-family="system-ui, -apple-system, BlinkMacSystemFont, 'Segoe UI', sans-serif" text-anchor="end" dominant-baseline="middle" fill="#333333">200</text>
<line x1="65" y1="213.46" x2="70" y2="213.46" stroke="#888888" stroke-width="1" fill="none"/>
<text x="62" y="213.46" font-size="11" font-family="system-ui, -apple-system, BlinkMacSystemFont, 'Segoe UI', sans-serif" text-anchor="end" dominant-baseline="middle" fill="#333333">300</text>
<line x1="65" y1="176.47" x2="70" y2="176.47" stroke="#888888" stroke-width="1" fill="none"/>
<text x="62" y="176.47" font-size="11" font-family="system-ui, -apple-system, BlinkMacSystemFont, 'Segoe UI', sans-serif" text-anchor="end" dominant-baseline="middle" fill="#333333">400</text>
<line x1="65" y1="139.48" x2="70" y2="139.48" stroke="#888888" stroke-width="1" fill="none"/>
<text x="62" y="139.48" font-size="11" font-family="system-ui, -apple-system, BlinkMacSystemFont, 'Segoe UI', sans-serif" text-anchor="end" dominant-baseline="middle" fill="#333333">500</text>
<line x1="65" y1="102.49" x2="70" y2="102.49" stroke="#888888" stroke-width="1" fill="none"/>
<text x="62" y="102.49" font-size="11" font-family="system-ui, -apple-system, BlinkMacSystemFont, 'Segoe UI', sans-serif" text-anchor="end" dominant-baseline="middle" fill="#333333">600</text>
<line x1="65" y1="65.49" x2="70" y2="65.49" stroke="#888888" stroke-width="1" fill="none"/>
<text x="62" y="65.49" font-size="11" font-family="system-ui, -apple-system, BlinkMacSystemFont, 'Segoe UI', sans-serif" text-anchor="end" dominant-baseline="middle" fill="#333333">700</text>
<text x="22" y="182.5" transform="rotate(-90,22,182.5)" font-size="12" font-family="system-ui, -apple-system, BlinkMacSystemFont, 'Segoe UI', sans-serif" text-anchor="middle" dominant-baseline="middle" fill="#333333">Latency (ms)</text>
<text x="370" y="30" font-size="16" font-family="system-ui, -apple-system, BlinkMacSystemFont, 'Segoe UI', sans-serif" font-weight="bold" text-anchor="middle" dominant-baseline="auto" fill="#1a1a1a">API Response Times by Service</text>
</svg>
