<svg xmlns="http://www.w3.org/2000/svg" width="700" height="350">
<defs>
<clipPath id="axes-clip-1"><rect x="70" y="45" width="600" height="245"/></clipPath>
<linearGradient id="linefill-0" x1="0" y1="167.45" x2="0" y2="167.45" gradientUnits="userSpaceOnUse">
  <stop offset="0" stop-color="#4c72b0" stop-opacity="0.35"/>
  <stop offset="1" stop-color="#4c72b0" stop-opacity="0.02"/>
</linearGradient>
</defs>
<rect x="0" y="0" width="700" height="350" stroke="none" fill="#1a1b2e"/>
<rect x="70" y="45" width="600" height="245" stroke="none" fill="#22233a"/>
<g clip-path="url(#axes-clip-1)">
<line x1="70" y1="267.62" x2="670" y2="267.62" stroke="#2e3050" stroke-width="0.8" fill="none"/>
<line x1="70" y1="234.23" x2="670" y2="234.23" stroke="#2e3050" stroke-width="0.8" fill="none"/>
<line x1="70" y1="200.84" x2="670" y2="200.84" stroke="#2e3050" stroke-width="0.8" fill="none"/>
<line x1="70" y1="167.45" x2="670" y2="167.45" stroke="#2e3050" stroke-width="0.8" fill="none"/>
<line x1="70" y1="134.06" x2="670" y2="134.06" stroke="#2e3050" stroke-width="0.8" fill="none"/>
<line x1="70" y1="100.67" x2="670" y2="100.67" stroke="#2e3050" stroke-width="0.8" fill="none"/>
<line x1="70" y1="67.28" x2="670" y2="67.28" stroke="#2e3050" stroke-width="0.8" fill="none"/>
</g>
<g clip-path="url(#axes-clip-1)">
<line x1="70" y1="45" x2="70" y2="290" stroke="#2e3050" stroke-width="0.8" fill="none"/>
<line x1="170" y1="45" x2="170" y2="290" stroke="#2e3050" stroke-width="0.8" fill="none"/>
<line x1="270" y1="45" x2="270" y2="290" stroke="#2e3050" stroke-width="0.8" fill="none"/>
<line x1="370" y1="45" x2="370" y2="290" stroke="#2e3050" stroke-width="0.8" fill="none"/>
<line x1="470" y1="45" x2="470" y2="290" stroke="#2e3050" stroke-width="0.8" fill="none"/>
<line x1="570" y1="45" x2="570" y2="290" stroke="#2e3050" stroke-width="0.8" fill="none"/>
<line x1="670" y1="45" x2="670" y2="290" stroke="#2e3050" stroke-width="0.8" fill="none"/>
</g>
<g clip-path="url(#axes-clip-1)">
<path d="M70 167.45 C71.69 164.85 76.78 157.02 80.17 151.88 C83.56 146.75 86.95 141.62 90.34 136.65 C93.73 131.67 97.12 126.76 100.51 122.05 C103.9 117.35 107.29 112.75 110.68 108.4 C114.07 104.05 117.46 99.87 120.85 95.96 C124.24 92.05 127.63 88.36 131.02 84.96 C134.41 81.56 137.8 78.42 141.19 75.59 C144.58 72.76 147.97 70.21 151.36 67.98 C154.75 65.75 158.14 63.83 161.53 62.22 C164.92 60.62 168.31 59.33 171.69 58.35 C175.08 57.37 178.47 56.71 181.86 56.35 C185.25 55.98 188.64 55.93 192.03 56.14 C195.42 56.35 198.81 56.86 202.2 57.61 C205.59 58.36 208.98 59.39 212.37 60.61 C215.76 61.84 219.15 63.32 222.54 64.96 C225.93 66.59 229.32 68.46 232.71 70.44 C236.1 72.41 239.49 74.58 242.88 76.83 C246.27 79.07 249.66 81.46 253.05 83.89 C256.44 86.33 259.83 88.87 263.22 91.42 C266.61 93.96 270 96.58 273.39 99.18 C276.78 101.77 280.17 104.4 283.56 106.99 C286.95 109.57 290.34 112.15 293.73 114.67 C297.12 117.19 300.51 119.69 303.9 122.1 C307.29 124.52 310.68 126.89 314.07 129.18 C317.46 131.47 320.85 133.69 324.24 135.83 C327.63 137.98 331.02 140.05 334.41 142.05 C337.8 144.05 341.19 145.97 344.58 147.83 C347.97 149.7 351.36 151.48 354.75 153.23 C358.14 154.98 361.53 156.66 364.92 158.32 C368.31 159.98 371.69 161.59 375.08 163.19 C378.47 164.8 381.86 166.37 385.25 167.96 C388.64 169.55 392.03 171.13 395.42 172.74 C398.81 174.36 402.2 175.98 405.59 177.65 C408.98 179.33 412.37 181.03 415.76 182.8 C419.15 184.57 422.54 186.39 425.93 188.28 C429.32 190.17 432.71 192.12 436.1 194.15 C439.49 196.18 442.88 198.28 446.27 200.46 C449.66 202.64 453.05 204.89 456.44 207.21 C459.83 209.53 463.22 211.93 466.61 214.37 C470 216.81 473.39 219.33 476.78 221.86 C480.17 224.4 483.56 227 486.95 229.59 C490.34 232.18 493.73 234.81 497.12 237.4 C500.51 239.99 503.9 242.6 507.29 245.13 C510.68 247.66 514.07 250.17 517.46 252.57 C520.85 254.97 524.24 257.32 527.63 259.51 C531.02 261.71 534.41 263.82 537.8 265.73 C541.19 267.64 544.58 269.43 547.97 270.98 C551.36 272.53 554.75 273.93 558.14 275.05 C561.53 276.18 564.92 277.11 568.31 277.74 C571.69 278.38 575.08 278.77 578.47 278.86 C581.86 278.95 585.25 278.77 588.64 278.28 C592.03 277.78 595.42 276.99 598.81 275.87 C602.2 274.76 605.59 273.33 608.98 271.6 C612.37 269.86 615.76 267.8 619.15 265.44 C622.54 263.08 625.93 260.39 629.32 257.44 C632.71 254.48 636.1 251.21 639.49 247.7 C642.88 244.19 646.27 240.38 649.66 236.37 C653.05 232.36 656.44 228.08 659.83 223.65 C663.22 219.22 668.31 212.09 670 209.77 L670 167.45 L70 167.45 Z" stroke="none" fill="url(#linefill-0)"/>
<path d="M70 167.45 C71.69 164.85 76.78 157.02 80.17 151.88 C83.56 146.75 86.95 141.62 90.34 136.65 C93.73 131.67 97.12 126.76 100.51 122.05 C103.9 117.35 107.29 112.75 110.68 108.4 C114.07 104.05 117.46 99.87 120.85 95.96 C124.24 92.05 127.63 88.36 131.02 84.96 C134.41 81.56 137.8 78.42 141.19 75.59 C144.58 72.76 147.97 70.21 151.36 67.98 C154.75 65.75 158.14 63.83 161.53 62.22 C164.92 60.62 168.31 59.33 171.69 58.35 C175.08 57.37 178.47 56.71 181.86 56.35 C185.25 55.98 188.64 55.93 192.03 56.14 C195.42 56.35 198.81 56.86 202.2 57.61 C205.59 58.36 208.98 59.39 212.37 60.61 C215.76 61.84 219.15 63.32 222.54 64.96 C225.93 66.59 229.32 68.46 232.71 70.44 C236.1 72.41 239.49 74.58 242.88 76.83 C246.27 79.07 249.66 81.46 253.05 83.89 C256.44 86.33 259.83 88.87 263.22 91.42 C266.61 93.96 270 96.58 273.39 99.18 C276.78 101.77 280.17 104.4 283.56 106.99 C286.95 109.57 290.34 112.15 293.73 114.67 C297.12 117.19 300.51 119.69 303.9 122.1 C307.29 124.52 310.68 126.89 314.07 129.18 C317.46 131.47 320.85 133.69 324.24 135.83 C327.63 137.98 331.02 140.05 334.41 142.05 C337.8 144.05 341.19 145.97 344.58 147.83 C347.97 149.7 351.36 151.48 354.75 153.23 C358.14 154.98 361.53 156.66 364.92 158.32 C368.31 159.98 371.69 161.59 375.08 163.19 C378.47 164.8 381.86 166.37 385.25 167.96 C388.64 169.55 392.03 171.13 395.42 172.74 C398.81 174.36 402.2 175.98 405.59 177.65 C408.98 179.33 412.37 181.03 415.76 182.8 C419.15 184.57 422.54 186.39 425.93 188.28 C429.32 190.17 432.71 192.12 436.1 194.15 C439.49 196.18 442.88 198.28 446.27 200.46 C449.66 202.64 453.05 204.89 456.44 207.21 C459.83 209.53 463.22 211.93 466.61 214.37 C470 216.81 473.39 219.33 476.78 221.86 C480.17 224.4 483.56 227 486.95 229.59 C490.34 232.18 493.73 234.81 497.12 237.4 C500.51 239.99 503.9 242.6 507.29 245.13 C510.68 247.66 514.07 250.17 517.46 252.57 C520.85 254.97 524.24 257.32 527.63 259.51 C531.02 261.71 534.41 263.82 537.8 265.73 C541.19 267.64 544.58 269.43 547.97 270.98 C551.36 272.53 554.75 273.93 558.14 275.05 C561.53 276.18 564.92 277.11 568.31 277.74 C571.69 278.38 575.08 278.77 578.47 278.86 C581.86 278.95 585.25 278.77 588.64 278.28 C592.03 277.78 595.42 276.99 598.81 275.87 C602.2 274.76 605.59 273.33 608.98 271.6 C612.37 269.86 615.76 267.8 619.15 265.44 C622.54 263.08 625.93 260.39 629.32 257.44 C632.71 254.48 636.1 251.21 639.49 247.7 C642.88 244.19 646.27 240.38 649.66 236.37 C653.05 232.36 656.44 228.08 659.83 223.65 C663.22 219.22 668.31 212.09 670 209.77" stroke="#4c72b0" stroke-width="2.5" fill="none" stroke-linecap="round" stroke-linejoin="round"/>
<circle cx="70" cy="167.45" r="5" stroke="#ffffff" stroke-width="1" fill="#4c72b0"/>
<circle cx="80.17" cy="151.88" r="5" stroke="#ffffff" stroke-width="1" fill="#4c72b0"/>
<circle cx="90.34" cy="136.65" r="5" stroke="#ffffff" stroke-width="1" fill="#4c72b0"/>
<circle cx="100.51" cy="122.05" r="5" stroke="#ffffff" stroke-width="1" fill="#4c72b0"/>
<circle cx="110.68" cy="108.4" r="5" stroke="#ffffff" stroke-width="1" fill="#4c72b0"/>
<circle cx="120.85" cy="95.96" r="5" stroke="#ffffff" stroke-width="1" fill="#4c72b0"/>
<circle cx="131.02" cy="84.96" r="5" stroke="#ffffff" stroke-width="1" fill="#4c72b0"/>
<circle cx="141.19" cy="75.59" r="5" stroke="#ffffff" stroke-width="1" fill="#4c72b0"/>
<circle cx="151.36" cy="67.98" r="5" stroke="#ffffff" stroke-width="1" fill="#4c72b0"/>
<circle cx="161.53" cy="62.22" r="5" stroke="#ffffff" stroke-width="1" fill="#4c72b0"/>
<circle cx="171.69" cy="58.35" r="5" stroke="#ffffff" stroke-width="1" fill="#4c72b0"/>
<circle cx="181.86" cy="56.35" r="5" stroke="#ffffff" stroke-width="1" fill="#4c72b0"/>
<circle cx="192.03" cy="56.14" r="5" stroke="#ffffff" stroke-width="1" fill="#4c72b0"/>
<circle cx="202.2" cy="57.61" r="5" stroke="#ffffff" stroke-width="1" fill="#4c72b0"/>
<circle cx="212.37" cy="60.61" r="5" stroke="#ffffff" stroke-width="1" fill="#4c72b0"/>
<circle cx="222.54" cy="64.96" r="5" stroke="#ffffff" stroke-width="1" fill="#4c72b0"/>
<circle cx="232.71" cy="70.44" r="5" stroke="#ffffff" stroke-width="1" fill="#4c72b0"/>
<circle cx="242.88" cy="76.83" r="5" stroke="#ffffff" stroke-width="1" fill="#4c72b0"/>
<circle cx="253.05" cy="83.89" r="5" stroke="#ffffff" stroke-width="1" fill="#4c72b0"/>
<circle cx="263.22" cy="91.42" r="5" stroke="#ffffff" stroke-width="1" fill="#4c72b0"/>
<circle cx="273.39" cy="99.18" r="5" stroke="#ffffff" stroke-width="1" fill="#4c72b0"/>
<circle cx="283.56" cy="106.99" r="5" stroke="#ffffff" stroke-width="1" fill="#4c72b0"/>
<circle cx="293.73" cy="114.67" r="5" stroke="#ffffff" stroke-width="1" fill="#4c72b0"/>
<circle cx="303.9" cy="122.1" r="5" stroke="#ffffff" stroke-width="1" fill="#4c72b0"/>
<circle cx="314.07" cy="129.18" r="5" stroke="#ffffff" stroke-width="1" fill="#4c72b0"/>
<circle cx="324.24" cy="135.83" r="5" stroke="#ffffff" stroke-width="1" fill="#4c72b0"/>
<circle cx="334.41" cy="142.05" r="5" stroke="#ffffff" stroke-width="1" fill="#4c72b0"/>
<circle cx="344.58" cy="147.83" r="5" stroke="#ffffff" stroke-width="1" fill="#4c72b0"/>
<circle cx="354.75" cy="153.23" r="5" stroke="#ffffff" stroke-width="1" fill="#4c72b0"/>
<circle cx="364.92" cy="158.32" r="5" stroke="#ffffff" stroke-width="1" fill="#4c72b0"/>
<circle cx="375.08" cy="163.19" r="5" stroke="#ffffff" stroke-width="1" fill="#4c72b0"/>
<circle cx="385.25" cy="167.96" r="5" stroke="#ffffff" stroke-width="1" fill="#4c72b0"/>
<circle cx="395.42" cy="172.74" r="5" stroke="#ffffff" stroke-width="1" fill="#4c72b0"/>
<circle cx="405.59" cy="177.65" r="5" stroke="#ffffff" stroke-width="1" fill="#4c72b0"/>
<circle cx="415.76" cy="182.8" r="5" stroke="#ffffff" stroke-width="1" fill="#4c72b0"/>
<circle cx="425.93" cy="188.28" r="5" stroke="#ffffff" stroke-width="1" fill="#4c72b0"/>
<circle cx="436.1" cy="194.15" r="5" stroke="#ffffff" stroke-width="1" fill="#4c72b0"/>
<circle cx="446.27" cy="200.46" r="5" stroke="#ffffff" stroke-width="1" fill="#4c72b0"/>
<circle cx="456.44" cy="207.21" r="5" stroke="#ffffff" stroke-width="1" fill="#4c72b0"/>
<circle cx="466.61" cy="214.37" r="5" stroke="#ffffff" stroke-width="1" fill="#4c72b0"/>
<circle cx="476.78" cy="221.86" r="5" stroke="#ffffff" stroke-width="1" fill="#4c72b0"/>
<circle cx="486.95" cy="229.59" r="5" stroke="#ffffff" stroke-width="1" fill="#4c72b0"/>
<circle cx="497.12" cy="237.4" r="5" stroke="#ffffff" stroke-width="1" fill="#4c72b0"/>
<circle cx="507.29" cy="245.13" r="5" stroke="#ffffff" stroke-width="1" fill="#4c72b0"/>
<circle cx="517.46" cy="252.57" r="5" stroke="#ffffff" stroke-width="1" fill="#4c72b0"/>
<circle cx="527.63" cy="259.51" r="5" stroke="#ffffff" stroke-width="1" fill="#4c72b0"/>
<circle cx="537.8" cy="265.73" r="5" stroke="#ffffff" stroke-width="1" fill="#4c72b0"/>
<circle cx="547.97" cy="270.98" r="5" stroke="#ffffff" stroke-width="1" fill="#4c72b0"/>
<circle cx="558.14" cy="275.05" r="5" stroke="#ffffff" stroke-width="1" fill="#4c72b0"/>
<circle cx="568.31" cy="277.74" r="5" stroke="#ffffff" stroke-width="1" fill="#4c72b0"/>
<circle cx="578.47" cy="278.86" r="5" stroke="#ffffff" stroke-width="1" fill="#4c72b0"/>
<circle cx="588.64" cy="278.28" r="5" stroke="#ffffff" stroke-width="1" fill="#4c72b0"/>
<circle cx="598.81" cy="275.87" r="5" stroke="#ffffff" stroke-width="1" fill="#4c72b0"/>
<circle cx="608.98" cy="271.6" r="5" stroke="#ffffff" stroke-width="1" fill="#4c72b0"/>
<circle cx="619.15" cy="265.44" r="5" stroke="#ffffff" stroke-width="1" fill="#4c72b0"/>
<circle cx="629.32" cy="257.44" r="5" stroke="#ffffff" stroke-width="1" fill="#4c72b0"/>
<circle cx="639.49" cy="247.7" r="5" stroke="#ffffff" stroke-width="1" fill="#4c72b0"/>
<circle cx="649.66" cy="236.37" r="5" stroke="#ffffff" stroke-width="1" fill="#4c72b0"/>
<circle cx="659.83" cy="223.65" r="5" stroke="#ffffff" stroke-width="1" fill="#4c72b0"/>
<circle cx="670" cy="209.77" r="5" stroke="#ffffff" stroke-width="1" fill="#4c72b0"/>
<path d="M70 87.31 C71.69 86.38 76.78 83.34 80.17 81.71 C83.56 80.07 86.95 78.58 90.34 77.48 C93.73 76.39 97.12 75.54 100.51 75.13 C103.9 74.72 107.29 74.65 110.68 75.03 C114.07 75.42 117.46 76.2 120.85 77.43 C124.24 78.66 127.63 80.34 131.02 82.41 C134.41 84.48 137.8 87 141.19 89.85 C144.58 92.69 147.97 95.98 151.36 99.48 C154.75 102.98 158.14 106.87 161.53 110.87 C164.92 114.87 168.31 119.18 171.69 123.48 C175.08 127.79 178.47 132.3 181.86 136.7 C185.25 141.1 188.64 145.59 192.03 149.88 C195.42 154.17 198.81 158.44 202.2 162.43 C205.59 166.42 208.98 170.28 212.37 173.82 C215.76 177.36 219.15 180.68 222.54 183.66 C225.93 186.65 229.32 189.34 232.71 191.71 C236.1 194.08 239.49 196.12 242.88 197.89 C246.27 199.65 249.66 201.07 253.05 202.28 C256.44 203.5 259.83 204.39 263.22 205.15 C266.61 205.92 270 206.41 273.39 206.87 C276.78 207.32 280.17 207.57 283.56 207.87 C286.95 208.17 290.34 208.36 293.73 208.67 C297.12 208.97 300.51 209.26 303.9 209.72 C307.29 210.18 310.68 210.7 314.07 211.43 C317.46 212.16 320.85 213.03 324.24 214.1 C327.63 215.18 331.02 216.45 334.41 217.9 C337.8 219.35 341.19 221.01 344.58 222.81 C347.97 224.61 351.36 226.61 354.75 228.67 C358.14 230.74 361.53 232.97 364.92 235.17 C368.31 237.37 371.69 239.69 375.08 241.87 C378.47 244.05 381.86 246.27 385.25 248.24 C388.64 250.22 392.03 252.14 395.42 253.72 C398.81 255.31 402.2 256.74 405.59 257.77 C408.98 258.8 412.37 259.57 415.76 259.89 C419.15 260.22 422.54 260.2 425.93 259.73 C429.32 259.26 432.71 258.37 436.1 257.05 C439.49 255.73 442.88 253.96 446.27 251.8 C449.66 249.65 453.05 247.03 456.44 244.11 C459.83 241.19 463.22 237.83 466.61 234.27 C470 230.7 473.39 226.76 476.78 222.72 C480.17 218.67 483.56 214.33 486.95 210.01 C490.34 205.69 493.73 201.17 497.12 196.77 C500.51 192.37 503.9 187.89 507.29 183.63 C510.68 179.36 514.07 175.13 517.46 171.18 C520.85 167.23 524.24 163.42 527.63 159.94 C531.02 156.45 534.41 153.2 537.8 150.28 C541.19 147.36 544.58 144.74 547.97 142.43 C551.36 140.13 554.75 138.16 558.14 136.46 C561.53 134.76 564.92 133.39 568.31 132.24 C571.69 131.08 575.08 130.23 578.47 129.51 C581.86 128.79 585.25 128.33 588.64 127.9 C592.03 127.47 595.42 127.23 598.81 126.94 C602.2 126.64 605.59 126.46 608.98 126.14 C612.37 125.82 615.76 125.52 619.15 125.04 C622.54 124.55 625.93 124 629.32 123.23 C632.71 122.47 636.1 121.56 639.49 120.44 C642.88 119.32 646.27 118.01 649.66 116.52 C653.05 115.03 656.44 113.33 659.83 111.5 C663.22 109.67 668.31 106.54 670 105.55" stroke="#dd8452" stroke-width="2.5" fill="none" stroke-linecap="round" stroke-linejoin="round"/>
<circle cx="70" cy="87.31" r="5" stroke="#ffffff" stroke-width="1" fill="#dd8452"/>
<circle cx="80.17" cy="81.71" r="5" stroke="#ffffff" stroke-width="1" fill="#dd8452"/>
<circle cx="90.34" cy="77.48" r="5" stroke="#ffffff" stroke-width="1" fill="#dd8452"/>
<circle cx="100.51" cy="75.13" r="5" stroke="#ffffff" stroke-width="1" fill="#dd8452"/>
<circle cx="110.68" cy="75.03" r="5" stroke="#ffffff" stroke-width="1" fill="#dd8452"/>
<circle cx="120.85" cy="77.43" r="5" stroke="#ffffff" stroke-width="1" fill="#dd8452"/>
<circle cx="131.02" cy="82.41" r="5" stroke="#ffffff" stroke-width="1" fill="#dd8452"/>
<circle cx="141.19" cy="89.85" r="5" stroke="#ffffff" stroke-width="1" fill="#dd8452"/>
<circle cx="151.36" cy="99.48" r="5" stroke="#ffffff" stroke-width="1" fill="#dd8452"/>
<circle cx="161.53" cy="110.87" r="5" stroke="#ffffff" stroke-width="1" fill="#dd8452"/>
<circle cx="171.69" cy="123.48" r="5" stroke="#ffffff" stroke-width="1" fill="#dd8452"/>
<circle cx="181.86" cy="136.7" r="5" stroke="#ffffff" stroke-width="1" fill="#dd8452"/>
<circle cx="192.03" cy="149.88" r="5" stroke="#ffffff" stroke-width="1" fill="#dd8452"/>
<circle cx="202.2" cy="162.43" r="5" stroke="#ffffff" stroke-width="1" fill="#dd8452"/>
<circle cx="212.37" cy="173.82" r="5" stroke="#ffffff" stroke-width="1" fill="#dd8452"/>
<circle cx="222.54" cy="183.66" r="5" stroke="#ffffff" stroke-width="1" fill="#dd8452"/>
<circle cx="232.71" cy="191.71" r="5" stroke="#ffffff" stroke-width="1" fill="#dd8452"/>
<circle cx="242.88" cy="197.89" r="5" stroke="#ffffff" stroke-width="1" fill="#dd8452"/>
<circle cx="253.05" cy="202.28" r="5" stroke="#ffffff" stroke-width="1" fill="#dd8452"/>
<circle cx="263.22" cy="205.15" r="5" stroke="#ffffff" stroke-width="1" fill="#dd8452"/>
<circle cx="273.39" cy="206.87" r="5" stroke="#ffffff" stroke-width="1" fill="#dd8452"/>
<circle cx="283.56" cy="207.87" r="5" stroke="#ffffff" stroke-width="1" fill="#dd8452"/>
<circle cx="293.73" cy="208.67" r="5" stroke="#ffffff" stroke-width="1" fill="#dd8452"/>
<circle cx="303.9" cy="209.72" r="5" stroke="#ffffff" stroke-width="1" fill="#dd8452"/>
<circle cx="314.07" cy="211.43" r="5" stroke="#ffffff" stroke-width="1" fill="#dd8452"/>
<circle cx="324.24" cy="214.1" r="5" stroke="#ffffff" stroke-width="1" fill="#dd8452"/>
<circle cx="334.41" cy="217.9" r="5" stroke="#ffffff" stroke-width="1" fill="#dd8452"/>
<circle cx="344.58" cy="222.81" r="5" stroke="#ffffff" stroke-width="1" fill="#dd8452"/>
<circle cx="354.75" cy="228.67" r="5" stroke="#ffffff" stroke-width="1" fill="#dd8452"/>
<circle cx="364.92" cy="235.17" r="5" stroke="#ffffff" stroke-width="1" fill="#dd8452"/>
<circle cx="375.08" cy="241.87" r="5" stroke="#ffffff" stroke-width="1" fill="#dd8452"/>
<circle cx="385.25" cy="248.24" r="5" stroke="#ffffff" stroke-width="1" fill="#dd8452"/>
<circle cx="395.42" cy="253.72" r="5" stroke="#ffffff" stroke-width="1" fill="#dd8452"/>
<circle cx="405.59" cy="257.77" r="5" stroke="#ffffff" stroke-width="1" fill="#dd8452"/>
<circle cx="415.76" cy="259.89" r="5" stroke="#ffffff" stroke-width="1" fill="#dd8452"/>
<circle cx="425.93" cy="259.73" r="5" stroke="#ffffff" stroke-width="1" fill="#dd8452"/>
<circle cx="436.1" cy="257.05" r="5" stroke="#ffffff" stroke-width="1" fill="#dd8452"/>
<circle cx="446.27" cy="251.8" r="5" stroke="#ffffff" stroke-width="1" fill="#dd8452"/>
<circle cx="456.44" cy="244.11" r="5" stroke="#ffffff" stroke-width="1" fill="#dd8452"/>
<circle cx="466.61" cy="234.27" r="5" stroke="#ffffff" stroke-width="1" fill="#dd8452"/>
<circle cx="476.78" cy="222.72" r="5" stroke="#ffffff" stroke-width="1" fill="#dd8452"/>
<circle cx="486.95" cy="210.01" r="5" stroke="#ffffff" stroke-width="1" fill="#dd8452"/>
<circle cx="497.12" cy="196.77" r="5" stroke="#ffffff" stroke-width="1" fill="#dd8452"/>
<circle cx="507.29" cy="183.63" r="5" stroke="#ffffff" stroke-width="1" fill="#dd8452"/>
<circle cx="517.46" cy="171.18" r="5" stroke="#ffffff" stroke-width="1" fill="#dd8452"/>
<circle cx="527.63" cy="159.94" r="5" stroke="#ffffff" stroke-width="1" fill="#dd8452"/>
<circle cx="537.8" cy="150.28" r="5" stroke="#ffffff" stroke-width="1" fill="#dd8452"/>
<circle cx="547.97" cy="142.43" r="5" stroke="#ffffff" stroke-width="1" fill="#dd8452"/>
<circle cx="558.14" cy="136.46" r="5" stroke="#ffffff" stroke-width="1" fill="#dd8452"/>
<circle cx="568.31" cy="132.24" r="5" stroke="#ffffff" stroke-width="1" fill="#dd8452"/>
<circle cx="578.47" cy="129.51" r="5" stroke="#ffffff" stroke-width="1" fill="#dd8452"/>
<circle cx="588.64" cy="127.9" r="5" stroke="#ffffff" stroke-width="1" fill="#dd8452"/>
<circle cx="598.81" cy="126.94" r="5" stroke="#ffffff" stroke-width="1" fill="#dd8452"/>
<circle cx="608.98" cy="126.14" r="5" stroke="#ffffff" stroke-width="1" fill="#dd8452"/>
<circle cx="619.15" cy="125.04" r="5" stroke="#ffffff" stroke-width="1" fill="#dd8452"/>
<circle cx="629.32" cy="123.23" r="5" stroke="#ffffff" stroke-width="1" fill="#dd8452"/>
<circle cx="639.49" cy="120.44" r="5" stroke="#ffffff" stroke-width="1" fill="#dd8452"/>
<circle cx="649.66" cy="116.52" r="5" stroke="#ffffff" stroke-width="1" fill="#dd8452"/>
<circle cx="659.83" cy="111.5" r="5" stroke="#ffffff" stroke-width="1" fill="#dd8452"/>
<circle cx="670" cy="105.55" r="5" stroke="#ffffff" stroke-width="1" fill="#dd8452"/>
</g>
<line x1="70" y1="290" x2="670" y2="290" stroke="#5a5b7a" stroke-width="1" fill="none"/>
<line x1="70" y1="45" x2="70" y2="290" stroke="#5a5b7a" stroke-width="1" fill="none"/>
<line x1="70" y1="290" x2="70" y2="295" stroke="#5a5b7a" stroke-width="1" fill="none"/>
<text x="70" y="298" font-size="11" font-family="system-ui, -apple-system, BlinkMacSystemFont, 'Segoe UI', sans-serif" text-anchor="middle" dominant-baseline="hanging" fill="#c8cae8">0</text>
<line x1="170" y1="290" x2="170" y2="295" stroke="#5a5b7a" stroke-width="1" fill="none"/>
<text x="170" y="298" font-size="11" font-family="system-ui, -apple-system, BlinkMacSystemFont, 'Segoe UI', sans-serif" text-anchor="middle" dominant-baseline="hanging" fill="#c8cae8">1</text>
<line x1="270" y1="290" x2="270" y2="295" stroke="#5a5b7a" stroke-width="1" fill="none"/>
<text x="270" y="298" font-size="11" font-family="system-ui, -apple-system, BlinkMacSystemFont, 'Segoe UI', sans-serif" text-anchor="middle" dominant-baseline="hanging" fill="#c8cae8">2</text>
<line x1="370" y1="290" x2="370" y2="295" stroke="#5a5b7a" stroke-width="1" fill="none"/>
<text x="370" y="298" font-size="11" font-family="system-ui, -apple-system, BlinkMacSystemFont, 'Segoe UI', sans-serif" text-anchor="middle" dominant-baseline="hanging" fill="#c8cae8">3</text>
<line x1="470" y1="290" x2="470" y2="295" stroke="#5a5b7a" stroke-width="1" fill="none"/>
<text x="470" y="298" font-size="11" font-family="system-ui, -apple-system, BlinkMacSystemFont, 'Segoe UI', sans-serif" text-anchor="middle" dominant-baseline="hanging" fill="#c8cae8">4</text>
<line x1="570" y1="290" x2="570" y2="295" stroke="#5a5b7a" stroke-width="1" fill="none"/>
<text x="570" y="298" font-size="11" font-family="system-ui, -apple-system, BlinkMacSystemFont, 'Segoe UI', sans-serif" text-anchor="middle" dominant-baseline="hanging" fill="#c8cae8">5</text>
<line x1="670" y1="290" x2="670" y2="295" stroke="#5a5b7a" stroke-width="1" fill="none"/>
<text x="670" y="298" font-size="11" font-family="system-ui, -apple-system, BlinkMacSystemFont, 'Segoe UI', sans-serif" text-anchor="middle" dominant-baseline="hanging" fill="#c8cae8">6</text>
<line x1="65" y1="267.62" x2="70" y2="267.62" stroke="#5a5b7a" stroke-width="1" fill="none"/>
<text x="62" y="267.62" font-size="11" font-family="system-ui, -apple-system, BlinkMacSystemFont, 'Segoe UI', sans-serif" text-anchor="end" dominant-baseline="middle" fill="#c8cae8">-1.5</text>
<line x1="65" y1="234.23" x2="70" y2="234.23" stroke="#5a5b7a" stroke-width="1" fill="none"/>
<text x="62" y="234.23" font-size="11" font-family="system-ui, -apple-system, BlinkMacSystemFont, 'Segoe UI', sans-serif" text-anchor="end" dominant-baseline="middle" fill="#c8cae8">-1.0</text>
<line x1="65" y1="200.84" x2="70" y2="200.84" stroke="#5a5b7a" stroke-width="1" fill="none"/>
<text x="62" y="200.84" font-size="11" font-family="system-ui, -apple-system, BlinkMacSystemFont, 'Segoe UI', sans-serif" text-anchor="end" dominant-baseline="middle" fill="#c8cae8">-0.5</text>
<line x1="65" y1="167.45" x2="70" y2="167.45" stroke="#5a5b7a" stroke-width="1" fill="none"/>
<text x="62" y="167.45" font-size="11" font-family="system-ui, -apple-system, BlinkMacSystemFont, 'Segoe UI', sans-serif" text-anchor="end" dominant-baseline="middle" fill="#c8cae8">0.0</text>
<line x1="65" y1="134.06" x2="70" y2="134.06" stroke="#5a5b7a" stroke-width="1" fill="none"/>
<text x="62" y="134.06" font-size="11" font-family="system-ui, -apple-system, BlinkMacSystemFont, 'Segoe UI', sans-serif" text-anchor="end" dominant-baseline="middle" fill="#c8cae8">0.5</text>
<line x1="65" y1="100.67" x2="70" y2="100.67" stroke="#5a5b7a" stroke-width="1" fill="none"/>
<text x="62" y="100.67" font-size="11" font-family="system-ui, -apple-system, BlinkMacSystemFont, 'Segoe UI', sans-serif" text-anchor="end" dominant-baseline="middle" fill="#c8cae8">1.0</text>
<line x1="65" y1="67.28" x2="70" y2="67.28" stroke="#5a5b7a" stroke-width="1" fill="none"/>
<text x="62" y="67.28" font-size="11" font-family="system-ui, -apple-system, BlinkMacSystemFont, 'Segoe UI', sans-serif" text-anchor="end" dominant-baseline="middle" fill="#c8cae8">1.5</text>
<text x="370" y="320" font-size="12" font-family="system-ui, -apple-system, BlinkMacSystemFont, 'Segoe UI', sans-serif" text-anchor="middle" dominant-baseline="hanging" fill="#c8cae8">x</text>
<text x="22" y="167.5" transform="rotate(-90,22,167.5)" font-size="12" font-family="system-ui, -apple-system, BlinkMacSystemFont, 'Segoe UI', sans-serif" text-anchor="middle" dominant-baseline="middle" fill="#c8cae8">y</text>
<text x="370" y="30" font-size="16" font-family="system-ui, -apple-system, BlinkMacSystemFont, 'Segoe UI', sans-serif" font-weight="bold" text-anchor="middle" dominant-baseline="auto" fill="#e0e2ff">Theme Showcase</text>
<rect x="557.2" y="55" width="102.8" height="64" rx="4" ry="4" stroke="#2e3050" stroke-width="0.8" fill="rgba(26,27,46,0.898)"/>
<line x1="567.2" y1="76" x2="587.2" y2="76" stroke="#4c72b0" stroke-width="2.5" fill="none" stroke-linecap="round"/>
<circle cx="577.2" cy="76" r="3" stroke="none" fill="#4c72b0"/>
<text x="591.2" y="76" font-size="12" font-family="system-ui, -apple-system, BlinkMacSystemFont, 'Segoe UI', sans-serif" text-anchor="start" dominant-baseline="middle" fill="#c8cae8">series A</text>
<line x1="567.2" y1="98" x2="587.2" y2="98" stroke="#dd8452" stroke-width="2.5" fill="none" stroke-linecap="round"/>
<circle cx="577.2" cy="98" r="3" stroke="none" fill="#dd8452"/>
<text x="591.2" y="98" font-size="12" font-family="system-ui, -apple-system, BlinkMacSystemFont, 'Segoe UI', sans-serif" text-anchor="start" dominant-baseline="middle" fill="#c8cae8">series B</text>
</svg>
