<svg xmlns="http://www.w3.org/2000/svg" width="800" height="450">
<defs>
<clipPath id="axes-clip-1"><rect x="70" y="45" width="700" height="345"/></clipPath>
</defs>
<rect x="0" y="0" width="800" height="450" stroke="none" fill="#1a1b2e"/>
<rect x="70" y="45" width="700" height="345" stroke="none" fill="#22233a"/>
<g clip-path="url(#axes-clip-1)">
<line x1="70" y1="374.4" x2="770" y2="374.4" stroke="#2e3050" stroke-width="0.8" fill="none"/>
<line x1="70" y1="335.2" x2="770" y2="335.2" stroke="#2e3050" stroke-width="0.8" fill="none"/>
<line x1="70" y1="295.9" x2="770" y2="295.9" stroke="#2e3050" stroke-width="0.8" fill="none"/>
<line x1="70" y1="256.7" x2="770" y2="256.7" stroke="#2e3050" stroke-width="0.8" fill="none"/>
<line x1="70" y1="217.5" x2="770" y2="217.5" stroke="#2e3050" stroke-width="0.8" fill="none"/>
<line x1="70" y1="178.3" x2="770" y2="178.3" stroke="#2e3050" stroke-width="0.8" fill="none"/>
<line x1="70" y1="139.1" x2="770" y2="139.1" stroke="#2e3050" stroke-width="0.8" fill="none"/>
<line x1="70" y1="99.8" x2="770" y2="99.8" stroke="#2e3050" stroke-width="0.8" fill="none"/>
<line x1="70" y1="60.6" x2="770" y2="60.6" stroke="#2e3050" stroke-width="0.8" fill="none"/>
</g>
<g clip-path="url(#axes-clip-1)">
<line x1="70" y1="45" x2="70" y2="390" stroke="#2e3050" stroke-width="0.8" fill="none"/>
<line x1="181.4" y1="45" x2="181.4" y2="390" stroke="#2e3050" stroke-width="0.8" fill="none"/>
<line x1="292.8" y1="45" x2="292.8" y2="390" stroke="#2e3050" stroke-width="0.8" fill="none"/>
<line x1="404.2" y1="45" x2="404.2" y2="390" stroke="#2e3050" stroke-width="0.8" fill="none"/>
<line x1="515.6" y1="45" x2="515.6" y2="390" stroke="#2e3050" stroke-width="0.8" fill="none"/>
<line x1="627.0" y1="45" x2="627.0" y2="390" stroke="#2e3050" stroke-width="0.8" fill="none"/>
<line x1="738.5" y1="45" x2="738.5" y2="390" stroke="#2e3050" stroke-width="0.8" fill="none"/>
</g>
<g clip-path="url(#axes-clip-1)">
<path d="M70 217.5 C72.0 212.0 77.9 195.1 81.9 184.3 C85.8 173.5 89.8 162.7 93.7 152.7 C97.7 142.6 101.6 132.8 105.6 124.0 C109.6 115.1 113.5 106.7 117.5 99.4 C121.4 92.2 125.4 85.6 129.3 80.3 C133.3 74.9 137.2 70.5 141.2 67.3 C145.1 64.1 149.1 62.0 153.1 61.1 C157.0 60.2 161.0 60.6 164.9 62.0 C168.9 63.5 172.8 66.2 176.8 69.9 C180.7 73.7 184.7 78.7 188.6 84.5 C192.6 90.4 196.6 97.4 200.5 105.1 C204.5 112.8 208.4 121.6 212.4 130.8 C216.3 140.0 220.3 150.1 224.2 160.4 C228.2 170.7 232.2 181.6 236.1 192.6 C240.1 203.5 244.0 214.8 248.0 225.9 C251.9 236.9 255.9 248.1 259.8 258.8 C263.8 269.4 267.7 280.0 271.7 289.8 C275.7 299.6 279.6 309.1 283.6 317.6 C287.5 326.1 291.5 334.1 295.4 340.9 C299.4 347.7 303.3 353.7 307.3 358.6 C311.2 363.4 315.2 367.3 319.2 369.9 C323.1 372.5 327.1 374.0 331.0 374.3 C335.0 374.6 338.9 373.7 342.9 371.7 C346.8 369.6 350.8 366.3 354.8 362.0 C358.7 357.7 362.7 352.2 366.6 345.9 C370.6 339.5 374.5 332.0 378.5 323.9 C382.4 315.8 386.4 306.7 390.3 297.1 C394.3 287.6 398.3 277.3 402.2 266.8 C406.2 256.3 410.1 245.2 414.1 234.2 C418.0 223.2 422.0 211.8 425.9 200.8 C429.9 189.8 433.8 178.7 437.8 168.2 C441.8 157.7 445.7 147.4 449.7 137.9 C453.6 128.3 457.6 119.2 461.5 111.1 C465.5 103.0 469.4 95.5 473.4 89.1 C477.3 82.8 481.3 77.3 485.3 73.0 C489.2 68.7 493.2 65.4 497.1 63.3 C501.1 61.3 505.0 60.4 509.0 60.7 C512.9 61.0 516.9 62.5 520.9 65.1 C524.8 67.7 528.8 71.6 532.7 76.4 C536.7 81.3 540.6 87.3 544.6 94.1 C548.5 100.9 552.5 108.9 556.4 117.4 C560.4 125.9 564.4 135.4 568.3 145.2 C572.3 155.0 576.2 165.6 580.2 176.2 C584.1 186.9 588.1 198.1 592.0 209.2 C596.0 220.2 599.9 231.5 603.9 242.5 C607.9 253.4 611.8 264.3 615.8 274.6 C619.7 284.9 623.7 295.0 627.6 304.2 C631.6 313.4 635.5 322.2 639.5 329.9 C643.5 337.6 647.4 344.6 651.4 350.5 C655.3 356.4 659.3 361.3 663.2 365.1 C667.2 368.8 671.1 371.5 675.1 373.0 C679.0 374.5 683.0 374.8 687.0 373.9 C690.9 373.0 694.9 370.9 698.8 367.7 C702.8 364.5 706.7 360.1 710.7 354.7 C714.6 349.4 718.6 342.8 722.5 335.6 C726.5 328.3 730.5 319.9 734.4 311.1 C738.4 302.2 742.3 292.4 746.3 282.3 C750.2 272.3 754.2 261.5 758.1 250.7 C762.1 239.9 768.0 223.0 770 217.5" stroke="#4c72b0" stroke-width="2.5" fill="none" stroke-linecap="round" stroke-linejoin="round"/>
<circle cx="70" cy="217.5" r="5" stroke="#ffffff" stroke-width="1" fill="#4c72b0"/>
<circle cx="81.9" cy="184.3" r="5" stroke="#ffffff" stroke-width="1" fill="#4c72b0"/>
<circle cx="93.7" cy="152.7" r="5" stroke="#ffffff" stroke-width="1" fill="#4c72b0"/>
<circle cx="105.6" cy="124.0" r="5" stroke="#ffffff" stroke-width="1" fill="#4c72b0"/>
<circle cx="117.5" cy="99.4" r="5" stroke="#ffffff" stroke-width="1" fill="#4c72b0"/>
<circle cx="129.3" cy="80.3" r="5" stroke="#ffffff" stroke-width="1" fill="#4c72b0"/>
<circle cx="141.2" cy="67.3" r="5" stroke="#ffffff" stroke-width="1" fill="#4c72b0"/>
<circle cx="153.1" cy="61.1" r="5" stroke="#ffffff" stroke-width="1" fill="#4c72b0"/>
<circle cx="164.9" cy="62.0" r="5" stroke="#ffffff" stroke-width="1" fill="#4c72b0"/>
<circle cx="176.8" cy="69.9" r="5" stroke="#ffffff" stroke-width="1" fill="#4c72b0"/>
<circle cx="188.6" cy="84.5" r="5" stroke="#ffffff" stroke-width="1" fill="#4c72b0"/>
<circle cx="200.5" cy="105.1" r="5" stroke="#ffffff" stroke-width="1" fill="#4c72b0"/>
<circle cx="212.4" cy="130.8" r="5" stroke="#ffffff" stroke-width="1" fill="#4c72b0"/>
<circle cx="224.2" cy="160.4" r="5" stroke="#ffffff" stroke-width="1" fill="#4c72b0"/>
<circle cx="236.1" cy="192.6" r="5" stroke="#ffffff" stroke-width="1" fill="#4c72b0"/>
<circle cx="248.0" cy="225.9" r="5" stroke="#ffffff" stroke-width="1" fill="#4c72b0"/>
<circle cx="259.8" cy="258.8" r="5" stroke="#ffffff" stroke-width="1" fill="#4c72b0"/>
<circle cx="271.7" cy="289.8" r="5" stroke="#ffffff" stroke-width="1" fill="#4c72b0"/>
<circle cx="283.6" cy="317.6" r="5" stroke="#ffffff" stroke-width="1" fill="#4c72b0"/>
<circle cx="295.4" cy="340.9" r="5" stroke="#ffffff" stroke-width="1" fill="#4c72b0"/>
<circle cx="307.3" cy="358.6" r="5" stroke="#ffffff" stroke-width="1" fill="#4c72b0"/>
<circle cx="319.2" cy="369.9" r="5" stroke="#ffffff" stroke-width="1" fill="#4c72b0"/>
<circle cx="331.0" cy="374.3" r="5" stroke="#ffffff" stroke-width="1" fill="#4c72b0"/>
<circle cx="342.9" cy="371.7" r="5" stroke="#ffffff" stroke-width="1" fill="#4c72b0"/>
<circle cx="354.8" cy="362.0" r="5" stroke="#ffffff" stroke-width="1" fill="#4c72b0"/>
<circle cx="366.6" cy="345.9" r="5" stroke="#ffffff" stroke-width="1" fill="#4c72b0"/>
<circle cx="378.5" cy="323.9" r="5" stroke="#ffffff" stroke-width="1" fill="#4c72b0"/>
<circle cx="390.3" cy="297.1" r="5" stroke="#ffffff" stroke-width="1" fill="#4c72b0"/>
<circle cx="402.2" cy="266.8" r="5" stroke="#ffffff" stroke-width="1" fill="#4c72b0"/>
<circle cx="414.1" cy="234.2" r="5" stroke="#ffffff" stroke-width="1" fill="#4c72b0"/>
<circle cx="425.9" cy="200.8" r="5" stroke="#ffffff" stroke-width="1" fill="#4c72b0"/>
<circle cx="437.8" cy="168.2" r="5" stroke="#ffffff" stroke-width="1" fill="#4c72b0"/>
<circle cx="449.7" cy="137.9" r="5" stroke="#ffffff" stroke-width="1" fill="#4c72b0"/>
<circle cx="461.5" cy="111.1" r="5" stroke="#ffffff" stroke-width="1" fill="#4c72b0"/>
<circle cx="473.4" cy="89.1" r="5" stroke="#ffffff" stroke-width="1" fill="#4c72b0"/>
<circle cx="485.3" cy="73.0" r="5" stroke="#ffffff" stroke-width="1" fill="#4c72b0"/>
<circle cx="497.1" cy="63.3" r="5" stroke="#ffffff" stroke-width="1" fill="#4c72b0"/>
<circle cx="509.0" cy="60.7" r="5" stroke="#ffffff" stroke-width="1" fill="#4c72b0"/>
<circle cx="520.9" cy="65.1" r="5" stroke="#ffffff" stroke-width="1" fill="#4c72b0"/>
<circle cx="532.7" cy="76.4" r="5" stroke="#ffffff" stroke-width="1" fill="#4c72b0"/>
<circle cx="544.6" cy="94.1" r="5" stroke="#ffffff" stroke-width="1" fill="#4c72b0"/>
<circle cx="556.4" cy="117.4" r="5" stroke="#ffffff" stroke-width="1" fill="#4c72b0"/>
<circle cx="568.3" cy="145.2" r="5" stroke="#ffffff" stroke-width="1" fill="#4c72b0"/>
<circle cx="580.2" cy="176.2" r="5" stroke="#ffffff" stroke-width="1" fill="#4c72b0"/>
<circle cx="592.0" cy="209.2" r="5" stroke="#ffffff" stroke-width="1" fill="#4c72b0"/>
<circle cx="603.9" cy="242.5" r="5" stroke="#ffffff" stroke-width="1" fill="#4c72b0"/>
<circle cx="615.8" cy="274.6" r="5" stroke="#ffffff" stroke-width="1" fill="#4c72b0"/>
<circle cx="627.6" cy="304.2" r="5" stroke="#ffffff" stroke-width="1" fill="#4c72b0"/>
<circle cx="639.5" cy="329.9" r="5" stroke="#ffffff" stroke-width="1" fill="#4c72b0"/>
<circle cx="651.4" cy="350.5" r="5" stroke="#ffffff" stroke-width="1" fill="#4c72b0"/>
<circle cx="663.2" cy="365.1" r="5" stroke="#ffffff" stroke-width="1" fill="#4c72b0"/>
<circle cx="675.1" cy="373.0" r="5" stroke="#ffffff" stroke-width="1" fill="#4c72b0"/>
<circle cx="687.0" cy="373.9" r="5" stroke="#ffffff" stroke-width="1" fill="#4c72b0"/>
<circle cx="698.8" cy="367.7" r="5" stroke="#ffffff" stroke-width="1" fill="#4c72b0"/>
<circle cx="710.7" cy="354.7" r="5" stroke="#ffffff" stroke-width="1" fill="#4c72b0"/>
<circle cx="722.5" cy="335.6" r="5" stroke="#ffffff" stroke-width="1" fill="#4c72b0"/>
<circle cx="734.4" cy="311.1" r="5" stroke="#ffffff" stroke-width="1" fill="#4c72b0"/>
<circle cx="746.3" cy="282.3" r="5" stroke="#ffffff" stroke-width="1" fill="#4c72b0"/>
<circle cx="758.1" cy="250.7" r="5" stroke="#ffffff" stroke-width="1" fill="#4c72b0"/>
<circle cx="770" cy="217.5" r="5" stroke="#ffffff" stroke-width="1" fill="#4c72b0"/>
</g>
<g clip-path="url(#axes-clip-1)">
<line x1="70" y1="139.1" x2="770" y2="139.1" stroke="#c8cae8" stroke-width="1.5" fill="none" stroke-dasharray="6,3"/>
</g>
<text x="766" y="135.1" font-size="11" font-family="system-ui, -apple-system, BlinkMacSystemFont, 'Segoe UI', sans-serif" text-anchor="end" dominant-baseline="auto" fill="#c8cae8">threshold</text>
<g clip-path="url(#axes-clip-1)">
<line x1="245" y1="45" x2="245" y2="390" stroke="#c8cae8" stroke-width="1.5" fill="none"/>
</g>
<text x="249" y="49" font-size="11" font-family="system-ui, -apple-system, BlinkMacSystemFont, 'Segoe UI', sans-serif" text-anchor="start" dominant-baseline="hanging" fill="#c8cae8">π</text>
<line x1="153.1" y1="37.1" x2="153.1" y2="61.1" stroke="#c8cae8" stroke-width="1.2" fill="none"/>
<path d="M153.1 61.1 L150.1 55.1 L156.1 55.1 Z" stroke="none" fill="#c8cae8"/>
<text x="153.1" y="37.1" font-size="11" font-family="system-ui, -apple-system, BlinkMacSystemFont, 'Segoe UI', sans-serif" text-anchor="middle" dominant-baseline="auto" fill="#c8cae8">peak</text>
<line x1="70" y1="390" x2="770" y2="390" stroke="#5a5b7a" stroke-width="1" fill="none"/>
<line x1="70" y1="45" x2="70" y2="390" stroke="#5a5b7a" stroke-width="1" fill="none"/>
<line x1="70" y1="390" x2="70" y2="395" stroke="#5a5b7a" stroke-width="1" fill="none"/>
<text x="70" y="398" font-size="11" font-family="system-ui, -apple-system, BlinkMacSystemFont, 'Segoe UI', sans-serif" text-anchor="middle" dominant-baseline="hanging" fill="#c8cae8">0</text>
<line x1="181.4" y1="390" x2="181.4" y2="395" stroke="#5a5b7a" stroke-width="1" fill="none"/>
<text x="181.4" y="398" font-size="11" font-family="system-ui, -apple-system, BlinkMacSystemFont, 'Segoe UI', sans-serif" text-anchor="middle" dominant-baseline="hanging" fill="#c8cae8">2</text>
<line x1="292.8" y1="390" x2="292.8" y2="395" stroke="#5a5b7a" stroke-width="1" fill="none"/>
<text x="292.8" y="398" font-size="11" font-family="system-ui, -apple-system, BlinkMacSystemFont, 'Segoe UI', sans-serif" text-anchor="middle" dominant-baseline="hanging" fill="#c8cae8">4</text>
<line x1="404.2" y1="390" x2="404.2" y2="395" stroke="#5a5b7a" stroke-width="1" fill="none"/>
<text x="404.2" y="398" font-size="11" font-family="system-ui, -apple-system, BlinkMacSystemFont, 'Segoe UI', sans-serif" text-anchor="middle" dominant-baseline="hanging" fill="#c8cae8">6</text>
<line x1="515.6" y1="390" x2="515.6" y2="395" stroke="#5a5b7a" stroke-width="1" fill="none"/>
<text x="515.6" y="398" font-size="11" font-family="system-ui, -apple-system, BlinkMacSystemFont, 'Segoe UI', sans-serif" text-anchor="middle" dominant-baseline="hanging" fill="#c8cae8">8</text>
<line x1="627.0" y1="390" x2="627.0" y2="395" stroke="#5a5b7a" stroke-width="1" fill="none"/>
<text x="627.0" y="398" font-size="11" font-family="system-ui, -apple-system, BlinkMacSystemFont, 'Segoe UI', sans-serif" text-anchor="middle" dominant-baseline="hanging" fill="#c8cae8">10</text>
<line x1="738.5" y1="390" x2="738.5" y2="395" stroke="#5a5b7a" stroke-width="1" fill="none"/>
<text x="738.5" y="398" font-size="11" font-family="system-ui, -apple-system, BlinkMacSystemFont, 'Segoe UI', sans-serif" text-anchor="middle" dominant-baseline="hanging" fill="#c8cae8">12</text>
<line x1="65" y1="374.4" x2="70" y2="374.4" stroke="#5a5b7a" stroke-width="1" fill="none"/>
<text x="62" y="374.4" font-size="11" font-family="system-ui, -apple-system, BlinkMacSystemFont, 'Segoe UI', sans-serif" text-anchor="end" dominant-baseline="middle" fill="#c8cae8">-1.0</text>
<line x1="65" y1="335.2" x2="70" y2="335.2" stroke="#5a5b7a" stroke-width="1" fill="none"/>
<text x="62" y="335.2" font-size="11" font-family="system-ui, -apple-system, BlinkMacSystemFont, 'Segoe UI', sans-serif" text-anchor="end" dominant-baseline="middle" fill="#c8cae8">-0.8</text>
<line x1="65" y1="295.9" x2="70" y2="295.9" stroke="#5a5b7a" stroke-width="1" fill="none"/>
<text x="62" y="295.9" font-size="11" font-family="system-ui, -apple-system, BlinkMacSystemFont, 'Segoe UI', sans-serif" text-anchor="end" dominant-baseline="middle" fill="#c8cae8">-0.5</text>
<line x1="65" y1="256.7" x2="70" y2="256.7" stroke="#5a5b7a" stroke-width="1" fill="none"/>
<text x="62" y="256.7" font-size="11" font-family="system-ui, -apple-system, BlinkMacSystemFont, 'Segoe UI', sans-serif" text-anchor="end" dominant-baseline="middle" fill="#c8cae8">-0.2</text>
<line x1="65" y1="217.5" x2="70" y2="217.5" stroke="#5a5b7a" stroke-width="1" fill="none"/>
<text x="62" y="217.5" font-size="11" font-family="system-ui, -apple-system, BlinkMacSystemFont, 'Segoe UI', sans-serif" text-anchor="end" dominant-baseline="middle" fill="#c8cae8">0.0</text>
<line x1="65" y1="178.3" x2="70" y2="178.3" stroke="#5a5b7a" stroke-width="1" fill="none"/>
<text x="62" y="178.3" font-size="11" font-family="system-ui, -apple-system, BlinkMacSystemFont, 'Segoe UI', sans-serif" text-anchor="end" dominant-baseline="middle" fill="#c8cae8">0.2</text>
<line x1="65" y1="139.1" x2="70" y2="139.1" stroke="#5a5b7a" stroke-width="1" fill="none"/>
<text x="62" y="139.1" font-size="11" font-family="system-ui, -apple-system, BlinkMacSystemFont, 'Segoe UI', sans-serif" text-anchor="end" dominant-baseline="middle" fill="#c8cae8">0.5</text>
<line x1="65" y1="99.8" x2="70" y2="99.8" stroke="#5a5b7a" stroke-width="1" fill="none"/>
<text x="62" y="99.8" font-size="11" font-family="system-ui, -apple-system, BlinkMacSystemFont, 'Segoe UI', sans-serif" text-anchor="end" dominant-baseline="middle" fill="#c8cae8">0.8</text>
<line x1="65" y1="60.6" x2="70" y2="60.6" stroke="#5a5b7a" stroke-width="1" fill="none"/>
<text x="62" y="60.6" font-size="11" font-family="system-ui, -apple-system, BlinkMacSystemFont, 'Segoe UI', sans-serif" text-anchor="end" dominant-baseline="middle" fill="#c8cae8">1.0</text>
<text x="420" y="30" font-size="16" font-family="system-ui, -apple-system, BlinkMacSystemFont, 'Segoe UI', sans-serif" font-weight="bold" text-anchor="middle" dominant-baseline="auto" fill="#e0e2ff">Annotations — Dark Theme</text>
<rect x="670.4" y="55" width="89.6" height="42" rx="4" ry="4" stroke="#2e3050" stroke-width="0.8" fill="rgba(26,27,46,0.9)"/>
<line x1="680.4" y1="76" x2="700.4" y2="76" stroke="#4c72b0" stroke-width="2.5" fill="none" stroke-linecap="round"/>
<circle cx="690.4" cy="76" r="3" stroke="none" fill="#4c72b0"/>
<text x="704.4" y="76" font-size="12" font-family="system-ui, -apple-system, BlinkMacSystemFont, 'Segoe UI', sans-serif" text-anchor="start" dominant-baseline="middle" fill="#c8cae8">sin(x)</text>
</svg>
