<svg xmlns="http://www.w3.org/2000/svg" width="800" height="450">
<defs>
<clipPath id="axes-clip-1"><rect x="70" y="45" width="700" height="345"/></clipPath>
</defs>
<rect x="0" y="0" width="800" height="450" stroke="none" fill="#ffffff"/>
<rect x="70" y="45" width="700" height="345" stroke="none" fill="#f7f7f7"/>
<g clip-path="url(#axes-clip-1)">
<line x1="70" y1="374.4" x2="770" y2="374.4" stroke="#e5e5e5" stroke-width="0.8" fill="none"/>
<line x1="70" y1="335.2" x2="770" y2="335.2" stroke="#e5e5e5" stroke-width="0.8" fill="none"/>
<line x1="70" y1="295.9" x2="770" y2="295.9" stroke="#e5e5e5" stroke-width="0.8" fill="none"/>
<line x1="70" y1="256.7" x2="770" y2="256.7" stroke="#e5e5e5" stroke-width="0.8" fill="none"/>
<line x1="70" y1="217.5" x2="770" y2="217.5" stroke="#e5e5e5" stroke-width="0.8" fill="none"/>
<line x1="70" y1="178.3" x2="770" y2="178.3" stroke="#e5e5e5" stroke-width="0.8" fill="none"/>
<line x1="70" y1="139.1" x2="770" y2="139.1" stroke="#e5e5e5" stroke-width="0.8" fill="none"/>
<line x1="70" y1="99.8" x2="770" y2="99.8" stroke="#e5e5e5" stroke-width="0.8" fill="none"/>
<line x1="70" y1="60.6" x2="770" y2="60.6" stroke="#e5e5e5" stroke-width="0.8" fill="none"/>
</g>
<g clip-path="url(#axes-clip-1)">
<line x1="70" y1="45" x2="70" y2="390" stroke="#e5e5e5" stroke-width="0.8" fill="none"/>
<line x1="181.4" y1="45" x2="181.4" y2="390" stroke="#e5e5e5" stroke-width="0.8" fill="none"/>
<line x1="292.8" y1="45" x2="292.8" y2="390" stroke="#e5e5e5" stroke-width="0.8" fill="none"/>
<line x1="404.2" y1="45" x2="404.2" y2="390" stroke="#e5e5e5" stroke-width="0.8" fill="none"/>
<line x1="515.6" y1="45" x2="515.6" y2="390" stroke="#e5e5e5" stroke-width="0.8" fill="none"/>
<line x1="627.0" y1="45" x2="627.0" y2="390" stroke="#e5e5e5" stroke-width="0.8" fill="none"/>
<line x1="738.5" y1="45" x2="738.5" y2="390" stroke="#e5e5e5" stroke-width="0.8" fill="none"/>
</g>
<g clip-path="url(#axes-clip-1)">
<path d="M70 217.5 C74.0 212.0 85.8 195.1 93.7 184.3 C101.6 173.5 109.6 162.7 117.5 152.7 C125.4 142.6 133.3 132.8 141.2 124.0 C149.1 115.1 157.0 106.7 164.9 99.4 C172.8 92.2 180.7 85.6 188.6 80.3 C196.6 74.9 204.5 70.5 212.4 67.3 C220.3 64.1 228.2 62.0 236.1 61.1 C244.0 60.2 251.9 60.6 259.8 62.0 C267.7 63.5 275.7 66.2 283.6 69.9 C291.5 73.7 299.4 78.7 307.3 84.5 C315.2 90.4 323.1 97.4 331.0 105.1 C338.9 112.8 346.8 121.6 354.8 130.8 C362.7 140.0 370.6 150.1 378.5 160.4 C386.4 170.7 394.3 181.6 402.2 192.6 C410.1 203.5 418.0 214.8 425.9 225.9 C433.8 236.9 441.8 248.1 449.7 258.8 C457.6 269.4 465.5 280.0 473.4 289.8 C481.3 299.6 489.2 309.1 497.1 317.6 C505.0 326.1 512.9 334.1 520.9 340.9 C528.8 347.7 536.7 353.7 544.6 358.6 C552.5 363.4 560.4 367.3 568.3 369.9 C576.2 372.5 584.1 374.0 592.0 374.3 C599.9 374.6 607.9 373.7 615.8 371.7 C623.7 369.6 631.6 366.3 639.5 362.0 C647.4 357.7 655.3 352.2 663.2 345.9 C671.1 339.5 679.0 332.0 687.0 323.9 C694.9 315.8 702.8 306.7 710.7 297.1 C718.6 287.6 726.5 277.3 734.4 266.8 C742.3 256.3 750.2 245.2 758.1 234.2 C766.1 223.2 774.0 211.8 781.9 200.8 C789.8 189.8 797.7 178.7 805.6 168.2 C813.5 157.7 821.4 147.4 829.3 137.9 C837.2 128.3 845.1 119.2 853.1 111.1 C861.0 103.0 868.9 95.5 876.8 89.1 C884.7 82.8 892.6 77.3 900.5 73.0 C908.4 68.7 916.3 65.4 924.2 63.3 C932.2 61.3 940.1 60.4 948.0 60.7 C955.9 61.0 963.8 62.5 971.7 65.1 C979.6 67.7 987.5 71.6 995.4 76.4 C1003.3 81.3 1011.2 87.3 1019.2 94.1 C1027.1 100.9 1035.0 108.9 1042.9 117.4 C1050.8 125.9 1058.7 135.4 1066.6 145.2 C1074.5 155.0 1082.4 165.6 1090.3 176.2 C1098.3 186.9 1106.2 198.1 1114.1 209.2 C1122.0 220.2 1129.9 231.5 1137.8 242.5 C1145.7 253.4 1153.6 264.3 1161.5 274.6 C1169.4 284.9 1177.3 295.0 1185.3 304.2 C1193.2 313.4 1201.1 322.2 1209.0 329.9 C1216.9 337.6 1224.8 344.6 1232.7 350.5 C1240.6 356.4 1248.5 361.3 1256.4 365.1 C1264.4 368.8 1272.3 371.5 1280.2 373.0 C1288.1 374.5 1296.0 374.8 1303.9 373.9 C1311.8 373.0 1319.7 370.9 1327.6 367.7 C1335.5 364.5 1343.5 360.1 1351.4 354.7 C1359.3 349.4 1367.2 342.8 1375.1 335.6 C1383.0 328.3 1390.9 319.9 1398.8 311.1 C1406.7 302.2 1414.6 292.4 1422.5 282.3 C1430.5 272.3 1438.4 261.5 1446.3 250.7 C1454.2 239.9 1466.1 223.0 1470 217.5" stroke="#4c72b0" stroke-width="2.5" fill="none" stroke-linecap="round" stroke-linejoin="round"/>
<circle cx="70" cy="217.5" r="5" stroke="#ffffff" stroke-width="1" fill="#4c72b0"/>
<circle cx="93.7" cy="184.3" r="5" stroke="#ffffff" stroke-width="1" fill="#4c72b0"/>
<circle cx="117.5" cy="152.7" r="5" stroke="#ffffff" stroke-width="1" fill="#4c72b0"/>
<circle cx="141.2" cy="124.0" r="5" stroke="#ffffff" stroke-width="1" fill="#4c72b0"/>
<circle cx="164.9" cy="99.4" r="5" stroke="#ffffff" stroke-width="1" fill="#4c72b0"/>
<circle cx="188.6" cy="80.3" r="5" stroke="#ffffff" stroke-width="1" fill="#4c72b0"/>
<circle cx="212.4" cy="67.3" r="5" stroke="#ffffff" stroke-width="1" fill="#4c72b0"/>
<circle cx="236.1" cy="61.1" r="5" stroke="#ffffff" stroke-width="1" fill="#4c72b0"/>
<circle cx="259.8" cy="62.0" r="5" stroke="#ffffff" stroke-width="1" fill="#4c72b0"/>
<circle cx="283.6" cy="69.9" r="5" stroke="#ffffff" stroke-width="1" fill="#4c72b0"/>
<circle cx="307.3" cy="84.5" r="5" stroke="#ffffff" stroke-width="1" fill="#4c72b0"/>
<circle cx="331.0" cy="105.1" r="5" stroke="#ffffff" stroke-width="1" fill="#4c72b0"/>
<circle cx="354.8" cy="130.8" r="5" stroke="#ffffff" stroke-width="1" fill="#4c72b0"/>
<circle cx="378.5" cy="160.4" r="5" stroke="#ffffff" stroke-width="1" fill="#4c72b0"/>
<circle cx="402.2" cy="192.6" r="5" stroke="#ffffff" stroke-width="1" fill="#4c72b0"/>
<circle cx="425.9" cy="225.9" r="5" stroke="#ffffff" stroke-width="1" fill="#4c72b0"/>
<circle cx="449.7" cy="258.8" r="5" stroke="#ffffff" stroke-width="1" fill="#4c72b0"/>
<circle cx="473.4" cy="289.8" r="5" stroke="#ffffff" stroke-width="1" fill="#4c72b0"/>
<circle cx="497.1" cy="317.6" r="5" stroke="#ffffff" stroke-width="1" fill="#4c72b0"/>
<circle cx="520.9" cy="340.9" r="5" stroke="#ffffff" stroke-width="1" fill="#4c72b0"/>
<circle cx="544.6" cy="358.6" r="5" stroke="#ffffff" stroke-width="1" fill="#4c72b0"/>
<circle cx="568.3" cy="369.9" r="5" stroke="#ffffff" stroke-width="1" fill="#4c72b0"/>
<circle cx="592.0" cy="374.3" r="5" stroke="#ffffff" stroke-width="1" fill="#4c72b0"/>
<circle cx="615.8" cy="371.7" r="5" stroke="#ffffff" stroke-width="1" fill="#4c72b0"/>
<circle cx="639.5" cy="362.0" r="5" stroke="#ffffff" stroke-width="1" fill="#4c72b0"/>
<circle cx="663.2" cy="345.9" r="5" stroke="#ffffff" stroke-width="1" fill="#4c72b0"/>
<circle cx="687.0" cy="323.9" r="5" stroke="#ffffff" stroke-width="1" fill="#4c72b0"/>
<circle cx="710.7" cy="297.1" r="5" stroke="#ffffff" stroke-width="1" fill="#4c72b0"/>
<circle cx="734.4" cy="266.8" r="5" stroke="#ffffff" stroke-width="1" fill="#4c72b0"/>
<circle cx="758.1" cy="234.2" r="5" stroke="#ffffff" stroke-width="1" fill="#4c72b0"/>
<circle cx="781.9" cy="200.8" r="5" stroke="#ffffff" stroke-width="1" fill="#4c72b0"/>
<circle cx="805.6" cy="168.2" r="5" stroke="#ffffff" stroke-width="1" fill="#4c72b0"/>
<circle cx="829.3" cy="137.9" r="5" stroke="#ffffff" stroke-width="1" fill="#4c72b0"/>
<circle cx="853.1" cy="111.1" r="5" stroke="#ffffff" stroke-width="1" fill="#4c72b0"/>
<circle cx="876.8" cy="89.1" r="5" stroke="#ffffff" stroke-width="1" fill="#4c72b0"/>
<circle cx="900.5" cy="73.0" r="5" stroke="#ffffff" stroke-width="1" fill="#4c72b0"/>
<circle cx="924.2" cy="63.3" r="5" stroke="#ffffff" stroke-width="1" fill="#4c72b0"/>
<circle cx="948.0" cy="60.7" r="5" stroke="#ffffff" stroke-width="1" fill="#4c72b0"/>
<circle cx="971.7" cy="65.1" r="5" stroke="#ffffff" stroke-width="1" fill="#4c72b0"/>
<circle cx="995.4" cy="76.4" r="5" stroke="#ffffff" stroke-width="1" fill="#4c72b0"/>
<circle cx="1019.2" cy="94.1" r="5" stroke="#ffffff" stroke-width="1" fill="#4c72b0"/>
<circle cx="1042.9" cy="117.4" r="5" stroke="#ffffff" stroke-width="1" fill="#4c72b0"/>
<circle cx="1066.6" cy="145.2" r="5" stroke="#ffffff" stroke-width="1" fill="#4c72b0"/>
<circle cx="1090.3" cy="176.2" r="5" stroke="#ffffff" stroke-width="1" fill="#4c72b0"/>
<circle cx="1114.1" cy="209.2" r="5" stroke="#ffffff" stroke-width="1" fill="#4c72b0"/>
<circle cx="1137.8" cy="242.5" r="5" stroke="#ffffff" stroke-width="1" fill="#4c72b0"/>
<circle cx="1161.5" cy="274.6" r="5" stroke="#ffffff" stroke-width="1" fill="#4c72b0"/>
<circle cx="1185.3" cy="304.2" r="5" stroke="#ffffff" stroke-width="1" fill="#4c72b0"/>
<circle cx="1209.0" cy="329.9" r="5" stroke="#ffffff" stroke-width="1" fill="#4c72b0"/>
<circle cx="1232.7" cy="350.5" r="5" stroke="#ffffff" stroke-width="1" fill="#4c72b0"/>
<circle cx="1256.4" cy="365.1" r="5" stroke="#ffffff" stroke-width="1" fill="#4c72b0"/>
<circle cx="1280.2" cy="373.0" r="5" stroke="#ffffff" stroke-width="1" fill="#4c72b0"/>
<circle cx="1303.9" cy="373.9" r="5" stroke="#ffffff" stroke-width="1" fill="#4c72b0"/>
<circle cx="1327.6" cy="367.7" r="5" stroke="#ffffff" stroke-width="1" fill="#4c72b0"/>
<circle cx="1351.4" cy="354.7" r="5" stroke="#ffffff" stroke-width="1" fill="#4c72b0"/>
<circle cx="1375.1" cy="335.6" r="5" stroke="#ffffff" stroke-width="1" fill="#4c72b0"/>
<circle cx="1398.8" cy="311.1" r="5" stroke="#ffffff" stroke-width="1" fill="#4c72b0"/>
<circle cx="1422.5" cy="282.3" r="5" stroke="#ffffff" stroke-width="1" fill="#4c72b0"/>
<circle cx="1446.3" cy="250.7" r="5" stroke="#ffffff" stroke-width="1" fill="#4c72b0"/>
<circle cx="1470" cy="217.5" r="5" stroke="#ffffff" stroke-width="1" fill="#4c72b0"/>
</g>
<line x1="70" y1="390" x2="770" y2="390" stroke="#888888" stroke-width="1.2" fill="none"/>
<line x1="70" y1="45" x2="70" y2="390" stroke="#888888" stroke-width="1.2" fill="none"/>
<line x1="70" y1="390" x2="70" y2="395" stroke="#888888" stroke-width="1" fill="none"/>
<text x="70" y="398" font-size="11" font-family="system-ui, -apple-system, BlinkMacSystemFont, 'Segoe UI', sans-serif" text-anchor="middle" dominant-baseline="hanging" fill="#333333">0</text>
<line x1="181.4" y1="390" x2="181.4" y2="395" stroke="#888888" stroke-width="1" fill="none"/>
<text x="181.4" y="398" font-size="11" font-family="system-ui, -apple-system, BlinkMacSystemFont, 'Segoe UI', sans-serif" text-anchor="middle" dominant-baseline="hanging" fill="#333333">1</text>
<line x1="292.8" y1="390" x2="292.8" y2="395" stroke="#888888" stroke-width="1" fill="none"/>
<text x="292.8" y="398" font-size="11" font-family="system-ui, -apple-system, BlinkMacSystemFont, 'Segoe UI', sans-serif" text-anchor="middle" dominant-baseline="hanging" fill="#333333">2</text>
<line x1="404.2" y1="390" x2="404.2" y2="395" stroke="#888888" stroke-width="1" fill="none"/>
<text x="404.2" y="398" font-size="11" font-family="system-ui, -apple-system, BlinkMacSystemFont, 'Segoe UI', sans-serif" text-anchor="middle" dominant-baseline="hanging" fill="#333333">3</text>
<line x1="515.6" y1="390" x2="515.6" y2="395" stroke="#888888" stroke-width="1" fill="none"/>
<text x="515.6" y="398" font-size="11" font-family="system-ui, -apple-system, BlinkMacSystemFont, 'Segoe UI', sans-serif" text-anchor="middle" dominant-baseline="hanging" fill="#333333">4</text>
<line x1="627.0" y1="390" x2="627.0" y2="395" stroke="#888888" stroke-width="1" fill="none"/>
<text x="627.0" y="398" font-size="11" font-family="system-ui, -apple-system, BlinkMacSystemFont, 'Segoe UI', sans-serif" text-anchor="middle" dominant-baseline="hanging" fill="#333333">5</text>
<line x1="738.5" y1="390" x2="738.5" y2="395" stroke="#888888" stroke-width="1" fill="none"/>
<text x="738.5" y="398" font-size="11" font-family="system-ui, -apple-system, BlinkMacSystemFont, 'Segoe UI', sans-serif" text-anchor="middle" dominant-baseline="hanging" fill="#333333">6</text>
<line x1="65" y1="374.4" x2="70" y2="374.4" stroke="#888888" stroke-width="1" fill="none"/>
<text x="62" y="374.4" font-size="11" font-family="system-ui, -apple-system, BlinkMacSystemFont, 'Segoe UI', sans-serif" text-anchor="end" dominant-baseline="middle" fill="#333333">-1.0</text>
<line x1="65" y1="335.2" x2="70" y2="335.2" stroke="#888888" stroke-width="1" fill="none"/>
<text x="62" y="335.2" font-size="11" font-family="system-ui, -apple-system, BlinkMacSystemFont, 'Segoe UI', sans-serif" text-anchor="end" dominant-baseline="middle" fill="#333333">-0.8</text>
<line x1="65" y1="295.9" x2="70" y2="295.9" stroke="#888888" stroke-width="1" fill="none"/>
<text x="62" y="295.9" font-size="11" font-family="system-ui, -apple-system, BlinkMacSystemFont, 'Segoe UI', sans-serif" text-anchor="end" dominant-baseline="middle" fill="#333333">-0.5</text>
<line x1="65" y1="256.7" x2="70" y2="256.7" stroke="#888888" stroke-width="1" fill="none"/>
<text x="62" y="256.7" font-size="11" font-family="system-ui, -apple-system, BlinkMacSystemFont, 'Segoe UI', sans-serif" text-anchor="end" dominant-baseline="middle" fill="#333333">-0.2</text>
<line x1="65" y1="217.5" x2="70" y2="217.5" stroke="#888888" stroke-width="1" fill="none"/>
<text x="62" y="217.5" font-size="11" font-family="system-ui, -apple-system, BlinkMacSystemFont, 'Segoe UI', sans-serif" text-anchor="end" dominant-baseline="middle" fill="#333333">0.0</text>
<line x1="65" y1="178.3" x2="70" y2="178.3" stroke="#888888" stroke-width="1" fill="none"/>
<text x="62" y="178.3" font-size="11" font-family="system-ui, -apple-system, BlinkMacSystemFont, 'Segoe UI', sans-serif" text-anchor="end" dominant-baseline="middle" fill="#333333">0.2</text>
<line x1="65" y1="139.1" x2="70" y2="139.1" stroke="#888888" stroke-width="1" fill="none"/>
<text x="62" y="139.1" font-size="11" font-family="system-ui, -apple-system, BlinkMacSystemFont, 'Segoe UI', sans-serif" text-anchor="end" dominant-baseline="middle" fill="#333333">0.5</text>
<line x1="65" y1="99.8" x2="70" y2="99.8" stroke="#888888" stroke-width="1" fill="none"/>
<text x="62" y="99.8" font-size="11" font-family="system-ui, -apple-system, BlinkMacSystemFont, 'Segoe UI', sans-serif" text-anchor="end" dominant-baseline="middle" fill="#333333">0.8</text>
<line x1="65" y1="60.6" x2="70" y2="60.6" stroke="#888888" stroke-width="1" fill="none"/>
<text x="62" y="60.6" font-size="11" font-family="system-ui, -apple-system, BlinkMacSystemFont, 'Segoe UI', sans-serif" text-anchor="end" dominant-baseline="middle" fill="#333333">1.0</text>
<rect x="670.4" y="55" width="89.6" height="42" rx="4" ry="4" stroke="#e5e5e5" stroke-width="0.8" fill="rgba(255,255,255,0.9)"/>
<line x1="680.4" y1="76" x2="700.4" y2="76" stroke="#4c72b0" stroke-width="2.5" fill="none" stroke-linecap="round"/>
<circle cx="690.4" cy="76" r="3" stroke="none" fill="#4c72b0"/>
<text x="704.4" y="76" font-size="12" font-family="system-ui, -apple-system, BlinkMacSystemFont, 'Segoe UI', sans-serif" text-anchor="start" dominant-baseline="middle" fill="#333333">sin(x)</text>
</svg>
