<svg xmlns="http://www.w3.org/2000/svg" width="800" height="450">
<defs>
<clipPath id="axes-clip-1"><rect x="70" y="45" width="700" height="345"/></clipPath>
</defs>
<rect x="0" y="0" width="800" height="450" stroke="none" fill="#ffffff"/>
<rect x="70" y="45" width="700" height="345" stroke="none" fill="#f7f7f7"/>
<g clip-path="url(#axes-clip-1)">
<line x1="70" y1="390" x2="770" y2="390" stroke="#e5e5e5" stroke-width="0.8" fill="none"/>
<line x1="70" y1="343.1" x2="770" y2="343.1" stroke="#e5e5e5" stroke-width="0.8" fill="none"/>
<line x1="70" y1="296.1" x2="770" y2="296.1" stroke="#e5e5e5" stroke-width="0.8" fill="none"/>
<line x1="70" y1="249.2" x2="770" y2="249.2" stroke="#e5e5e5" stroke-width="0.8" fill="none"/>
<line x1="70" y1="202.2" x2="770" y2="202.2" stroke="#e5e5e5" stroke-width="0.8" fill="none"/>
<line x1="70" y1="155.3" x2="770" y2="155.3" stroke="#e5e5e5" stroke-width="0.8" fill="none"/>
<line x1="70" y1="108.4" x2="770" y2="108.4" stroke="#e5e5e5" stroke-width="0.8" fill="none"/>
<line x1="70" y1="61.4" x2="770" y2="61.4" stroke="#e5e5e5" stroke-width="0.8" fill="none"/>
</g>
<g clip-path="url(#axes-clip-1)">
<rect x="87.5" y="249.2" width="105" height="140.8" stroke="none" fill="#4c72b0"/>
<rect x="227.5" y="131.8" width="105" height="258.2" stroke="none" fill="#4c72b0"/>
<rect x="367.5" y="178.8" width="105" height="211.2" stroke="none" fill="#4c72b0"/>
<rect x="507.5" y="61.4" width="105" height="328.6" stroke="none" fill="#4c72b0"/>
<rect x="647.5" y="108.4" width="105" height="281.6" stroke="none" fill="#4c72b0"/>
</g>
<line x1="70" y1="390" x2="770" y2="390" stroke="#888888" stroke-width="1.2" fill="none"/>
<line x1="70" y1="45" x2="70" y2="390" stroke="#888888" stroke-width="1.2" fill="none"/>
<line x1="140" y1="390" x2="140" y2="395" stroke="#888888" stroke-width="1" fill="none"/>
<text x="140" y="398" font-size="11" font-family="system-ui, -apple-system, BlinkMacSystemFont, 'Segoe UI', sans-serif" text-anchor="middle" dominant-baseline="hanging" fill="#333333">A</text>
<line x1="280" y1="390" x2="280" y2="395" stroke="#888888" stroke-width="1" fill="none"/>
<text x="280" y="398" font-size="11" font-family="system-ui, -apple-system, BlinkMacSystemFont, 'Segoe UI', sans-serif" text-anchor="middle" dominant-baseline="hanging" fill="#333333">B</text>
<line x1="420" y1="390" x2="420" y2="395" stroke="#888888" stroke-width="1" fill="none"/>
<text x="420" y="398" font-size="11" font-family="system-ui, -apple-system, BlinkMacSystemFont, 'Segoe UI', sans-serif" text-anchor="middle" dominant-baseline="hanging" fill="#333333">C</text>
<line x1="560" y1="390" x2="560" y2="395" stroke="#888888" stroke-width="1" fill="none"/>
<text x="560" y="398" font-size="11" font-family="system-ui, -apple-system, BlinkMacSystemFont, 'Segoe UI', sans-serif" text-anchor="middle" dominant-baseline="hanging" fill="#333333">D</text>
<line x1="700" y1="390" x2="700" y2="395" stroke="#888888" stroke-width="1" fill="none"/>
<text x="700" y="398" font-size="11" font-family="system-ui, -apple-system, BlinkMacSystemFont, 'Segoe UI', sans-serif" text-anchor="middle" dominant-baseline="hanging" fill="#333333">E</text>
<line x1="65" y1="390" x2="70" y2="390" stroke="#888888" stroke-width="1" fill="none"/>
<text x="62" y="390" font-size="11" font-family="system-ui, -apple-system, BlinkMacSystemFont, 'Segoe UI', sans-serif" text-anchor="end" dominant-baseline="middle" fill="#333333">0</text>
<line x1="65" y1="343.1" x2="70" y2="343.1" stroke="#888888" stroke-width="1" fill="none"/>
<text x="62" y="343.1" font-size="11" font-family="system-ui, -apple-system, BlinkMacSystemFont, 'Segoe UI', sans-serif" text-anchor="end" dominant-baseline="middle" fill="#333333">10</text>
<line x1="65" y1="296.1" x2="70" y2="296.1" stroke="#888888" stroke-width="1" fill="none"/>
<text x="62" y="296.1" font-size="11" font-family="system-ui, -apple-system, BlinkMacSystemFont, 'Segoe UI', sans-serif" text-anchor="end" dominant-baseline="middle" fill="#333333">20</text>
<line x1="65" y1="249.2" x2="70" y2="249.2" stroke="#888888" stroke-width="1" fill="none"/>
<text x="62" y="249.2" font-size="11" font-family="system-ui, -apple-system, BlinkMacSystemFont, 'Segoe UI', sans-serif" text-anchor="end" dominant-baseline="middle" fill="#333333">30</text>
<line x1="65" y1="202.2" x2="70" y2="202.2" stroke="#888888" stroke-width="1" fill="none"/>
<text x="62" y="202.2" font-size="11" font-family="system-ui, -apple-system, BlinkMacSystemFont, 'Segoe UI', sans-serif" text-anchor="end" dominant-baseline="middle" fill="#333333">40</text>
<line x1="65" y1="155.3" x2="70" y2="155.3" stroke="#888888" stroke-width="1" fill="none"/>
<text x="62" y="155.3" font-size="11" font-family="system-ui, -apple-system, BlinkMacSystemFont, 'Segoe UI', sans-serif" text-anchor="end" dominant-baseline="middle" fill="#333333">50</text>
<line x1="65" y1="108.4" x2="70" y2="108.4" stroke="#888888" stroke-width="1" fill="none"/>
<text x="62" y="108.4" font-size="11" font-family="system-ui, -apple-system, BlinkMacSystemFont, 'Segoe UI', sans-serif" text-anchor="end" dominant-baseline="middle" fill="#333333">60</text>
<line x1="65" y1="61.4" x2="70" y2="61.4" stroke="#888888" stroke-width="1" fill="none"/>
<text x="62" y="61.4" font-size="11" font-family="system-ui, -apple-system, BlinkMacSystemFont, 'Segoe UI', sans-serif" text-anchor="end" dominant-baseline="middle" fill="#333333">70</text>
<rect x="677" y="55" width="83" height="42" rx="4" ry="4" stroke="#e5e5e5" stroke-width="0.8" fill="rgba(255,255,255,0.9)"/>
<rect x="687" y="71" width="20" height="10" rx="2" ry="2" stroke="none" fill="#4c72b0"/>
<text x="711" y="76" font-size="12" font-family="system-ui, -apple-system, BlinkMacSystemFont, 'Segoe UI', sans-serif" text-anchor="start" dominant-baseline="middle" fill="#333333">sales</text>
</svg>
