<svg xmlns="http://www.w3.org/2000/svg" width="700" height="500">
<defs>
<clipPath id="axes-clip-1"><rect x="70" y="45" width="600" height="395"/></clipPath>
</defs>
<rect x="0" y="0" width="700" height="500" stroke="none" fill="#ffffff"/>
<rect x="70" y="45" width="600" height="395" stroke="none" fill="#f7f7f7"/>
<g clip-path="url(#axes-clip-1)">
<line x1="70" y1="440" x2="670" y2="440" stroke="#e5e5e5" stroke-width="0.8" fill="none"/>
<line x1="70" y1="393.0" x2="670" y2="393.0" stroke="#e5e5e5" stroke-width="0.8" fill="none"/>
<line x1="70" y1="346.0" x2="670" y2="346.0" stroke="#e5e5e5" stroke-width="0.8" fill="none"/>
<line x1="70" y1="298.9" x2="670" y2="298.9" stroke="#e5e5e5" stroke-width="0.8" fill="none"/>
<line x1="70" y1="251.9" x2="670" y2="251.9" stroke="#e5e5e5" stroke-width="0.8" fill="none"/>
<line x1="70" y1="204.9" x2="670" y2="204.9" stroke="#e5e5e5" stroke-width="0.8" fill="none"/>
<line x1="70" y1="157.9" x2="670" y2="157.9" stroke="#e5e5e5" stroke-width="0.8" fill="none"/>
<line x1="70" y1="110.8" x2="670" y2="110.8" stroke="#e5e5e5" stroke-width="0.8" fill="none"/>
<line x1="70" y1="63.8" x2="670" y2="63.8" stroke="#e5e5e5" stroke-width="0.8" fill="none"/>
</g>
<g clip-path="url(#axes-clip-1)">
<line x1="170" y1="355.4" x2="170" y2="402.4" stroke="#4c72b0" stroke-width="1.5" fill="none"/>
<line x1="170" y1="280.1" x2="170" y2="251.9" stroke="#4c72b0" stroke-width="1.5" fill="none"/>
<line x1="150" y1="402.4" x2="190" y2="402.4" stroke="#4c72b0" stroke-width="1.5" fill="none"/>
<line x1="150" y1="251.9" x2="190" y2="251.9" stroke="#4c72b0" stroke-width="1.5" fill="none"/>
<rect x="120" y="280.1" width="100" height="75.2" rx="2" ry="2" stroke="#4c72b0" stroke-width="1.5" fill="rgba(76,114,176,0.7)"/>
<line x1="120" y1="327.1" x2="220" y2="327.1" stroke="#ffffff" stroke-width="2" fill="none"/>
<circle cx="170" cy="157.9" r="3" stroke="#4c72b0" stroke-width="1" fill="#4c72b0" fill-opacity="0.7"/>
<line x1="370" y1="336.6" x2="370" y2="421.2" stroke="#4c72b0" stroke-width="1.5" fill="none"/>
<line x1="370" y1="261.3" x2="370" y2="214.3" stroke="#4c72b0" stroke-width="1.5" fill="none"/>
<line x1="350" y1="421.2" x2="390" y2="421.2" stroke="#4c72b0" stroke-width="1.5" fill="none"/>
<line x1="350" y1="214.3" x2="390" y2="214.3" stroke="#4c72b0" stroke-width="1.5" fill="none"/>
<rect x="320" y="261.3" width="100" height="75.2" rx="2" ry="2" stroke="#4c72b0" stroke-width="1.5" fill="rgba(76,114,176,0.7)"/>
<line x1="320" y1="308.3" x2="420" y2="308.3" stroke="#ffffff" stroke-width="2" fill="none"/>
<line x1="570" y1="364.8" x2="570" y2="440" stroke="#4c72b0" stroke-width="1.5" fill="none"/>
<line x1="570" y1="280.1" x2="570" y2="270.7" stroke="#4c72b0" stroke-width="1.5" fill="none"/>
<line x1="550" y1="440" x2="590" y2="440" stroke="#4c72b0" stroke-width="1.5" fill="none"/>
<line x1="550" y1="270.7" x2="590" y2="270.7" stroke="#4c72b0" stroke-width="1.5" fill="none"/>
<rect x="520" y="280.1" width="100" height="84.6" rx="2" ry="2" stroke="#4c72b0" stroke-width="1.5" fill="rgba(76,114,176,0.7)"/>
<line x1="520" y1="327.1" x2="620" y2="327.1" stroke="#ffffff" stroke-width="2" fill="none"/>
<circle cx="570" cy="101.4" r="3" stroke="#4c72b0" stroke-width="1" fill="#4c72b0" fill-opacity="0.7"/>
<circle cx="570" cy="63.8" r="3" stroke="#4c72b0" stroke-width="1" fill="#4c72b0" fill-opacity="0.7"/>
</g>
<line x1="70" y1="440" x2="670" y2="440" stroke="#888888" stroke-width="1.2" fill="none"/>
<line x1="70" y1="45" x2="70" y2="440" stroke="#888888" stroke-width="1.2" fill="none"/>
<line x1="170" y1="440" x2="170" y2="445" stroke="#888888" stroke-width="1" fill="none"/>
<text x="170" y="448" font-size="11" font-family="system-ui, -apple-system, BlinkMacSystemFont, 'Segoe UI', sans-serif" text-anchor="middle" dominant-baseline="hanging" fill="#333333">Control</text>
<line x1="370" y1="440" x2="370" y2="445" stroke="#888888" stroke-width="1" fill="none"/>
<text x="370" y="448" font-size="11" font-family="system-ui, -apple-system, BlinkMacSystemFont, 'Segoe UI', sans-serif" text-anchor="middle" dominant-baseline="hanging" fill="#333333">Treatment A</text>
<line x1="570" y1="440" x2="570" y2="445" stroke="#888888" stroke-width="1" fill="none"/>
<text x="570" y="448" font-size="11" font-family="system-ui, -apple-system, BlinkMacSystemFont, 'Segoe UI', sans-serif" text-anchor="middle" dominant-baseline="hanging" fill="#333333">Treatment B</text>
<line x1="65" y1="440" x2="70" y2="440" stroke="#888888" stroke-width="1" fill="none"/>
<text x="62" y="440" font-size="11" font-family="system-ui, -apple-system, BlinkMacSystemFont, 'Segoe UI', sans-serif" text-anchor="end" dominant-baseline="middle" fill="#333333">0</text>
<line x1="65" y1="393.0" x2="70" y2="393.0" stroke="#888888" stroke-width="1" fill="none"/>
<text x="62" y="393.0" font-size="11" font-family="system-ui, -apple-system, BlinkMacSystemFont, 'Segoe UI', sans-serif" text-anchor="end" dominant-baseline="middle" fill="#333333">2</text>
<line x1="65" y1="346.0" x2="70" y2="346.0" stroke="#888888" stroke-width="1" fill="none"/>
<text x="62" y="346.0" font-size="11" font-family="system-ui, -apple-system, BlinkMacSystemFont, 'Segoe UI', sans-serif" text-anchor="end" dominant-baseline="middle" fill="#333333">5</text>
<line x1="65" y1="298.9" x2="70" y2="298.9" stroke="#888888" stroke-width="1" fill="none"/>
<text x="62" y="298.9" font-size="11" font-family="system-ui, -apple-system, BlinkMacSystemFont, 'Segoe UI', sans-serif" text-anchor="end" dominant-baseline="middle" fill="#333333">8</text>
<line x1="65" y1="251.9" x2="70" y2="251.9" stroke="#888888" stroke-width="1" fill="none"/>
<text x="62" y="251.9" font-size="11" font-family="system-ui, -apple-system, BlinkMacSystemFont, 'Segoe UI', sans-serif" text-anchor="end" dominant-baseline="middle" fill="#333333">10</text>
<line x1="65" y1="204.9" x2="70" y2="204.9" stroke="#888888" stroke-width="1" fill="none"/>
<text x="62" y="204.9" font-size="11" font-family="system-ui, -apple-system, BlinkMacSystemFont, 'Segoe UI', sans-serif" text-anchor="end" dominant-baseline="middle" fill="#333333">12</text>
<line x1="65" y1="157.9" x2="70" y2="157.9" stroke="#888888" stroke-width="1" fill="none"/>
<text x="62" y="157.9" font-size="11" font-family="system-ui, -apple-system, BlinkMacSystemFont, 'Segoe UI', sans-serif" text-anchor="end" dominant-baseline="middle" fill="#333333">15</text>
<line x1="65" y1="110.8" x2="70" y2="110.8" stroke="#888888" stroke-width="1" fill="none"/>
<text x="62" y="110.8" font-size="11" font-family="system-ui, -apple-system, BlinkMacSystemFont, 'Segoe UI', sans-serif" text-anchor="end" dominant-baseline="middle" fill="#333333">18</text>
<line x1="65" y1="63.8" x2="70" y2="63.8" stroke="#888888" stroke-width="1" fill="none"/>
<text x="62" y="63.8" font-size="11" font-family="system-ui, -apple-system, BlinkMacSystemFont, 'Segoe UI', sans-serif" text-anchor="end" dominant-baseline="middle" fill="#333333">20</text>
<text x="22" y="242.5" transform="rotate(-90,22,242.5)" font-size="12" font-family="system-ui, -apple-system, BlinkMacSystemFont, 'Segoe UI', sans-serif" text-anchor="middle" dominant-baseline="middle" fill="#333333">Score</text>
</svg>
