<svg xmlns="http://www.w3.org/2000/svg" width="700" height="500">
<defs>
<clipPath id="axes-clip-1"><rect x="65" y="40" width="610" height="405"/></clipPath>
</defs>
<rect x="0" y="0" width="700" height="500" stroke="none" fill="#ffffff"/>
<rect x="65" y="40" width="610" height="405" stroke="none" fill="#ffffff"/>
<g clip-path="url(#axes-clip-1)">
<line x1="65" y1="445" x2="675" y2="445" stroke="#eeeeee" stroke-width="0.6" fill="none" stroke-dasharray="4,4"/>
<line x1="65" y1="396.8" x2="675" y2="396.8" stroke="#eeeeee" stroke-width="0.6" fill="none" stroke-dasharray="4,4"/>
<line x1="65" y1="348.6" x2="675" y2="348.6" stroke="#eeeeee" stroke-width="0.6" fill="none" stroke-dasharray="4,4"/>
<line x1="65" y1="300.4" x2="675" y2="300.4" stroke="#eeeeee" stroke-width="0.6" fill="none" stroke-dasharray="4,4"/>
<line x1="65" y1="252.1" x2="675" y2="252.1" stroke="#eeeeee" stroke-width="0.6" fill="none" stroke-dasharray="4,4"/>
<line x1="65" y1="203.9" x2="675" y2="203.9" stroke="#eeeeee" stroke-width="0.6" fill="none" stroke-dasharray="4,4"/>
<line x1="65" y1="155.7" x2="675" y2="155.7" stroke="#eeeeee" stroke-width="0.6" fill="none" stroke-dasharray="4,4"/>
<line x1="65" y1="107.5" x2="675" y2="107.5" stroke="#eeeeee" stroke-width="0.6" fill="none" stroke-dasharray="4,4"/>
<line x1="65" y1="59.3" x2="675" y2="59.3" stroke="#eeeeee" stroke-width="0.6" fill="none" stroke-dasharray="4,4"/>
</g>
<g clip-path="url(#axes-clip-1)">
<line x1="166.7" y1="358.2" x2="166.7" y2="406.4" stroke="#4c72b0" stroke-width="1.5" fill="none"/>
<line x1="166.7" y1="281.1" x2="166.7" y2="252.1" stroke="#4c72b0" stroke-width="1.5" fill="none"/>
<line x1="146.3" y1="406.4" x2="187" y2="406.4" stroke="#4c72b0" stroke-width="1.5" fill="none"/>
<line x1="146.3" y1="252.1" x2="187" y2="252.1" stroke="#4c72b0" stroke-width="1.5" fill="none"/>
<rect x="115.8" y="281.1" width="101.7" height="77.1" rx="2" ry="2" stroke="#4c72b0" stroke-width="1.5" fill="rgba(76,114,176,0.7)"/>
<line x1="115.8" y1="329.3" x2="217.5" y2="329.3" stroke="#ffffff" stroke-width="2" fill="none"/>
<circle cx="166.7" cy="155.7" r="3" stroke="#4c72b0" stroke-width="1" fill="#4c72b0" fill-opacity="0.7"/>
<line x1="370" y1="338.9" x2="370" y2="425.7" stroke="#4c72b0" stroke-width="1.5" fill="none"/>
<line x1="370" y1="261.8" x2="370" y2="213.6" stroke="#4c72b0" stroke-width="1.5" fill="none"/>
<line x1="349.7" y1="425.7" x2="390.3" y2="425.7" stroke="#4c72b0" stroke-width="1.5" fill="none"/>
<line x1="349.7" y1="213.6" x2="390.3" y2="213.6" stroke="#4c72b0" stroke-width="1.5" fill="none"/>
<rect x="319.2" y="261.8" width="101.7" height="77.1" rx="2" ry="2" stroke="#4c72b0" stroke-width="1.5" fill="rgba(76,114,176,0.7)"/>
<line x1="319.2" y1="310" x2="420.8" y2="310" stroke="#ffffff" stroke-width="2" fill="none"/>
<line x1="573.3" y1="367.9" x2="573.3" y2="445" stroke="#4c72b0" stroke-width="1.5" fill="none"/>
<line x1="573.3" y1="281.1" x2="573.3" y2="271.4" stroke="#4c72b0" stroke-width="1.5" fill="none"/>
<line x1="553" y1="445" x2="593.7" y2="445" stroke="#4c72b0" stroke-width="1.5" fill="none"/>
<line x1="553" y1="271.4" x2="593.7" y2="271.4" stroke="#4c72b0" stroke-width="1.5" fill="none"/>
<rect x="522.5" y="281.1" width="101.7" height="86.8" rx="2" ry="2" stroke="#4c72b0" stroke-width="1.5" fill="rgba(76,114,176,0.7)"/>
<line x1="522.5" y1="329.3" x2="624.2" y2="329.3" stroke="#ffffff" stroke-width="2" fill="none"/>
<circle cx="573.3" cy="97.9" r="3" stroke="#4c72b0" stroke-width="1" fill="#4c72b0" fill-opacity="0.7"/>
<circle cx="573.3" cy="59.3" r="3" stroke="#4c72b0" stroke-width="1" fill="#4c72b0" fill-opacity="0.7"/>
</g>
<line x1="65" y1="445" x2="675" y2="445" stroke="#aaaaaa" stroke-width="0.8" fill="none"/>
<line x1="166.7" y1="445" x2="166.7" y2="450" stroke="#aaaaaa" stroke-width="1" fill="none"/>
<text x="166.7" y="453" font-size="11" font-family="system-ui, -apple-system, BlinkMacSystemFont, 'Segoe UI', sans-serif" text-anchor="middle" dominant-baseline="hanging" fill="#444444">Control</text>
<line x1="370" y1="445" x2="370" y2="450" stroke="#aaaaaa" stroke-width="1" fill="none"/>
<text x="370" y="453" font-size="11" font-family="system-ui, -apple-system, BlinkMacSystemFont, 'Segoe UI', sans-serif" text-anchor="middle" dominant-baseline="hanging" fill="#444444">Treatment A</text>
<line x1="573.3" y1="445" x2="573.3" y2="450" stroke="#aaaaaa" stroke-width="1" fill="none"/>
<text x="573.3" y="453" font-size="11" font-family="system-ui, -apple-system, BlinkMacSystemFont, 'Segoe UI', sans-serif" text-anchor="middle" dominant-baseline="hanging" fill="#444444">Treatment B</text>
<line x1="60" y1="445" x2="65" y2="445" stroke="#aaaaaa" stroke-width="1" fill="none"/>
<text x="57" y="445" font-size="11" font-family="system-ui, -apple-system, BlinkMacSystemFont, 'Segoe UI', sans-serif" text-anchor="end" dominant-baseline="middle" fill="#444444">0</text>
<line x1="60" y1="396.8" x2="65" y2="396.8" stroke="#aaaaaa" stroke-width="1" fill="none"/>
<text x="57" y="396.8" font-size="11" font-family="system-ui, -apple-system, BlinkMacSystemFont, 'Segoe UI', sans-serif" text-anchor="end" dominant-baseline="middle" fill="#444444">2</text>
<line x1="60" y1="348.6" x2="65" y2="348.6" stroke="#aaaaaa" stroke-width="1" fill="none"/>
<text x="57" y="348.6" font-size="11" font-family="system-ui, -apple-system, BlinkMacSystemFont, 'Segoe UI', sans-serif" text-anchor="end" dominant-baseline="middle" fill="#444444">5</text>
<line x1="60" y1="300.4" x2="65" y2="300.4" stroke="#aaaaaa" stroke-width="1" fill="none"/>
<text x="57" y="300.4" font-size="11" font-family="system-ui, -apple-system, BlinkMacSystemFont, 'Segoe UI', sans-serif" text-anchor="end" dominant-baseline="middle" fill="#444444">8</text>
<line x1="60" y1="252.1" x2="65" y2="252.1" stroke="#aaaaaa" stroke-width="1" fill="none"/>
<text x="57" y="252.1" font-size="11" font-family="system-ui, -apple-system, BlinkMacSystemFont, 'Segoe UI', sans-serif" text-anchor="end" dominant-baseline="middle" fill="#444444">10</text>
<line x1="60" y1="203.9" x2="65" y2="203.9" stroke="#aaaaaa" stroke-width="1" fill="none"/>
<text x="57" y="203.9" font-size="11" font-family="system-ui, -apple-system, BlinkMacSystemFont, 'Segoe UI', sans-serif" text-anchor="end" dominant-baseline="middle" fill="#444444">12</text>
<line x1="60" y1="155.7" x2="65" y2="155.7" stroke="#aaaaaa" stroke-width="1" fill="none"/>
<text x="57" y="155.7" font-size="11" font-family="system-ui, -apple-system, BlinkMacSystemFont, 'Segoe UI', sans-serif" text-anchor="end" dominant-baseline="middle" fill="#444444">15</text>
<line x1="60" y1="107.5" x2="65" y2="107.5" stroke="#aaaaaa" stroke-width="1" fill="none"/>
<text x="57" y="107.5" font-size="11" font-family="system-ui, -apple-system, BlinkMacSystemFont, 'Segoe UI', sans-serif" text-anchor="end" dominant-baseline="middle" fill="#444444">18</text>
<line x1="60" y1="59.3" x2="65" y2="59.3" stroke="#aaaaaa" stroke-width="1" fill="none"/>
<text x="57" y="59.3" font-size="11" font-family="system-ui, -apple-system, BlinkMacSystemFont, 'Segoe UI', sans-serif" text-anchor="end" dominant-baseline="middle" fill="#444444">20</text>
<text x="17" y="242.5" transform="rotate(-90,17,242.5)" font-size="12" font-family="system-ui, -apple-system, BlinkMacSystemFont, 'Segoe UI', sans-serif" text-anchor="middle" dominant-baseline="middle" fill="#444444">Score</text>
<text x="370" y="25" font-size="16" font-family="system-ui, -apple-system, BlinkMacSystemFont, 'Segoe UI', sans-serif" font-weight="bold" text-anchor="middle" dominant-baseline="auto" fill="#222222">Box Plot — Minimal Theme</text>
</svg>
