<svg xmlns="http://www.w3.org/2000/svg" width="900" height="500">
<defs>
<clipPath id="axes-clip-1"><rect x="70" y="45" width="800" height="395"/></clipPath>
</defs>
<rect x="0" y="0" width="900" height="500" stroke="none" fill="#ffffff"/>
<rect x="70" y="45" width="800" height="395" stroke="none" fill="#f7f7f7"/>
<g clip-path="url(#axes-clip-1)">
<line x1="70" y1="410.3" x2="870" y2="410.3" stroke="#e5e5e5" stroke-width="0.8" fill="none"/>
<line x1="70" y1="360.8" x2="870" y2="360.8" stroke="#e5e5e5" stroke-width="0.8" fill="none"/>
<line x1="70" y1="311.3" x2="870" y2="311.3" stroke="#e5e5e5" stroke-width="0.8" fill="none"/>
<line x1="70" y1="261.8" x2="870" y2="261.8" stroke="#e5e5e5" stroke-width="0.8" fill="none"/>
<line x1="70" y1="212.3" x2="870" y2="212.3" stroke="#e5e5e5" stroke-width="0.8" fill="none"/>
<line x1="70" y1="162.8" x2="870" y2="162.8" stroke="#e5e5e5" stroke-width="0.8" fill="none"/>
<line x1="70" y1="113.3" x2="870" y2="113.3" stroke="#e5e5e5" stroke-width="0.8" fill="none"/>
<line x1="70" y1="63.8" x2="870" y2="63.8" stroke="#e5e5e5" stroke-width="0.8" fill="none"/>
</g>
<g clip-path="url(#axes-clip-1)">
<line x1="150" y1="360.8" x2="150" y2="420.2" stroke="#4c72b0" stroke-width="1.5" fill="none"/>
<line x1="150" y1="281.6" x2="150" y2="162.8" stroke="#4c72b0" stroke-width="1.5" fill="none"/>
<line x1="134" y1="420.2" x2="166" y2="420.2" stroke="#4c72b0" stroke-width="1.5" fill="none"/>
<line x1="134" y1="162.8" x2="166" y2="162.8" stroke="#4c72b0" stroke-width="1.5" fill="none"/>
<rect x="110" y="281.6" width="80" height="79.2" rx="2" ry="2" stroke="#4c72b0" stroke-width="1.5" fill="rgba(76,114,176,0.7)"/>
<line x1="110" y1="321.2" x2="190" y2="321.2" stroke="#ffffff" stroke-width="2" fill="none"/>
<line x1="310" y1="321.2" x2="310" y2="360.8" stroke="#4c72b0" stroke-width="1.5" fill="none"/>
<line x1="310" y1="261.8" x2="310" y2="222.2" stroke="#4c72b0" stroke-width="1.5" fill="none"/>
<line x1="294" y1="360.8" x2="326" y2="360.8" stroke="#4c72b0" stroke-width="1.5" fill="none"/>
<line x1="294" y1="222.2" x2="326" y2="222.2" stroke="#4c72b0" stroke-width="1.5" fill="none"/>
<rect x="270" y="261.8" width="80" height="59.4" rx="2" ry="2" stroke="#4c72b0" stroke-width="1.5" fill="rgba(76,114,176,0.7)"/>
<line x1="270" y1="301.4" x2="350" y2="301.4" stroke="#ffffff" stroke-width="2" fill="none"/>
<line x1="470" y1="360.8" x2="470" y2="440" stroke="#4c72b0" stroke-width="1.5" fill="none"/>
<line x1="470" y1="281.6" x2="470" y2="281.6" stroke="#4c72b0" stroke-width="1.5" fill="none"/>
<line x1="454" y1="440" x2="486" y2="440" stroke="#4c72b0" stroke-width="1.5" fill="none"/>
<line x1="454" y1="281.6" x2="486" y2="281.6" stroke="#4c72b0" stroke-width="1.5" fill="none"/>
<rect x="430" y="281.6" width="80" height="79.2" rx="2" ry="2" stroke="#4c72b0" stroke-width="1.5" fill="rgba(76,114,176,0.7)"/>
<line x1="430" y1="321.2" x2="510" y2="321.2" stroke="#ffffff" stroke-width="2" fill="none"/>
<circle cx="470" cy="103.4" r="3" stroke="#4c72b0" stroke-width="1" fill="#4c72b0" fill-opacity="0.7"/>
<circle cx="470" cy="63.8" r="3" stroke="#4c72b0" stroke-width="1" fill="#4c72b0" fill-opacity="0.7"/>
<line x1="630" y1="321.2" x2="630" y2="380.6" stroke="#4c72b0" stroke-width="1.5" fill="none"/>
<line x1="630" y1="242.0" x2="630" y2="143.0" stroke="#4c72b0" stroke-width="1.5" fill="none"/>
<line x1="614" y1="380.6" x2="646" y2="380.6" stroke="#4c72b0" stroke-width="1.5" fill="none"/>
<line x1="614" y1="143.0" x2="646" y2="143.0" stroke="#4c72b0" stroke-width="1.5" fill="none"/>
<rect x="590" y="242.0" width="80" height="79.2" rx="2" ry="2" stroke="#4c72b0" stroke-width="1.5" fill="rgba(76,114,176,0.7)"/>
<line x1="590" y1="281.6" x2="670" y2="281.6" stroke="#ffffff" stroke-width="2" fill="none"/>
<line x1="790" y1="341" x2="790" y2="400.4" stroke="#4c72b0" stroke-width="1.5" fill="none"/>
<line x1="790" y1="261.8" x2="790" y2="182.6" stroke="#4c72b0" stroke-width="1.5" fill="none"/>
<line x1="774" y1="400.4" x2="806" y2="400.4" stroke="#4c72b0" stroke-width="1.5" fill="none"/>
<line x1="774" y1="182.6" x2="806" y2="182.6" stroke="#4c72b0" stroke-width="1.5" fill="none"/>
<rect x="750" y="261.8" width="80" height="79.2" rx="2" ry="2" stroke="#4c72b0" stroke-width="1.5" fill="rgba(76,114,176,0.7)"/>
<line x1="750" y1="301.4" x2="830" y2="301.4" stroke="#ffffff" stroke-width="2" fill="none"/>
</g>
<line x1="70" y1="440" x2="870" y2="440" stroke="#888888" stroke-width="1.2" fill="none"/>
<line x1="70" y1="45" x2="70" y2="440" stroke="#888888" stroke-width="1.2" fill="none"/>
<line x1="150" y1="440" x2="150" y2="445" stroke="#888888" stroke-width="1" fill="none"/>
<text x="150" y="448" font-size="11" font-family="system-ui, -apple-system, BlinkMacSystemFont, 'Segoe UI', sans-serif" text-anchor="middle" dominant-baseline="hanging" fill="#333333">Control</text>
<line x1="310" y1="440" x2="310" y2="445" stroke="#888888" stroke-width="1" fill="none"/>
<text x="310" y="448" font-size="11" font-family="system-ui, -apple-system, BlinkMacSystemFont, 'Segoe UI', sans-serif" text-anchor="middle" dominant-baseline="hanging" fill="#333333">Treat A</text>
<line x1="470" y1="440" x2="470" y2="445" stroke="#888888" stroke-width="1" fill="none"/>
<text x="470" y="448" font-size="11" font-family="system-ui, -apple-system, BlinkMacSystemFont, 'Segoe UI', sans-serif" text-anchor="middle" dominant-baseline="hanging" fill="#333333">Treat B</text>
<line x1="630" y1="440" x2="630" y2="445" stroke="#888888" stroke-width="1" fill="none"/>
<text x="630" y="448" font-size="11" font-family="system-ui, -apple-system, BlinkMacSystemFont, 'Segoe UI', sans-serif" text-anchor="middle" dominant-baseline="hanging" fill="#333333">Treat C</text>
<line x1="790" y1="440" x2="790" y2="445" stroke="#888888" stroke-width="1" fill="none"/>
<text x="790" y="448" font-size="11" font-family="system-ui, -apple-system, BlinkMacSystemFont, 'Segoe UI', sans-serif" text-anchor="middle" dominant-baseline="hanging" fill="#333333">Treat D</text>
<line x1="65" y1="410.3" x2="70" y2="410.3" stroke="#888888" stroke-width="1" fill="none"/>
<text x="62" y="410.3" font-size="11" font-family="system-ui, -apple-system, BlinkMacSystemFont, 'Segoe UI', sans-serif" text-anchor="end" dominant-baseline="middle" fill="#333333">2</text>
<line x1="65" y1="360.8" x2="70" y2="360.8" stroke="#888888" stroke-width="1" fill="none"/>
<text x="62" y="360.8" font-size="11" font-family="system-ui, -apple-system, BlinkMacSystemFont, 'Segoe UI', sans-serif" text-anchor="end" dominant-baseline="middle" fill="#333333">5</text>
<line x1="65" y1="311.3" x2="70" y2="311.3" stroke="#888888" stroke-width="1" fill="none"/>
<text x="62" y="311.3" font-size="11" font-family="system-ui, -apple-system, BlinkMacSystemFont, 'Segoe UI', sans-serif" text-anchor="end" dominant-baseline="middle" fill="#333333">8</text>
<line x1="65" y1="261.8" x2="70" y2="261.8" stroke="#888888" stroke-width="1" fill="none"/>
<text x="62" y="261.8" font-size="11" font-family="system-ui, -apple-system, BlinkMacSystemFont, 'Segoe UI', sans-serif" text-anchor="end" dominant-baseline="middle" fill="#333333">10</text>
<line x1="65" y1="212.3" x2="70" y2="212.3" stroke="#888888" stroke-width="1" fill="none"/>
<text x="62" y="212.3" font-size="11" font-family="system-ui, -apple-system, BlinkMacSystemFont, 'Segoe UI', sans-serif" text-anchor="end" dominant-baseline="middle" fill="#333333">12</text>
<line x1="65" y1="162.8" x2="70" y2="162.8" stroke="#888888" stroke-width="1" fill="none"/>
<text x="62" y="162.8" font-size="11" font-family="system-ui, -apple-system, BlinkMacSystemFont, 'Segoe UI', sans-serif" text-anchor="end" dominant-baseline="middle" fill="#333333">15</text>
<line x1="65" y1="113.3" x2="70" y2="113.3" stroke="#888888" stroke-width="1" fill="none"/>
<text x="62" y="113.3" font-size="11" font-family="system-ui, -apple-system, BlinkMacSystemFont, 'Segoe UI', sans-serif" text-anchor="end" dominant-baseline="middle" fill="#333333">18</text>
<line x1="65" y1="63.8" x2="70" y2="63.8" stroke="#888888" stroke-width="1" fill="none"/>
<text x="62" y="63.8" font-size="11" font-family="system-ui, -apple-system, BlinkMacSystemFont, 'Segoe UI', sans-serif" text-anchor="end" dominant-baseline="middle" fill="#333333">20</text>
<text x="22" y="242.5" transform="rotate(-90,22,242.5)" font-size="12" font-family="system-ui, -apple-system, BlinkMacSystemFont, 'Segoe UI', sans-serif" text-anchor="middle" dominant-baseline="middle" fill="#333333">Score</text>
<text x="470" y="30" font-size="16" font-family="system-ui, -apple-system, BlinkMacSystemFont, 'Segoe UI', sans-serif" font-weight="bold" text-anchor="middle" dominant-baseline="auto" fill="#1a1a1a">Five-Group Box Plot</text>
</svg>
