<svg xmlns="http://www.w3.org/2000/svg" width="800" height="450">
<defs>
<clipPath id="axes-clip-1"><rect x="70" y="45" width="700" height="345"/></clipPath>
</defs>
<rect x="0" y="0" width="800" height="450" stroke="none" fill="#ffffff"/>
<rect x="70" y="45" width="700" height="345" stroke="none" fill="#f7f7f7"/>
<g clip-path="url(#axes-clip-1)">
<line x1="70" y1="344.3" x2="770" y2="344.3" stroke="#e5e5e5" stroke-width="0.8" fill="none"/>
<line x1="70" y1="289.9" x2="770" y2="289.9" stroke="#e5e5e5" stroke-width="0.8" fill="none"/>
<line x1="70" y1="235.5" x2="770" y2="235.5" stroke="#e5e5e5" stroke-width="0.8" fill="none"/>
<line x1="70" y1="181.1" x2="770" y2="181.1" stroke="#e5e5e5" stroke-width="0.8" fill="none"/>
<line x1="70" y1="126.7" x2="770" y2="126.7" stroke="#e5e5e5" stroke-width="0.8" fill="none"/>
<line x1="70" y1="72.3" x2="770" y2="72.3" stroke="#e5e5e5" stroke-width="0.8" fill="none"/>
</g>
<g clip-path="url(#axes-clip-1)">
<line x1="70" y1="45" x2="70" y2="390" stroke="#e5e5e5" stroke-width="0.8" fill="none"/>
<line x1="210" y1="45" x2="210" y2="390" stroke="#e5e5e5" stroke-width="0.8" fill="none"/>
<line x1="350" y1="45" x2="350" y2="390" stroke="#e5e5e5" stroke-width="0.8" fill="none"/>
<line x1="490" y1="45" x2="490" y2="390" stroke="#e5e5e5" stroke-width="0.8" fill="none"/>
<line x1="630" y1="45" x2="630" y2="390" stroke="#e5e5e5" stroke-width="0.8" fill="none"/>
<line x1="770" y1="45" x2="770" y2="390" stroke="#e5e5e5" stroke-width="0.8" fill="none"/>
</g>
<g clip-path="url(#axes-clip-1)">
<path d="M70 387.8 L210 374.8 L350 354.1 L490 312.8 L630 237.7 L770 88.6" stroke="#4c72b0" stroke-width="2.5" fill="none" stroke-linecap="round" stroke-linejoin="round"/>
<circle cx="70" cy="387.8" r="5" stroke="#ffffff" stroke-width="1" fill="#4c72b0"/>
<circle cx="210" cy="374.8" r="5" stroke="#ffffff" stroke-width="1" fill="#4c72b0"/>
<circle cx="350" cy="354.1" r="5" stroke="#ffffff" stroke-width="1" fill="#4c72b0"/>
<circle cx="490" cy="312.8" r="5" stroke="#ffffff" stroke-width="1" fill="#4c72b0"/>
<circle cx="630" cy="237.7" r="5" stroke="#ffffff" stroke-width="1" fill="#4c72b0"/>
<circle cx="770" cy="88.6" r="5" stroke="#ffffff" stroke-width="1" fill="#4c72b0"/>
<line x1="70" y1="390" x2="70" y2="385.7" stroke="#4c72b0" stroke-width="1.5" fill="none"/>
<line x1="67" y1="390" x2="73" y2="390" stroke="#4c72b0" stroke-width="1.5" fill="none"/>
<line x1="67" y1="385.7" x2="73" y2="385.7" stroke="#4c72b0" stroke-width="1.5" fill="none"/>
<line x1="210" y1="379.1" x2="210" y2="370.4" stroke="#4c72b0" stroke-width="1.5" fill="none"/>
<line x1="207" y1="379.1" x2="213" y2="379.1" stroke="#4c72b0" stroke-width="1.5" fill="none"/>
<line x1="207" y1="370.4" x2="213" y2="370.4" stroke="#4c72b0" stroke-width="1.5" fill="none"/>
<line x1="350" y1="360.6" x2="350" y2="347.6" stroke="#4c72b0" stroke-width="1.5" fill="none"/>
<line x1="347" y1="360.6" x2="353" y2="360.6" stroke="#4c72b0" stroke-width="1.5" fill="none"/>
<line x1="347" y1="347.6" x2="353" y2="347.6" stroke="#4c72b0" stroke-width="1.5" fill="none"/>
<line x1="490" y1="323.6" x2="490" y2="301.9" stroke="#4c72b0" stroke-width="1.5" fill="none"/>
<line x1="487" y1="323.6" x2="493" y2="323.6" stroke="#4c72b0" stroke-width="1.5" fill="none"/>
<line x1="487" y1="301.9" x2="493" y2="301.9" stroke="#4c72b0" stroke-width="1.5" fill="none"/>
<line x1="630" y1="254" x2="630" y2="221.4" stroke="#4c72b0" stroke-width="1.5" fill="none"/>
<line x1="627" y1="254" x2="633" y2="254" stroke="#4c72b0" stroke-width="1.5" fill="none"/>
<line x1="627" y1="221.4" x2="633" y2="221.4" stroke="#4c72b0" stroke-width="1.5" fill="none"/>
<line x1="770" y1="115.8" x2="770" y2="61.4" stroke="#4c72b0" stroke-width="1.5" fill="none"/>
<line x1="767" y1="115.8" x2="773" y2="115.8" stroke="#4c72b0" stroke-width="1.5" fill="none"/>
<line x1="767" y1="61.4" x2="773" y2="61.4" stroke="#4c72b0" stroke-width="1.5" fill="none"/>
</g>
<line x1="70" y1="390" x2="770" y2="390" stroke="#888888" stroke-width="1.2" fill="none"/>
<line x1="70" y1="45" x2="70" y2="390" stroke="#888888" stroke-width="1.2" fill="none"/>
<line x1="70" y1="390" x2="70" y2="395" stroke="#888888" stroke-width="1" fill="none"/>
<text x="70" y="398" font-size="11" font-family="system-ui, -apple-system, BlinkMacSystemFont, 'Segoe UI', sans-serif" text-anchor="middle" dominant-baseline="hanging" fill="#333333">0</text>
<line x1="210" y1="390" x2="210" y2="395" stroke="#888888" stroke-width="1" fill="none"/>
<text x="210" y="398" font-size="11" font-family="system-ui, -apple-system, BlinkMacSystemFont, 'Segoe UI', sans-serif" text-anchor="middle" dominant-baseline="hanging" fill="#333333">1</text>
<line x1="350" y1="390" x2="350" y2="395" stroke="#888888" stroke-width="1" fill="none"/>
<text x="350" y="398" font-size="11" font-family="system-ui, -apple-system, BlinkMacSystemFont, 'Segoe UI', sans-serif" text-anchor="middle" dominant-baseline="hanging" fill="#333333">2</text>
<line x1="490" y1="390" x2="490" y2="395" stroke="#888888" stroke-width="1" fill="none"/>
<text x="490" y="398" font-size="11" font-family="system-ui, -apple-system, BlinkMacSystemFont, 'Segoe UI', sans-serif" text-anchor="middle" dominant-baseline="hanging" fill="#333333">3</text>
<line x1="630" y1="390" x2="630" y2="395" stroke="#888888" stroke-width="1" fill="none"/>
<text x="630" y="398" font-size="11" font-family="system-ui, -apple-system, BlinkMacSystemFont, 'Segoe UI', sans-serif" text-anchor="middle" dominant-baseline="hanging" fill="#333333">4</text>
<line x1="770" y1="390" x2="770" y2="395" stroke="#888888" stroke-width="1" fill="none"/>
<text x="770" y="398" font-size="11" font-family="system-ui, -apple-system, BlinkMacSystemFont, 'Segoe UI', sans-serif" text-anchor="middle" dominant-baseline="hanging" fill="#333333">5</text>
<line x1="65" y1="344.3" x2="70" y2="344.3" stroke="#888888" stroke-width="1" fill="none"/>
<text x="62" y="344.3" font-size="11" font-family="system-ui, -apple-system, BlinkMacSystemFont, 'Segoe UI', sans-serif" text-anchor="end" dominant-baseline="middle" fill="#333333">5</text>
<line x1="65" y1="289.9" x2="70" y2="289.9" stroke="#888888" stroke-width="1" fill="none"/>
<text x="62" y="289.9" font-size="11" font-family="system-ui, -apple-system, BlinkMacSystemFont, 'Segoe UI', sans-serif" text-anchor="end" dominant-baseline="middle" fill="#333333">10</text>
<line x1="65" y1="235.5" x2="70" y2="235.5" stroke="#888888" stroke-width="1" fill="none"/>
<text x="62" y="235.5" font-size="11" font-family="system-ui, -apple-system, BlinkMacSystemFont, 'Segoe UI', sans-serif" text-anchor="end" dominant-baseline="middle" fill="#333333">15</text>
<line x1="65" y1="181.1" x2="70" y2="181.1" stroke="#888888" stroke-width="1" fill="none"/>
<text x="62" y="181.1" font-size="11" font-family="system-ui, -apple-system, BlinkMacSystemFont, 'Segoe UI', sans-serif" text-anchor="end" dominant-baseline="middle" fill="#333333">20</text>
<line x1="65" y1="126.7" x2="70" y2="126.7" stroke="#888888" stroke-width="1" fill="none"/>
<text x="62" y="126.7" font-size="11" font-family="system-ui, -apple-system, BlinkMacSystemFont, 'Segoe UI', sans-serif" text-anchor="end" dominant-baseline="middle" fill="#333333">25</text>
<line x1="65" y1="72.3" x2="70" y2="72.3" stroke="#888888" stroke-width="1" fill="none"/>
<text x="62" y="72.3" font-size="11" font-family="system-ui, -apple-system, BlinkMacSystemFont, 'Segoe UI', sans-serif" text-anchor="end" dominant-baseline="middle" fill="#333333">30</text>
<rect x="670.4" y="55" width="89.6" height="64" rx="4" ry="4" stroke="#e5e5e5" stroke-width="0.8" fill="rgba(255,255,255,0.9)"/>
<line x1="680.4" y1="76" x2="700.4" y2="76" stroke="#4c72b0" stroke-width="2.5" fill="none" stroke-linecap="round"/>
<circle cx="690.4" cy="76" r="3" stroke="none" fill="#4c72b0"/>
<text x="704.4" y="76" font-size="12" font-family="system-ui, -apple-system, BlinkMacSystemFont, 'Segoe UI', sans-serif" text-anchor="start" dominant-baseline="middle" fill="#333333">signal</text>
<line x1="680.4" y1="98" x2="700.4" y2="98" stroke="#4c72b0" stroke-width="2.5" fill="none" stroke-linecap="round"/>
<circle cx="690.4" cy="98" r="3" stroke="none" fill="#4c72b0"/>
<text x="704.4" y="98" font-size="12" font-family="system-ui, -apple-system, BlinkMacSystemFont, 'Segoe UI', sans-serif" text-anchor="start" dominant-baseline="middle" fill="#333333">Series</text>
</svg>
