<svg xmlns="http://www.w3.org/2000/svg" width="800" height="450">
<defs>
<clipPath id="axes-clip-1"><rect x="70" y="45" width="700" height="345"/></clipPath>
</defs>
<rect x="0" y="0" width="800" height="450" stroke="none" fill="#ffffff"/>
<rect x="70" y="45" width="700" height="345" stroke="none" fill="#f7f7f7"/>
<g clip-path="url(#axes-clip-1)">
<line x1="70" y1="371.8" x2="770" y2="371.8" stroke="#e5e5e5" stroke-width="0.8" fill="none"/>
<line x1="70" y1="310.9" x2="770" y2="310.9" stroke="#e5e5e5" stroke-width="0.8" fill="none"/>
<line x1="70" y1="250.1" x2="770" y2="250.1" stroke="#e5e5e5" stroke-width="0.8" fill="none"/>
<line x1="70" y1="189.2" x2="770" y2="189.2" stroke="#e5e5e5" stroke-width="0.8" fill="none"/>
<line x1="70" y1="128.4" x2="770" y2="128.4" stroke="#e5e5e5" stroke-width="0.8" fill="none"/>
<line x1="70" y1="67.5" x2="770" y2="67.5" stroke="#e5e5e5" stroke-width="0.8" fill="none"/>
</g>
<g clip-path="url(#axes-clip-1)">
<line x1="70" y1="45" x2="70" y2="390" stroke="#e5e5e5" stroke-width="0.8" fill="none"/>
<line x1="186.7" y1="45" x2="186.7" y2="390" stroke="#e5e5e5" stroke-width="0.8" fill="none"/>
<line x1="303.3" y1="45" x2="303.3" y2="390" stroke="#e5e5e5" stroke-width="0.8" fill="none"/>
<line x1="420" y1="45" x2="420" y2="390" stroke="#e5e5e5" stroke-width="0.8" fill="none"/>
<line x1="536.7" y1="45" x2="536.7" y2="390" stroke="#e5e5e5" stroke-width="0.8" fill="none"/>
<line x1="653.3" y1="45" x2="653.3" y2="390" stroke="#e5e5e5" stroke-width="0.8" fill="none"/>
<line x1="770" y1="45" x2="770" y2="390" stroke="#e5e5e5" stroke-width="0.8" fill="none"/>
</g>
<g clip-path="url(#axes-clip-1)">
<circle cx="70" cy="365.7" r="6" stroke="rgba(255,255,255,0.8)" stroke-width="1.2" fill="#4c72b0"/>
<circle cx="186.7" cy="262.2" r="6" stroke="rgba(255,255,255,0.8)" stroke-width="1.2" fill="#4c72b0"/>
<circle cx="303.3" cy="298.7" r="6" stroke="rgba(255,255,255,0.8)" stroke-width="1.2" fill="#4c72b0"/>
<circle cx="420" cy="183.1" r="6" stroke="rgba(255,255,255,0.8)" stroke-width="1.2" fill="#4c72b0"/>
<circle cx="536.7" cy="213.5" r="6" stroke="rgba(255,255,255,0.8)" stroke-width="1.2" fill="#4c72b0"/>
<circle cx="653.3" cy="110.1" r="6" stroke="rgba(255,255,255,0.8)" stroke-width="1.2" fill="#4c72b0"/>
<circle cx="770" cy="140.5" r="6" stroke="rgba(255,255,255,0.8)" stroke-width="1.2" fill="#4c72b0"/>
<line x1="70" y1="390" x2="70" y2="341.3" stroke="#4c72b0" stroke-width="1.5" fill="none"/>
<line x1="67" y1="390" x2="73" y2="390" stroke="#4c72b0" stroke-width="1.5" fill="none"/>
<line x1="67" y1="341.3" x2="73" y2="341.3" stroke="#4c72b0" stroke-width="1.5" fill="none"/>
<line x1="186.7" y1="298.7" x2="186.7" y2="225.7" stroke="#4c72b0" stroke-width="1.5" fill="none"/>
<line x1="183.7" y1="298.7" x2="189.7" y2="298.7" stroke="#4c72b0" stroke-width="1.5" fill="none"/>
<line x1="183.7" y1="225.7" x2="189.7" y2="225.7" stroke="#4c72b0" stroke-width="1.5" fill="none"/>
<line x1="303.3" y1="329.2" x2="303.3" y2="268.3" stroke="#4c72b0" stroke-width="1.5" fill="none"/>
<line x1="300.3" y1="329.2" x2="306.3" y2="329.2" stroke="#4c72b0" stroke-width="1.5" fill="none"/>
<line x1="300.3" y1="268.3" x2="306.3" y2="268.3" stroke="#4c72b0" stroke-width="1.5" fill="none"/>
<line x1="420" y1="225.7" x2="420" y2="140.5" stroke="#4c72b0" stroke-width="1.5" fill="none"/>
<line x1="417" y1="225.7" x2="423" y2="225.7" stroke="#4c72b0" stroke-width="1.5" fill="none"/>
<line x1="417" y1="140.5" x2="423" y2="140.5" stroke="#4c72b0" stroke-width="1.5" fill="none"/>
<line x1="536.7" y1="244.0" x2="536.7" y2="183.1" stroke="#4c72b0" stroke-width="1.5" fill="none"/>
<line x1="533.7" y1="244.0" x2="539.7" y2="244.0" stroke="#4c72b0" stroke-width="1.5" fill="none"/>
<line x1="533.7" y1="183.1" x2="539.7" y2="183.1" stroke="#4c72b0" stroke-width="1.5" fill="none"/>
<line x1="653.3" y1="158.8" x2="653.3" y2="61.4" stroke="#4c72b0" stroke-width="1.5" fill="none"/>
<line x1="650.3" y1="158.8" x2="656.3" y2="158.8" stroke="#4c72b0" stroke-width="1.5" fill="none"/>
<line x1="650.3" y1="61.4" x2="656.3" y2="61.4" stroke="#4c72b0" stroke-width="1.5" fill="none"/>
<line x1="770" y1="177.0" x2="770" y2="104.0" stroke="#4c72b0" stroke-width="1.5" fill="none"/>
<line x1="767" y1="177.0" x2="773" y2="177.0" stroke="#4c72b0" stroke-width="1.5" fill="none"/>
<line x1="767" y1="104.0" x2="773" y2="104.0" stroke="#4c72b0" stroke-width="1.5" fill="none"/>
</g>
<line x1="70" y1="390" x2="770" y2="390" stroke="#888888" stroke-width="1.2" fill="none"/>
<line x1="70" y1="45" x2="70" y2="390" stroke="#888888" stroke-width="1.2" fill="none"/>
<line x1="70" y1="390" x2="70" y2="395" stroke="#888888" stroke-width="1" fill="none"/>
<text x="70" y="398" font-size="11" font-family="system-ui, -apple-system, BlinkMacSystemFont, 'Segoe UI', sans-serif" text-anchor="middle" dominant-baseline="hanging" fill="#333333">1</text>
<line x1="186.7" y1="390" x2="186.7" y2="395" stroke="#888888" stroke-width="1" fill="none"/>
<text x="186.7" y="398" font-size="11" font-family="system-ui, -apple-system, BlinkMacSystemFont, 'Segoe UI', sans-serif" text-anchor="middle" dominant-baseline="hanging" fill="#333333">2</text>
<line x1="303.3" y1="390" x2="303.3" y2="395" stroke="#888888" stroke-width="1" fill="none"/>
<text x="303.3" y="398" font-size="11" font-family="system-ui, -apple-system, BlinkMacSystemFont, 'Segoe UI', sans-serif" text-anchor="middle" dominant-baseline="hanging" fill="#333333">3</text>
<line x1="420" y1="390" x2="420" y2="395" stroke="#888888" stroke-width="1" fill="none"/>
<text x="420" y="398" font-size="11" font-family="system-ui, -apple-system, BlinkMacSystemFont, 'Segoe UI', sans-serif" text-anchor="middle" dominant-baseline="hanging" fill="#333333">4</text>
<line x1="536.7" y1="390" x2="536.7" y2="395" stroke="#888888" stroke-width="1" fill="none"/>
<text x="536.7" y="398" font-size="11" font-family="system-ui, -apple-system, BlinkMacSystemFont, 'Segoe UI', sans-serif" text-anchor="middle" dominant-baseline="hanging" fill="#333333">5</text>
<line x1="653.3" y1="390" x2="653.3" y2="395" stroke="#888888" stroke-width="1" fill="none"/>
<text x="653.3" y="398" font-size="11" font-family="system-ui, -apple-system, BlinkMacSystemFont, 'Segoe UI', sans-serif" text-anchor="middle" dominant-baseline="hanging" fill="#333333">6</text>
<line x1="770" y1="390" x2="770" y2="395" stroke="#888888" stroke-width="1" fill="none"/>
<text x="770" y="398" font-size="11" font-family="system-ui, -apple-system, BlinkMacSystemFont, 'Segoe UI', sans-serif" text-anchor="middle" dominant-baseline="hanging" fill="#333333">7</text>
<line x1="65" y1="371.8" x2="70" y2="371.8" stroke="#888888" stroke-width="1" fill="none"/>
<text x="62" y="371.8" font-size="11" font-family="system-ui, -apple-system, BlinkMacSystemFont, 'Segoe UI', sans-serif" text-anchor="end" dominant-baseline="middle" fill="#333333">2</text>
<line x1="65" y1="310.9" x2="70" y2="310.9" stroke="#888888" stroke-width="1" fill="none"/>
<text x="62" y="310.9" font-size="11" font-family="system-ui, -apple-system, BlinkMacSystemFont, 'Segoe UI', sans-serif" text-anchor="end" dominant-baseline="middle" fill="#333333">3</text>
<line x1="65" y1="250.1" x2="70" y2="250.1" stroke="#888888" stroke-width="1" fill="none"/>
<text x="62" y="250.1" font-size="11" font-family="system-ui, -apple-system, BlinkMacSystemFont, 'Segoe UI', sans-serif" text-anchor="end" dominant-baseline="middle" fill="#333333">4</text>
<line x1="65" y1="189.2" x2="70" y2="189.2" stroke="#888888" stroke-width="1" fill="none"/>
<text x="62" y="189.2" font-size="11" font-family="system-ui, -apple-system, BlinkMacSystemFont, 'Segoe UI', sans-serif" text-anchor="end" dominant-baseline="middle" fill="#333333">5</text>
<line x1="65" y1="128.4" x2="70" y2="128.4" stroke="#888888" stroke-width="1" fill="none"/>
<text x="62" y="128.4" font-size="11" font-family="system-ui, -apple-system, BlinkMacSystemFont, 'Segoe UI', sans-serif" text-anchor="end" dominant-baseline="middle" fill="#333333">6</text>
<line x1="65" y1="67.5" x2="70" y2="67.5" stroke="#888888" stroke-width="1" fill="none"/>
<text x="62" y="67.5" font-size="11" font-family="system-ui, -apple-system, BlinkMacSystemFont, 'Segoe UI', sans-serif" text-anchor="end" dominant-baseline="middle" fill="#333333">7</text>
<text x="420" y="420" font-size="12" font-family="system-ui, -apple-system, BlinkMacSystemFont, 'Segoe UI', sans-serif" text-anchor="middle" dominant-baseline="hanging" fill="#333333">Sample</text>
<text x="22" y="217.5" transform="rotate(-90,22,217.5)" font-size="12" font-family="system-ui, -apple-system, BlinkMacSystemFont, 'Segoe UI', sans-serif" text-anchor="middle" dominant-baseline="middle" fill="#333333">Value</text>
<rect x="630.8" y="55" width="129.2" height="64" rx="4" ry="4" stroke="#e5e5e5" stroke-width="0.8" fill="rgba(255,255,255,0.9)"/>
<line x1="640.8" y1="76" x2="660.8" y2="76" stroke="#4c72b0" stroke-width="2.5" fill="none" stroke-linecap="round"/>
<circle cx="650.8" cy="76" r="3" stroke="none" fill="#4c72b0"/>
<text x="664.8" y="76" font-size="12" font-family="system-ui, -apple-system, BlinkMacSystemFont, 'Segoe UI', sans-serif" text-anchor="start" dominant-baseline="middle" fill="#333333">measurements</text>
<line x1="640.8" y1="98" x2="660.8" y2="98" stroke="#4c72b0" stroke-width="2.5" fill="none" stroke-linecap="round"/>
<circle cx="650.8" cy="98" r="3" stroke="none" fill="#4c72b0"/>
<text x="664.8" y="98" font-size="12" font-family="system-ui, -apple-system, BlinkMacSystemFont, 'Segoe UI', sans-serif" text-anchor="start" dominant-baseline="middle" fill="#333333">Series</text>
</svg>
