<svg xmlns="http://www.w3.org/2000/svg" width="800" height="450">
<defs>
<clipPath id="axes-clip-1"><rect x="70" y="45" width="700" height="345"/></clipPath>
</defs>
<rect x="0" y="0" width="800" height="450" stroke="none" fill="#ffffff"/>
<rect x="70" y="45" width="700" height="345" stroke="none" fill="#f7f7f7"/>
<g clip-path="url(#axes-clip-1)">
<line x1="70" y1="390" x2="770" y2="390" stroke="#e5e5e5" stroke-width="0.8" fill="none"/>
<line x1="70" y1="348.9" x2="770" y2="348.9" stroke="#e5e5e5" stroke-width="0.8" fill="none"/>
<line x1="70" y1="307.9" x2="770" y2="307.9" stroke="#e5e5e5" stroke-width="0.8" fill="none"/>
<line x1="70" y1="266.8" x2="770" y2="266.8" stroke="#e5e5e5" stroke-width="0.8" fill="none"/>
<line x1="70" y1="225.7" x2="770" y2="225.7" stroke="#e5e5e5" stroke-width="0.8" fill="none"/>
<line x1="70" y1="184.6" x2="770" y2="184.6" stroke="#e5e5e5" stroke-width="0.8" fill="none"/>
<line x1="70" y1="143.6" x2="770" y2="143.6" stroke="#e5e5e5" stroke-width="0.8" fill="none"/>
<line x1="70" y1="102.5" x2="770" y2="102.5" stroke="#e5e5e5" stroke-width="0.8" fill="none"/>
<line x1="70" y1="61.4" x2="770" y2="61.4" stroke="#e5e5e5" stroke-width="0.8" fill="none"/>
</g>
<g clip-path="url(#axes-clip-1)">
<line x1="131.8" y1="45" x2="131.8" y2="390" stroke="#e5e5e5" stroke-width="0.8" fill="none"/>
<line x1="234.7" y1="45" x2="234.7" y2="390" stroke="#e5e5e5" stroke-width="0.8" fill="none"/>
<line x1="337.7" y1="45" x2="337.7" y2="390" stroke="#e5e5e5" stroke-width="0.8" fill="none"/>
<line x1="440.6" y1="45" x2="440.6" y2="390" stroke="#e5e5e5" stroke-width="0.8" fill="none"/>
<line x1="543.5" y1="45" x2="543.5" y2="390" stroke="#e5e5e5" stroke-width="0.8" fill="none"/>
<line x1="646.5" y1="45" x2="646.5" y2="390" stroke="#e5e5e5" stroke-width="0.8" fill="none"/>
<line x1="749.4" y1="45" x2="749.4" y2="390" stroke="#e5e5e5" stroke-width="0.8" fill="none"/>
</g>
<g clip-path="url(#axes-clip-1)">
<circle cx="131.8" cy="390" r="6" stroke="rgba(255,255,255,0.8)" stroke-width="1.2" fill="#4c72b0"/>
<circle cx="420" cy="307.9" r="6" stroke="rgba(255,255,255,0.8)" stroke-width="1.2" fill="#4c72b0"/>
<circle cx="255.3" cy="225.7" r="6" stroke="rgba(255,255,255,0.8)" stroke-width="1.2" fill="#4c72b0"/>
<circle cx="667.1" cy="143.6" r="6" stroke="rgba(255,255,255,0.8)" stroke-width="1.2" fill="#4c72b0"/>
<circle cx="502.4" cy="61.4" r="6" stroke="rgba(255,255,255,0.8)" stroke-width="1.2" fill="#4c72b0"/>
<line x1="70" y1="390" x2="193.5" y2="390" stroke="#4c72b0" stroke-width="1.5" fill="none"/>
<line x1="70" y1="387" x2="70" y2="393" stroke="#4c72b0" stroke-width="1.5" fill="none"/>
<line x1="193.5" y1="387" x2="193.5" y2="393" stroke="#4c72b0" stroke-width="1.5" fill="none"/>
<line x1="337.7" y1="307.9" x2="502.4" y2="307.9" stroke="#4c72b0" stroke-width="1.5" fill="none"/>
<line x1="337.7" y1="304.9" x2="337.7" y2="310.9" stroke="#4c72b0" stroke-width="1.5" fill="none"/>
<line x1="502.4" y1="304.9" x2="502.4" y2="310.9" stroke="#4c72b0" stroke-width="1.5" fill="none"/>
<line x1="214.1" y1="225.7" x2="296.5" y2="225.7" stroke="#4c72b0" stroke-width="1.5" fill="none"/>
<line x1="214.1" y1="222.7" x2="214.1" y2="228.7" stroke="#4c72b0" stroke-width="1.5" fill="none"/>
<line x1="296.5" y1="222.7" x2="296.5" y2="228.7" stroke="#4c72b0" stroke-width="1.5" fill="none"/>
<line x1="564.1" y1="143.6" x2="770" y2="143.6" stroke="#4c72b0" stroke-width="1.5" fill="none"/>
<line x1="564.1" y1="140.6" x2="564.1" y2="146.6" stroke="#4c72b0" stroke-width="1.5" fill="none"/>
<line x1="770" y1="140.6" x2="770" y2="146.6" stroke="#4c72b0" stroke-width="1.5" fill="none"/>
<line x1="428.2" y1="61.4" x2="576.5" y2="61.4" stroke="#4c72b0" stroke-width="1.5" fill="none"/>
<line x1="428.2" y1="58.4" x2="428.2" y2="64.4" stroke="#4c72b0" stroke-width="1.5" fill="none"/>
<line x1="576.5" y1="58.4" x2="576.5" y2="64.4" stroke="#4c72b0" stroke-width="1.5" fill="none"/>
</g>
<line x1="70" y1="390" x2="770" y2="390" stroke="#888888" stroke-width="1.2" fill="none"/>
<line x1="70" y1="45" x2="70" y2="390" stroke="#888888" stroke-width="1.2" fill="none"/>
<line x1="131.8" y1="390" x2="131.8" y2="395" stroke="#888888" stroke-width="1" fill="none"/>
<text x="131.8" y="398" font-size="11" font-family="system-ui, -apple-system, BlinkMacSystemFont, 'Segoe UI', sans-serif" text-anchor="middle" dominant-baseline="hanging" fill="#333333">5</text>
<line x1="234.7" y1="390" x2="234.7" y2="395" stroke="#888888" stroke-width="1" fill="none"/>
<text x="234.7" y="398" font-size="11" font-family="system-ui, -apple-system, BlinkMacSystemFont, 'Segoe UI', sans-serif" text-anchor="middle" dominant-baseline="hanging" fill="#333333">8</text>
<line x1="337.7" y1="390" x2="337.7" y2="395" stroke="#888888" stroke-width="1" fill="none"/>
<text x="337.7" y="398" font-size="11" font-family="system-ui, -apple-system, BlinkMacSystemFont, 'Segoe UI', sans-serif" text-anchor="middle" dominant-baseline="hanging" fill="#333333">10</text>
<line x1="440.6" y1="390" x2="440.6" y2="395" stroke="#888888" stroke-width="1" fill="none"/>
<text x="440.6" y="398" font-size="11" font-family="system-ui, -apple-system, BlinkMacSystemFont, 'Segoe UI', sans-serif" text-anchor="middle" dominant-baseline="hanging" fill="#333333">12</text>
<line x1="543.5" y1="390" x2="543.5" y2="395" stroke="#888888" stroke-width="1" fill="none"/>
<text x="543.5" y="398" font-size="11" font-family="system-ui, -apple-system, BlinkMacSystemFont, 'Segoe UI', sans-serif" text-anchor="middle" dominant-baseline="hanging" fill="#333333">15</text>
<line x1="646.5" y1="390" x2="646.5" y2="395" stroke="#888888" stroke-width="1" fill="none"/>
<text x="646.5" y="398" font-size="11" font-family="system-ui, -apple-system, BlinkMacSystemFont, 'Segoe UI', sans-serif" text-anchor="middle" dominant-baseline="hanging" fill="#333333">18</text>
<line x1="749.4" y1="390" x2="749.4" y2="395" stroke="#888888" stroke-width="1" fill="none"/>
<text x="749.4" y="398" font-size="11" font-family="system-ui, -apple-system, BlinkMacSystemFont, 'Segoe UI', sans-serif" text-anchor="middle" dominant-baseline="hanging" fill="#333333">20</text>
<line x1="65" y1="390" x2="70" y2="390" stroke="#888888" stroke-width="1" fill="none"/>
<text x="62" y="390" font-size="11" font-family="system-ui, -apple-system, BlinkMacSystemFont, 'Segoe UI', sans-serif" text-anchor="end" dominant-baseline="middle" fill="#333333">1.0</text>
<line x1="65" y1="348.9" x2="70" y2="348.9" stroke="#888888" stroke-width="1" fill="none"/>
<text x="62" y="348.9" font-size="11" font-family="system-ui, -apple-system, BlinkMacSystemFont, 'Segoe UI', sans-serif" text-anchor="end" dominant-baseline="middle" fill="#333333">1.5</text>
<line x1="65" y1="307.9" x2="70" y2="307.9" stroke="#888888" stroke-width="1" fill="none"/>
<text x="62" y="307.9" font-size="11" font-family="system-ui, -apple-system, BlinkMacSystemFont, 'Segoe UI', sans-serif" text-anchor="end" dominant-baseline="middle" fill="#333333">2.0</text>
<line x1="65" y1="266.8" x2="70" y2="266.8" stroke="#888888" stroke-width="1" fill="none"/>
<text x="62" y="266.8" font-size="11" font-family="system-ui, -apple-system, BlinkMacSystemFont, 'Segoe UI', sans-serif" text-anchor="end" dominant-baseline="middle" fill="#333333">2.5</text>
<line x1="65" y1="225.7" x2="70" y2="225.7" stroke="#888888" stroke-width="1" fill="none"/>
<text x="62" y="225.7" font-size="11" font-family="system-ui, -apple-system, BlinkMacSystemFont, 'Segoe UI', sans-serif" text-anchor="end" dominant-baseline="middle" fill="#333333">3.0</text>
<line x1="65" y1="184.6" x2="70" y2="184.6" stroke="#888888" stroke-width="1" fill="none"/>
<text x="62" y="184.6" font-size="11" font-family="system-ui, -apple-system, BlinkMacSystemFont, 'Segoe UI', sans-serif" text-anchor="end" dominant-baseline="middle" fill="#333333">3.5</text>
<line x1="65" y1="143.6" x2="70" y2="143.6" stroke="#888888" stroke-width="1" fill="none"/>
<text x="62" y="143.6" font-size="11" font-family="system-ui, -apple-system, BlinkMacSystemFont, 'Segoe UI', sans-serif" text-anchor="end" dominant-baseline="middle" fill="#333333">4.0</text>
<line x1="65" y1="102.5" x2="70" y2="102.5" stroke="#888888" stroke-width="1" fill="none"/>
<text x="62" y="102.5" font-size="11" font-family="system-ui, -apple-system, BlinkMacSystemFont, 'Segoe UI', sans-serif" text-anchor="end" dominant-baseline="middle" fill="#333333">4.5</text>
<line x1="65" y1="61.4" x2="70" y2="61.4" stroke="#888888" stroke-width="1" fill="none"/>
<text x="62" y="61.4" font-size="11" font-family="system-ui, -apple-system, BlinkMacSystemFont, 'Segoe UI', sans-serif" text-anchor="end" dominant-baseline="middle" fill="#333333">5.0</text>
<text x="420" y="420" font-size="12" font-family="system-ui, -apple-system, BlinkMacSystemFont, 'Segoe UI', sans-serif" text-anchor="middle" dominant-baseline="hanging" fill="#333333">Measurement</text>
<text x="22" y="217.5" transform="rotate(-90,22,217.5)" font-size="12" font-family="system-ui, -apple-system, BlinkMacSystemFont, 'Segoe UI', sans-serif" text-anchor="middle" dominant-baseline="middle" fill="#333333">Trial</text>
<rect x="670.4" y="55" width="89.6" height="64" rx="4" ry="4" stroke="#e5e5e5" stroke-width="0.8" fill="rgba(255,255,255,0.9)"/>
<line x1="680.4" y1="76" x2="700.4" y2="76" stroke="#4c72b0" stroke-width="2.5" fill="none" stroke-linecap="round"/>
<circle cx="690.4" cy="76" r="3" stroke="none" fill="#4c72b0"/>
<text x="704.4" y="76" font-size="12" font-family="system-ui, -apple-system, BlinkMacSystemFont, 'Segoe UI', sans-serif" text-anchor="start" dominant-baseline="middle" fill="#333333">data</text>
<line x1="680.4" y1="98" x2="700.4" y2="98" stroke="#4c72b0" stroke-width="2.5" fill="none" stroke-linecap="round"/>
<circle cx="690.4" cy="98" r="3" stroke="none" fill="#4c72b0"/>
<text x="704.4" y="98" font-size="12" font-family="system-ui, -apple-system, BlinkMacSystemFont, 'Segoe UI', sans-serif" text-anchor="start" dominant-baseline="middle" fill="#333333">Series</text>
</svg>
