<svg xmlns="http://www.w3.org/2000/svg" width="800" height="450">
<defs>
<clipPath id="axes-clip-1"><rect x="70" y="45" width="700" height="345"/></clipPath>
</defs>
<rect x="0" y="0" width="800" height="450" stroke="none" fill="#1a1b2e"/>
<rect x="70" y="45" width="700" height="345" stroke="none" fill="#22233a"/>
<g clip-path="url(#axes-clip-1)">
<line x1="70" y1="45" x2="70" y2="390" stroke="#2e3050" stroke-width="0.8" fill="none"/>
<line x1="151.3" y1="45" x2="151.3" y2="390" stroke="#2e3050" stroke-width="0.8" fill="none"/>
<line x1="232.6" y1="45" x2="232.6" y2="390" stroke="#2e3050" stroke-width="0.8" fill="none"/>
<line x1="313.9" y1="45" x2="313.9" y2="390" stroke="#2e3050" stroke-width="0.8" fill="none"/>
<line x1="395.2" y1="45" x2="395.2" y2="390" stroke="#2e3050" stroke-width="0.8" fill="none"/>
<line x1="476.5" y1="45" x2="476.5" y2="390" stroke="#2e3050" stroke-width="0.8" fill="none"/>
<line x1="557.8" y1="45" x2="557.8" y2="390" stroke="#2e3050" stroke-width="0.8" fill="none"/>
<line x1="639.1" y1="45" x2="639.1" y2="390" stroke="#2e3050" stroke-width="0.8" fill="none"/>
<line x1="720.4" y1="45" x2="720.4" y2="390" stroke="#2e3050" stroke-width="0.8" fill="none"/>
</g>
<g clip-path="url(#axes-clip-1)">
<rect x="70" y="55.8" width="447.2" height="64.7" rx="4" ry="4" stroke="none" fill="#4c72b0"/>
<rect x="70" y="142.0" width="666.7" height="64.7" rx="4" ry="4" stroke="none" fill="#4c72b0"/>
<rect x="70" y="228.3" width="308.9" height="64.7" rx="4" ry="4" stroke="none" fill="#4c72b0"/>
<rect x="70" y="314.5" width="577.2" height="64.7" rx="4" ry="4" stroke="none" fill="#4c72b0"/>
</g>
<line x1="70" y1="390" x2="770" y2="390" stroke="#5a5b7a" stroke-width="1" fill="none"/>
<line x1="70" y1="45" x2="70" y2="390" stroke="#5a5b7a" stroke-width="1" fill="none"/>
<line x1="70" y1="390" x2="70" y2="395" stroke="#5a5b7a" stroke-width="1" fill="none"/>
<text x="70" y="398" font-size="11" font-family="system-ui, -apple-system, BlinkMacSystemFont, 'Segoe UI', sans-serif" text-anchor="middle" dominant-baseline="hanging" fill="#c8cae8">0</text>
<line x1="151.3" y1="390" x2="151.3" y2="395" stroke="#5a5b7a" stroke-width="1" fill="none"/>
<text x="151.3" y="398" font-size="11" font-family="system-ui, -apple-system, BlinkMacSystemFont, 'Segoe UI', sans-serif" text-anchor="middle" dominant-baseline="hanging" fill="#c8cae8">10</text>
<line x1="232.6" y1="390" x2="232.6" y2="395" stroke="#5a5b7a" stroke-width="1" fill="none"/>
<text x="232.6" y="398" font-size="11" font-family="system-ui, -apple-system, BlinkMacSystemFont, 'Segoe UI', sans-serif" text-anchor="middle" dominant-baseline="hanging" fill="#c8cae8">20</text>
<line x1="313.9" y1="390" x2="313.9" y2="395" stroke="#5a5b7a" stroke-width="1" fill="none"/>
<text x="313.9" y="398" font-size="11" font-family="system-ui, -apple-system, BlinkMacSystemFont, 'Segoe UI', sans-serif" text-anchor="middle" dominant-baseline="hanging" fill="#c8cae8">30</text>
<line x1="395.2" y1="390" x2="395.2" y2="395" stroke="#5a5b7a" stroke-width="1" fill="none"/>
<text x="395.2" y="398" font-size="11" font-family="system-ui, -apple-system, BlinkMacSystemFont, 'Segoe UI', sans-serif" text-anchor="middle" dominant-baseline="hanging" fill="#c8cae8">40</text>
<line x1="476.5" y1="390" x2="476.5" y2="395" stroke="#5a5b7a" stroke-width="1" fill="none"/>
<text x="476.5" y="398" font-size="11" font-family="system-ui, -apple-system, BlinkMacSystemFont, 'Segoe UI', sans-serif" text-anchor="middle" dominant-baseline="hanging" fill="#c8cae8">50</text>
<line x1="557.8" y1="390" x2="557.8" y2="395" stroke="#5a5b7a" stroke-width="1" fill="none"/>
<text x="557.8" y="398" font-size="11" font-family="system-ui, -apple-system, BlinkMacSystemFont, 'Segoe UI', sans-serif" text-anchor="middle" dominant-baseline="hanging" fill="#c8cae8">60</text>
<line x1="639.1" y1="390" x2="639.1" y2="395" stroke="#5a5b7a" stroke-width="1" fill="none"/>
<text x="639.1" y="398" font-size="11" font-family="system-ui, -apple-system, BlinkMacSystemFont, 'Segoe UI', sans-serif" text-anchor="middle" dominant-baseline="hanging" fill="#c8cae8">70</text>
<line x1="720.4" y1="390" x2="720.4" y2="395" stroke="#5a5b7a" stroke-width="1" fill="none"/>
<text x="720.4" y="398" font-size="11" font-family="system-ui, -apple-system, BlinkMacSystemFont, 'Segoe UI', sans-serif" text-anchor="middle" dominant-baseline="hanging" fill="#c8cae8">80</text>
<line x1="65" y1="88.1" x2="70" y2="88.1" stroke="#5a5b7a" stroke-width="1" fill="none"/>
<text x="62" y="88.1" font-size="11" font-family="system-ui, -apple-system, BlinkMacSystemFont, 'Segoe UI', sans-serif" text-anchor="end" dominant-baseline="middle" fill="#c8cae8">Alpha</text>
<line x1="65" y1="174.4" x2="70" y2="174.4" stroke="#5a5b7a" stroke-width="1" fill="none"/>
<text x="62" y="174.4" font-size="11" font-family="system-ui, -apple-system, BlinkMacSystemFont, 'Segoe UI', sans-serif" text-anchor="end" dominant-baseline="middle" fill="#c8cae8">Beta</text>
<line x1="65" y1="260.6" x2="70" y2="260.6" stroke="#5a5b7a" stroke-width="1" fill="none"/>
<text x="62" y="260.6" font-size="11" font-family="system-ui, -apple-system, BlinkMacSystemFont, 'Segoe UI', sans-serif" text-anchor="end" dominant-baseline="middle" fill="#c8cae8">Gamma</text>
<line x1="65" y1="346.9" x2="70" y2="346.9" stroke="#5a5b7a" stroke-width="1" fill="none"/>
<text x="62" y="346.9" font-size="11" font-family="system-ui, -apple-system, BlinkMacSystemFont, 'Segoe UI', sans-serif" text-anchor="end" dominant-baseline="middle" fill="#c8cae8">Delta</text>
<rect x="677" y="55" width="83" height="42" rx="4" ry="4" stroke="#2e3050" stroke-width="0.8" fill="rgba(26,27,46,0.9)"/>
<rect x="687" y="71" width="20" height="10" rx="2" ry="2" stroke="none" fill="#4c72b0"/>
<text x="711" y="76" font-size="12" font-family="system-ui, -apple-system, BlinkMacSystemFont, 'Segoe UI', sans-serif" text-anchor="start" dominant-baseline="middle" fill="#c8cae8">score</text>
</svg>
