<svg xmlns="http://www.w3.org/2000/svg" width="800" height="450">
<defs>
<clipPath id="axes-clip-1"><rect x="70" y="45" width="700" height="345"/></clipPath>
</defs>
<rect x="0" y="0" width="800" height="450" stroke="none" fill="#ffffff"/>
<rect x="70" y="45" width="700" height="345" stroke="none" fill="#f7f7f7"/>
<g clip-path="url(#axes-clip-1)">
<line x1="70" y1="45" x2="70" y2="390" stroke="#e5e5e5" stroke-width="0.8" fill="none"/>
<line x1="151.3" y1="45" x2="151.3" y2="390" stroke="#e5e5e5" stroke-width="0.8" fill="none"/>
<line x1="232.6" y1="45" x2="232.6" y2="390" stroke="#e5e5e5" stroke-width="0.8" fill="none"/>
<line x1="313.9" y1="45" x2="313.9" y2="390" stroke="#e5e5e5" stroke-width="0.8" fill="none"/>
<line x1="395.2" y1="45" x2="395.2" y2="390" stroke="#e5e5e5" stroke-width="0.8" fill="none"/>
<line x1="476.5" y1="45" x2="476.5" y2="390" stroke="#e5e5e5" stroke-width="0.8" fill="none"/>
<line x1="557.8" y1="45" x2="557.8" y2="390" stroke="#e5e5e5" stroke-width="0.8" fill="none"/>
<line x1="639.1" y1="45" x2="639.1" y2="390" stroke="#e5e5e5" stroke-width="0.8" fill="none"/>
<line x1="720.4" y1="45" x2="720.4" y2="390" stroke="#e5e5e5" stroke-width="0.8" fill="none"/>
</g>
<g clip-path="url(#axes-clip-1)">
<rect x="70" y="53.6" width="447.2" height="51.8" rx="4" ry="4" stroke="none" fill="#27ae60"/>
<rect x="70" y="122.6" width="666.7" height="51.8" rx="4" ry="4" stroke="none" fill="#27ae60"/>
<rect x="70" y="191.6" width="308.9" height="51.8" rx="4" ry="4" stroke="none" fill="#27ae60"/>
<rect x="70" y="260.6" width="577.2" height="51.8" rx="4" ry="4" stroke="none" fill="#27ae60"/>
<rect x="70" y="329.6" width="487.8" height="51.8" rx="4" ry="4" stroke="none" fill="#27ae60"/>
</g>
<line x1="70" y1="390" x2="770" y2="390" stroke="#888888" stroke-width="1.2" fill="none"/>
<line x1="70" y1="45" x2="70" y2="390" stroke="#888888" stroke-width="1.2" fill="none"/>
<line x1="70" y1="390" x2="70" y2="395" stroke="#888888" stroke-width="1" fill="none"/>
<text x="70" y="398" font-size="11" font-family="system-ui, -apple-system, BlinkMacSystemFont, 'Segoe UI', sans-serif" text-anchor="middle" dominant-baseline="hanging" fill="#333333">0</text>
<line x1="151.3" y1="390" x2="151.3" y2="395" stroke="#888888" stroke-width="1" fill="none"/>
<text x="151.3" y="398" font-size="11" font-family="system-ui, -apple-system, BlinkMacSystemFont, 'Segoe UI', sans-serif" text-anchor="middle" dominant-baseline="hanging" fill="#333333">10</text>
<line x1="232.6" y1="390" x2="232.6" y2="395" stroke="#888888" stroke-width="1" fill="none"/>
<text x="232.6" y="398" font-size="11" font-family="system-ui, -apple-system, BlinkMacSystemFont, 'Segoe UI', sans-serif" text-anchor="middle" dominant-baseline="hanging" fill="#333333">20</text>
<line x1="313.9" y1="390" x2="313.9" y2="395" stroke="#888888" stroke-width="1" fill="none"/>
<text x="313.9" y="398" font-size="11" font-family="system-ui, -apple-system, BlinkMacSystemFont, 'Segoe UI', sans-serif" text-anchor="middle" dominant-baseline="hanging" fill="#333333">30</text>
<line x1="395.2" y1="390" x2="395.2" y2="395" stroke="#888888" stroke-width="1" fill="none"/>
<text x="395.2" y="398" font-size="11" font-family="system-ui, -apple-system, BlinkMacSystemFont, 'Segoe UI', sans-serif" text-anchor="middle" dominant-baseline="hanging" fill="#333333">40</text>
<line x1="476.5" y1="390" x2="476.5" y2="395" stroke="#888888" stroke-width="1" fill="none"/>
<text x="476.5" y="398" font-size="11" font-family="system-ui, -apple-system, BlinkMacSystemFont, 'Segoe UI', sans-serif" text-anchor="middle" dominant-baseline="hanging" fill="#333333">50</text>
<line x1="557.8" y1="390" x2="557.8" y2="395" stroke="#888888" stroke-width="1" fill="none"/>
<text x="557.8" y="398" font-size="11" font-family="system-ui, -apple-system, BlinkMacSystemFont, 'Segoe UI', sans-serif" text-anchor="middle" dominant-baseline="hanging" fill="#333333">60</text>
<line x1="639.1" y1="390" x2="639.1" y2="395" stroke="#888888" stroke-width="1" fill="none"/>
<text x="639.1" y="398" font-size="11" font-family="system-ui, -apple-system, BlinkMacSystemFont, 'Segoe UI', sans-serif" text-anchor="middle" dominant-baseline="hanging" fill="#333333">70</text>
<line x1="720.4" y1="390" x2="720.4" y2="395" stroke="#888888" stroke-width="1" fill="none"/>
<text x="720.4" y="398" font-size="11" font-family="system-ui, -apple-system, BlinkMacSystemFont, 'Segoe UI', sans-serif" text-anchor="middle" dominant-baseline="hanging" fill="#333333">80</text>
<line x1="65" y1="79.5" x2="70" y2="79.5" stroke="#888888" stroke-width="1" fill="none"/>
<text x="62" y="79.5" font-size="11" font-family="system-ui, -apple-system, BlinkMacSystemFont, 'Segoe UI', sans-serif" text-anchor="end" dominant-baseline="middle" fill="#333333">Alpha</text>
<line x1="65" y1="148.5" x2="70" y2="148.5" stroke="#888888" stroke-width="1" fill="none"/>
<text x="62" y="148.5" font-size="11" font-family="system-ui, -apple-system, BlinkMacSystemFont, 'Segoe UI', sans-serif" text-anchor="end" dominant-baseline="middle" fill="#333333">Beta</text>
<line x1="65" y1="217.5" x2="70" y2="217.5" stroke="#888888" stroke-width="1" fill="none"/>
<text x="62" y="217.5" font-size="11" font-family="system-ui, -apple-system, BlinkMacSystemFont, 'Segoe UI', sans-serif" text-anchor="end" dominant-baseline="middle" fill="#333333">Gamma</text>
<line x1="65" y1="286.5" x2="70" y2="286.5" stroke="#888888" stroke-width="1" fill="none"/>
<text x="62" y="286.5" font-size="11" font-family="system-ui, -apple-system, BlinkMacSystemFont, 'Segoe UI', sans-serif" text-anchor="end" dominant-baseline="middle" fill="#333333">Delta</text>
<line x1="65" y1="355.5" x2="70" y2="355.5" stroke="#888888" stroke-width="1" fill="none"/>
<text x="62" y="355.5" font-size="11" font-family="system-ui, -apple-system, BlinkMacSystemFont, 'Segoe UI', sans-serif" text-anchor="end" dominant-baseline="middle" fill="#333333">Epsilon</text>
<rect x="677" y="55" width="83" height="42" rx="4" ry="4" stroke="#e5e5e5" stroke-width="0.8" fill="rgba(255,255,255,0.9)"/>
<rect x="687" y="71" width="20" height="10" rx="2" ry="2" stroke="none" fill="#27ae60"/>
<text x="711" y="76" font-size="12" font-family="system-ui, -apple-system, BlinkMacSystemFont, 'Segoe UI', sans-serif" text-anchor="start" dominant-baseline="middle" fill="#333333">score</text>
</svg>
