<svg xmlns="http://www.w3.org/2000/svg" width="800" height="450">
<defs>
<clipPath id="axes-clip-1"><rect x="65" y="40" width="710" height="355"/></clipPath>
</defs>
<rect x="0" y="0" width="800" height="450" stroke="none" fill="#ffffff"/>
<rect x="65" y="40" width="710" height="355" stroke="none" fill="#ffffff"/>
<g clip-path="url(#axes-clip-1)">
<line x1="65" y1="395" x2="775" y2="395" stroke="#eeeeee" stroke-width="0.6" fill="none" stroke-dasharray="4,4"/>
<line x1="65" y1="345.9" x2="775" y2="345.9" stroke="#eeeeee" stroke-width="0.6" fill="none" stroke-dasharray="4,4"/>
<line x1="65" y1="296.7" x2="775" y2="296.7" stroke="#eeeeee" stroke-width="0.6" fill="none" stroke-dasharray="4,4"/>
<line x1="65" y1="247.6" x2="775" y2="247.6" stroke="#eeeeee" stroke-width="0.6" fill="none" stroke-dasharray="4,4"/>
<line x1="65" y1="198.4" x2="775" y2="198.4" stroke="#eeeeee" stroke-width="0.6" fill="none" stroke-dasharray="4,4"/>
<line x1="65" y1="149.3" x2="775" y2="149.3" stroke="#eeeeee" stroke-width="0.6" fill="none" stroke-dasharray="4,4"/>
<line x1="65" y1="100.2" x2="775" y2="100.2" stroke="#eeeeee" stroke-width="0.6" fill="none" stroke-dasharray="4,4"/>
<line x1="65" y1="51.0" x2="775" y2="51.0" stroke="#eeeeee" stroke-width="0.6" fill="none" stroke-dasharray="4,4"/>
</g>
<g clip-path="url(#axes-clip-1)">
<line x1="105.8" y1="40" x2="105.8" y2="395" stroke="#eeeeee" stroke-width="0.6" fill="none" stroke-dasharray="4,4"/>
<line x1="203.0" y1="40" x2="203.0" y2="395" stroke="#eeeeee" stroke-width="0.6" fill="none" stroke-dasharray="4,4"/>
<line x1="300.3" y1="40" x2="300.3" y2="395" stroke="#eeeeee" stroke-width="0.6" fill="none" stroke-dasharray="4,4"/>
<line x1="397.6" y1="40" x2="397.6" y2="395" stroke="#eeeeee" stroke-width="0.6" fill="none" stroke-dasharray="4,4"/>
<line x1="494.8" y1="40" x2="494.8" y2="395" stroke="#eeeeee" stroke-width="0.6" fill="none" stroke-dasharray="4,4"/>
<line x1="592.1" y1="40" x2="592.1" y2="395" stroke="#eeeeee" stroke-width="0.6" fill="none" stroke-dasharray="4,4"/>
<line x1="689.4" y1="40" x2="689.4" y2="395" stroke="#eeeeee" stroke-width="0.6" fill="none" stroke-dasharray="4,4"/>
</g>
<g clip-path="url(#axes-clip-1)">
<rect x="65" y="389.1" width="44.4" height="5.9" stroke="none" fill="#4c72b0"/>
<rect x="109.4" y="393.0" width="44.4" height="2.0" stroke="none" fill="#4c72b0"/>
<rect x="153.8" y="391.1" width="44.4" height="3.9" stroke="none" fill="#4c72b0"/>
<rect x="198.1" y="387.1" width="44.4" height="7.9" stroke="none" fill="#4c72b0"/>
<rect x="242.5" y="385.2" width="44.4" height="9.8" stroke="none" fill="#4c72b0"/>
<rect x="286.9" y="389.1" width="44.4" height="5.9" stroke="none" fill="#4c72b0"/>
<rect x="331.3" y="391.1" width="44.4" height="3.9" stroke="none" fill="#4c72b0"/>
<rect x="375.6" y="389.1" width="44.4" height="5.9" stroke="none" fill="#4c72b0"/>
<rect x="420" y="389.1" width="44.4" height="5.9" stroke="none" fill="#4c72b0"/>
<rect x="464.4" y="395" width="44.4" height="1" stroke="none" fill="#4c72b0"/>
<rect x="508.8" y="393.0" width="44.4" height="2.0" stroke="none" fill="#4c72b0"/>
<rect x="553.1" y="395" width="44.4" height="1" stroke="none" fill="#4c72b0"/>
<rect x="597.5" y="393.0" width="44.4" height="2.0" stroke="none" fill="#4c72b0"/>
<rect x="641.9" y="395" width="44.4" height="1" stroke="none" fill="#4c72b0"/>
<rect x="686.3" y="395" width="44.4" height="1" stroke="none" fill="#4c72b0"/>
<rect x="730.6" y="56.9" width="44.4" height="338.1" stroke="none" fill="#4c72b0"/>
</g>
<line x1="65" y1="395" x2="775" y2="395" stroke="#aaaaaa" stroke-width="0.8" fill="none"/>
<line x1="105.8" y1="395" x2="105.8" y2="400" stroke="#aaaaaa" stroke-width="1" fill="none"/>
<text x="105.8" y="403" font-size="11" font-family="system-ui, -apple-system, BlinkMacSystemFont, 'Segoe UI', sans-serif" text-anchor="middle" dominant-baseline="hanging" fill="#444444">30</text>
<line x1="203.0" y1="395" x2="203.0" y2="400" stroke="#aaaaaa" stroke-width="1" fill="none"/>
<text x="203.0" y="403" font-size="11" font-family="system-ui, -apple-system, BlinkMacSystemFont, 'Segoe UI', sans-serif" text-anchor="middle" dominant-baseline="hanging" fill="#444444">40</text>
<line x1="300.3" y1="395" x2="300.3" y2="400" stroke="#aaaaaa" stroke-width="1" fill="none"/>
<text x="300.3" y="403" font-size="11" font-family="system-ui, -apple-system, BlinkMacSystemFont, 'Segoe UI', sans-serif" text-anchor="middle" dominant-baseline="hanging" fill="#444444">50</text>
<line x1="397.6" y1="395" x2="397.6" y2="400" stroke="#aaaaaa" stroke-width="1" fill="none"/>
<text x="397.6" y="403" font-size="11" font-family="system-ui, -apple-system, BlinkMacSystemFont, 'Segoe UI', sans-serif" text-anchor="middle" dominant-baseline="hanging" fill="#444444">60</text>
<line x1="494.8" y1="395" x2="494.8" y2="400" stroke="#aaaaaa" stroke-width="1" fill="none"/>
<text x="494.8" y="403" font-size="11" font-family="system-ui, -apple-system, BlinkMacSystemFont, 'Segoe UI', sans-serif" text-anchor="middle" dominant-baseline="hanging" fill="#444444">70</text>
<line x1="592.1" y1="395" x2="592.1" y2="400" stroke="#aaaaaa" stroke-width="1" fill="none"/>
<text x="592.1" y="403" font-size="11" font-family="system-ui, -apple-system, BlinkMacSystemFont, 'Segoe UI', sans-serif" text-anchor="middle" dominant-baseline="hanging" fill="#444444">80</text>
<line x1="689.4" y1="395" x2="689.4" y2="400" stroke="#aaaaaa" stroke-width="1" fill="none"/>
<text x="689.4" y="403" font-size="11" font-family="system-ui, -apple-system, BlinkMacSystemFont, 'Segoe UI', sans-serif" text-anchor="middle" dominant-baseline="hanging" fill="#444444">90</text>
<line x1="60" y1="395" x2="65" y2="395" stroke="#aaaaaa" stroke-width="1" fill="none"/>
<text x="57" y="395" font-size="11" font-family="system-ui, -apple-system, BlinkMacSystemFont, 'Segoe UI', sans-serif" text-anchor="end" dominant-baseline="middle" fill="#444444">0</text>
<line x1="60" y1="345.9" x2="65" y2="345.9" stroke="#aaaaaa" stroke-width="1" fill="none"/>
<text x="57" y="345.9" font-size="11" font-family="system-ui, -apple-system, BlinkMacSystemFont, 'Segoe UI', sans-serif" text-anchor="end" dominant-baseline="middle" fill="#444444">25</text>
<line x1="60" y1="296.7" x2="65" y2="296.7" stroke="#aaaaaa" stroke-width="1" fill="none"/>
<text x="57" y="296.7" font-size="11" font-family="system-ui, -apple-system, BlinkMacSystemFont, 'Segoe UI', sans-serif" text-anchor="end" dominant-baseline="middle" fill="#444444">50</text>
<line x1="60" y1="247.6" x2="65" y2="247.6" stroke="#aaaaaa" stroke-width="1" fill="none"/>
<text x="57" y="247.6" font-size="11" font-family="system-ui, -apple-system, BlinkMacSystemFont, 'Segoe UI', sans-serif" text-anchor="end" dominant-baseline="middle" fill="#444444">75</text>
<line x1="60" y1="198.4" x2="65" y2="198.4" stroke="#aaaaaa" stroke-width="1" fill="none"/>
<text x="57" y="198.4" font-size="11" font-family="system-ui, -apple-system, BlinkMacSystemFont, 'Segoe UI', sans-serif" text-anchor="end" dominant-baseline="middle" fill="#444444">100</text>
<line x1="60" y1="149.3" x2="65" y2="149.3" stroke="#aaaaaa" stroke-width="1" fill="none"/>
<text x="57" y="149.3" font-size="11" font-family="system-ui, -apple-system, BlinkMacSystemFont, 'Segoe UI', sans-serif" text-anchor="end" dominant-baseline="middle" fill="#444444">125</text>
<line x1="60" y1="100.2" x2="65" y2="100.2" stroke="#aaaaaa" stroke-width="1" fill="none"/>
<text x="57" y="100.2" font-size="11" font-family="system-ui, -apple-system, BlinkMacSystemFont, 'Segoe UI', sans-serif" text-anchor="end" dominant-baseline="middle" fill="#444444">150</text>
<line x1="60" y1="51.0" x2="65" y2="51.0" stroke="#aaaaaa" stroke-width="1" fill="none"/>
<text x="57" y="51.0" font-size="11" font-family="system-ui, -apple-system, BlinkMacSystemFont, 'Segoe UI', sans-serif" text-anchor="end" dominant-baseline="middle" fill="#444444">175</text>
<text x="420" y="25" font-size="16" font-family="system-ui, -apple-system, BlinkMacSystemFont, 'Segoe UI', sans-serif" font-weight="bold" text-anchor="middle" dominant-baseline="auto" fill="#222222">Histogram — Minimal Theme</text>
<rect x="629.2" y="50" width="135.8" height="42" rx="4" ry="4" stroke="#eeeeee" stroke-width="0.8" fill="rgba(255,255,255,0.9)"/>
<line x1="639.2" y1="71" x2="659.2" y2="71" stroke="#4c72b0" stroke-width="2.5" fill="none" stroke-linecap="round"/>
<circle cx="649.2" cy="71" r="3" stroke="none" fill="#4c72b0"/>
<text x="663.2" y="71" font-size="12" font-family="system-ui, -apple-system, BlinkMacSystemFont, 'Segoe UI', sans-serif" text-anchor="start" dominant-baseline="middle" fill="#444444">response time</text>
</svg>
