<svg xmlns="http://www.w3.org/2000/svg" width="800" height="450">
<defs>
<clipPath id="axes-clip-1"><rect x="70" y="45" width="700" height="345"/></clipPath>
</defs>
<rect x="0" y="0" width="800" height="450" stroke="none" fill="#ffffff"/>
<rect x="70" y="45" width="700" height="345" stroke="none" fill="#f7f7f7"/>
<g clip-path="url(#axes-clip-1)">
<line x1="70" y1="390" x2="770" y2="390" stroke="#e5e5e5" stroke-width="0.8" fill="none"/>
<line x1="70" y1="342.2" x2="770" y2="342.2" stroke="#e5e5e5" stroke-width="0.8" fill="none"/>
<line x1="70" y1="294.5" x2="770" y2="294.5" stroke="#e5e5e5" stroke-width="0.8" fill="none"/>
<line x1="70" y1="246.7" x2="770" y2="246.7" stroke="#e5e5e5" stroke-width="0.8" fill="none"/>
<line x1="70" y1="199.0" x2="770" y2="199.0" stroke="#e5e5e5" stroke-width="0.8" fill="none"/>
<line x1="70" y1="151.2" x2="770" y2="151.2" stroke="#e5e5e5" stroke-width="0.8" fill="none"/>
<line x1="70" y1="103.5" x2="770" y2="103.5" stroke="#e5e5e5" stroke-width="0.8" fill="none"/>
<line x1="70" y1="55.7" x2="770" y2="55.7" stroke="#e5e5e5" stroke-width="0.8" fill="none"/>
</g>
<g clip-path="url(#axes-clip-1)">
<line x1="110.2" y1="45" x2="110.2" y2="390" stroke="#e5e5e5" stroke-width="0.8" fill="none"/>
<line x1="206.1" y1="45" x2="206.1" y2="390" stroke="#e5e5e5" stroke-width="0.8" fill="none"/>
<line x1="302.0" y1="45" x2="302.0" y2="390" stroke="#e5e5e5" stroke-width="0.8" fill="none"/>
<line x1="397.9" y1="45" x2="397.9" y2="390" stroke="#e5e5e5" stroke-width="0.8" fill="none"/>
<line x1="493.8" y1="45" x2="493.8" y2="390" stroke="#e5e5e5" stroke-width="0.8" fill="none"/>
<line x1="589.7" y1="45" x2="589.7" y2="390" stroke="#e5e5e5" stroke-width="0.8" fill="none"/>
<line x1="685.6" y1="45" x2="685.6" y2="390" stroke="#e5e5e5" stroke-width="0.8" fill="none"/>
</g>
<g clip-path="url(#axes-clip-1)">
<rect x="70" y="382.4" width="77.8" height="7.6" stroke="none" fill="#4c72b0"/>
<rect x="147.8" y="380.5" width="77.8" height="9.6" stroke="none" fill="#4c72b0"/>
<rect x="225.6" y="378.5" width="77.8" height="11.5" stroke="none" fill="#4c72b0"/>
<rect x="303.3" y="380.5" width="77.8" height="9.6" stroke="none" fill="#4c72b0"/>
<rect x="381.1" y="380.5" width="77.8" height="9.6" stroke="none" fill="#4c72b0"/>
<rect x="458.9" y="386.2" width="77.8" height="3.8" stroke="none" fill="#4c72b0"/>
<rect x="536.7" y="390" width="77.8" height="1" stroke="none" fill="#4c72b0"/>
<rect x="614.4" y="388.1" width="77.8" height="1.9" stroke="none" fill="#4c72b0"/>
<rect x="692.2" y="61.4" width="77.8" height="328.6" stroke="none" fill="#4c72b0"/>
</g>
<line x1="70" y1="390" x2="770" y2="390" stroke="#888888" stroke-width="1.2" fill="none"/>
<line x1="70" y1="45" x2="70" y2="390" stroke="#888888" stroke-width="1.2" fill="none"/>
<line x1="110.2" y1="390" x2="110.2" y2="395" stroke="#888888" stroke-width="1" fill="none"/>
<text x="110.2" y="398" font-size="11" font-family="system-ui, -apple-system, BlinkMacSystemFont, 'Segoe UI', sans-serif" text-anchor="middle" dominant-baseline="hanging" fill="#333333">30</text>
<line x1="206.1" y1="390" x2="206.1" y2="395" stroke="#888888" stroke-width="1" fill="none"/>
<text x="206.1" y="398" font-size="11" font-family="system-ui, -apple-system, BlinkMacSystemFont, 'Segoe UI', sans-serif" text-anchor="middle" dominant-baseline="hanging" fill="#333333">40</text>
<line x1="302.0" y1="390" x2="302.0" y2="395" stroke="#888888" stroke-width="1" fill="none"/>
<text x="302.0" y="398" font-size="11" font-family="system-ui, -apple-system, BlinkMacSystemFont, 'Segoe UI', sans-serif" text-anchor="middle" dominant-baseline="hanging" fill="#333333">50</text>
<line x1="397.9" y1="390" x2="397.9" y2="395" stroke="#888888" stroke-width="1" fill="none"/>
<text x="397.9" y="398" font-size="11" font-family="system-ui, -apple-system, BlinkMacSystemFont, 'Segoe UI', sans-serif" text-anchor="middle" dominant-baseline="hanging" fill="#333333">60</text>
<line x1="493.8" y1="390" x2="493.8" y2="395" stroke="#888888" stroke-width="1" fill="none"/>
<text x="493.8" y="398" font-size="11" font-family="system-ui, -apple-system, BlinkMacSystemFont, 'Segoe UI', sans-serif" text-anchor="middle" dominant-baseline="hanging" fill="#333333">70</text>
<line x1="589.7" y1="390" x2="589.7" y2="395" stroke="#888888" stroke-width="1" fill="none"/>
<text x="589.7" y="398" font-size="11" font-family="system-ui, -apple-system, BlinkMacSystemFont, 'Segoe UI', sans-serif" text-anchor="middle" dominant-baseline="hanging" fill="#333333">80</text>
<line x1="685.6" y1="390" x2="685.6" y2="395" stroke="#888888" stroke-width="1" fill="none"/>
<text x="685.6" y="398" font-size="11" font-family="system-ui, -apple-system, BlinkMacSystemFont, 'Segoe UI', sans-serif" text-anchor="middle" dominant-baseline="hanging" fill="#333333">90</text>
<line x1="65" y1="390" x2="70" y2="390" stroke="#888888" stroke-width="1" fill="none"/>
<text x="62" y="390" font-size="11" font-family="system-ui, -apple-system, BlinkMacSystemFont, 'Segoe UI', sans-serif" text-anchor="end" dominant-baseline="middle" fill="#333333">0</text>
<line x1="65" y1="342.2" x2="70" y2="342.2" stroke="#888888" stroke-width="1" fill="none"/>
<text x="62" y="342.2" font-size="11" font-family="system-ui, -apple-system, BlinkMacSystemFont, 'Segoe UI', sans-serif" text-anchor="end" dominant-baseline="middle" fill="#333333">25</text>
<line x1="65" y1="294.5" x2="70" y2="294.5" stroke="#888888" stroke-width="1" fill="none"/>
<text x="62" y="294.5" font-size="11" font-family="system-ui, -apple-system, BlinkMacSystemFont, 'Segoe UI', sans-serif" text-anchor="end" dominant-baseline="middle" fill="#333333">50</text>
<line x1="65" y1="246.7" x2="70" y2="246.7" stroke="#888888" stroke-width="1" fill="none"/>
<text x="62" y="246.7" font-size="11" font-family="system-ui, -apple-system, BlinkMacSystemFont, 'Segoe UI', sans-serif" text-anchor="end" dominant-baseline="middle" fill="#333333">75</text>
<line x1="65" y1="199.0" x2="70" y2="199.0" stroke="#888888" stroke-width="1" fill="none"/>
<text x="62" y="199.0" font-size="11" font-family="system-ui, -apple-system, BlinkMacSystemFont, 'Segoe UI', sans-serif" text-anchor="end" dominant-baseline="middle" fill="#333333">100</text>
<line x1="65" y1="151.2" x2="70" y2="151.2" stroke="#888888" stroke-width="1" fill="none"/>
<text x="62" y="151.2" font-size="11" font-family="system-ui, -apple-system, BlinkMacSystemFont, 'Segoe UI', sans-serif" text-anchor="end" dominant-baseline="middle" fill="#333333">125</text>
<line x1="65" y1="103.5" x2="70" y2="103.5" stroke="#888888" stroke-width="1" fill="none"/>
<text x="62" y="103.5" font-size="11" font-family="system-ui, -apple-system, BlinkMacSystemFont, 'Segoe UI', sans-serif" text-anchor="end" dominant-baseline="middle" fill="#333333">150</text>
<line x1="65" y1="55.7" x2="70" y2="55.7" stroke="#888888" stroke-width="1" fill="none"/>
<text x="62" y="55.7" font-size="11" font-family="system-ui, -apple-system, BlinkMacSystemFont, 'Segoe UI', sans-serif" text-anchor="end" dominant-baseline="middle" fill="#333333">175</text>
<text x="420" y="420" font-size="12" font-family="system-ui, -apple-system, BlinkMacSystemFont, 'Segoe UI', sans-serif" text-anchor="middle" dominant-baseline="hanging" fill="#333333">ms</text>
<text x="22" y="217.5" transform="rotate(-90,22,217.5)" font-size="12" font-family="system-ui, -apple-system, BlinkMacSystemFont, 'Segoe UI', sans-serif" text-anchor="middle" dominant-baseline="middle" fill="#333333">count</text>
<rect x="624.2" y="55" width="135.8" height="42" rx="4" ry="4" stroke="#e5e5e5" stroke-width="0.8" fill="rgba(255,255,255,0.9)"/>
<line x1="634.2" y1="76" x2="654.2" y2="76" stroke="#4c72b0" stroke-width="2.5" fill="none" stroke-linecap="round"/>
<circle cx="644.2" cy="76" r="3" stroke="none" fill="#4c72b0"/>
<text x="658.2" y="76" font-size="12" font-family="system-ui, -apple-system, BlinkMacSystemFont, 'Segoe UI', sans-serif" text-anchor="start" dominant-baseline="middle" fill="#333333">response time</text>
</svg>
