<svg xmlns="http://www.w3.org/2000/svg" width="800" height="450">
<defs>
<clipPath id="axes-clip-1"><rect x="70" y="45" width="700" height="345"/></clipPath>
</defs>
<rect x="0" y="0" width="800" height="450" stroke="none" fill="#ffffff"/>
<rect x="70" y="45" width="700" height="345" stroke="none" fill="#f7f7f7"/>
<g clip-path="url(#axes-clip-1)">
<line x1="70" y1="390" x2="770" y2="390" stroke="#e5e5e5" stroke-width="0.8" fill="none"/>
<line x1="70" y1="326.3" x2="770" y2="326.3" stroke="#e5e5e5" stroke-width="0.8" fill="none"/>
<line x1="70" y1="262.7" x2="770" y2="262.7" stroke="#e5e5e5" stroke-width="0.8" fill="none"/>
<line x1="70" y1="199.0" x2="770" y2="199.0" stroke="#e5e5e5" stroke-width="0.8" fill="none"/>
<line x1="70" y1="135.3" x2="770" y2="135.3" stroke="#e5e5e5" stroke-width="0.8" fill="none"/>
<line x1="70" y1="71.6" x2="770" y2="71.6" stroke="#e5e5e5" stroke-width="0.8" fill="none"/>
</g>
<g clip-path="url(#axes-clip-1)">
<line x1="154.4" y1="45" x2="154.4" y2="390" stroke="#e5e5e5" stroke-width="0.8" fill="none"/>
<line x1="302.3" y1="45" x2="302.3" y2="390" stroke="#e5e5e5" stroke-width="0.8" fill="none"/>
<line x1="450.2" y1="45" x2="450.2" y2="390" stroke="#e5e5e5" stroke-width="0.8" fill="none"/>
<line x1="598.0" y1="45" x2="598.0" y2="390" stroke="#e5e5e5" stroke-width="0.8" fill="none"/>
<line x1="745.9" y1="45" x2="745.9" y2="390" stroke="#e5e5e5" stroke-width="0.8" fill="none"/>
</g>
<g clip-path="url(#axes-clip-1)">
<rect x="70" y="379.8" width="77.8" height="10.2" stroke="none" fill="#8e44ad"/>
<rect x="147.8" y="382.4" width="77.8" height="7.6" stroke="none" fill="#8e44ad"/>
<rect x="225.6" y="377.3" width="77.8" height="12.7" stroke="none" fill="#8e44ad"/>
<rect x="303.3" y="382.4" width="77.8" height="7.6" stroke="none" fill="#8e44ad"/>
<rect x="381.1" y="379.8" width="77.8" height="10.2" stroke="none" fill="#8e44ad"/>
<rect x="458.9" y="387.5" width="77.8" height="2.6" stroke="none" fill="#8e44ad"/>
<rect x="536.7" y="387.5" width="77.8" height="2.6" stroke="none" fill="#8e44ad"/>
<rect x="614.4" y="390" width="77.8" height="1" stroke="none" fill="#8e44ad"/>
<rect x="692.2" y="61.4" width="77.8" height="328.6" stroke="none" fill="#8e44ad"/>
</g>
<line x1="70" y1="390" x2="770" y2="390" stroke="#888888" stroke-width="1.2" fill="none"/>
<line x1="70" y1="45" x2="70" y2="390" stroke="#888888" stroke-width="1.2" fill="none"/>
<line x1="154.4" y1="390" x2="154.4" y2="395" stroke="#888888" stroke-width="1" fill="none"/>
<text x="154.4" y="398" font-size="11" font-family="system-ui, -apple-system, BlinkMacSystemFont, 'Segoe UI', sans-serif" text-anchor="middle" dominant-baseline="hanging" fill="#333333">30</text>
<line x1="302.3" y1="390" x2="302.3" y2="395" stroke="#888888" stroke-width="1" fill="none"/>
<text x="302.3" y="398" font-size="11" font-family="system-ui, -apple-system, BlinkMacSystemFont, 'Segoe UI', sans-serif" text-anchor="middle" dominant-baseline="hanging" fill="#333333">40</text>
<line x1="450.2" y1="390" x2="450.2" y2="395" stroke="#888888" stroke-width="1" fill="none"/>
<text x="450.2" y="398" font-size="11" font-family="system-ui, -apple-system, BlinkMacSystemFont, 'Segoe UI', sans-serif" text-anchor="middle" dominant-baseline="hanging" fill="#333333">50</text>
<line x1="598.0" y1="390" x2="598.0" y2="395" stroke="#888888" stroke-width="1" fill="none"/>
<text x="598.0" y="398" font-size="11" font-family="system-ui, -apple-system, BlinkMacSystemFont, 'Segoe UI', sans-serif" text-anchor="middle" dominant-baseline="hanging" fill="#333333">60</text>
<line x1="745.9" y1="390" x2="745.9" y2="395" stroke="#888888" stroke-width="1" fill="none"/>
<text x="745.9" y="398" font-size="11" font-family="system-ui, -apple-system, BlinkMacSystemFont, 'Segoe UI', sans-serif" text-anchor="middle" dominant-baseline="hanging" fill="#333333">70</text>
<line x1="65" y1="390" x2="70" y2="390" stroke="#888888" stroke-width="1" fill="none"/>
<text x="62" y="390" font-size="11" font-family="system-ui, -apple-system, BlinkMacSystemFont, 'Segoe UI', sans-serif" text-anchor="end" dominant-baseline="middle" fill="#333333">0</text>
<line x1="65" y1="326.3" x2="70" y2="326.3" stroke="#888888" stroke-width="1" fill="none"/>
<text x="62" y="326.3" font-size="11" font-family="system-ui, -apple-system, BlinkMacSystemFont, 'Segoe UI', sans-serif" text-anchor="end" dominant-baseline="middle" fill="#333333">25</text>
<line x1="65" y1="262.7" x2="70" y2="262.7" stroke="#888888" stroke-width="1" fill="none"/>
<text x="62" y="262.7" font-size="11" font-family="system-ui, -apple-system, BlinkMacSystemFont, 'Segoe UI', sans-serif" text-anchor="end" dominant-baseline="middle" fill="#333333">50</text>
<line x1="65" y1="199.0" x2="70" y2="199.0" stroke="#888888" stroke-width="1" fill="none"/>
<text x="62" y="199.0" font-size="11" font-family="system-ui, -apple-system, BlinkMacSystemFont, 'Segoe UI', sans-serif" text-anchor="end" dominant-baseline="middle" fill="#333333">75</text>
<line x1="65" y1="135.3" x2="70" y2="135.3" stroke="#888888" stroke-width="1" fill="none"/>
<text x="62" y="135.3" font-size="11" font-family="system-ui, -apple-system, BlinkMacSystemFont, 'Segoe UI', sans-serif" text-anchor="end" dominant-baseline="middle" fill="#333333">100</text>
<line x1="65" y1="71.6" x2="70" y2="71.6" stroke="#888888" stroke-width="1" fill="none"/>
<text x="62" y="71.6" font-size="11" font-family="system-ui, -apple-system, BlinkMacSystemFont, 'Segoe UI', sans-serif" text-anchor="end" dominant-baseline="middle" fill="#333333">125</text>
<rect x="663.8" y="55" width="96.2" height="42" rx="4" ry="4" stroke="#e5e5e5" stroke-width="0.8" fill="rgba(255,255,255,0.9)"/>
<line x1="673.8" y1="76" x2="693.8" y2="76" stroke="#8e44ad" stroke-width="2.5" fill="none" stroke-linecap="round"/>
<circle cx="683.8" cy="76" r="3" stroke="none" fill="#8e44ad"/>
<text x="697.8" y="76" font-size="12" font-family="system-ui, -apple-system, BlinkMacSystemFont, 'Segoe UI', sans-serif" text-anchor="start" dominant-baseline="middle" fill="#333333">latency</text>
</svg>
