<svg xmlns="http://www.w3.org/2000/svg" width="800" height="450">
<defs>
<clipPath id="axes-clip-1"><rect x="70" y="45" width="700" height="345"/></clipPath>
</defs>
<rect x="0" y="0" width="800" height="450" stroke="none" fill="#ffffff"/>
<rect x="70" y="45" width="700" height="345" stroke="none" fill="#f7f7f7"/>
<g clip-path="url(#axes-clip-1)">
<line x1="70" y1="374.4" x2="770" y2="374.4" stroke="#e5e5e5" stroke-width="0.8" fill="none"/>
<line x1="70" y1="335.2" x2="770" y2="335.2" stroke="#e5e5e5" stroke-width="0.8" fill="none"/>
<line x1="70" y1="296.0" x2="770" y2="296.0" stroke="#e5e5e5" stroke-width="0.8" fill="none"/>
<line x1="70" y1="256.7" x2="770" y2="256.7" stroke="#e5e5e5" stroke-width="0.8" fill="none"/>
<line x1="70" y1="217.5" x2="770" y2="217.5" stroke="#e5e5e5" stroke-width="0.8" fill="none"/>
<line x1="70" y1="178.3" x2="770" y2="178.3" stroke="#e5e5e5" stroke-width="0.8" fill="none"/>
<line x1="70" y1="139.1" x2="770" y2="139.1" stroke="#e5e5e5" stroke-width="0.8" fill="none"/>
<line x1="70" y1="99.9" x2="770" y2="99.9" stroke="#e5e5e5" stroke-width="0.8" fill="none"/>
<line x1="70" y1="60.7" x2="770" y2="60.7" stroke="#e5e5e5" stroke-width="0.8" fill="none"/>
</g>
<g clip-path="url(#axes-clip-1)">
<line x1="70" y1="45" x2="70" y2="390" stroke="#e5e5e5" stroke-width="0.8" fill="none"/>
<line x1="181.4" y1="45" x2="181.4" y2="390" stroke="#e5e5e5" stroke-width="0.8" fill="none"/>
<line x1="292.8" y1="45" x2="292.8" y2="390" stroke="#e5e5e5" stroke-width="0.8" fill="none"/>
<line x1="404.2" y1="45" x2="404.2" y2="390" stroke="#e5e5e5" stroke-width="0.8" fill="none"/>
<line x1="515.6" y1="45" x2="515.6" y2="390" stroke="#e5e5e5" stroke-width="0.8" fill="none"/>
<line x1="627.0" y1="45" x2="627.0" y2="390" stroke="#e5e5e5" stroke-width="0.8" fill="none"/>
<line x1="738.5" y1="45" x2="738.5" y2="390" stroke="#e5e5e5" stroke-width="0.8" fill="none"/>
</g>
<g clip-path="url(#axes-clip-1)">
<path d="M70 217.5 L81.9 184.4 L93.7 152.7 L105.6 124.0 L117.5 99.5 L129.3 80.3 L141.2 67.4 L153.1 61.2 L164.9 62.1 L176.8 70.0 L188.6 84.6 L200.5 105.2 L212.4 130.8 L224.2 160.4 L236.1 192.6 L248.0 225.9 L259.8 258.8 L271.7 289.9 L283.6 317.6 L295.4 340.9 L307.3 358.6 L319.2 369.9 L331.0 374.3 L342.9 371.7 L354.8 362.0 L366.6 345.9 L378.5 323.9 L390.3 297.2 L402.2 266.8 L414.1 234.2 L425.9 200.9 L437.8 168.3 L449.7 137.9 L461.5 111.1 L473.4 89.2 L485.3 73.0 L497.1 63.4 L509.0 60.7 L520.9 65.2 L532.7 76.5 L544.6 94.2 L556.4 117.4 L568.3 145.2 L580.2 176.3 L592.0 209.2 L603.9 242.5 L615.8 274.6 L627.6 304.2 L639.5 329.9 L651.4 350.5 L663.2 365.1 L675.1 373.0 L687.0 373.9 L698.8 367.7 L710.7 354.7 L722.5 335.6 L734.4 311.1 L746.3 282.3 L758.1 250.7 L770 217.5" stroke="#4c72b0" stroke-width="2.5" fill="none" stroke-linecap="round" stroke-linejoin="round"/>
<circle cx="70" cy="217.5" r="5" stroke="#ffffff" stroke-width="1" fill="#4c72b0"/>
<circle cx="81.9" cy="184.4" r="5" stroke="#ffffff" stroke-width="1" fill="#4c72b0"/>
<circle cx="93.7" cy="152.7" r="5" stroke="#ffffff" stroke-width="1" fill="#4c72b0"/>
<circle cx="105.6" cy="124.0" r="5" stroke="#ffffff" stroke-width="1" fill="#4c72b0"/>
<circle cx="117.5" cy="99.5" r="5" stroke="#ffffff" stroke-width="1" fill="#4c72b0"/>
<circle cx="129.3" cy="80.3" r="5" stroke="#ffffff" stroke-width="1" fill="#4c72b0"/>
<circle cx="141.2" cy="67.4" r="5" stroke="#ffffff" stroke-width="1" fill="#4c72b0"/>
<circle cx="153.1" cy="61.2" r="5" stroke="#ffffff" stroke-width="1" fill="#4c72b0"/>
<circle cx="164.9" cy="62.1" r="5" stroke="#ffffff" stroke-width="1" fill="#4c72b0"/>
<circle cx="176.8" cy="70.0" r="5" stroke="#ffffff" stroke-width="1" fill="#4c72b0"/>
<circle cx="188.6" cy="84.6" r="5" stroke="#ffffff" stroke-width="1" fill="#4c72b0"/>
<circle cx="200.5" cy="105.2" r="5" stroke="#ffffff" stroke-width="1" fill="#4c72b0"/>
<circle cx="212.4" cy="130.8" r="5" stroke="#ffffff" stroke-width="1" fill="#4c72b0"/>
<circle cx="224.2" cy="160.4" r="5" stroke="#ffffff" stroke-width="1" fill="#4c72b0"/>
<circle cx="236.1" cy="192.6" r="5" stroke="#ffffff" stroke-width="1" fill="#4c72b0"/>
<circle cx="248.0" cy="225.9" r="5" stroke="#ffffff" stroke-width="1" fill="#4c72b0"/>
<circle cx="259.8" cy="258.8" r="5" stroke="#ffffff" stroke-width="1" fill="#4c72b0"/>
<circle cx="271.7" cy="289.9" r="5" stroke="#ffffff" stroke-width="1" fill="#4c72b0"/>
<circle cx="283.6" cy="317.6" r="5" stroke="#ffffff" stroke-width="1" fill="#4c72b0"/>
<circle cx="295.4" cy="340.9" r="5" stroke="#ffffff" stroke-width="1" fill="#4c72b0"/>
<circle cx="307.3" cy="358.6" r="5" stroke="#ffffff" stroke-width="1" fill="#4c72b0"/>
<circle cx="319.2" cy="369.9" r="5" stroke="#ffffff" stroke-width="1" fill="#4c72b0"/>
<circle cx="331.0" cy="374.3" r="5" stroke="#ffffff" stroke-width="1" fill="#4c72b0"/>
<circle cx="342.9" cy="371.7" r="5" stroke="#ffffff" stroke-width="1" fill="#4c72b0"/>
<circle cx="354.8" cy="362.0" r="5" stroke="#ffffff" stroke-width="1" fill="#4c72b0"/>
<circle cx="366.6" cy="345.9" r="5" stroke="#ffffff" stroke-width="1" fill="#4c72b0"/>
<circle cx="378.5" cy="323.9" r="5" stroke="#ffffff" stroke-width="1" fill="#4c72b0"/>
<circle cx="390.3" cy="297.2" r="5" stroke="#ffffff" stroke-width="1" fill="#4c72b0"/>
<circle cx="402.2" cy="266.8" r="5" stroke="#ffffff" stroke-width="1" fill="#4c72b0"/>
<circle cx="414.1" cy="234.2" r="5" stroke="#ffffff" stroke-width="1" fill="#4c72b0"/>
<circle cx="425.9" cy="200.9" r="5" stroke="#ffffff" stroke-width="1" fill="#4c72b0"/>
<circle cx="437.8" cy="168.3" r="5" stroke="#ffffff" stroke-width="1" fill="#4c72b0"/>
<circle cx="449.7" cy="137.9" r="5" stroke="#ffffff" stroke-width="1" fill="#4c72b0"/>
<circle cx="461.5" cy="111.1" r="5" stroke="#ffffff" stroke-width="1" fill="#4c72b0"/>
<circle cx="473.4" cy="89.2" r="5" stroke="#ffffff" stroke-width="1" fill="#4c72b0"/>
<circle cx="485.3" cy="73.0" r="5" stroke="#ffffff" stroke-width="1" fill="#4c72b0"/>
<circle cx="497.1" cy="63.4" r="5" stroke="#ffffff" stroke-width="1" fill="#4c72b0"/>
<circle cx="509.0" cy="60.7" r="5" stroke="#ffffff" stroke-width="1" fill="#4c72b0"/>
<circle cx="520.9" cy="65.2" r="5" stroke="#ffffff" stroke-width="1" fill="#4c72b0"/>
<circle cx="532.7" cy="76.5" r="5" stroke="#ffffff" stroke-width="1" fill="#4c72b0"/>
<circle cx="544.6" cy="94.2" r="5" stroke="#ffffff" stroke-width="1" fill="#4c72b0"/>
<circle cx="556.4" cy="117.4" r="5" stroke="#ffffff" stroke-width="1" fill="#4c72b0"/>
<circle cx="568.3" cy="145.2" r="5" stroke="#ffffff" stroke-width="1" fill="#4c72b0"/>
<circle cx="580.2" cy="176.3" r="5" stroke="#ffffff" stroke-width="1" fill="#4c72b0"/>
<circle cx="592.0" cy="209.2" r="5" stroke="#ffffff" stroke-width="1" fill="#4c72b0"/>
<circle cx="603.9" cy="242.5" r="5" stroke="#ffffff" stroke-width="1" fill="#4c72b0"/>
<circle cx="615.8" cy="274.6" r="5" stroke="#ffffff" stroke-width="1" fill="#4c72b0"/>
<circle cx="627.6" cy="304.2" r="5" stroke="#ffffff" stroke-width="1" fill="#4c72b0"/>
<circle cx="639.5" cy="329.9" r="5" stroke="#ffffff" stroke-width="1" fill="#4c72b0"/>
<circle cx="651.4" cy="350.5" r="5" stroke="#ffffff" stroke-width="1" fill="#4c72b0"/>
<circle cx="663.2" cy="365.1" r="5" stroke="#ffffff" stroke-width="1" fill="#4c72b0"/>
<circle cx="675.1" cy="373.0" r="5" stroke="#ffffff" stroke-width="1" fill="#4c72b0"/>
<circle cx="687.0" cy="373.9" r="5" stroke="#ffffff" stroke-width="1" fill="#4c72b0"/>
<circle cx="698.8" cy="367.7" r="5" stroke="#ffffff" stroke-width="1" fill="#4c72b0"/>
<circle cx="710.7" cy="354.7" r="5" stroke="#ffffff" stroke-width="1" fill="#4c72b0"/>
<circle cx="722.5" cy="335.6" r="5" stroke="#ffffff" stroke-width="1" fill="#4c72b0"/>
<circle cx="734.4" cy="311.1" r="5" stroke="#ffffff" stroke-width="1" fill="#4c72b0"/>
<circle cx="746.3" cy="282.3" r="5" stroke="#ffffff" stroke-width="1" fill="#4c72b0"/>
<circle cx="758.1" cy="250.7" r="5" stroke="#ffffff" stroke-width="1" fill="#4c72b0"/>
<circle cx="770" cy="217.5" r="5" stroke="#ffffff" stroke-width="1" fill="#4c72b0"/>
<path d="M70 60.7 L81.9 64.2 L93.7 74.7 L105.6 91.6 L117.5 114.2 L129.3 141.5 L141.2 172.3 L153.1 205.0 L164.9 238.4 L176.8 270.7 L188.6 300.7 L200.5 327.0 L212.4 348.2 L224.2 363.6 L236.1 372.4 L248.0 374.2 L259.8 368.9 L271.7 356.7 L283.6 338.3 L295.4 314.4 L307.3 286.1 L319.2 254.8 L331.0 221.7 L342.9 188.5 L354.8 156.5 L366.6 127.4 L378.5 102.3 L390.3 82.4 L402.2 68.6 L414.1 61.6 L425.9 61.6 L437.8 68.6 L449.7 82.4 L461.5 102.3 L473.4 127.4 L485.3 156.5 L497.1 188.5 L509.0 221.7 L520.9 254.8 L532.7 286.1 L544.6 314.4 L556.4 338.3 L568.3 356.7 L580.2 368.9 L592.0 374.2 L603.9 372.4 L615.8 363.6 L627.6 348.2 L639.5 327.0 L651.4 300.7 L663.2 270.7 L675.1 238.4 L687.0 205.0 L698.8 172.3 L710.7 141.5 L722.5 114.2 L734.4 91.6 L746.3 74.7 L758.1 64.2 L770 60.7" stroke="#dd8452" stroke-width="2.5" fill="none" stroke-linecap="round" stroke-linejoin="round" stroke-dasharray="8,4"/>
<circle cx="70" cy="60.7" r="5" stroke="#ffffff" stroke-width="1" fill="#dd8452"/>
<circle cx="81.9" cy="64.2" r="5" stroke="#ffffff" stroke-width="1" fill="#dd8452"/>
<circle cx="93.7" cy="74.7" r="5" stroke="#ffffff" stroke-width="1" fill="#dd8452"/>
<circle cx="105.6" cy="91.6" r="5" stroke="#ffffff" stroke-width="1" fill="#dd8452"/>
<circle cx="117.5" cy="114.2" r="5" stroke="#ffffff" stroke-width="1" fill="#dd8452"/>
<circle cx="129.3" cy="141.5" r="5" stroke="#ffffff" stroke-width="1" fill="#dd8452"/>
<circle cx="141.2" cy="172.3" r="5" stroke="#ffffff" stroke-width="1" fill="#dd8452"/>
<circle cx="153.1" cy="205.0" r="5" stroke="#ffffff" stroke-width="1" fill="#dd8452"/>
<circle cx="164.9" cy="238.4" r="5" stroke="#ffffff" stroke-width="1" fill="#dd8452"/>
<circle cx="176.8" cy="270.7" r="5" stroke="#ffffff" stroke-width="1" fill="#dd8452"/>
<circle cx="188.6" cy="300.7" r="5" stroke="#ffffff" stroke-width="1" fill="#dd8452"/>
<circle cx="200.5" cy="327.0" r="5" stroke="#ffffff" stroke-width="1" fill="#dd8452"/>
<circle cx="212.4" cy="348.2" r="5" stroke="#ffffff" stroke-width="1" fill="#dd8452"/>
<circle cx="224.2" cy="363.6" r="5" stroke="#ffffff" stroke-width="1" fill="#dd8452"/>
<circle cx="236.1" cy="372.4" r="5" stroke="#ffffff" stroke-width="1" fill="#dd8452"/>
<circle cx="248.0" cy="374.2" r="5" stroke="#ffffff" stroke-width="1" fill="#dd8452"/>
<circle cx="259.8" cy="368.9" r="5" stroke="#ffffff" stroke-width="1" fill="#dd8452"/>
<circle cx="271.7" cy="356.7" r="5" stroke="#ffffff" stroke-width="1" fill="#dd8452"/>
<circle cx="283.6" cy="338.3" r="5" stroke="#ffffff" stroke-width="1" fill="#dd8452"/>
<circle cx="295.4" cy="314.4" r="5" stroke="#ffffff" stroke-width="1" fill="#dd8452"/>
<circle cx="307.3" cy="286.1" r="5" stroke="#ffffff" stroke-width="1" fill="#dd8452"/>
<circle cx="319.2" cy="254.8" r="5" stroke="#ffffff" stroke-width="1" fill="#dd8452"/>
<circle cx="331.0" cy="221.7" r="5" stroke="#ffffff" stroke-width="1" fill="#dd8452"/>
<circle cx="342.9" cy="188.5" r="5" stroke="#ffffff" stroke-width="1" fill="#dd8452"/>
<circle cx="354.8" cy="156.5" r="5" stroke="#ffffff" stroke-width="1" fill="#dd8452"/>
<circle cx="366.6" cy="127.4" r="5" stroke="#ffffff" stroke-width="1" fill="#dd8452"/>
<circle cx="378.5" cy="102.3" r="5" stroke="#ffffff" stroke-width="1" fill="#dd8452"/>
<circle cx="390.3" cy="82.4" r="5" stroke="#ffffff" stroke-width="1" fill="#dd8452"/>
<circle cx="402.2" cy="68.6" r="5" stroke="#ffffff" stroke-width="1" fill="#dd8452"/>
<circle cx="414.1" cy="61.6" r="5" stroke="#ffffff" stroke-width="1" fill="#dd8452"/>
<circle cx="425.9" cy="61.6" r="5" stroke="#ffffff" stroke-width="1" fill="#dd8452"/>
<circle cx="437.8" cy="68.6" r="5" stroke="#ffffff" stroke-width="1" fill="#dd8452"/>
<circle cx="449.7" cy="82.4" r="5" stroke="#ffffff" stroke-width="1" fill="#dd8452"/>
<circle cx="461.5" cy="102.3" r="5" stroke="#ffffff" stroke-width="1" fill="#dd8452"/>
<circle cx="473.4" cy="127.4" r="5" stroke="#ffffff" stroke-width="1" fill="#dd8452"/>
<circle cx="485.3" cy="156.5" r="5" stroke="#ffffff" stroke-width="1" fill="#dd8452"/>
<circle cx="497.1" cy="188.5" r="5" stroke="#ffffff" stroke-width="1" fill="#dd8452"/>
<circle cx="509.0" cy="221.7" r="5" stroke="#ffffff" stroke-width="1" fill="#dd8452"/>
<circle cx="520.9" cy="254.8" r="5" stroke="#ffffff" stroke-width="1" fill="#dd8452"/>
<circle cx="532.7" cy="286.1" r="5" stroke="#ffffff" stroke-width="1" fill="#dd8452"/>
<circle cx="544.6" cy="314.4" r="5" stroke="#ffffff" stroke-width="1" fill="#dd8452"/>
<circle cx="556.4" cy="338.3" r="5" stroke="#ffffff" stroke-width="1" fill="#dd8452"/>
<circle cx="568.3" cy="356.7" r="5" stroke="#ffffff" stroke-width="1" fill="#dd8452"/>
<circle cx="580.2" cy="368.9" r="5" stroke="#ffffff" stroke-width="1" fill="#dd8452"/>
<circle cx="592.0" cy="374.2" r="5" stroke="#ffffff" stroke-width="1" fill="#dd8452"/>
<circle cx="603.9" cy="372.4" r="5" stroke="#ffffff" stroke-width="1" fill="#dd8452"/>
<circle cx="615.8" cy="363.6" r="5" stroke="#ffffff" stroke-width="1" fill="#dd8452"/>
<circle cx="627.6" cy="348.2" r="5" stroke="#ffffff" stroke-width="1" fill="#dd8452"/>
<circle cx="639.5" cy="327.0" r="5" stroke="#ffffff" stroke-width="1" fill="#dd8452"/>
<circle cx="651.4" cy="300.7" r="5" stroke="#ffffff" stroke-width="1" fill="#dd8452"/>
<circle cx="663.2" cy="270.7" r="5" stroke="#ffffff" stroke-width="1" fill="#dd8452"/>
<circle cx="675.1" cy="238.4" r="5" stroke="#ffffff" stroke-width="1" fill="#dd8452"/>
<circle cx="687.0" cy="205.0" r="5" stroke="#ffffff" stroke-width="1" fill="#dd8452"/>
<circle cx="698.8" cy="172.3" r="5" stroke="#ffffff" stroke-width="1" fill="#dd8452"/>
<circle cx="710.7" cy="141.5" r="5" stroke="#ffffff" stroke-width="1" fill="#dd8452"/>
<circle cx="722.5" cy="114.2" r="5" stroke="#ffffff" stroke-width="1" fill="#dd8452"/>
<circle cx="734.4" cy="91.6" r="5" stroke="#ffffff" stroke-width="1" fill="#dd8452"/>
<circle cx="746.3" cy="74.7" r="5" stroke="#ffffff" stroke-width="1" fill="#dd8452"/>
<circle cx="758.1" cy="64.2" r="5" stroke="#ffffff" stroke-width="1" fill="#dd8452"/>
<circle cx="770" cy="60.7" r="5" stroke="#ffffff" stroke-width="1" fill="#dd8452"/>
</g>
<line x1="70" y1="390" x2="770" y2="390" stroke="#888888" stroke-width="1.2" fill="none"/>
<line x1="70" y1="45" x2="70" y2="390" stroke="#888888" stroke-width="1.2" fill="none"/>
<line x1="70" y1="390" x2="70" y2="395" stroke="#888888" stroke-width="1" fill="none"/>
<text x="70" y="398" font-size="11" font-family="system-ui, -apple-system, BlinkMacSystemFont, 'Segoe UI', sans-serif" text-anchor="middle" dominant-baseline="hanging" fill="#333333">0</text>
<line x1="181.4" y1="390" x2="181.4" y2="395" stroke="#888888" stroke-width="1" fill="none"/>
<text x="181.4" y="398" font-size="11" font-family="system-ui, -apple-system, BlinkMacSystemFont, 'Segoe UI', sans-serif" text-anchor="middle" dominant-baseline="hanging" fill="#333333">2</text>
<line x1="292.8" y1="390" x2="292.8" y2="395" stroke="#888888" stroke-width="1" fill="none"/>
<text x="292.8" y="398" font-size="11" font-family="system-ui, -apple-system, BlinkMacSystemFont, 'Segoe UI', sans-serif" text-anchor="middle" dominant-baseline="hanging" fill="#333333">4</text>
<line x1="404.2" y1="390" x2="404.2" y2="395" stroke="#888888" stroke-width="1" fill="none"/>
<text x="404.2" y="398" font-size="11" font-family="system-ui, -apple-system, BlinkMacSystemFont, 'Segoe UI', sans-serif" text-anchor="middle" dominant-baseline="hanging" fill="#333333">6</text>
<line x1="515.6" y1="390" x2="515.6" y2="395" stroke="#888888" stroke-width="1" fill="none"/>
<text x="515.6" y="398" font-size="11" font-family="system-ui, -apple-system, BlinkMacSystemFont, 'Segoe UI', sans-serif" text-anchor="middle" dominant-baseline="hanging" fill="#333333">8</text>
<line x1="627.0" y1="390" x2="627.0" y2="395" stroke="#888888" stroke-width="1" fill="none"/>
<text x="627.0" y="398" font-size="11" font-family="system-ui, -apple-system, BlinkMacSystemFont, 'Segoe UI', sans-serif" text-anchor="middle" dominant-baseline="hanging" fill="#333333">10</text>
<line x1="738.5" y1="390" x2="738.5" y2="395" stroke="#888888" stroke-width="1" fill="none"/>
<text x="738.5" y="398" font-size="11" font-family="system-ui, -apple-system, BlinkMacSystemFont, 'Segoe UI', sans-serif" text-anchor="middle" dominant-baseline="hanging" fill="#333333">12</text>
<line x1="65" y1="374.4" x2="70" y2="374.4" stroke="#888888" stroke-width="1" fill="none"/>
<text x="62" y="374.4" font-size="11" font-family="system-ui, -apple-system, BlinkMacSystemFont, 'Segoe UI', sans-serif" text-anchor="end" dominant-baseline="middle" fill="#333333">-1.0</text>
<line x1="65" y1="335.2" x2="70" y2="335.2" stroke="#888888" stroke-width="1" fill="none"/>
<text x="62" y="335.2" font-size="11" font-family="system-ui, -apple-system, BlinkMacSystemFont, 'Segoe UI', sans-serif" text-anchor="end" dominant-baseline="middle" fill="#333333">-0.8</text>
<line x1="65" y1="296.0" x2="70" y2="296.0" stroke="#888888" stroke-width="1" fill="none"/>
<text x="62" y="296.0" font-size="11" font-family="system-ui, -apple-system, BlinkMacSystemFont, 'Segoe UI', sans-serif" text-anchor="end" dominant-baseline="middle" fill="#333333">-0.5</text>
<line x1="65" y1="256.7" x2="70" y2="256.7" stroke="#888888" stroke-width="1" fill="none"/>
<text x="62" y="256.7" font-size="11" font-family="system-ui, -apple-system, BlinkMacSystemFont, 'Segoe UI', sans-serif" text-anchor="end" dominant-baseline="middle" fill="#333333">-0.2</text>
<line x1="65" y1="217.5" x2="70" y2="217.5" stroke="#888888" stroke-width="1" fill="none"/>
<text x="62" y="217.5" font-size="11" font-family="system-ui, -apple-system, BlinkMacSystemFont, 'Segoe UI', sans-serif" text-anchor="end" dominant-baseline="middle" fill="#333333">0.0</text>
<line x1="65" y1="178.3" x2="70" y2="178.3" stroke="#888888" stroke-width="1" fill="none"/>
<text x="62" y="178.3" font-size="11" font-family="system-ui, -apple-system, BlinkMacSystemFont, 'Segoe UI', sans-serif" text-anchor="end" dominant-baseline="middle" fill="#333333">0.2</text>
<line x1="65" y1="139.1" x2="70" y2="139.1" stroke="#888888" stroke-width="1" fill="none"/>
<text x="62" y="139.1" font-size="11" font-family="system-ui, -apple-system, BlinkMacSystemFont, 'Segoe UI', sans-serif" text-anchor="end" dominant-baseline="middle" fill="#333333">0.5</text>
<line x1="65" y1="99.9" x2="70" y2="99.9" stroke="#888888" stroke-width="1" fill="none"/>
<text x="62" y="99.9" font-size="11" font-family="system-ui, -apple-system, BlinkMacSystemFont, 'Segoe UI', sans-serif" text-anchor="end" dominant-baseline="middle" fill="#333333">0.8</text>
<line x1="65" y1="60.7" x2="70" y2="60.7" stroke="#888888" stroke-width="1" fill="none"/>
<text x="62" y="60.7" font-size="11" font-family="system-ui, -apple-system, BlinkMacSystemFont, 'Segoe UI', sans-serif" text-anchor="end" dominant-baseline="middle" fill="#333333">1.0</text>
<rect x="670.4" y="55" width="89.6" height="64" rx="4" ry="4" stroke="#e5e5e5" stroke-width="0.8" fill="rgba(255,255,255,0.9)"/>
<line x1="680.4" y1="76" x2="700.4" y2="76" stroke="#4c72b0" stroke-width="2.5" fill="none" stroke-linecap="round"/>
<circle cx="690.4" cy="76" r="3" stroke="none" fill="#4c72b0"/>
<text x="704.4" y="76" font-size="12" font-family="system-ui, -apple-system, BlinkMacSystemFont, 'Segoe UI', sans-serif" text-anchor="start" dominant-baseline="middle" fill="#333333">sin(x)</text>
<line x1="680.4" y1="98" x2="700.4" y2="98" stroke="#dd8452" stroke-width="2.5" fill="none" stroke-linecap="round"/>
<circle cx="690.4" cy="98" r="3" stroke="none" fill="#dd8452"/>
<text x="704.4" y="98" font-size="12" font-family="system-ui, -apple-system, BlinkMacSystemFont, 'Segoe UI', sans-serif" text-anchor="start" dominant-baseline="middle" fill="#333333">cos(x)</text>
</svg>
