<svg xmlns="http://www.w3.org/2000/svg" width="800" height="450">
<defs>
<clipPath id="axes-clip-1"><rect x="70" y="45" width="700" height="345"/></clipPath>
<linearGradient id="linefill-0" x1="0" y1="217.5" x2="0" y2="217.5" gradientUnits="userSpaceOnUse">
  <stop offset="0" stop-color="#4c72b0" stop-opacity="0.4"/>
  <stop offset="1" stop-color="#4c72b0" stop-opacity="0.0"/>
</linearGradient>
</defs>
<rect x="0" y="0" width="800" height="450" stroke="none" fill="#1a1b2e"/>
<rect x="70" y="45" width="700" height="345" stroke="none" fill="#22233a"/>
<g clip-path="url(#axes-clip-1)">
<line x1="70" y1="374.4" x2="770" y2="374.4" stroke="#2e3050" stroke-width="0.8" fill="none"/>
<line x1="70" y1="335.2" x2="770" y2="335.2" stroke="#2e3050" stroke-width="0.8" fill="none"/>
<line x1="70" y1="296.0" x2="770" y2="296.0" stroke="#2e3050" stroke-width="0.8" fill="none"/>
<line x1="70" y1="256.7" x2="770" y2="256.7" stroke="#2e3050" stroke-width="0.8" fill="none"/>
<line x1="70" y1="217.5" x2="770" y2="217.5" stroke="#2e3050" stroke-width="0.8" fill="none"/>
<line x1="70" y1="178.3" x2="770" y2="178.3" stroke="#2e3050" stroke-width="0.8" fill="none"/>
<line x1="70" y1="139.1" x2="770" y2="139.1" stroke="#2e3050" stroke-width="0.8" fill="none"/>
<line x1="70" y1="99.9" x2="770" y2="99.9" stroke="#2e3050" stroke-width="0.8" fill="none"/>
<line x1="70" y1="60.7" x2="770" y2="60.7" stroke="#2e3050" stroke-width="0.8" fill="none"/>
</g>
<g clip-path="url(#axes-clip-1)">
<line x1="70" y1="45" x2="70" y2="390" stroke="#2e3050" stroke-width="0.8" fill="none"/>
<line x1="181.4" y1="45" x2="181.4" y2="390" stroke="#2e3050" stroke-width="0.8" fill="none"/>
<line x1="292.8" y1="45" x2="292.8" y2="390" stroke="#2e3050" stroke-width="0.8" fill="none"/>
<line x1="404.2" y1="45" x2="404.2" y2="390" stroke="#2e3050" stroke-width="0.8" fill="none"/>
<line x1="515.6" y1="45" x2="515.6" y2="390" stroke="#2e3050" stroke-width="0.8" fill="none"/>
<line x1="627.0" y1="45" x2="627.0" y2="390" stroke="#2e3050" stroke-width="0.8" fill="none"/>
<line x1="738.5" y1="45" x2="738.5" y2="390" stroke="#2e3050" stroke-width="0.8" fill="none"/>
</g>
<g clip-path="url(#axes-clip-1)">
<path d="M70 217.5 C72.0 212 77.9 195.2 81.9 184.4 C85.8 173.6 89.8 162.8 93.7 152.7 C97.7 142.7 101.6 132.9 105.6 124.0 C109.6 115.1 113.5 106.8 117.5 99.5 C121.4 92.2 125.4 85.7 129.3 80.3 C133.3 75.0 137.2 70.6 141.2 67.4 C145.1 64.2 149.1 62.1 153.1 61.2 C157.0 60.3 161.0 60.6 164.9 62.1 C168.9 63.5 172.8 66.2 176.8 70.0 C180.7 73.7 184.7 78.7 188.6 84.6 C192.6 90.4 196.6 97.4 200.5 105.2 C204.5 112.9 208.4 121.6 212.4 130.8 C216.3 140.0 220.3 150.1 224.2 160.4 C228.2 170.7 232.2 181.7 236.1 192.6 C240.1 203.5 244.0 214.8 248.0 225.9 C251.9 236.9 255.9 248.1 259.8 258.8 C263.8 269.5 267.7 280.0 271.7 289.9 C275.7 299.7 279.6 309.1 283.6 317.6 C287.5 326.1 291.5 334.1 295.4 340.9 C299.4 347.7 303.3 353.8 307.3 358.6 C311.2 363.4 315.2 367.3 319.2 369.9 C323.1 372.5 327.1 374.0 331.0 374.3 C335.0 374.6 338.9 373.7 342.9 371.7 C346.8 369.6 350.8 366.3 354.8 362.0 C358.7 357.7 362.7 352.2 366.6 345.9 C370.6 339.5 374.5 332.0 378.5 323.9 C382.4 315.8 386.4 306.7 390.3 297.2 C394.3 287.6 398.3 277.3 402.2 266.8 C406.2 256.3 410.1 245.2 414.1 234.2 C418.0 223.2 422.0 211.8 425.9 200.9 C429.9 189.9 433.8 178.8 437.8 168.3 C441.8 157.8 445.7 147.4 449.7 137.9 C453.6 128.4 457.6 119.3 461.5 111.1 C465.5 103.0 469.4 95.5 473.4 89.2 C477.3 82.8 481.3 77.3 485.3 73.0 C489.2 68.7 493.2 65.5 497.1 63.4 C501.1 61.4 505.0 60.4 509.0 60.7 C512.9 61.0 516.9 62.5 520.9 65.2 C524.8 67.8 528.8 71.6 532.7 76.5 C536.7 81.3 540.6 87.3 544.6 94.2 C548.5 101.0 552.5 108.9 556.4 117.4 C560.4 125.9 564.4 135.4 568.3 145.2 C572.3 155.0 576.2 165.6 580.2 176.3 C584.1 186.9 588.1 198.1 592.0 209.2 C596.0 220.2 599.9 231.6 603.9 242.5 C607.9 253.4 611.8 264.4 615.8 274.6 C619.7 284.9 623.7 295.0 627.6 304.2 C631.6 313.4 635.5 322.2 639.5 329.9 C643.5 337.6 647.4 344.6 651.4 350.5 C655.3 356.4 659.3 361.3 663.2 365.1 C667.2 368.8 671.1 371.5 675.1 373.0 C679.0 374.5 683.0 374.8 687.0 373.9 C690.9 373.0 694.9 370.9 698.8 367.7 C702.8 364.5 706.7 360.1 710.7 354.7 C714.6 349.4 718.6 342.8 722.5 335.6 C726.5 328.3 730.5 319.9 734.4 311.1 C738.4 302.2 742.3 292.4 746.3 282.3 C750.2 272.3 754.2 261.5 758.1 250.7 C762.1 239.9 768.0 223.1 770 217.5 L770 217.5 L70 217.5 Z" stroke="none" fill="url(#linefill-0)"/>
<path d="M70 217.5 C72.0 212 77.9 195.2 81.9 184.4 C85.8 173.6 89.8 162.8 93.7 152.7 C97.7 142.7 101.6 132.9 105.6 124.0 C109.6 115.1 113.5 106.8 117.5 99.5 C121.4 92.2 125.4 85.7 129.3 80.3 C133.3 75.0 137.2 70.6 141.2 67.4 C145.1 64.2 149.1 62.1 153.1 61.2 C157.0 60.3 161.0 60.6 164.9 62.1 C168.9 63.5 172.8 66.2 176.8 70.0 C180.7 73.7 184.7 78.7 188.6 84.6 C192.6 90.4 196.6 97.4 200.5 105.2 C204.5 112.9 208.4 121.6 212.4 130.8 C216.3 140.0 220.3 150.1 224.2 160.4 C228.2 170.7 232.2 181.7 236.1 192.6 C240.1 203.5 244.0 214.8 248.0 225.9 C251.9 236.9 255.9 248.1 259.8 258.8 C263.8 269.5 267.7 280.0 271.7 289.9 C275.7 299.7 279.6 309.1 283.6 317.6 C287.5 326.1 291.5 334.1 295.4 340.9 C299.4 347.7 303.3 353.8 307.3 358.6 C311.2 363.4 315.2 367.3 319.2 369.9 C323.1 372.5 327.1 374.0 331.0 374.3 C335.0 374.6 338.9 373.7 342.9 371.7 C346.8 369.6 350.8 366.3 354.8 362.0 C358.7 357.7 362.7 352.2 366.6 345.9 C370.6 339.5 374.5 332.0 378.5 323.9 C382.4 315.8 386.4 306.7 390.3 297.2 C394.3 287.6 398.3 277.3 402.2 266.8 C406.2 256.3 410.1 245.2 414.1 234.2 C418.0 223.2 422.0 211.8 425.9 200.9 C429.9 189.9 433.8 178.8 437.8 168.3 C441.8 157.8 445.7 147.4 449.7 137.9 C453.6 128.4 457.6 119.3 461.5 111.1 C465.5 103.0 469.4 95.5 473.4 89.2 C477.3 82.8 481.3 77.3 485.3 73.0 C489.2 68.7 493.2 65.5 497.1 63.4 C501.1 61.4 505.0 60.4 509.0 60.7 C512.9 61.0 516.9 62.5 520.9 65.2 C524.8 67.8 528.8 71.6 532.7 76.5 C536.7 81.3 540.6 87.3 544.6 94.2 C548.5 101.0 552.5 108.9 556.4 117.4 C560.4 125.9 564.4 135.4 568.3 145.2 C572.3 155.0 576.2 165.6 580.2 176.3 C584.1 186.9 588.1 198.1 592.0 209.2 C596.0 220.2 599.9 231.6 603.9 242.5 C607.9 253.4 611.8 264.4 615.8 274.6 C619.7 284.9 623.7 295.0 627.6 304.2 C631.6 313.4 635.5 322.2 639.5 329.9 C643.5 337.6 647.4 344.6 651.4 350.5 C655.3 356.4 659.3 361.3 663.2 365.1 C667.2 368.8 671.1 371.5 675.1 373.0 C679.0 374.5 683.0 374.8 687.0 373.9 C690.9 373.0 694.9 370.9 698.8 367.7 C702.8 364.5 706.7 360.1 710.7 354.7 C714.6 349.4 718.6 342.8 722.5 335.6 C726.5 328.3 730.5 319.9 734.4 311.1 C738.4 302.2 742.3 292.4 746.3 282.3 C750.2 272.3 754.2 261.5 758.1 250.7 C762.1 239.9 768.0 223.1 770 217.5" stroke="#4c72b0" stroke-width="2.5" fill="none" stroke-linecap="round" stroke-linejoin="round"/>
<circle cx="70" cy="217.5" r="5" stroke="#ffffff" stroke-width="1" fill="#4c72b0"/>
<circle cx="81.9" cy="184.4" r="5" stroke="#ffffff" stroke-width="1" fill="#4c72b0"/>
<circle cx="93.7" cy="152.7" r="5" stroke="#ffffff" stroke-width="1" fill="#4c72b0"/>
<circle cx="105.6" cy="124.0" r="5" stroke="#ffffff" stroke-width="1" fill="#4c72b0"/>
<circle cx="117.5" cy="99.5" r="5" stroke="#ffffff" stroke-width="1" fill="#4c72b0"/>
<circle cx="129.3" cy="80.3" r="5" stroke="#ffffff" stroke-width="1" fill="#4c72b0"/>
<circle cx="141.2" cy="67.4" r="5" stroke="#ffffff" stroke-width="1" fill="#4c72b0"/>
<circle cx="153.1" cy="61.2" r="5" stroke="#ffffff" stroke-width="1" fill="#4c72b0"/>
<circle cx="164.9" cy="62.1" r="5" stroke="#ffffff" stroke-width="1" fill="#4c72b0"/>
<circle cx="176.8" cy="70.0" r="5" stroke="#ffffff" stroke-width="1" fill="#4c72b0"/>
<circle cx="188.6" cy="84.6" r="5" stroke="#ffffff" stroke-width="1" fill="#4c72b0"/>
<circle cx="200.5" cy="105.2" r="5" stroke="#ffffff" stroke-width="1" fill="#4c72b0"/>
<circle cx="212.4" cy="130.8" r="5" stroke="#ffffff" stroke-width="1" fill="#4c72b0"/>
<circle cx="224.2" cy="160.4" r="5" stroke="#ffffff" stroke-width="1" fill="#4c72b0"/>
<circle cx="236.1" cy="192.6" r="5" stroke="#ffffff" stroke-width="1" fill="#4c72b0"/>
<circle cx="248.0" cy="225.9" r="5" stroke="#ffffff" stroke-width="1" fill="#4c72b0"/>
<circle cx="259.8" cy="258.8" r="5" stroke="#ffffff" stroke-width="1" fill="#4c72b0"/>
<circle cx="271.7" cy="289.9" r="5" stroke="#ffffff" stroke-width="1" fill="#4c72b0"/>
<circle cx="283.6" cy="317.6" r="5" stroke="#ffffff" stroke-width="1" fill="#4c72b0"/>
<circle cx="295.4" cy="340.9" r="5" stroke="#ffffff" stroke-width="1" fill="#4c72b0"/>
<circle cx="307.3" cy="358.6" r="5" stroke="#ffffff" stroke-width="1" fill="#4c72b0"/>
<circle cx="319.2" cy="369.9" r="5" stroke="#ffffff" stroke-width="1" fill="#4c72b0"/>
<circle cx="331.0" cy="374.3" r="5" stroke="#ffffff" stroke-width="1" fill="#4c72b0"/>
<circle cx="342.9" cy="371.7" r="5" stroke="#ffffff" stroke-width="1" fill="#4c72b0"/>
<circle cx="354.8" cy="362.0" r="5" stroke="#ffffff" stroke-width="1" fill="#4c72b0"/>
<circle cx="366.6" cy="345.9" r="5" stroke="#ffffff" stroke-width="1" fill="#4c72b0"/>
<circle cx="378.5" cy="323.9" r="5" stroke="#ffffff" stroke-width="1" fill="#4c72b0"/>
<circle cx="390.3" cy="297.2" r="5" stroke="#ffffff" stroke-width="1" fill="#4c72b0"/>
<circle cx="402.2" cy="266.8" r="5" stroke="#ffffff" stroke-width="1" fill="#4c72b0"/>
<circle cx="414.1" cy="234.2" r="5" stroke="#ffffff" stroke-width="1" fill="#4c72b0"/>
<circle cx="425.9" cy="200.9" r="5" stroke="#ffffff" stroke-width="1" fill="#4c72b0"/>
<circle cx="437.8" cy="168.3" r="5" stroke="#ffffff" stroke-width="1" fill="#4c72b0"/>
<circle cx="449.7" cy="137.9" r="5" stroke="#ffffff" stroke-width="1" fill="#4c72b0"/>
<circle cx="461.5" cy="111.1" r="5" stroke="#ffffff" stroke-width="1" fill="#4c72b0"/>
<circle cx="473.4" cy="89.2" r="5" stroke="#ffffff" stroke-width="1" fill="#4c72b0"/>
<circle cx="485.3" cy="73.0" r="5" stroke="#ffffff" stroke-width="1" fill="#4c72b0"/>
<circle cx="497.1" cy="63.4" r="5" stroke="#ffffff" stroke-width="1" fill="#4c72b0"/>
<circle cx="509.0" cy="60.7" r="5" stroke="#ffffff" stroke-width="1" fill="#4c72b0"/>
<circle cx="520.9" cy="65.2" r="5" stroke="#ffffff" stroke-width="1" fill="#4c72b0"/>
<circle cx="532.7" cy="76.5" r="5" stroke="#ffffff" stroke-width="1" fill="#4c72b0"/>
<circle cx="544.6" cy="94.2" r="5" stroke="#ffffff" stroke-width="1" fill="#4c72b0"/>
<circle cx="556.4" cy="117.4" r="5" stroke="#ffffff" stroke-width="1" fill="#4c72b0"/>
<circle cx="568.3" cy="145.2" r="5" stroke="#ffffff" stroke-width="1" fill="#4c72b0"/>
<circle cx="580.2" cy="176.3" r="5" stroke="#ffffff" stroke-width="1" fill="#4c72b0"/>
<circle cx="592.0" cy="209.2" r="5" stroke="#ffffff" stroke-width="1" fill="#4c72b0"/>
<circle cx="603.9" cy="242.5" r="5" stroke="#ffffff" stroke-width="1" fill="#4c72b0"/>
<circle cx="615.8" cy="274.6" r="5" stroke="#ffffff" stroke-width="1" fill="#4c72b0"/>
<circle cx="627.6" cy="304.2" r="5" stroke="#ffffff" stroke-width="1" fill="#4c72b0"/>
<circle cx="639.5" cy="329.9" r="5" stroke="#ffffff" stroke-width="1" fill="#4c72b0"/>
<circle cx="651.4" cy="350.5" r="5" stroke="#ffffff" stroke-width="1" fill="#4c72b0"/>
<circle cx="663.2" cy="365.1" r="5" stroke="#ffffff" stroke-width="1" fill="#4c72b0"/>
<circle cx="675.1" cy="373.0" r="5" stroke="#ffffff" stroke-width="1" fill="#4c72b0"/>
<circle cx="687.0" cy="373.9" r="5" stroke="#ffffff" stroke-width="1" fill="#4c72b0"/>
<circle cx="698.8" cy="367.7" r="5" stroke="#ffffff" stroke-width="1" fill="#4c72b0"/>
<circle cx="710.7" cy="354.7" r="5" stroke="#ffffff" stroke-width="1" fill="#4c72b0"/>
<circle cx="722.5" cy="335.6" r="5" stroke="#ffffff" stroke-width="1" fill="#4c72b0"/>
<circle cx="734.4" cy="311.1" r="5" stroke="#ffffff" stroke-width="1" fill="#4c72b0"/>
<circle cx="746.3" cy="282.3" r="5" stroke="#ffffff" stroke-width="1" fill="#4c72b0"/>
<circle cx="758.1" cy="250.7" r="5" stroke="#ffffff" stroke-width="1" fill="#4c72b0"/>
<circle cx="770" cy="217.5" r="5" stroke="#ffffff" stroke-width="1" fill="#4c72b0"/>
<path d="M70 60.7 C72.0 61.3 77.9 61.9 81.9 64.2 C85.8 66.6 89.8 70.1 93.7 74.7 C97.7 79.3 101.6 85.0 105.6 91.6 C109.6 98.2 113.5 105.9 117.5 114.2 C121.4 122.6 125.4 131.9 129.3 141.5 C133.3 151.2 137.2 161.7 141.2 172.3 C145.1 182.8 149.1 194 153.1 205.0 C157.0 216.0 161.0 227.4 164.9 238.4 C168.9 249.3 172.8 260.3 176.8 270.7 C180.7 281.1 184.7 291.4 188.6 300.7 C192.6 310.1 196.6 319.0 200.5 327.0 C204.5 334.9 208.4 342.1 212.4 348.2 C216.3 354.3 220.3 359.6 224.2 363.6 C228.2 367.6 232.2 370.6 236.1 372.4 C240.1 374.1 244.0 374.7 248.0 374.2 C251.9 373.6 255.9 371.8 259.8 368.9 C263.8 365.9 267.7 361.8 271.7 356.7 C275.7 351.6 279.6 345.3 283.6 338.3 C287.5 331.2 291.5 323.1 295.4 314.4 C299.4 305.7 303.3 296.1 307.3 286.1 C311.2 276.2 315.2 265.5 319.2 254.8 C323.1 244.0 327.1 232.8 331.0 221.7 C335.0 210.7 338.9 199.3 342.9 188.5 C346.8 177.6 350.8 166.7 354.8 156.5 C358.7 146.4 362.7 136.4 366.6 127.4 C370.6 118.3 374.5 109.8 378.5 102.3 C382.4 94.8 386.4 88.0 390.3 82.4 C394.3 76.8 398.3 72.1 402.2 68.6 C406.2 65.2 410.1 62.8 414.1 61.6 C418.0 60.4 422.0 60.4 425.9 61.6 C429.9 62.8 433.8 65.2 437.8 68.6 C441.8 72.1 445.7 76.8 449.7 82.4 C453.6 88.0 457.6 94.8 461.5 102.3 C465.5 109.8 469.4 118.3 473.4 127.4 C477.3 136.4 481.3 146.4 485.3 156.5 C489.2 166.7 493.2 177.6 497.1 188.5 C501.1 199.3 505.0 210.7 509.0 221.7 C512.9 232.8 516.9 244.0 520.9 254.8 C524.8 265.5 528.8 276.2 532.7 286.1 C536.7 296.1 540.6 305.7 544.6 314.4 C548.5 323.1 552.5 331.2 556.4 338.3 C560.4 345.3 564.4 351.6 568.3 356.7 C572.3 361.8 576.2 365.9 580.2 368.9 C584.1 371.8 588.1 373.6 592.0 374.2 C596.0 374.7 599.9 374.1 603.9 372.4 C607.9 370.6 611.8 367.6 615.8 363.6 C619.7 359.6 623.7 354.3 627.6 348.2 C631.6 342.1 635.5 334.9 639.5 327.0 C643.5 319.0 647.4 310.1 651.4 300.7 C655.3 291.4 659.3 281.1 663.2 270.7 C667.2 260.3 671.1 249.3 675.1 238.4 C679.0 227.4 683.0 216.0 687.0 205.0 C690.9 194 694.9 182.8 698.8 172.3 C702.8 161.7 706.7 151.2 710.7 141.5 C714.6 131.9 718.6 122.6 722.5 114.2 C726.5 105.9 730.5 98.2 734.4 91.6 C738.4 85.0 742.3 79.3 746.3 74.7 C750.2 70.1 754.2 66.6 758.1 64.2 C762.1 61.9 768.0 61.3 770 60.7" stroke="#dd8452" stroke-width="2.5" fill="none" stroke-linecap="round" stroke-linejoin="round"/>
<circle cx="70" cy="60.7" r="5" stroke="#ffffff" stroke-width="1" fill="#dd8452"/>
<circle cx="81.9" cy="64.2" r="5" stroke="#ffffff" stroke-width="1" fill="#dd8452"/>
<circle cx="93.7" cy="74.7" r="5" stroke="#ffffff" stroke-width="1" fill="#dd8452"/>
<circle cx="105.6" cy="91.6" r="5" stroke="#ffffff" stroke-width="1" fill="#dd8452"/>
<circle cx="117.5" cy="114.2" r="5" stroke="#ffffff" stroke-width="1" fill="#dd8452"/>
<circle cx="129.3" cy="141.5" r="5" stroke="#ffffff" stroke-width="1" fill="#dd8452"/>
<circle cx="141.2" cy="172.3" r="5" stroke="#ffffff" stroke-width="1" fill="#dd8452"/>
<circle cx="153.1" cy="205.0" r="5" stroke="#ffffff" stroke-width="1" fill="#dd8452"/>
<circle cx="164.9" cy="238.4" r="5" stroke="#ffffff" stroke-width="1" fill="#dd8452"/>
<circle cx="176.8" cy="270.7" r="5" stroke="#ffffff" stroke-width="1" fill="#dd8452"/>
<circle cx="188.6" cy="300.7" r="5" stroke="#ffffff" stroke-width="1" fill="#dd8452"/>
<circle cx="200.5" cy="327.0" r="5" stroke="#ffffff" stroke-width="1" fill="#dd8452"/>
<circle cx="212.4" cy="348.2" r="5" stroke="#ffffff" stroke-width="1" fill="#dd8452"/>
<circle cx="224.2" cy="363.6" r="5" stroke="#ffffff" stroke-width="1" fill="#dd8452"/>
<circle cx="236.1" cy="372.4" r="5" stroke="#ffffff" stroke-width="1" fill="#dd8452"/>
<circle cx="248.0" cy="374.2" r="5" stroke="#ffffff" stroke-width="1" fill="#dd8452"/>
<circle cx="259.8" cy="368.9" r="5" stroke="#ffffff" stroke-width="1" fill="#dd8452"/>
<circle cx="271.7" cy="356.7" r="5" stroke="#ffffff" stroke-width="1" fill="#dd8452"/>
<circle cx="283.6" cy="338.3" r="5" stroke="#ffffff" stroke-width="1" fill="#dd8452"/>
<circle cx="295.4" cy="314.4" r="5" stroke="#ffffff" stroke-width="1" fill="#dd8452"/>
<circle cx="307.3" cy="286.1" r="5" stroke="#ffffff" stroke-width="1" fill="#dd8452"/>
<circle cx="319.2" cy="254.8" r="5" stroke="#ffffff" stroke-width="1" fill="#dd8452"/>
<circle cx="331.0" cy="221.7" r="5" stroke="#ffffff" stroke-width="1" fill="#dd8452"/>
<circle cx="342.9" cy="188.5" r="5" stroke="#ffffff" stroke-width="1" fill="#dd8452"/>
<circle cx="354.8" cy="156.5" r="5" stroke="#ffffff" stroke-width="1" fill="#dd8452"/>
<circle cx="366.6" cy="127.4" r="5" stroke="#ffffff" stroke-width="1" fill="#dd8452"/>
<circle cx="378.5" cy="102.3" r="5" stroke="#ffffff" stroke-width="1" fill="#dd8452"/>
<circle cx="390.3" cy="82.4" r="5" stroke="#ffffff" stroke-width="1" fill="#dd8452"/>
<circle cx="402.2" cy="68.6" r="5" stroke="#ffffff" stroke-width="1" fill="#dd8452"/>
<circle cx="414.1" cy="61.6" r="5" stroke="#ffffff" stroke-width="1" fill="#dd8452"/>
<circle cx="425.9" cy="61.6" r="5" stroke="#ffffff" stroke-width="1" fill="#dd8452"/>
<circle cx="437.8" cy="68.6" r="5" stroke="#ffffff" stroke-width="1" fill="#dd8452"/>
<circle cx="449.7" cy="82.4" r="5" stroke="#ffffff" stroke-width="1" fill="#dd8452"/>
<circle cx="461.5" cy="102.3" r="5" stroke="#ffffff" stroke-width="1" fill="#dd8452"/>
<circle cx="473.4" cy="127.4" r="5" stroke="#ffffff" stroke-width="1" fill="#dd8452"/>
<circle cx="485.3" cy="156.5" r="5" stroke="#ffffff" stroke-width="1" fill="#dd8452"/>
<circle cx="497.1" cy="188.5" r="5" stroke="#ffffff" stroke-width="1" fill="#dd8452"/>
<circle cx="509.0" cy="221.7" r="5" stroke="#ffffff" stroke-width="1" fill="#dd8452"/>
<circle cx="520.9" cy="254.8" r="5" stroke="#ffffff" stroke-width="1" fill="#dd8452"/>
<circle cx="532.7" cy="286.1" r="5" stroke="#ffffff" stroke-width="1" fill="#dd8452"/>
<circle cx="544.6" cy="314.4" r="5" stroke="#ffffff" stroke-width="1" fill="#dd8452"/>
<circle cx="556.4" cy="338.3" r="5" stroke="#ffffff" stroke-width="1" fill="#dd8452"/>
<circle cx="568.3" cy="356.7" r="5" stroke="#ffffff" stroke-width="1" fill="#dd8452"/>
<circle cx="580.2" cy="368.9" r="5" stroke="#ffffff" stroke-width="1" fill="#dd8452"/>
<circle cx="592.0" cy="374.2" r="5" stroke="#ffffff" stroke-width="1" fill="#dd8452"/>
<circle cx="603.9" cy="372.4" r="5" stroke="#ffffff" stroke-width="1" fill="#dd8452"/>
<circle cx="615.8" cy="363.6" r="5" stroke="#ffffff" stroke-width="1" fill="#dd8452"/>
<circle cx="627.6" cy="348.2" r="5" stroke="#ffffff" stroke-width="1" fill="#dd8452"/>
<circle cx="639.5" cy="327.0" r="5" stroke="#ffffff" stroke-width="1" fill="#dd8452"/>
<circle cx="651.4" cy="300.7" r="5" stroke="#ffffff" stroke-width="1" fill="#dd8452"/>
<circle cx="663.2" cy="270.7" r="5" stroke="#ffffff" stroke-width="1" fill="#dd8452"/>
<circle cx="675.1" cy="238.4" r="5" stroke="#ffffff" stroke-width="1" fill="#dd8452"/>
<circle cx="687.0" cy="205.0" r="5" stroke="#ffffff" stroke-width="1" fill="#dd8452"/>
<circle cx="698.8" cy="172.3" r="5" stroke="#ffffff" stroke-width="1" fill="#dd8452"/>
<circle cx="710.7" cy="141.5" r="5" stroke="#ffffff" stroke-width="1" fill="#dd8452"/>
<circle cx="722.5" cy="114.2" r="5" stroke="#ffffff" stroke-width="1" fill="#dd8452"/>
<circle cx="734.4" cy="91.6" r="5" stroke="#ffffff" stroke-width="1" fill="#dd8452"/>
<circle cx="746.3" cy="74.7" r="5" stroke="#ffffff" stroke-width="1" fill="#dd8452"/>
<circle cx="758.1" cy="64.2" r="5" stroke="#ffffff" stroke-width="1" fill="#dd8452"/>
<circle cx="770" cy="60.7" r="5" stroke="#ffffff" stroke-width="1" fill="#dd8452"/>
</g>
<line x1="70" y1="390" x2="770" y2="390" stroke="#5a5b7a" stroke-width="1" fill="none"/>
<line x1="70" y1="45" x2="70" y2="390" stroke="#5a5b7a" stroke-width="1" fill="none"/>
<line x1="70" y1="390" x2="70" y2="395" stroke="#5a5b7a" stroke-width="1" fill="none"/>
<text x="70" y="398" font-size="11" font-family="system-ui, -apple-system, BlinkMacSystemFont, 'Segoe UI', sans-serif" text-anchor="middle" dominant-baseline="hanging" fill="#c8cae8">0</text>
<line x1="181.4" y1="390" x2="181.4" y2="395" stroke="#5a5b7a" stroke-width="1" fill="none"/>
<text x="181.4" y="398" font-size="11" font-family="system-ui, -apple-system, BlinkMacSystemFont, 'Segoe UI', sans-serif" text-anchor="middle" dominant-baseline="hanging" fill="#c8cae8">2</text>
<line x1="292.8" y1="390" x2="292.8" y2="395" stroke="#5a5b7a" stroke-width="1" fill="none"/>
<text x="292.8" y="398" font-size="11" font-family="system-ui, -apple-system, BlinkMacSystemFont, 'Segoe UI', sans-serif" text-anchor="middle" dominant-baseline="hanging" fill="#c8cae8">4</text>
<line x1="404.2" y1="390" x2="404.2" y2="395" stroke="#5a5b7a" stroke-width="1" fill="none"/>
<text x="404.2" y="398" font-size="11" font-family="system-ui, -apple-system, BlinkMacSystemFont, 'Segoe UI', sans-serif" text-anchor="middle" dominant-baseline="hanging" fill="#c8cae8">6</text>
<line x1="515.6" y1="390" x2="515.6" y2="395" stroke="#5a5b7a" stroke-width="1" fill="none"/>
<text x="515.6" y="398" font-size="11" font-family="system-ui, -apple-system, BlinkMacSystemFont, 'Segoe UI', sans-serif" text-anchor="middle" dominant-baseline="hanging" fill="#c8cae8">8</text>
<line x1="627.0" y1="390" x2="627.0" y2="395" stroke="#5a5b7a" stroke-width="1" fill="none"/>
<text x="627.0" y="398" font-size="11" font-family="system-ui, -apple-system, BlinkMacSystemFont, 'Segoe UI', sans-serif" text-anchor="middle" dominant-baseline="hanging" fill="#c8cae8">10</text>
<line x1="738.5" y1="390" x2="738.5" y2="395" stroke="#5a5b7a" stroke-width="1" fill="none"/>
<text x="738.5" y="398" font-size="11" font-family="system-ui, -apple-system, BlinkMacSystemFont, 'Segoe UI', sans-serif" text-anchor="middle" dominant-baseline="hanging" fill="#c8cae8">12</text>
<line x1="65" y1="374.4" x2="70" y2="374.4" stroke="#5a5b7a" stroke-width="1" fill="none"/>
<text x="62" y="374.4" font-size="11" font-family="system-ui, -apple-system, BlinkMacSystemFont, 'Segoe UI', sans-serif" text-anchor="end" dominant-baseline="middle" fill="#c8cae8">-1.0</text>
<line x1="65" y1="335.2" x2="70" y2="335.2" stroke="#5a5b7a" stroke-width="1" fill="none"/>
<text x="62" y="335.2" font-size="11" font-family="system-ui, -apple-system, BlinkMacSystemFont, 'Segoe UI', sans-serif" text-anchor="end" dominant-baseline="middle" fill="#c8cae8">-0.8</text>
<line x1="65" y1="296.0" x2="70" y2="296.0" stroke="#5a5b7a" stroke-width="1" fill="none"/>
<text x="62" y="296.0" font-size="11" font-family="system-ui, -apple-system, BlinkMacSystemFont, 'Segoe UI', sans-serif" text-anchor="end" dominant-baseline="middle" fill="#c8cae8">-0.5</text>
<line x1="65" y1="256.7" x2="70" y2="256.7" stroke="#5a5b7a" stroke-width="1" fill="none"/>
<text x="62" y="256.7" font-size="11" font-family="system-ui, -apple-system, BlinkMacSystemFont, 'Segoe UI', sans-serif" text-anchor="end" dominant-baseline="middle" fill="#c8cae8">-0.2</text>
<line x1="65" y1="217.5" x2="70" y2="217.5" stroke="#5a5b7a" stroke-width="1" fill="none"/>
<text x="62" y="217.5" font-size="11" font-family="system-ui, -apple-system, BlinkMacSystemFont, 'Segoe UI', sans-serif" text-anchor="end" dominant-baseline="middle" fill="#c8cae8">0.0</text>
<line x1="65" y1="178.3" x2="70" y2="178.3" stroke="#5a5b7a" stroke-width="1" fill="none"/>
<text x="62" y="178.3" font-size="11" font-family="system-ui, -apple-system, BlinkMacSystemFont, 'Segoe UI', sans-serif" text-anchor="end" dominant-baseline="middle" fill="#c8cae8">0.2</text>
<line x1="65" y1="139.1" x2="70" y2="139.1" stroke="#5a5b7a" stroke-width="1" fill="none"/>
<text x="62" y="139.1" font-size="11" font-family="system-ui, -apple-system, BlinkMacSystemFont, 'Segoe UI', sans-serif" text-anchor="end" dominant-baseline="middle" fill="#c8cae8">0.5</text>
<line x1="65" y1="99.9" x2="70" y2="99.9" stroke="#5a5b7a" stroke-width="1" fill="none"/>
<text x="62" y="99.9" font-size="11" font-family="system-ui, -apple-system, BlinkMacSystemFont, 'Segoe UI', sans-serif" text-anchor="end" dominant-baseline="middle" fill="#c8cae8">0.8</text>
<line x1="65" y1="60.7" x2="70" y2="60.7" stroke="#5a5b7a" stroke-width="1" fill="none"/>
<text x="62" y="60.7" font-size="11" font-family="system-ui, -apple-system, BlinkMacSystemFont, 'Segoe UI', sans-serif" text-anchor="end" dominant-baseline="middle" fill="#c8cae8">1.0</text>
<rect x="670.4" y="55" width="89.6" height="64" rx="4" ry="4" stroke="#2e3050" stroke-width="0.8" fill="rgba(26,27,46,0.9)"/>
<line x1="680.4" y1="76" x2="700.4" y2="76" stroke="#4c72b0" stroke-width="2.5" fill="none" stroke-linecap="round"/>
<circle cx="690.4" cy="76" r="3" stroke="none" fill="#4c72b0"/>
<text x="704.4" y="76" font-size="12" font-family="system-ui, -apple-system, BlinkMacSystemFont, 'Segoe UI', sans-serif" text-anchor="start" dominant-baseline="middle" fill="#c8cae8">sin(x)</text>
<line x1="680.4" y1="98" x2="700.4" y2="98" stroke="#dd8452" stroke-width="2.5" fill="none" stroke-linecap="round"/>
<circle cx="690.4" cy="98" r="3" stroke="none" fill="#dd8452"/>
<text x="704.4" y="98" font-size="12" font-family="system-ui, -apple-system, BlinkMacSystemFont, 'Segoe UI', sans-serif" text-anchor="start" dominant-baseline="middle" fill="#c8cae8">cos(x)</text>
</svg>
