<svg xmlns="http://www.w3.org/2000/svg" width="800" height="450">
<defs>
<clipPath id="axes-clip-1"><rect x="70" y="45" width="700" height="345"/></clipPath>
</defs>
<rect x="0" y="0" width="800" height="450" stroke="none" fill="#ffffff"/>
<rect x="70" y="45" width="700" height="345" stroke="none" fill="#f7f7f7"/>
<g clip-path="url(#axes-clip-1)">
<line x1="70" y1="390" x2="770" y2="390" stroke="#e5e5e5" stroke-width="0.8" fill="none"/>
<line x1="70" y1="313.6" x2="770" y2="313.6" stroke="#e5e5e5" stroke-width="0.8" fill="none"/>
<line x1="70" y1="237.3" x2="770" y2="237.3" stroke="#e5e5e5" stroke-width="0.8" fill="none"/>
<line x1="70" y1="160.9" x2="770" y2="160.9" stroke="#e5e5e5" stroke-width="0.8" fill="none"/>
<line x1="70" y1="84.5" x2="770" y2="84.5" stroke="#e5e5e5" stroke-width="0.8" fill="none"/>
</g>
<g clip-path="url(#axes-clip-1)">
<line x1="70" y1="45" x2="70" y2="390" stroke="#e5e5e5" stroke-width="0.8" fill="none"/>
<line x1="225.6" y1="45" x2="225.6" y2="390" stroke="#e5e5e5" stroke-width="0.8" fill="none"/>
<line x1="381.1" y1="45" x2="381.1" y2="390" stroke="#e5e5e5" stroke-width="0.8" fill="none"/>
<line x1="536.7" y1="45" x2="536.7" y2="390" stroke="#e5e5e5" stroke-width="0.8" fill="none"/>
<line x1="692.2" y1="45" x2="692.2" y2="390" stroke="#e5e5e5" stroke-width="0.8" fill="none"/>
</g>
<g clip-path="url(#axes-clip-1)">
<circle cx="70" cy="390" r="6" stroke="rgba(255,255,255,0.8)" stroke-width="1.2" fill="#4c72b0"/>
<circle cx="147.8" cy="351.8" r="6" stroke="rgba(255,255,255,0.8)" stroke-width="1.2" fill="#4c72b0"/>
<circle cx="225.6" cy="313.6" r="6" stroke="rgba(255,255,255,0.8)" stroke-width="1.2" fill="#4c72b0"/>
<circle cx="303.3" cy="275.5" r="6" stroke="rgba(255,255,255,0.8)" stroke-width="1.2" fill="#4c72b0"/>
<circle cx="381.1" cy="237.3" r="6" stroke="rgba(255,255,255,0.8)" stroke-width="1.2" fill="#4c72b0"/>
<circle cx="458.9" cy="199.1" r="6" stroke="rgba(255,255,255,0.8)" stroke-width="1.2" fill="#4c72b0"/>
<circle cx="536.7" cy="160.9" r="6" stroke="rgba(255,255,255,0.8)" stroke-width="1.2" fill="#4c72b0"/>
<circle cx="614.4" cy="122.7" r="6" stroke="rgba(255,255,255,0.8)" stroke-width="1.2" fill="#4c72b0"/>
<circle cx="692.2" cy="84.5" r="6" stroke="rgba(255,255,255,0.8)" stroke-width="1.2" fill="#4c72b0"/>
<circle cx="770" cy="46.3" r="6" stroke="rgba(255,255,255,0.8)" stroke-width="1.2" fill="#4c72b0"/>
</g>
<line x1="70" y1="390" x2="770" y2="390" stroke="#888888" stroke-width="1.2" fill="none"/>
<line x1="70" y1="45" x2="70" y2="390" stroke="#888888" stroke-width="1.2" fill="none"/>
<line x1="70" y1="390" x2="70" y2="395" stroke="#888888" stroke-width="1" fill="none"/>
<text x="70" y="398" font-size="11" font-family="system-ui, -apple-system, BlinkMacSystemFont, 'Segoe UI', sans-serif" text-anchor="middle" dominant-baseline="hanging" fill="#333333">1</text>
<line x1="225.6" y1="390" x2="225.6" y2="395" stroke="#888888" stroke-width="1" fill="none"/>
<text x="225.6" y="398" font-size="11" font-family="system-ui, -apple-system, BlinkMacSystemFont, 'Segoe UI', sans-serif" text-anchor="middle" dominant-baseline="hanging" fill="#333333">4</text>
<line x1="381.1" y1="390" x2="381.1" y2="395" stroke="#888888" stroke-width="1" fill="none"/>
<text x="381.1" y="398" font-size="11" font-family="system-ui, -apple-system, BlinkMacSystemFont, 'Segoe UI', sans-serif" text-anchor="middle" dominant-baseline="hanging" fill="#333333">16</text>
<line x1="536.7" y1="390" x2="536.7" y2="395" stroke="#888888" stroke-width="1" fill="none"/>
<text x="536.7" y="398" font-size="11" font-family="system-ui, -apple-system, BlinkMacSystemFont, 'Segoe UI', sans-serif" text-anchor="middle" dominant-baseline="hanging" fill="#333333">64</text>
<line x1="692.2" y1="390" x2="692.2" y2="395" stroke="#888888" stroke-width="1" fill="none"/>
<text x="692.2" y="398" font-size="11" font-family="system-ui, -apple-system, BlinkMacSystemFont, 'Segoe UI', sans-serif" text-anchor="middle" dominant-baseline="hanging" fill="#333333">256</text>
<line x1="65" y1="390" x2="70" y2="390" stroke="#888888" stroke-width="1" fill="none"/>
<text x="62" y="390" font-size="11" font-family="system-ui, -apple-system, BlinkMacSystemFont, 'Segoe UI', sans-serif" text-anchor="end" dominant-baseline="middle" fill="#333333">1</text>
<line x1="65" y1="313.6" x2="70" y2="313.6" stroke="#888888" stroke-width="1" fill="none"/>
<text x="62" y="313.6" font-size="11" font-family="system-ui, -apple-system, BlinkMacSystemFont, 'Segoe UI', sans-serif" text-anchor="end" dominant-baseline="middle" fill="#333333">16</text>
<line x1="65" y1="237.3" x2="70" y2="237.3" stroke="#888888" stroke-width="1" fill="none"/>
<text x="62" y="237.3" font-size="11" font-family="system-ui, -apple-system, BlinkMacSystemFont, 'Segoe UI', sans-serif" text-anchor="end" dominant-baseline="middle" fill="#333333">256</text>
<line x1="65" y1="160.9" x2="70" y2="160.9" stroke="#888888" stroke-width="1" fill="none"/>
<text x="62" y="160.9" font-size="11" font-family="system-ui, -apple-system, BlinkMacSystemFont, 'Segoe UI', sans-serif" text-anchor="end" dominant-baseline="middle" fill="#333333">4.1k</text>
<line x1="65" y1="84.5" x2="70" y2="84.5" stroke="#888888" stroke-width="1" fill="none"/>
<text x="62" y="84.5" font-size="11" font-family="system-ui, -apple-system, BlinkMacSystemFont, 'Segoe UI', sans-serif" text-anchor="end" dominant-baseline="middle" fill="#333333">65.5k</text>
<text x="420" y="420" font-size="12" font-family="system-ui, -apple-system, BlinkMacSystemFont, 'Segoe UI', sans-serif" text-anchor="middle" dominant-baseline="hanging" fill="#333333">x (log₂)</text>
<text x="22" y="217.5" transform="rotate(-90,22,217.5)" font-size="12" font-family="system-ui, -apple-system, BlinkMacSystemFont, 'Segoe UI', sans-serif" text-anchor="middle" dominant-baseline="middle" fill="#333333">y (log₂)</text>
<rect x="663.8" y="55" width="96.2" height="42" rx="4" ry="4" stroke="#e5e5e5" stroke-width="0.8" fill="rgba(255,255,255,0.9)"/>
<line x1="673.8" y1="76" x2="693.8" y2="76" stroke="#4c72b0" stroke-width="2.5" fill="none" stroke-linecap="round"/>
<circle cx="683.8" cy="76" r="3" stroke="none" fill="#4c72b0"/>
<text x="697.8" y="76" font-size="12" font-family="system-ui, -apple-system, BlinkMacSystemFont, 'Segoe UI', sans-serif" text-anchor="start" dominant-baseline="middle" fill="#333333">y = x²</text>
</svg>
