<svg xmlns="http://www.w3.org/2000/svg" width="600" height="500">
<rect x="0" y="0" width="600" height="500" stroke="none" fill="#ffffff"/>
<path d="M300 264 L300 58 C397.3 58 481.3 126.0 501.5 221.2 C521.7 316.3 472.6 412.6 383.8 452.2 C294.9 491.8 190.5 463.8 133.3 385.1 Z" stroke="#ffffff" stroke-width="1.5" fill="#4c72b0"/>
<path d="M300 264 L133.3 385.1 C83.7 316.7 80.8 225.0 126.1 153.6 Z" stroke="#ffffff" stroke-width="1.5" fill="#dd8452"/>
<path d="M300 264 L126.1 153.6 C135.3 139.0 146.4 125.7 159.0 113.8 Z" stroke="#ffffff" stroke-width="1.5" fill="#55a868"/>
<path d="M300 264 L159.0 113.8 C171.6 102 185.6 91.8 200.8 83.5 Z" stroke="#ffffff" stroke-width="1.5" fill="#c44e52"/>
<path d="M300 264 L200.8 83.5 C231.2 66.8 265.3 58 300 58 Z" stroke="#ffffff" stroke-width="1.5" fill="#8172b3"/>
<line x1="488.9" y1="360.3" x2="499.6" y2="365.7" stroke="#333333" stroke-width="0.8" fill="none"/>
<text x="503.6" y="365.7" font-size="11" font-family="system-ui, -apple-system, BlinkMacSystemFont, 'Segoe UI', sans-serif" text-anchor="start" dominant-baseline="middle" fill="#333333">Chrome 65%</text>
<line x1="88.1" y1="270.7" x2="76.1" y2="271.0" stroke="#333333" stroke-width="0.8" fill="none"/>
<text x="72.1" y="271.0" font-size="11" font-family="system-ui, -apple-system, BlinkMacSystemFont, 'Segoe UI', sans-serif" text-anchor="end" dominant-baseline="middle" fill="#333333">Safari 19%</text>
<line x1="247.3" y1="58.7" x2="244.3" y2="47.0" stroke="#333333" stroke-width="0.8" fill="none"/>
<text x="240.3" y="47.0" font-size="11" font-family="system-ui, -apple-system, BlinkMacSystemFont, 'Segoe UI', sans-serif" text-anchor="end" dominant-baseline="middle" fill="#333333">Other 8%</text>
<text x="300" y="14" font-size="16" font-family="system-ui, -apple-system, BlinkMacSystemFont, 'Segoe UI', sans-serif" font-weight="bold" text-anchor="middle" dominant-baseline="middle" fill="#1a1a1a">Browser Market Share</text>
</svg>
