<svg xmlns="http://www.w3.org/2000/svg" width="800" height="450">
<defs>
<clipPath id="axes-clip-1"><rect x="70" y="45" width="700" height="345"/></clipPath>
</defs>
<rect x="0" y="0" width="800" height="450" stroke="none" fill="#1a1b2e"/>
<rect x="70" y="45" width="700" height="345" stroke="none" fill="#22233a"/>
<g clip-path="url(#axes-clip-1)">
<line x1="70" y1="367.9" x2="770" y2="367.9" stroke="#2e3050" stroke-width="0.8" fill="none"/>
<line x1="70" y1="323.9" x2="770" y2="323.9" stroke="#2e3050" stroke-width="0.8" fill="none"/>
<line x1="70" y1="280.0" x2="770" y2="280.0" stroke="#2e3050" stroke-width="0.8" fill="none"/>
<line x1="70" y1="236.0" x2="770" y2="236.0" stroke="#2e3050" stroke-width="0.8" fill="none"/>
<line x1="70" y1="192.0" x2="770" y2="192.0" stroke="#2e3050" stroke-width="0.8" fill="none"/>
<line x1="70" y1="148.1" x2="770" y2="148.1" stroke="#2e3050" stroke-width="0.8" fill="none"/>
<line x1="70" y1="104.1" x2="770" y2="104.1" stroke="#2e3050" stroke-width="0.8" fill="none"/>
<line x1="70" y1="60.1" x2="770" y2="60.1" stroke="#2e3050" stroke-width="0.8" fill="none"/>
</g>
<g clip-path="url(#axes-clip-1)">
<line x1="70" y1="45" x2="70" y2="390" stroke="#2e3050" stroke-width="0.8" fill="none"/>
<line x1="156.5" y1="45" x2="156.5" y2="390" stroke="#2e3050" stroke-width="0.8" fill="none"/>
<line x1="243.0" y1="45" x2="243.0" y2="390" stroke="#2e3050" stroke-width="0.8" fill="none"/>
<line x1="329.5" y1="45" x2="329.5" y2="390" stroke="#2e3050" stroke-width="0.8" fill="none"/>
<line x1="416.0" y1="45" x2="416.0" y2="390" stroke="#2e3050" stroke-width="0.8" fill="none"/>
<line x1="502.4" y1="45" x2="502.4" y2="390" stroke="#2e3050" stroke-width="0.8" fill="none"/>
<line x1="588.9" y1="45" x2="588.9" y2="390" stroke="#2e3050" stroke-width="0.8" fill="none"/>
<line x1="675.4" y1="45" x2="675.4" y2="390" stroke="#2e3050" stroke-width="0.8" fill="none"/>
<line x1="761.9" y1="45" x2="761.9" y2="390" stroke="#2e3050" stroke-width="0.8" fill="none"/>
</g>
<g clip-path="url(#axes-clip-1)">
<path d="M70 236.0 L106.8 236.0 L106.8 198.8 L143.7 198.8 L143.7 163.3 L180.5 163.3 L180.5 131.1 L217.4 131.1 L217.4 103.6 L254.2 103.6 L254.2 82.2 L291.1 82.2 L291.1 67.6 L327.9 67.6 L327.9 60.7 L364.7 60.7 L364.7 61.7 L401.6 61.7 L401.6 70.6 L438.4 70.6 L438.4 86.9 L475.3 86.9 L475.3 110.0 L512.1 110.0 L512.1 138.8 L549.0 138.8 L549.0 171.9 L585.8 171.9 L585.8 208.0 L622.6 208.0 L622.6 245.4 L659.5 245.4 L659.5 282.3 L696.3 282.3 L696.3 317.1 L733.2 317.1 L733.2 348.2 L770 348.2 L770 374.3 L770 236.0 L70 236.0 Z" stroke="none" fill="rgba(76,114,176,0.2)"/>
<path d="M70 236.0 L106.8 236.0 L106.8 198.8 L143.7 198.8 L143.7 163.3 L180.5 163.3 L180.5 131.1 L217.4 131.1 L217.4 103.6 L254.2 103.6 L254.2 82.2 L291.1 82.2 L291.1 67.6 L327.9 67.6 L327.9 60.7 L364.7 60.7 L364.7 61.7 L401.6 61.7 L401.6 70.6 L438.4 70.6 L438.4 86.9 L475.3 86.9 L475.3 110.0 L512.1 110.0 L512.1 138.8 L549.0 138.8 L549.0 171.9 L585.8 171.9 L585.8 208.0 L622.6 208.0 L622.6 245.4 L659.5 245.4 L659.5 282.3 L696.3 282.3 L696.3 317.1 L733.2 317.1 L733.2 348.2 L770 348.2 L770 374.3" stroke="#4c72b0" stroke-width="2.5" fill="none" stroke-linecap="round" stroke-linejoin="miter"/>
</g>
<line x1="70" y1="390" x2="770" y2="390" stroke="#5a5b7a" stroke-width="1" fill="none"/>
<line x1="70" y1="45" x2="70" y2="390" stroke="#5a5b7a" stroke-width="1" fill="none"/>
<line x1="70" y1="390" x2="70" y2="395" stroke="#5a5b7a" stroke-width="1" fill="none"/>
<text x="70" y="398" font-size="11" font-family="system-ui, -apple-system, BlinkMacSystemFont, 'Segoe UI', sans-serif" text-anchor="middle" dominant-baseline="hanging" fill="#c8cae8">0.0</text>
<line x1="156.5" y1="390" x2="156.5" y2="395" stroke="#5a5b7a" stroke-width="1" fill="none"/>
<text x="156.5" y="398" font-size="11" font-family="system-ui, -apple-system, BlinkMacSystemFont, 'Segoe UI', sans-serif" text-anchor="middle" dominant-baseline="hanging" fill="#c8cae8">0.5</text>
<line x1="243.0" y1="390" x2="243.0" y2="395" stroke="#5a5b7a" stroke-width="1" fill="none"/>
<text x="243.0" y="398" font-size="11" font-family="system-ui, -apple-system, BlinkMacSystemFont, 'Segoe UI', sans-serif" text-anchor="middle" dominant-baseline="hanging" fill="#c8cae8">1.0</text>
<line x1="329.5" y1="390" x2="329.5" y2="395" stroke="#5a5b7a" stroke-width="1" fill="none"/>
<text x="329.5" y="398" font-size="11" font-family="system-ui, -apple-system, BlinkMacSystemFont, 'Segoe UI', sans-serif" text-anchor="middle" dominant-baseline="hanging" fill="#c8cae8">1.5</text>
<line x1="416.0" y1="390" x2="416.0" y2="395" stroke="#5a5b7a" stroke-width="1" fill="none"/>
<text x="416.0" y="398" font-size="11" font-family="system-ui, -apple-system, BlinkMacSystemFont, 'Segoe UI', sans-serif" text-anchor="middle" dominant-baseline="hanging" fill="#c8cae8">2.0</text>
<line x1="502.4" y1="390" x2="502.4" y2="395" stroke="#5a5b7a" stroke-width="1" fill="none"/>
<text x="502.4" y="398" font-size="11" font-family="system-ui, -apple-system, BlinkMacSystemFont, 'Segoe UI', sans-serif" text-anchor="middle" dominant-baseline="hanging" fill="#c8cae8">2.5</text>
<line x1="588.9" y1="390" x2="588.9" y2="395" stroke="#5a5b7a" stroke-width="1" fill="none"/>
<text x="588.9" y="398" font-size="11" font-family="system-ui, -apple-system, BlinkMacSystemFont, 'Segoe UI', sans-serif" text-anchor="middle" dominant-baseline="hanging" fill="#c8cae8">3.0</text>
<line x1="675.4" y1="390" x2="675.4" y2="395" stroke="#5a5b7a" stroke-width="1" fill="none"/>
<text x="675.4" y="398" font-size="11" font-family="system-ui, -apple-system, BlinkMacSystemFont, 'Segoe UI', sans-serif" text-anchor="middle" dominant-baseline="hanging" fill="#c8cae8">3.5</text>
<line x1="761.9" y1="390" x2="761.9" y2="395" stroke="#5a5b7a" stroke-width="1" fill="none"/>
<text x="761.9" y="398" font-size="11" font-family="system-ui, -apple-system, BlinkMacSystemFont, 'Segoe UI', sans-serif" text-anchor="middle" dominant-baseline="hanging" fill="#c8cae8">4.0</text>
<line x1="65" y1="367.9" x2="70" y2="367.9" stroke="#5a5b7a" stroke-width="1" fill="none"/>
<text x="62" y="367.9" font-size="11" font-family="system-ui, -apple-system, BlinkMacSystemFont, 'Segoe UI', sans-serif" text-anchor="end" dominant-baseline="middle" fill="#c8cae8">-0.8</text>
<line x1="65" y1="323.9" x2="70" y2="323.9" stroke="#5a5b7a" stroke-width="1" fill="none"/>
<text x="62" y="323.9" font-size="11" font-family="system-ui, -apple-system, BlinkMacSystemFont, 'Segoe UI', sans-serif" text-anchor="end" dominant-baseline="middle" fill="#c8cae8">-0.5</text>
<line x1="65" y1="280.0" x2="70" y2="280.0" stroke="#5a5b7a" stroke-width="1" fill="none"/>
<text x="62" y="280.0" font-size="11" font-family="system-ui, -apple-system, BlinkMacSystemFont, 'Segoe UI', sans-serif" text-anchor="end" dominant-baseline="middle" fill="#c8cae8">-0.2</text>
<line x1="65" y1="236.0" x2="70" y2="236.0" stroke="#5a5b7a" stroke-width="1" fill="none"/>
<text x="62" y="236.0" font-size="11" font-family="system-ui, -apple-system, BlinkMacSystemFont, 'Segoe UI', sans-serif" text-anchor="end" dominant-baseline="middle" fill="#c8cae8">0.0</text>
<line x1="65" y1="192.0" x2="70" y2="192.0" stroke="#5a5b7a" stroke-width="1" fill="none"/>
<text x="62" y="192.0" font-size="11" font-family="system-ui, -apple-system, BlinkMacSystemFont, 'Segoe UI', sans-serif" text-anchor="end" dominant-baseline="middle" fill="#c8cae8">0.2</text>
<line x1="65" y1="148.1" x2="70" y2="148.1" stroke="#5a5b7a" stroke-width="1" fill="none"/>
<text x="62" y="148.1" font-size="11" font-family="system-ui, -apple-system, BlinkMacSystemFont, 'Segoe UI', sans-serif" text-anchor="end" dominant-baseline="middle" fill="#c8cae8">0.5</text>
<line x1="65" y1="104.1" x2="70" y2="104.1" stroke="#5a5b7a" stroke-width="1" fill="none"/>
<text x="62" y="104.1" font-size="11" font-family="system-ui, -apple-system, BlinkMacSystemFont, 'Segoe UI', sans-serif" text-anchor="end" dominant-baseline="middle" fill="#c8cae8">0.8</text>
<line x1="65" y1="60.1" x2="70" y2="60.1" stroke="#5a5b7a" stroke-width="1" fill="none"/>
<text x="62" y="60.1" font-size="11" font-family="system-ui, -apple-system, BlinkMacSystemFont, 'Segoe UI', sans-serif" text-anchor="end" dominant-baseline="middle" fill="#c8cae8">1.0</text>
<text x="420" y="30" font-size="16" font-family="system-ui, -apple-system, BlinkMacSystemFont, 'Segoe UI', sans-serif" font-weight="bold" text-anchor="middle" dominant-baseline="auto" fill="#e0e2ff">Step — Dark Theme</text>
<rect x="670.4" y="55" width="89.6" height="42" rx="4" ry="4" stroke="#2e3050" stroke-width="0.8" fill="rgba(26,27,46,0.9)"/>
<line x1="680.4" y1="76" x2="700.4" y2="76" stroke="#4c72b0" stroke-width="2.5" fill="none" stroke-linecap="round"/>
<circle cx="690.4" cy="76" r="3" stroke="none" fill="#4c72b0"/>
<text x="704.4" y="76" font-size="12" font-family="system-ui, -apple-system, BlinkMacSystemFont, 'Segoe UI', sans-serif" text-anchor="start" dominant-baseline="middle" fill="#c8cae8">signal</text>
</svg>
