<svg xmlns="http://www.w3.org/2000/svg" width="1000" height="420">
<defs>
<clipPath id="axes-clip-1"><rect x="70" y="45" width="395" height="315"/></clipPath>
<clipPath id="axes-clip-2"><rect x="575" y="45" width="395" height="315"/></clipPath>
</defs>
<rect x="0" y="0" width="1000" height="420" stroke="none" fill="#ffffff"/>
<rect x="70" y="45" width="395" height="315" stroke="none" fill="#f7f7f7"/>
<g clip-path="url(#axes-clip-1)">
<line x1="70" y1="345.7" x2="465" y2="345.7" stroke="#e5e5e5" stroke-width="0.8" fill="none"/>
<line x1="70" y1="309.9" x2="465" y2="309.9" stroke="#e5e5e5" stroke-width="0.8" fill="none"/>
<line x1="70" y1="274.1" x2="465" y2="274.1" stroke="#e5e5e5" stroke-width="0.8" fill="none"/>
<line x1="70" y1="238.3" x2="465" y2="238.3" stroke="#e5e5e5" stroke-width="0.8" fill="none"/>
<line x1="70" y1="202.5" x2="465" y2="202.5" stroke="#e5e5e5" stroke-width="0.8" fill="none"/>
<line x1="70" y1="166.7" x2="465" y2="166.7" stroke="#e5e5e5" stroke-width="0.8" fill="none"/>
<line x1="70" y1="130.9" x2="465" y2="130.9" stroke="#e5e5e5" stroke-width="0.8" fill="none"/>
<line x1="70" y1="95.1" x2="465" y2="95.1" stroke="#e5e5e5" stroke-width="0.8" fill="none"/>
<line x1="70" y1="59.3" x2="465" y2="59.3" stroke="#e5e5e5" stroke-width="0.8" fill="none"/>
</g>
<g clip-path="url(#axes-clip-1)">
<line x1="70" y1="45" x2="70" y2="360" stroke="#e5e5e5" stroke-width="0.8" fill="none"/>
<line x1="132.9" y1="45" x2="132.9" y2="360" stroke="#e5e5e5" stroke-width="0.8" fill="none"/>
<line x1="195.7" y1="45" x2="195.7" y2="360" stroke="#e5e5e5" stroke-width="0.8" fill="none"/>
<line x1="258.6" y1="45" x2="258.6" y2="360" stroke="#e5e5e5" stroke-width="0.8" fill="none"/>
<line x1="321.5" y1="45" x2="321.5" y2="360" stroke="#e5e5e5" stroke-width="0.8" fill="none"/>
<line x1="384.3" y1="45" x2="384.3" y2="360" stroke="#e5e5e5" stroke-width="0.8" fill="none"/>
<line x1="447.2" y1="45" x2="447.2" y2="360" stroke="#e5e5e5" stroke-width="0.8" fill="none"/>
</g>
<g clip-path="url(#axes-clip-1)">
<path d="M70 202.5 C71.1 197.5 74.5 182.1 76.7 172.2 C78.9 162.4 81.2 152.5 83.4 143.3 C85.6 134.1 87.9 125.2 90.1 117.1 C92.3 109.0 94.6 101.4 96.8 94.7 C99.0 88.1 101.2 82.1 103.5 77.2 C105.7 72.3 107.9 68.3 110.2 65.4 C112.4 62.5 114.6 60.5 116.9 59.7 C119.1 58.9 121.3 59.2 123.6 60.5 C125.8 61.9 128.0 64.3 130.3 67.8 C132.5 71.2 134.7 75.7 137.0 81.1 C139.2 86.4 141.4 92.8 143.6 99.9 C145.9 106.9 148.1 114.9 150.3 123.3 C152.6 131.7 154.8 140.9 157.0 150.3 C159.3 159.7 161.5 169.8 163.7 179.7 C166.0 189.7 168.2 200.1 170.4 210.1 C172.7 220.2 174.9 230.5 177.1 240.2 C179.4 249.9 181.6 259.6 183.8 268.5 C186.1 277.5 188.3 286.2 190.5 293.9 C192.7 301.7 195.0 308.9 197.2 315.2 C199.4 321.4 201.7 326.9 203.9 331.3 C206.1 335.7 208.4 339.3 210.6 341.6 C212.8 344.0 215.1 345.4 217.3 345.7 C219.5 346.0 221.8 345.1 224.0 343.3 C226.2 341.4 228.5 338.4 230.7 334.5 C232.9 330.5 235.1 325.5 237.4 319.7 C239.6 313.9 241.8 307.1 244.1 299.7 C246.3 292.2 248.5 283.9 250.8 275.2 C253.0 266.5 255.2 257.1 257.5 247.5 C259.7 237.9 261.9 227.8 264.2 217.7 C266.4 207.7 268.6 197.3 270.9 187.3 C273.1 177.2 275.3 167.1 277.5 157.5 C279.8 147.9 282.0 138.5 284.2 129.8 C286.5 121.1 288.7 112.8 290.9 105.3 C293.2 97.9 295.4 91.1 297.6 85.3 C299.9 79.5 302.1 74.5 304.3 70.5 C306.6 66.6 308.8 63.6 311.0 61.8 C313.3 59.9 315.5 59.1 317.7 59.3 C319.9 59.6 322.2 61.0 324.4 63.4 C326.6 65.8 328.9 69.3 331.1 73.7 C333.3 78.1 335.6 83.6 337.8 89.8 C340.0 96.1 342.3 103.3 344.5 111.1 C346.7 118.9 349.0 127.5 351.2 136.5 C353.4 145.4 355.7 155.1 357.9 164.8 C360.1 174.6 362.3 184.8 364.6 194.9 C366.8 205.0 369.0 215.3 371.3 225.3 C373.5 235.3 375.7 245.3 378.0 254.7 C380.2 264.1 382.4 273.3 384.7 281.7 C386.9 290.1 389.1 298.1 391.4 305.1 C393.6 312.2 395.8 318.6 398.1 323.9 C400.3 329.3 402.5 333.8 404.8 337.2 C407.0 340.7 409.2 343.1 411.4 344.5 C413.7 345.8 415.9 346.1 418.1 345.3 C420.4 344.5 422.6 342.6 424.8 339.6 C427.1 336.7 429.3 332.7 431.5 327.8 C433.8 322.9 436.0 316.9 438.2 310.3 C440.5 303.7 442.7 296.0 444.9 287.9 C447.2 279.8 449.4 270.9 451.6 261.7 C453.8 252.5 456.1 242.6 458.3 232.8 C460.5 222.9 463.9 207.6 465 202.5" stroke="#4c72b0" stroke-width="2.5" fill="none" stroke-linecap="round" stroke-linejoin="round"/>
<circle cx="70" cy="202.5" r="5" stroke="#ffffff" stroke-width="1" fill="#4c72b0"/>
<circle cx="76.7" cy="172.2" r="5" stroke="#ffffff" stroke-width="1" fill="#4c72b0"/>
<circle cx="83.4" cy="143.3" r="5" stroke="#ffffff" stroke-width="1" fill="#4c72b0"/>
<circle cx="90.1" cy="117.1" r="5" stroke="#ffffff" stroke-width="1" fill="#4c72b0"/>
<circle cx="96.8" cy="94.7" r="5" stroke="#ffffff" stroke-width="1" fill="#4c72b0"/>
<circle cx="103.5" cy="77.2" r="5" stroke="#ffffff" stroke-width="1" fill="#4c72b0"/>
<circle cx="110.2" cy="65.4" r="5" stroke="#ffffff" stroke-width="1" fill="#4c72b0"/>
<circle cx="116.9" cy="59.7" r="5" stroke="#ffffff" stroke-width="1" fill="#4c72b0"/>
<circle cx="123.6" cy="60.5" r="5" stroke="#ffffff" stroke-width="1" fill="#4c72b0"/>
<circle cx="130.3" cy="67.8" r="5" stroke="#ffffff" stroke-width="1" fill="#4c72b0"/>
<circle cx="137.0" cy="81.1" r="5" stroke="#ffffff" stroke-width="1" fill="#4c72b0"/>
<circle cx="143.6" cy="99.9" r="5" stroke="#ffffff" stroke-width="1" fill="#4c72b0"/>
<circle cx="150.3" cy="123.3" r="5" stroke="#ffffff" stroke-width="1" fill="#4c72b0"/>
<circle cx="157.0" cy="150.3" r="5" stroke="#ffffff" stroke-width="1" fill="#4c72b0"/>
<circle cx="163.7" cy="179.7" r="5" stroke="#ffffff" stroke-width="1" fill="#4c72b0"/>
<circle cx="170.4" cy="210.1" r="5" stroke="#ffffff" stroke-width="1" fill="#4c72b0"/>
<circle cx="177.1" cy="240.2" r="5" stroke="#ffffff" stroke-width="1" fill="#4c72b0"/>
<circle cx="183.8" cy="268.5" r="5" stroke="#ffffff" stroke-width="1" fill="#4c72b0"/>
<circle cx="190.5" cy="293.9" r="5" stroke="#ffffff" stroke-width="1" fill="#4c72b0"/>
<circle cx="197.2" cy="315.2" r="5" stroke="#ffffff" stroke-width="1" fill="#4c72b0"/>
<circle cx="203.9" cy="331.3" r="5" stroke="#ffffff" stroke-width="1" fill="#4c72b0"/>
<circle cx="210.6" cy="341.6" r="5" stroke="#ffffff" stroke-width="1" fill="#4c72b0"/>
<circle cx="217.3" cy="345.7" r="5" stroke="#ffffff" stroke-width="1" fill="#4c72b0"/>
<circle cx="224.0" cy="343.3" r="5" stroke="#ffffff" stroke-width="1" fill="#4c72b0"/>
<circle cx="230.7" cy="334.5" r="5" stroke="#ffffff" stroke-width="1" fill="#4c72b0"/>
<circle cx="237.4" cy="319.7" r="5" stroke="#ffffff" stroke-width="1" fill="#4c72b0"/>
<circle cx="244.1" cy="299.7" r="5" stroke="#ffffff" stroke-width="1" fill="#4c72b0"/>
<circle cx="250.8" cy="275.2" r="5" stroke="#ffffff" stroke-width="1" fill="#4c72b0"/>
<circle cx="257.5" cy="247.5" r="5" stroke="#ffffff" stroke-width="1" fill="#4c72b0"/>
<circle cx="264.2" cy="217.7" r="5" stroke="#ffffff" stroke-width="1" fill="#4c72b0"/>
<circle cx="270.9" cy="187.3" r="5" stroke="#ffffff" stroke-width="1" fill="#4c72b0"/>
<circle cx="277.5" cy="157.5" r="5" stroke="#ffffff" stroke-width="1" fill="#4c72b0"/>
<circle cx="284.2" cy="129.8" r="5" stroke="#ffffff" stroke-width="1" fill="#4c72b0"/>
<circle cx="290.9" cy="105.3" r="5" stroke="#ffffff" stroke-width="1" fill="#4c72b0"/>
<circle cx="297.6" cy="85.3" r="5" stroke="#ffffff" stroke-width="1" fill="#4c72b0"/>
<circle cx="304.3" cy="70.5" r="5" stroke="#ffffff" stroke-width="1" fill="#4c72b0"/>
<circle cx="311.0" cy="61.8" r="5" stroke="#ffffff" stroke-width="1" fill="#4c72b0"/>
<circle cx="317.7" cy="59.3" r="5" stroke="#ffffff" stroke-width="1" fill="#4c72b0"/>
<circle cx="324.4" cy="63.4" r="5" stroke="#ffffff" stroke-width="1" fill="#4c72b0"/>
<circle cx="331.1" cy="73.7" r="5" stroke="#ffffff" stroke-width="1" fill="#4c72b0"/>
<circle cx="337.8" cy="89.8" r="5" stroke="#ffffff" stroke-width="1" fill="#4c72b0"/>
<circle cx="344.5" cy="111.1" r="5" stroke="#ffffff" stroke-width="1" fill="#4c72b0"/>
<circle cx="351.2" cy="136.5" r="5" stroke="#ffffff" stroke-width="1" fill="#4c72b0"/>
<circle cx="357.9" cy="164.8" r="5" stroke="#ffffff" stroke-width="1" fill="#4c72b0"/>
<circle cx="364.6" cy="194.9" r="5" stroke="#ffffff" stroke-width="1" fill="#4c72b0"/>
<circle cx="371.3" cy="225.3" r="5" stroke="#ffffff" stroke-width="1" fill="#4c72b0"/>
<circle cx="378.0" cy="254.7" r="5" stroke="#ffffff" stroke-width="1" fill="#4c72b0"/>
<circle cx="384.7" cy="281.7" r="5" stroke="#ffffff" stroke-width="1" fill="#4c72b0"/>
<circle cx="391.4" cy="305.1" r="5" stroke="#ffffff" stroke-width="1" fill="#4c72b0"/>
<circle cx="398.1" cy="323.9" r="5" stroke="#ffffff" stroke-width="1" fill="#4c72b0"/>
<circle cx="404.8" cy="337.2" r="5" stroke="#ffffff" stroke-width="1" fill="#4c72b0"/>
<circle cx="411.4" cy="344.5" r="5" stroke="#ffffff" stroke-width="1" fill="#4c72b0"/>
<circle cx="418.1" cy="345.3" r="5" stroke="#ffffff" stroke-width="1" fill="#4c72b0"/>
<circle cx="424.8" cy="339.6" r="5" stroke="#ffffff" stroke-width="1" fill="#4c72b0"/>
<circle cx="431.5" cy="327.8" r="5" stroke="#ffffff" stroke-width="1" fill="#4c72b0"/>
<circle cx="438.2" cy="310.3" r="5" stroke="#ffffff" stroke-width="1" fill="#4c72b0"/>
<circle cx="444.9" cy="287.9" r="5" stroke="#ffffff" stroke-width="1" fill="#4c72b0"/>
<circle cx="451.6" cy="261.7" r="5" stroke="#ffffff" stroke-width="1" fill="#4c72b0"/>
<circle cx="458.3" cy="232.8" r="5" stroke="#ffffff" stroke-width="1" fill="#4c72b0"/>
<circle cx="465" cy="202.5" r="5" stroke="#ffffff" stroke-width="1" fill="#4c72b0"/>
</g>
<line x1="70" y1="360" x2="465" y2="360" stroke="#888888" stroke-width="1.2" fill="none"/>
<line x1="70" y1="45" x2="70" y2="360" stroke="#888888" stroke-width="1.2" fill="none"/>
<line x1="70" y1="360" x2="70" y2="365" stroke="#888888" stroke-width="1" fill="none"/>
<text x="70" y="368" font-size="11" font-family="system-ui, -apple-system, BlinkMacSystemFont, 'Segoe UI', sans-serif" text-anchor="middle" dominant-baseline="hanging" fill="#333333">0</text>
<line x1="132.9" y1="360" x2="132.9" y2="365" stroke="#888888" stroke-width="1" fill="none"/>
<text x="132.9" y="368" font-size="11" font-family="system-ui, -apple-system, BlinkMacSystemFont, 'Segoe UI', sans-serif" text-anchor="middle" dominant-baseline="hanging" fill="#333333">2</text>
<line x1="195.7" y1="360" x2="195.7" y2="365" stroke="#888888" stroke-width="1" fill="none"/>
<text x="195.7" y="368" font-size="11" font-family="system-ui, -apple-system, BlinkMacSystemFont, 'Segoe UI', sans-serif" text-anchor="middle" dominant-baseline="hanging" fill="#333333">4</text>
<line x1="258.6" y1="360" x2="258.6" y2="365" stroke="#888888" stroke-width="1" fill="none"/>
<text x="258.6" y="368" font-size="11" font-family="system-ui, -apple-system, BlinkMacSystemFont, 'Segoe UI', sans-serif" text-anchor="middle" dominant-baseline="hanging" fill="#333333">6</text>
<line x1="321.5" y1="360" x2="321.5" y2="365" stroke="#888888" stroke-width="1" fill="none"/>
<text x="321.5" y="368" font-size="11" font-family="system-ui, -apple-system, BlinkMacSystemFont, 'Segoe UI', sans-serif" text-anchor="middle" dominant-baseline="hanging" fill="#333333">8</text>
<line x1="384.3" y1="360" x2="384.3" y2="365" stroke="#888888" stroke-width="1" fill="none"/>
<text x="384.3" y="368" font-size="11" font-family="system-ui, -apple-system, BlinkMacSystemFont, 'Segoe UI', sans-serif" text-anchor="middle" dominant-baseline="hanging" fill="#333333">10</text>
<line x1="447.2" y1="360" x2="447.2" y2="365" stroke="#888888" stroke-width="1" fill="none"/>
<text x="447.2" y="368" font-size="11" font-family="system-ui, -apple-system, BlinkMacSystemFont, 'Segoe UI', sans-serif" text-anchor="middle" dominant-baseline="hanging" fill="#333333">12</text>
<line x1="65" y1="345.7" x2="70" y2="345.7" stroke="#888888" stroke-width="1" fill="none"/>
<text x="62" y="345.7" font-size="11" font-family="system-ui, -apple-system, BlinkMacSystemFont, 'Segoe UI', sans-serif" text-anchor="end" dominant-baseline="middle" fill="#333333">-1.0</text>
<line x1="65" y1="309.9" x2="70" y2="309.9" stroke="#888888" stroke-width="1" fill="none"/>
<text x="62" y="309.9" font-size="11" font-family="system-ui, -apple-system, BlinkMacSystemFont, 'Segoe UI', sans-serif" text-anchor="end" dominant-baseline="middle" fill="#333333">-0.8</text>
<line x1="65" y1="274.1" x2="70" y2="274.1" stroke="#888888" stroke-width="1" fill="none"/>
<text x="62" y="274.1" font-size="11" font-family="system-ui, -apple-system, BlinkMacSystemFont, 'Segoe UI', sans-serif" text-anchor="end" dominant-baseline="middle" fill="#333333">-0.5</text>
<line x1="65" y1="238.3" x2="70" y2="238.3" stroke="#888888" stroke-width="1" fill="none"/>
<text x="62" y="238.3" font-size="11" font-family="system-ui, -apple-system, BlinkMacSystemFont, 'Segoe UI', sans-serif" text-anchor="end" dominant-baseline="middle" fill="#333333">-0.2</text>
<line x1="65" y1="202.5" x2="70" y2="202.5" stroke="#888888" stroke-width="1" fill="none"/>
<text x="62" y="202.5" font-size="11" font-family="system-ui, -apple-system, BlinkMacSystemFont, 'Segoe UI', sans-serif" text-anchor="end" dominant-baseline="middle" fill="#333333">0.0</text>
<line x1="65" y1="166.7" x2="70" y2="166.7" stroke="#888888" stroke-width="1" fill="none"/>
<text x="62" y="166.7" font-size="11" font-family="system-ui, -apple-system, BlinkMacSystemFont, 'Segoe UI', sans-serif" text-anchor="end" dominant-baseline="middle" fill="#333333">0.2</text>
<line x1="65" y1="130.9" x2="70" y2="130.9" stroke="#888888" stroke-width="1" fill="none"/>
<text x="62" y="130.9" font-size="11" font-family="system-ui, -apple-system, BlinkMacSystemFont, 'Segoe UI', sans-serif" text-anchor="end" dominant-baseline="middle" fill="#333333">0.5</text>
<line x1="65" y1="95.1" x2="70" y2="95.1" stroke="#888888" stroke-width="1" fill="none"/>
<text x="62" y="95.1" font-size="11" font-family="system-ui, -apple-system, BlinkMacSystemFont, 'Segoe UI', sans-serif" text-anchor="end" dominant-baseline="middle" fill="#333333">0.8</text>
<line x1="65" y1="59.3" x2="70" y2="59.3" stroke="#888888" stroke-width="1" fill="none"/>
<text x="62" y="59.3" font-size="11" font-family="system-ui, -apple-system, BlinkMacSystemFont, 'Segoe UI', sans-serif" text-anchor="end" dominant-baseline="middle" fill="#333333">1.0</text>
<text x="267.5" y="30" font-size="16" font-family="system-ui, -apple-system, BlinkMacSystemFont, 'Segoe UI', sans-serif" font-weight="bold" text-anchor="middle" dominant-baseline="auto" fill="#1a1a1a">Sine</text>
<rect x="365.4" y="55" width="89.6" height="42" rx="4" ry="4" stroke="#e5e5e5" stroke-width="0.8" fill="rgba(255,255,255,0.9)"/>
<line x1="375.4" y1="76" x2="395.4" y2="76" stroke="#4c72b0" stroke-width="2.5" fill="none" stroke-linecap="round"/>
<circle cx="385.4" cy="76" r="3" stroke="none" fill="#4c72b0"/>
<text x="399.4" y="76" font-size="12" font-family="system-ui, -apple-system, BlinkMacSystemFont, 'Segoe UI', sans-serif" text-anchor="start" dominant-baseline="middle" fill="#333333">sin(x)</text>
<rect x="575" y="45" width="395" height="315" stroke="none" fill="#f7f7f7"/>
<g clip-path="url(#axes-clip-2)">
<line x1="575" y1="360" x2="970" y2="360" stroke="#e5e5e5" stroke-width="0.8" fill="none"/>
<line x1="575" y1="323.9" x2="970" y2="323.9" stroke="#e5e5e5" stroke-width="0.8" fill="none"/>
<line x1="575" y1="287.7" x2="970" y2="287.7" stroke="#e5e5e5" stroke-width="0.8" fill="none"/>
<line x1="575" y1="251.6" x2="970" y2="251.6" stroke="#e5e5e5" stroke-width="0.8" fill="none"/>
<line x1="575" y1="215.4" x2="970" y2="215.4" stroke="#e5e5e5" stroke-width="0.8" fill="none"/>
<line x1="575" y1="179.3" x2="970" y2="179.3" stroke="#e5e5e5" stroke-width="0.8" fill="none"/>
<line x1="575" y1="143.1" x2="970" y2="143.1" stroke="#e5e5e5" stroke-width="0.8" fill="none"/>
<line x1="575" y1="107.0" x2="970" y2="107.0" stroke="#e5e5e5" stroke-width="0.8" fill="none"/>
<line x1="575" y1="70.8" x2="970" y2="70.8" stroke="#e5e5e5" stroke-width="0.8" fill="none"/>
</g>
<g clip-path="url(#axes-clip-2)">
<rect x="584.9" y="208.2" width="59.3" height="151.8" rx="4" ry="4" stroke="none" fill="#4c72b0"/>
<rect x="663.9" y="150.4" width="59.3" height="209.6" rx="4" ry="4" stroke="none" fill="#4c72b0"/>
<rect x="742.9" y="103.4" width="59.3" height="256.6" rx="4" ry="4" stroke="none" fill="#4c72b0"/>
<rect x="821.9" y="125.1" width="59.3" height="234.9" rx="4" ry="4" stroke="none" fill="#4c72b0"/>
<rect x="900.9" y="60" width="59.3" height="300" rx="4" ry="4" stroke="none" fill="#4c72b0"/>
</g>
<line x1="575" y1="360" x2="970" y2="360" stroke="#888888" stroke-width="1.2" fill="none"/>
<line x1="575" y1="45" x2="575" y2="360" stroke="#888888" stroke-width="1.2" fill="none"/>
<line x1="614.5" y1="360" x2="614.5" y2="365" stroke="#888888" stroke-width="1" fill="none"/>
<text x="614.5" y="368" font-size="11" font-family="system-ui, -apple-system, BlinkMacSystemFont, 'Segoe UI', sans-serif" text-anchor="middle" dominant-baseline="hanging" fill="#333333">Jan</text>
<line x1="693.5" y1="360" x2="693.5" y2="365" stroke="#888888" stroke-width="1" fill="none"/>
<text x="693.5" y="368" font-size="11" font-family="system-ui, -apple-system, BlinkMacSystemFont, 'Segoe UI', sans-serif" text-anchor="middle" dominant-baseline="hanging" fill="#333333">Feb</text>
<line x1="772.5" y1="360" x2="772.5" y2="365" stroke="#888888" stroke-width="1" fill="none"/>
<text x="772.5" y="368" font-size="11" font-family="system-ui, -apple-system, BlinkMacSystemFont, 'Segoe UI', sans-serif" text-anchor="middle" dominant-baseline="hanging" fill="#333333">Mar</text>
<line x1="851.5" y1="360" x2="851.5" y2="365" stroke="#888888" stroke-width="1" fill="none"/>
<text x="851.5" y="368" font-size="11" font-family="system-ui, -apple-system, BlinkMacSystemFont, 'Segoe UI', sans-serif" text-anchor="middle" dominant-baseline="hanging" fill="#333333">Apr</text>
<line x1="930.5" y1="360" x2="930.5" y2="365" stroke="#888888" stroke-width="1" fill="none"/>
<text x="930.5" y="368" font-size="11" font-family="system-ui, -apple-system, BlinkMacSystemFont, 'Segoe UI', sans-serif" text-anchor="middle" dominant-baseline="hanging" fill="#333333">May</text>
<line x1="570" y1="360" x2="575" y2="360" stroke="#888888" stroke-width="1" fill="none"/>
<text x="567" y="360" font-size="11" font-family="system-ui, -apple-system, BlinkMacSystemFont, 'Segoe UI', sans-serif" text-anchor="end" dominant-baseline="middle" fill="#333333">0</text>
<line x1="570" y1="323.9" x2="575" y2="323.9" stroke="#888888" stroke-width="1" fill="none"/>
<text x="567" y="323.9" font-size="11" font-family="system-ui, -apple-system, BlinkMacSystemFont, 'Segoe UI', sans-serif" text-anchor="end" dominant-baseline="middle" fill="#333333">10</text>
<line x1="570" y1="287.7" x2="575" y2="287.7" stroke="#888888" stroke-width="1" fill="none"/>
<text x="567" y="287.7" font-size="11" font-family="system-ui, -apple-system, BlinkMacSystemFont, 'Segoe UI', sans-serif" text-anchor="end" dominant-baseline="middle" fill="#333333">20</text>
<line x1="570" y1="251.6" x2="575" y2="251.6" stroke="#888888" stroke-width="1" fill="none"/>
<text x="567" y="251.6" font-size="11" font-family="system-ui, -apple-system, BlinkMacSystemFont, 'Segoe UI', sans-serif" text-anchor="end" dominant-baseline="middle" fill="#333333">30</text>
<line x1="570" y1="215.4" x2="575" y2="215.4" stroke="#888888" stroke-width="1" fill="none"/>
<text x="567" y="215.4" font-size="11" font-family="system-ui, -apple-system, BlinkMacSystemFont, 'Segoe UI', sans-serif" text-anchor="end" dominant-baseline="middle" fill="#333333">40</text>
<line x1="570" y1="179.3" x2="575" y2="179.3" stroke="#888888" stroke-width="1" fill="none"/>
<text x="567" y="179.3" font-size="11" font-family="system-ui, -apple-system, BlinkMacSystemFont, 'Segoe UI', sans-serif" text-anchor="end" dominant-baseline="middle" fill="#333333">50</text>
<line x1="570" y1="143.1" x2="575" y2="143.1" stroke="#888888" stroke-width="1" fill="none"/>
<text x="567" y="143.1" font-size="11" font-family="system-ui, -apple-system, BlinkMacSystemFont, 'Segoe UI', sans-serif" text-anchor="end" dominant-baseline="middle" fill="#333333">60</text>
<line x1="570" y1="107.0" x2="575" y2="107.0" stroke="#888888" stroke-width="1" fill="none"/>
<text x="567" y="107.0" font-size="11" font-family="system-ui, -apple-system, BlinkMacSystemFont, 'Segoe UI', sans-serif" text-anchor="end" dominant-baseline="middle" fill="#333333">70</text>
<line x1="570" y1="70.8" x2="575" y2="70.8" stroke="#888888" stroke-width="1" fill="none"/>
<text x="567" y="70.8" font-size="11" font-family="system-ui, -apple-system, BlinkMacSystemFont, 'Segoe UI', sans-serif" text-anchor="end" dominant-baseline="middle" fill="#333333">80</text>
<text x="772.5" y="30" font-size="16" font-family="system-ui, -apple-system, BlinkMacSystemFont, 'Segoe UI', sans-serif" font-weight="bold" text-anchor="middle" dominant-baseline="auto" fill="#1a1a1a">Revenue</text>
<rect x="863.8" y="55" width="96.2" height="42" rx="4" ry="4" stroke="#e5e5e5" stroke-width="0.8" fill="rgba(255,255,255,0.9)"/>
<rect x="873.8" y="71" width="20" height="10" rx="2" ry="2" stroke="none" fill="#4c72b0"/>
<text x="897.8" y="76" font-size="12" font-family="system-ui, -apple-system, BlinkMacSystemFont, 'Segoe UI', sans-serif" text-anchor="start" dominant-baseline="middle" fill="#333333">revenue</text>
</svg>
