<svg xmlns="http://www.w3.org/2000/svg" width="1000" height="700">
<defs>
<clipPath id="axes-clip-1"><rect x="70" y="77" width="395" height="224"/></clipPath>
<clipPath id="axes-clip-2"><rect x="575" y="77" width="395" height="224"/></clipPath>
<clipPath id="axes-clip-3"><rect x="70" y="416" width="395" height="224"/></clipPath>
<clipPath id="axes-clip-4"><rect x="575" y="416" width="395" height="224"/></clipPath>
</defs>
<rect x="0" y="0" width="1000" height="700" stroke="none" fill="#ffffff"/>
<rect x="70" y="77" width="395" height="224" stroke="none" fill="#f7f7f7"/>
<g clip-path="url(#axes-clip-1)">
<line x1="70" y1="290.9" x2="465" y2="290.9" stroke="#e5e5e5" stroke-width="0.8" fill="none"/>
<line x1="70" y1="265.4" x2="465" y2="265.4" stroke="#e5e5e5" stroke-width="0.8" fill="none"/>
<line x1="70" y1="239.9" x2="465" y2="239.9" stroke="#e5e5e5" stroke-width="0.8" fill="none"/>
<line x1="70" y1="214.5" x2="465" y2="214.5" stroke="#e5e5e5" stroke-width="0.8" fill="none"/>
<line x1="70" y1="189" x2="465" y2="189" stroke="#e5e5e5" stroke-width="0.8" fill="none"/>
<line x1="70" y1="163.5" x2="465" y2="163.5" stroke="#e5e5e5" stroke-width="0.8" fill="none"/>
<line x1="70" y1="138.1" x2="465" y2="138.1" stroke="#e5e5e5" stroke-width="0.8" fill="none"/>
<line x1="70" y1="112.6" x2="465" y2="112.6" stroke="#e5e5e5" stroke-width="0.8" fill="none"/>
<line x1="70" y1="87.2" x2="465" y2="87.2" stroke="#e5e5e5" stroke-width="0.8" fill="none"/>
</g>
<g clip-path="url(#axes-clip-1)">
<line x1="70" y1="77" x2="70" y2="301" stroke="#e5e5e5" stroke-width="0.8" fill="none"/>
<line x1="132.9" y1="77" x2="132.9" y2="301" stroke="#e5e5e5" stroke-width="0.8" fill="none"/>
<line x1="195.7" y1="77" x2="195.7" y2="301" stroke="#e5e5e5" stroke-width="0.8" fill="none"/>
<line x1="258.6" y1="77" x2="258.6" y2="301" stroke="#e5e5e5" stroke-width="0.8" fill="none"/>
<line x1="321.5" y1="77" x2="321.5" y2="301" stroke="#e5e5e5" stroke-width="0.8" fill="none"/>
<line x1="384.3" y1="77" x2="384.3" y2="301" stroke="#e5e5e5" stroke-width="0.8" fill="none"/>
<line x1="447.2" y1="77" x2="447.2" y2="301" stroke="#e5e5e5" stroke-width="0.8" fill="none"/>
</g>
<g clip-path="url(#axes-clip-1)">
<path d="M70 189 C71.1 185.4 74.5 174.5 76.7 167.5 C78.9 160.5 81.2 153.5 83.4 146.9 C85.6 140.4 87.9 134.0 90.1 128.3 C92.3 122.5 94.6 117.1 96.8 112.4 C99.0 107.6 101.2 103.4 103.5 99.9 C105.7 96.4 107.9 93.6 110.2 91.5 C112.4 89.4 114.6 88.0 116.9 87.5 C119.1 86.9 121.3 87.1 123.6 88.1 C125.8 89 128.0 90.8 130.3 93.2 C132.5 95.6 134.7 98.9 137.0 102.7 C139.2 106.5 141.4 111.0 143.6 116.0 C145.9 121.0 148.1 126.7 150.3 132.7 C152.6 138.7 154.8 145.2 157.0 151.9 C159.3 158.6 161.5 165.7 163.7 172.8 C166.0 179.9 168.2 187.3 170.4 194.4 C172.7 201.6 174.9 208.9 177.1 215.8 C179.4 222.7 181.6 229.6 183.8 236.0 C186.1 242.3 188.3 248.5 190.5 254.0 C192.7 259.5 195.0 264.7 197.2 269.1 C199.4 273.6 201.7 277.5 203.9 280.6 C206.1 283.7 208.4 286.2 210.6 287.9 C212.8 289.7 215.1 290.6 217.3 290.8 C219.5 291.0 221.8 290.4 224.0 289.1 C226.2 287.8 228.5 285.6 230.7 282.8 C232.9 280.1 235.1 276.5 237.4 272.4 C239.6 268.2 241.8 263.4 244.1 258.1 C246.3 252.8 248.5 246.9 250.8 240.7 C253.0 234.5 255.2 227.8 257.5 221.0 C259.7 214.2 261.9 207.0 264.2 199.8 C266.4 192.7 268.6 185.3 270.9 178.2 C273.1 171.0 275.3 163.8 277.5 157.0 C279.8 150.2 282.0 143.5 284.2 137.3 C286.5 131.1 288.7 125.2 290.9 119.9 C293.2 114.6 295.4 109.8 297.6 105.7 C299.9 101.5 302.1 98.0 304.3 95.2 C306.6 92.4 308.8 90.2 311.0 88.9 C313.3 87.6 315.5 87.0 317.7 87.2 C319.9 87.4 322.2 88.4 324.4 90.1 C326.6 91.8 328.9 94.3 331.1 97.4 C333.3 100.5 335.6 104.5 337.8 108.9 C340.0 113.3 342.3 118.5 344.5 124.0 C346.7 129.5 349.0 135.7 351.2 142.0 C353.4 148.4 355.7 155.3 357.9 162.2 C360.1 169.1 362.3 176.4 364.6 183.6 C366.8 190.8 369.0 198.1 371.3 205.2 C373.5 212.3 375.7 219.4 378.0 226.1 C380.2 232.8 382.4 239.3 384.7 245.3 C386.9 251.3 389.1 257.0 391.4 262.0 C393.6 267.0 395.8 271.5 398.1 275.4 C400.3 279.2 402.5 282.4 404.8 284.8 C407.0 287.3 409.2 289 411.4 290.0 C413.7 290.9 415.9 291.1 418.1 290.5 C420.4 290.0 422.6 288.6 424.8 286.5 C427.1 284.5 429.3 281.6 431.5 278.1 C433.8 274.6 436.0 270.4 438.2 265.7 C440.5 260.9 442.7 255.5 444.9 249.7 C447.2 244.0 449.4 237.6 451.6 231.1 C453.8 224.6 456.1 217.5 458.3 210.5 C460.5 203.5 463.9 192.6 465 189" stroke="#4c72b0" stroke-width="2.5" fill="none" stroke-linecap="round" stroke-linejoin="round"/>
<circle cx="70" cy="189" r="5" stroke="#ffffff" stroke-width="1" fill="#4c72b0"/>
<circle cx="76.7" cy="167.5" r="5" stroke="#ffffff" stroke-width="1" fill="#4c72b0"/>
<circle cx="83.4" cy="146.9" r="5" stroke="#ffffff" stroke-width="1" fill="#4c72b0"/>
<circle cx="90.1" cy="128.3" r="5" stroke="#ffffff" stroke-width="1" fill="#4c72b0"/>
<circle cx="96.8" cy="112.4" r="5" stroke="#ffffff" stroke-width="1" fill="#4c72b0"/>
<circle cx="103.5" cy="99.9" r="5" stroke="#ffffff" stroke-width="1" fill="#4c72b0"/>
<circle cx="110.2" cy="91.5" r="5" stroke="#ffffff" stroke-width="1" fill="#4c72b0"/>
<circle cx="116.9" cy="87.5" r="5" stroke="#ffffff" stroke-width="1" fill="#4c72b0"/>
<circle cx="123.6" cy="88.1" r="5" stroke="#ffffff" stroke-width="1" fill="#4c72b0"/>
<circle cx="130.3" cy="93.2" r="5" stroke="#ffffff" stroke-width="1" fill="#4c72b0"/>
<circle cx="137.0" cy="102.7" r="5" stroke="#ffffff" stroke-width="1" fill="#4c72b0"/>
<circle cx="143.6" cy="116.0" r="5" stroke="#ffffff" stroke-width="1" fill="#4c72b0"/>
<circle cx="150.3" cy="132.7" r="5" stroke="#ffffff" stroke-width="1" fill="#4c72b0"/>
<circle cx="157.0" cy="151.9" r="5" stroke="#ffffff" stroke-width="1" fill="#4c72b0"/>
<circle cx="163.7" cy="172.8" r="5" stroke="#ffffff" stroke-width="1" fill="#4c72b0"/>
<circle cx="170.4" cy="194.4" r="5" stroke="#ffffff" stroke-width="1" fill="#4c72b0"/>
<circle cx="177.1" cy="215.8" r="5" stroke="#ffffff" stroke-width="1" fill="#4c72b0"/>
<circle cx="183.8" cy="236.0" r="5" stroke="#ffffff" stroke-width="1" fill="#4c72b0"/>
<circle cx="190.5" cy="254.0" r="5" stroke="#ffffff" stroke-width="1" fill="#4c72b0"/>
<circle cx="197.2" cy="269.1" r="5" stroke="#ffffff" stroke-width="1" fill="#4c72b0"/>
<circle cx="203.9" cy="280.6" r="5" stroke="#ffffff" stroke-width="1" fill="#4c72b0"/>
<circle cx="210.6" cy="287.9" r="5" stroke="#ffffff" stroke-width="1" fill="#4c72b0"/>
<circle cx="217.3" cy="290.8" r="5" stroke="#ffffff" stroke-width="1" fill="#4c72b0"/>
<circle cx="224.0" cy="289.1" r="5" stroke="#ffffff" stroke-width="1" fill="#4c72b0"/>
<circle cx="230.7" cy="282.8" r="5" stroke="#ffffff" stroke-width="1" fill="#4c72b0"/>
<circle cx="237.4" cy="272.4" r="5" stroke="#ffffff" stroke-width="1" fill="#4c72b0"/>
<circle cx="244.1" cy="258.1" r="5" stroke="#ffffff" stroke-width="1" fill="#4c72b0"/>
<circle cx="250.8" cy="240.7" r="5" stroke="#ffffff" stroke-width="1" fill="#4c72b0"/>
<circle cx="257.5" cy="221.0" r="5" stroke="#ffffff" stroke-width="1" fill="#4c72b0"/>
<circle cx="264.2" cy="199.8" r="5" stroke="#ffffff" stroke-width="1" fill="#4c72b0"/>
<circle cx="270.9" cy="178.2" r="5" stroke="#ffffff" stroke-width="1" fill="#4c72b0"/>
<circle cx="277.5" cy="157.0" r="5" stroke="#ffffff" stroke-width="1" fill="#4c72b0"/>
<circle cx="284.2" cy="137.3" r="5" stroke="#ffffff" stroke-width="1" fill="#4c72b0"/>
<circle cx="290.9" cy="119.9" r="5" stroke="#ffffff" stroke-width="1" fill="#4c72b0"/>
<circle cx="297.6" cy="105.7" r="5" stroke="#ffffff" stroke-width="1" fill="#4c72b0"/>
<circle cx="304.3" cy="95.2" r="5" stroke="#ffffff" stroke-width="1" fill="#4c72b0"/>
<circle cx="311.0" cy="88.9" r="5" stroke="#ffffff" stroke-width="1" fill="#4c72b0"/>
<circle cx="317.7" cy="87.2" r="5" stroke="#ffffff" stroke-width="1" fill="#4c72b0"/>
<circle cx="324.4" cy="90.1" r="5" stroke="#ffffff" stroke-width="1" fill="#4c72b0"/>
<circle cx="331.1" cy="97.4" r="5" stroke="#ffffff" stroke-width="1" fill="#4c72b0"/>
<circle cx="337.8" cy="108.9" r="5" stroke="#ffffff" stroke-width="1" fill="#4c72b0"/>
<circle cx="344.5" cy="124.0" r="5" stroke="#ffffff" stroke-width="1" fill="#4c72b0"/>
<circle cx="351.2" cy="142.0" r="5" stroke="#ffffff" stroke-width="1" fill="#4c72b0"/>
<circle cx="357.9" cy="162.2" r="5" stroke="#ffffff" stroke-width="1" fill="#4c72b0"/>
<circle cx="364.6" cy="183.6" r="5" stroke="#ffffff" stroke-width="1" fill="#4c72b0"/>
<circle cx="371.3" cy="205.2" r="5" stroke="#ffffff" stroke-width="1" fill="#4c72b0"/>
<circle cx="378.0" cy="226.1" r="5" stroke="#ffffff" stroke-width="1" fill="#4c72b0"/>
<circle cx="384.7" cy="245.3" r="5" stroke="#ffffff" stroke-width="1" fill="#4c72b0"/>
<circle cx="391.4" cy="262.0" r="5" stroke="#ffffff" stroke-width="1" fill="#4c72b0"/>
<circle cx="398.1" cy="275.4" r="5" stroke="#ffffff" stroke-width="1" fill="#4c72b0"/>
<circle cx="404.8" cy="284.8" r="5" stroke="#ffffff" stroke-width="1" fill="#4c72b0"/>
<circle cx="411.4" cy="290.0" r="5" stroke="#ffffff" stroke-width="1" fill="#4c72b0"/>
<circle cx="418.1" cy="290.5" r="5" stroke="#ffffff" stroke-width="1" fill="#4c72b0"/>
<circle cx="424.8" cy="286.5" r="5" stroke="#ffffff" stroke-width="1" fill="#4c72b0"/>
<circle cx="431.5" cy="278.1" r="5" stroke="#ffffff" stroke-width="1" fill="#4c72b0"/>
<circle cx="438.2" cy="265.7" r="5" stroke="#ffffff" stroke-width="1" fill="#4c72b0"/>
<circle cx="444.9" cy="249.7" r="5" stroke="#ffffff" stroke-width="1" fill="#4c72b0"/>
<circle cx="451.6" cy="231.1" r="5" stroke="#ffffff" stroke-width="1" fill="#4c72b0"/>
<circle cx="458.3" cy="210.5" r="5" stroke="#ffffff" stroke-width="1" fill="#4c72b0"/>
<circle cx="465" cy="189" r="5" stroke="#ffffff" stroke-width="1" fill="#4c72b0"/>
</g>
<line x1="70" y1="301" x2="465" y2="301" stroke="#888888" stroke-width="1.2" fill="none"/>
<line x1="70" y1="77" x2="70" y2="301" stroke="#888888" stroke-width="1.2" fill="none"/>
<line x1="70" y1="301" x2="70" y2="306" stroke="#888888" stroke-width="1" fill="none"/>
<text x="70" y="309" font-size="11" font-family="system-ui, -apple-system, BlinkMacSystemFont, 'Segoe UI', sans-serif" text-anchor="middle" dominant-baseline="hanging" fill="#333333">0</text>
<line x1="132.9" y1="301" x2="132.9" y2="306" stroke="#888888" stroke-width="1" fill="none"/>
<text x="132.9" y="309" font-size="11" font-family="system-ui, -apple-system, BlinkMacSystemFont, 'Segoe UI', sans-serif" text-anchor="middle" dominant-baseline="hanging" fill="#333333">2</text>
<line x1="195.7" y1="301" x2="195.7" y2="306" stroke="#888888" stroke-width="1" fill="none"/>
<text x="195.7" y="309" font-size="11" font-family="system-ui, -apple-system, BlinkMacSystemFont, 'Segoe UI', sans-serif" text-anchor="middle" dominant-baseline="hanging" fill="#333333">4</text>
<line x1="258.6" y1="301" x2="258.6" y2="306" stroke="#888888" stroke-width="1" fill="none"/>
<text x="258.6" y="309" font-size="11" font-family="system-ui, -apple-system, BlinkMacSystemFont, 'Segoe UI', sans-serif" text-anchor="middle" dominant-baseline="hanging" fill="#333333">6</text>
<line x1="321.5" y1="301" x2="321.5" y2="306" stroke="#888888" stroke-width="1" fill="none"/>
<text x="321.5" y="309" font-size="11" font-family="system-ui, -apple-system, BlinkMacSystemFont, 'Segoe UI', sans-serif" text-anchor="middle" dominant-baseline="hanging" fill="#333333">8</text>
<line x1="384.3" y1="301" x2="384.3" y2="306" stroke="#888888" stroke-width="1" fill="none"/>
<text x="384.3" y="309" font-size="11" font-family="system-ui, -apple-system, BlinkMacSystemFont, 'Segoe UI', sans-serif" text-anchor="middle" dominant-baseline="hanging" fill="#333333">10</text>
<line x1="447.2" y1="301" x2="447.2" y2="306" stroke="#888888" stroke-width="1" fill="none"/>
<text x="447.2" y="309" font-size="11" font-family="system-ui, -apple-system, BlinkMacSystemFont, 'Segoe UI', sans-serif" text-anchor="middle" dominant-baseline="hanging" fill="#333333">12</text>
<line x1="65" y1="290.9" x2="70" y2="290.9" stroke="#888888" stroke-width="1" fill="none"/>
<text x="62" y="290.9" font-size="11" font-family="system-ui, -apple-system, BlinkMacSystemFont, 'Segoe UI', sans-serif" text-anchor="end" dominant-baseline="middle" fill="#333333">-1.0</text>
<line x1="65" y1="265.4" x2="70" y2="265.4" stroke="#888888" stroke-width="1" fill="none"/>
<text x="62" y="265.4" font-size="11" font-family="system-ui, -apple-system, BlinkMacSystemFont, 'Segoe UI', sans-serif" text-anchor="end" dominant-baseline="middle" fill="#333333">-0.8</text>
<line x1="65" y1="239.9" x2="70" y2="239.9" stroke="#888888" stroke-width="1" fill="none"/>
<text x="62" y="239.9" font-size="11" font-family="system-ui, -apple-system, BlinkMacSystemFont, 'Segoe UI', sans-serif" text-anchor="end" dominant-baseline="middle" fill="#333333">-0.5</text>
<line x1="65" y1="214.5" x2="70" y2="214.5" stroke="#888888" stroke-width="1" fill="none"/>
<text x="62" y="214.5" font-size="11" font-family="system-ui, -apple-system, BlinkMacSystemFont, 'Segoe UI', sans-serif" text-anchor="end" dominant-baseline="middle" fill="#333333">-0.2</text>
<line x1="65" y1="189" x2="70" y2="189" stroke="#888888" stroke-width="1" fill="none"/>
<text x="62" y="189" font-size="11" font-family="system-ui, -apple-system, BlinkMacSystemFont, 'Segoe UI', sans-serif" text-anchor="end" dominant-baseline="middle" fill="#333333">0.0</text>
<line x1="65" y1="163.5" x2="70" y2="163.5" stroke="#888888" stroke-width="1" fill="none"/>
<text x="62" y="163.5" font-size="11" font-family="system-ui, -apple-system, BlinkMacSystemFont, 'Segoe UI', sans-serif" text-anchor="end" dominant-baseline="middle" fill="#333333">0.2</text>
<line x1="65" y1="138.1" x2="70" y2="138.1" stroke="#888888" stroke-width="1" fill="none"/>
<text x="62" y="138.1" font-size="11" font-family="system-ui, -apple-system, BlinkMacSystemFont, 'Segoe UI', sans-serif" text-anchor="end" dominant-baseline="middle" fill="#333333">0.5</text>
<line x1="65" y1="112.6" x2="70" y2="112.6" stroke="#888888" stroke-width="1" fill="none"/>
<text x="62" y="112.6" font-size="11" font-family="system-ui, -apple-system, BlinkMacSystemFont, 'Segoe UI', sans-serif" text-anchor="end" dominant-baseline="middle" fill="#333333">0.8</text>
<line x1="65" y1="87.2" x2="70" y2="87.2" stroke="#888888" stroke-width="1" fill="none"/>
<text x="62" y="87.2" font-size="11" font-family="system-ui, -apple-system, BlinkMacSystemFont, 'Segoe UI', sans-serif" text-anchor="end" dominant-baseline="middle" fill="#333333">1.0</text>
<text x="267.5" y="62" font-size="16" font-family="system-ui, -apple-system, BlinkMacSystemFont, 'Segoe UI', sans-serif" font-weight="bold" text-anchor="middle" dominant-baseline="auto" fill="#1a1a1a">Sine</text>
<rect x="365.4" y="87" width="89.6" height="42" rx="4" ry="4" stroke="#e5e5e5" stroke-width="0.8" fill="rgba(255,255,255,0.9)"/>
<line x1="375.4" y1="108" x2="395.4" y2="108" stroke="#4c72b0" stroke-width="2.5" fill="none" stroke-linecap="round"/>
<circle cx="385.4" cy="108" r="3" stroke="none" fill="#4c72b0"/>
<text x="399.4" y="108" font-size="12" font-family="system-ui, -apple-system, BlinkMacSystemFont, 'Segoe UI', sans-serif" text-anchor="start" dominant-baseline="middle" fill="#333333">sin(x)</text>
<rect x="575" y="77" width="395" height="224" stroke="none" fill="#f7f7f7"/>
<g clip-path="url(#axes-clip-2)">
<line x1="575" y1="291.0" x2="970" y2="291.0" stroke="#e5e5e5" stroke-width="0.8" fill="none"/>
<line x1="575" y1="265.5" x2="970" y2="265.5" stroke="#e5e5e5" stroke-width="0.8" fill="none"/>
<line x1="575" y1="240.0" x2="970" y2="240.0" stroke="#e5e5e5" stroke-width="0.8" fill="none"/>
<line x1="575" y1="214.5" x2="970" y2="214.5" stroke="#e5e5e5" stroke-width="0.8" fill="none"/>
<line x1="575" y1="189.1" x2="970" y2="189.1" stroke="#e5e5e5" stroke-width="0.8" fill="none"/>
<line x1="575" y1="163.6" x2="970" y2="163.6" stroke="#e5e5e5" stroke-width="0.8" fill="none"/>
<line x1="575" y1="138.1" x2="970" y2="138.1" stroke="#e5e5e5" stroke-width="0.8" fill="none"/>
<line x1="575" y1="112.7" x2="970" y2="112.7" stroke="#e5e5e5" stroke-width="0.8" fill="none"/>
<line x1="575" y1="87.2" x2="970" y2="87.2" stroke="#e5e5e5" stroke-width="0.8" fill="none"/>
</g>
<g clip-path="url(#axes-clip-2)">
<line x1="575" y1="77" x2="575" y2="301" stroke="#e5e5e5" stroke-width="0.8" fill="none"/>
<line x1="637.9" y1="77" x2="637.9" y2="301" stroke="#e5e5e5" stroke-width="0.8" fill="none"/>
<line x1="700.7" y1="77" x2="700.7" y2="301" stroke="#e5e5e5" stroke-width="0.8" fill="none"/>
<line x1="763.6" y1="77" x2="763.6" y2="301" stroke="#e5e5e5" stroke-width="0.8" fill="none"/>
<line x1="826.5" y1="77" x2="826.5" y2="301" stroke="#e5e5e5" stroke-width="0.8" fill="none"/>
<line x1="889.3" y1="77" x2="889.3" y2="301" stroke="#e5e5e5" stroke-width="0.8" fill="none"/>
<line x1="952.2" y1="77" x2="952.2" y2="301" stroke="#e5e5e5" stroke-width="0.8" fill="none"/>
</g>
<g clip-path="url(#axes-clip-2)">
<path d="M575 87.2 C576.1 87.6 579.5 88.0 581.7 89.5 C583.9 91 586.2 93.3 588.4 96.3 C590.6 99.3 592.9 103 595.1 107.3 C597.3 111.6 599.6 116.6 601.8 122.0 C604.0 127.4 606.2 133.4 608.5 139.7 C610.7 146.0 612.9 152.8 615.2 159.7 C617.4 166.5 619.6 173.8 621.9 180.9 C624.1 188.1 626.3 195.5 628.6 202.6 C630.8 209.7 633.0 216.9 635.3 223.6 C637.5 230.4 639.7 237.0 642.0 243.1 C644.2 249.2 646.4 255.0 648.6 260.2 C650.9 265.3 653.1 270.0 655.3 274.0 C657.6 278.0 659.8 281.4 662.0 284.0 C664.3 286.6 666.5 288.5 668.7 289.7 C671.0 290.8 673.2 291.2 675.4 290.8 C677.7 290.4 679.9 289.3 682.1 287.4 C684.4 285.5 686.6 282.8 688.8 279.5 C691.1 276.2 693.3 272.1 695.5 267.5 C697.7 262.9 700.0 257.6 702.2 252.0 C704.4 246.4 706.7 240.1 708.9 233.6 C711.1 227.2 713.4 220.2 715.6 213.3 C717.8 206.3 720.1 199.0 722.3 191.8 C724.5 184.6 726.8 177.3 729.0 170.2 C731.2 163.1 733.5 156.1 735.7 149.5 C737.9 142.8 740.1 136.4 742.4 130.5 C744.6 124.6 746.8 119.1 749.1 114.2 C751.3 109.3 753.5 104.9 755.8 101.3 C758.0 97.6 760.2 94.6 762.5 92.3 C764.7 90.1 766.9 88.5 769.2 87.8 C771.4 87 773.6 87 775.9 87.8 C778.1 88.5 780.3 90.1 782.5 92.3 C784.8 94.6 787.0 97.6 789.2 101.3 C791.5 104.9 793.7 109.3 795.9 114.2 C798.2 119.1 800.4 124.6 802.6 130.5 C804.9 136.4 807.1 142.8 809.3 149.5 C811.6 156.1 813.8 163.1 816.0 170.2 C818.3 177.3 820.5 184.6 822.7 191.8 C824.9 199.0 827.2 206.3 829.4 213.3 C831.6 220.2 833.9 227.2 836.1 233.6 C838.3 240.1 840.6 246.4 842.8 252.0 C845.0 257.6 847.3 262.9 849.5 267.5 C851.7 272.1 854.0 276.2 856.2 279.5 C858.4 282.8 860.7 285.5 862.9 287.4 C865.1 289.3 867.3 290.4 869.6 290.8 C871.8 291.2 874.0 290.8 876.3 289.7 C878.5 288.5 880.7 286.6 883.0 284.0 C885.2 281.4 887.4 278.0 889.7 274.0 C891.9 270.0 894.1 265.3 896.4 260.2 C898.6 255.0 900.8 249.2 903.1 243.1 C905.3 237.0 907.5 230.4 909.8 223.6 C912.0 216.9 914.2 209.7 916.4 202.6 C918.7 195.5 920.9 188.1 923.1 180.9 C925.4 173.8 927.6 166.5 929.8 159.7 C932.1 152.8 934.3 146.0 936.5 139.7 C938.8 133.4 941.0 127.4 943.2 122.0 C945.5 116.6 947.7 111.6 949.9 107.3 C952.2 103 954.4 99.3 956.6 96.3 C958.8 93.3 961.1 91 963.3 89.5 C965.5 88.0 968.9 87.6 970 87.2" stroke="#4c72b0" stroke-width="2.5" fill="none" stroke-linecap="round" stroke-linejoin="round"/>
<circle cx="575" cy="87.2" r="5" stroke="#ffffff" stroke-width="1" fill="#4c72b0"/>
<circle cx="581.7" cy="89.5" r="5" stroke="#ffffff" stroke-width="1" fill="#4c72b0"/>
<circle cx="588.4" cy="96.3" r="5" stroke="#ffffff" stroke-width="1" fill="#4c72b0"/>
<circle cx="595.1" cy="107.3" r="5" stroke="#ffffff" stroke-width="1" fill="#4c72b0"/>
<circle cx="601.8" cy="122.0" r="5" stroke="#ffffff" stroke-width="1" fill="#4c72b0"/>
<circle cx="608.5" cy="139.7" r="5" stroke="#ffffff" stroke-width="1" fill="#4c72b0"/>
<circle cx="615.2" cy="159.7" r="5" stroke="#ffffff" stroke-width="1" fill="#4c72b0"/>
<circle cx="621.9" cy="180.9" r="5" stroke="#ffffff" stroke-width="1" fill="#4c72b0"/>
<circle cx="628.6" cy="202.6" r="5" stroke="#ffffff" stroke-width="1" fill="#4c72b0"/>
<circle cx="635.3" cy="223.6" r="5" stroke="#ffffff" stroke-width="1" fill="#4c72b0"/>
<circle cx="642.0" cy="243.1" r="5" stroke="#ffffff" stroke-width="1" fill="#4c72b0"/>
<circle cx="648.6" cy="260.2" r="5" stroke="#ffffff" stroke-width="1" fill="#4c72b0"/>
<circle cx="655.3" cy="274.0" r="5" stroke="#ffffff" stroke-width="1" fill="#4c72b0"/>
<circle cx="662.0" cy="284.0" r="5" stroke="#ffffff" stroke-width="1" fill="#4c72b0"/>
<circle cx="668.7" cy="289.7" r="5" stroke="#ffffff" stroke-width="1" fill="#4c72b0"/>
<circle cx="675.4" cy="290.8" r="5" stroke="#ffffff" stroke-width="1" fill="#4c72b0"/>
<circle cx="682.1" cy="287.4" r="5" stroke="#ffffff" stroke-width="1" fill="#4c72b0"/>
<circle cx="688.8" cy="279.5" r="5" stroke="#ffffff" stroke-width="1" fill="#4c72b0"/>
<circle cx="695.5" cy="267.5" r="5" stroke="#ffffff" stroke-width="1" fill="#4c72b0"/>
<circle cx="702.2" cy="252.0" r="5" stroke="#ffffff" stroke-width="1" fill="#4c72b0"/>
<circle cx="708.9" cy="233.6" r="5" stroke="#ffffff" stroke-width="1" fill="#4c72b0"/>
<circle cx="715.6" cy="213.3" r="5" stroke="#ffffff" stroke-width="1" fill="#4c72b0"/>
<circle cx="722.3" cy="191.8" r="5" stroke="#ffffff" stroke-width="1" fill="#4c72b0"/>
<circle cx="729.0" cy="170.2" r="5" stroke="#ffffff" stroke-width="1" fill="#4c72b0"/>
<circle cx="735.7" cy="149.5" r="5" stroke="#ffffff" stroke-width="1" fill="#4c72b0"/>
<circle cx="742.4" cy="130.5" r="5" stroke="#ffffff" stroke-width="1" fill="#4c72b0"/>
<circle cx="749.1" cy="114.2" r="5" stroke="#ffffff" stroke-width="1" fill="#4c72b0"/>
<circle cx="755.8" cy="101.3" r="5" stroke="#ffffff" stroke-width="1" fill="#4c72b0"/>
<circle cx="762.5" cy="92.3" r="5" stroke="#ffffff" stroke-width="1" fill="#4c72b0"/>
<circle cx="769.2" cy="87.8" r="5" stroke="#ffffff" stroke-width="1" fill="#4c72b0"/>
<circle cx="775.9" cy="87.8" r="5" stroke="#ffffff" stroke-width="1" fill="#4c72b0"/>
<circle cx="782.5" cy="92.3" r="5" stroke="#ffffff" stroke-width="1" fill="#4c72b0"/>
<circle cx="789.2" cy="101.3" r="5" stroke="#ffffff" stroke-width="1" fill="#4c72b0"/>
<circle cx="795.9" cy="114.2" r="5" stroke="#ffffff" stroke-width="1" fill="#4c72b0"/>
<circle cx="802.6" cy="130.5" r="5" stroke="#ffffff" stroke-width="1" fill="#4c72b0"/>
<circle cx="809.3" cy="149.5" r="5" stroke="#ffffff" stroke-width="1" fill="#4c72b0"/>
<circle cx="816.0" cy="170.2" r="5" stroke="#ffffff" stroke-width="1" fill="#4c72b0"/>
<circle cx="822.7" cy="191.8" r="5" stroke="#ffffff" stroke-width="1" fill="#4c72b0"/>
<circle cx="829.4" cy="213.3" r="5" stroke="#ffffff" stroke-width="1" fill="#4c72b0"/>
<circle cx="836.1" cy="233.6" r="5" stroke="#ffffff" stroke-width="1" fill="#4c72b0"/>
<circle cx="842.8" cy="252.0" r="5" stroke="#ffffff" stroke-width="1" fill="#4c72b0"/>
<circle cx="849.5" cy="267.5" r="5" stroke="#ffffff" stroke-width="1" fill="#4c72b0"/>
<circle cx="856.2" cy="279.5" r="5" stroke="#ffffff" stroke-width="1" fill="#4c72b0"/>
<circle cx="862.9" cy="287.4" r="5" stroke="#ffffff" stroke-width="1" fill="#4c72b0"/>
<circle cx="869.6" cy="290.8" r="5" stroke="#ffffff" stroke-width="1" fill="#4c72b0"/>
<circle cx="876.3" cy="289.7" r="5" stroke="#ffffff" stroke-width="1" fill="#4c72b0"/>
<circle cx="883.0" cy="284.0" r="5" stroke="#ffffff" stroke-width="1" fill="#4c72b0"/>
<circle cx="889.7" cy="274.0" r="5" stroke="#ffffff" stroke-width="1" fill="#4c72b0"/>
<circle cx="896.4" cy="260.2" r="5" stroke="#ffffff" stroke-width="1" fill="#4c72b0"/>
<circle cx="903.1" cy="243.1" r="5" stroke="#ffffff" stroke-width="1" fill="#4c72b0"/>
<circle cx="909.8" cy="223.6" r="5" stroke="#ffffff" stroke-width="1" fill="#4c72b0"/>
<circle cx="916.4" cy="202.6" r="5" stroke="#ffffff" stroke-width="1" fill="#4c72b0"/>
<circle cx="923.1" cy="180.9" r="5" stroke="#ffffff" stroke-width="1" fill="#4c72b0"/>
<circle cx="929.8" cy="159.7" r="5" stroke="#ffffff" stroke-width="1" fill="#4c72b0"/>
<circle cx="936.5" cy="139.7" r="5" stroke="#ffffff" stroke-width="1" fill="#4c72b0"/>
<circle cx="943.2" cy="122.0" r="5" stroke="#ffffff" stroke-width="1" fill="#4c72b0"/>
<circle cx="949.9" cy="107.3" r="5" stroke="#ffffff" stroke-width="1" fill="#4c72b0"/>
<circle cx="956.6" cy="96.3" r="5" stroke="#ffffff" stroke-width="1" fill="#4c72b0"/>
<circle cx="963.3" cy="89.5" r="5" stroke="#ffffff" stroke-width="1" fill="#4c72b0"/>
<circle cx="970" cy="87.2" r="5" stroke="#ffffff" stroke-width="1" fill="#4c72b0"/>
</g>
<line x1="575" y1="301" x2="970" y2="301" stroke="#888888" stroke-width="1.2" fill="none"/>
<line x1="575" y1="77" x2="575" y2="301" stroke="#888888" stroke-width="1.2" fill="none"/>
<line x1="575" y1="301" x2="575" y2="306" stroke="#888888" stroke-width="1" fill="none"/>
<text x="575" y="309" font-size="11" font-family="system-ui, -apple-system, BlinkMacSystemFont, 'Segoe UI', sans-serif" text-anchor="middle" dominant-baseline="hanging" fill="#333333">0</text>
<line x1="637.9" y1="301" x2="637.9" y2="306" stroke="#888888" stroke-width="1" fill="none"/>
<text x="637.9" y="309" font-size="11" font-family="system-ui, -apple-system, BlinkMacSystemFont, 'Segoe UI', sans-serif" text-anchor="middle" dominant-baseline="hanging" fill="#333333">2</text>
<line x1="700.7" y1="301" x2="700.7" y2="306" stroke="#888888" stroke-width="1" fill="none"/>
<text x="700.7" y="309" font-size="11" font-family="system-ui, -apple-system, BlinkMacSystemFont, 'Segoe UI', sans-serif" text-anchor="middle" dominant-baseline="hanging" fill="#333333">4</text>
<line x1="763.6" y1="301" x2="763.6" y2="306" stroke="#888888" stroke-width="1" fill="none"/>
<text x="763.6" y="309" font-size="11" font-family="system-ui, -apple-system, BlinkMacSystemFont, 'Segoe UI', sans-serif" text-anchor="middle" dominant-baseline="hanging" fill="#333333">6</text>
<line x1="826.5" y1="301" x2="826.5" y2="306" stroke="#888888" stroke-width="1" fill="none"/>
<text x="826.5" y="309" font-size="11" font-family="system-ui, -apple-system, BlinkMacSystemFont, 'Segoe UI', sans-serif" text-anchor="middle" dominant-baseline="hanging" fill="#333333">8</text>
<line x1="889.3" y1="301" x2="889.3" y2="306" stroke="#888888" stroke-width="1" fill="none"/>
<text x="889.3" y="309" font-size="11" font-family="system-ui, -apple-system, BlinkMacSystemFont, 'Segoe UI', sans-serif" text-anchor="middle" dominant-baseline="hanging" fill="#333333">10</text>
<line x1="952.2" y1="301" x2="952.2" y2="306" stroke="#888888" stroke-width="1" fill="none"/>
<text x="952.2" y="309" font-size="11" font-family="system-ui, -apple-system, BlinkMacSystemFont, 'Segoe UI', sans-serif" text-anchor="middle" dominant-baseline="hanging" fill="#333333">12</text>
<line x1="570" y1="291.0" x2="575" y2="291.0" stroke="#888888" stroke-width="1" fill="none"/>
<text x="567" y="291.0" font-size="11" font-family="system-ui, -apple-system, BlinkMacSystemFont, 'Segoe UI', sans-serif" text-anchor="end" dominant-baseline="middle" fill="#333333">-1.0</text>
<line x1="570" y1="265.5" x2="575" y2="265.5" stroke="#888888" stroke-width="1" fill="none"/>
<text x="567" y="265.5" font-size="11" font-family="system-ui, -apple-system, BlinkMacSystemFont, 'Segoe UI', sans-serif" text-anchor="end" dominant-baseline="middle" fill="#333333">-0.8</text>
<line x1="570" y1="240.0" x2="575" y2="240.0" stroke="#888888" stroke-width="1" fill="none"/>
<text x="567" y="240.0" font-size="11" font-family="system-ui, -apple-system, BlinkMacSystemFont, 'Segoe UI', sans-serif" text-anchor="end" dominant-baseline="middle" fill="#333333">-0.5</text>
<line x1="570" y1="214.5" x2="575" y2="214.5" stroke="#888888" stroke-width="1" fill="none"/>
<text x="567" y="214.5" font-size="11" font-family="system-ui, -apple-system, BlinkMacSystemFont, 'Segoe UI', sans-serif" text-anchor="end" dominant-baseline="middle" fill="#333333">-0.2</text>
<line x1="570" y1="189.1" x2="575" y2="189.1" stroke="#888888" stroke-width="1" fill="none"/>
<text x="567" y="189.1" font-size="11" font-family="system-ui, -apple-system, BlinkMacSystemFont, 'Segoe UI', sans-serif" text-anchor="end" dominant-baseline="middle" fill="#333333">0.0</text>
<line x1="570" y1="163.6" x2="575" y2="163.6" stroke="#888888" stroke-width="1" fill="none"/>
<text x="567" y="163.6" font-size="11" font-family="system-ui, -apple-system, BlinkMacSystemFont, 'Segoe UI', sans-serif" text-anchor="end" dominant-baseline="middle" fill="#333333">0.2</text>
<line x1="570" y1="138.1" x2="575" y2="138.1" stroke="#888888" stroke-width="1" fill="none"/>
<text x="567" y="138.1" font-size="11" font-family="system-ui, -apple-system, BlinkMacSystemFont, 'Segoe UI', sans-serif" text-anchor="end" dominant-baseline="middle" fill="#333333">0.5</text>
<line x1="570" y1="112.7" x2="575" y2="112.7" stroke="#888888" stroke-width="1" fill="none"/>
<text x="567" y="112.7" font-size="11" font-family="system-ui, -apple-system, BlinkMacSystemFont, 'Segoe UI', sans-serif" text-anchor="end" dominant-baseline="middle" fill="#333333">0.8</text>
<line x1="570" y1="87.2" x2="575" y2="87.2" stroke="#888888" stroke-width="1" fill="none"/>
<text x="567" y="87.2" font-size="11" font-family="system-ui, -apple-system, BlinkMacSystemFont, 'Segoe UI', sans-serif" text-anchor="end" dominant-baseline="middle" fill="#333333">1.0</text>
<text x="772.5" y="62" font-size="16" font-family="system-ui, -apple-system, BlinkMacSystemFont, 'Segoe UI', sans-serif" font-weight="bold" text-anchor="middle" dominant-baseline="auto" fill="#1a1a1a">Cosine</text>
<rect x="870.4" y="87" width="89.6" height="42" rx="4" ry="4" stroke="#e5e5e5" stroke-width="0.8" fill="rgba(255,255,255,0.9)"/>
<line x1="880.4" y1="108" x2="900.4" y2="108" stroke="#4c72b0" stroke-width="2.5" fill="none" stroke-linecap="round"/>
<circle cx="890.4" cy="108" r="3" stroke="none" fill="#4c72b0"/>
<text x="904.4" y="108" font-size="12" font-family="system-ui, -apple-system, BlinkMacSystemFont, 'Segoe UI', sans-serif" text-anchor="start" dominant-baseline="middle" fill="#333333">cos(x)</text>
<rect x="70" y="416" width="395" height="224" stroke="none" fill="#f7f7f7"/>
<g clip-path="url(#axes-clip-3)">
<line x1="70" y1="640" x2="465" y2="640" stroke="#e5e5e5" stroke-width="0.8" fill="none"/>
<line x1="70" y1="614.3" x2="465" y2="614.3" stroke="#e5e5e5" stroke-width="0.8" fill="none"/>
<line x1="70" y1="588.6" x2="465" y2="588.6" stroke="#e5e5e5" stroke-width="0.8" fill="none"/>
<line x1="70" y1="562.9" x2="465" y2="562.9" stroke="#e5e5e5" stroke-width="0.8" fill="none"/>
<line x1="70" y1="537.2" x2="465" y2="537.2" stroke="#e5e5e5" stroke-width="0.8" fill="none"/>
<line x1="70" y1="511.5" x2="465" y2="511.5" stroke="#e5e5e5" stroke-width="0.8" fill="none"/>
<line x1="70" y1="485.8" x2="465" y2="485.8" stroke="#e5e5e5" stroke-width="0.8" fill="none"/>
<line x1="70" y1="460.1" x2="465" y2="460.1" stroke="#e5e5e5" stroke-width="0.8" fill="none"/>
<line x1="70" y1="434.4" x2="465" y2="434.4" stroke="#e5e5e5" stroke-width="0.8" fill="none"/>
</g>
<g clip-path="url(#axes-clip-3)">
<rect x="79.9" y="532.1" width="59.3" height="108.0" rx="4" ry="4" stroke="none" fill="#4c72b0"/>
<rect x="158.9" y="490.9" width="59.3" height="149.1" rx="4" ry="4" stroke="none" fill="#4c72b0"/>
<rect x="237.9" y="457.5" width="59.3" height="182.5" rx="4" ry="4" stroke="none" fill="#4c72b0"/>
<rect x="316.9" y="472.9" width="59.3" height="167.1" rx="4" ry="4" stroke="none" fill="#4c72b0"/>
<rect x="395.9" y="426.7" width="59.3" height="213.3" rx="4" ry="4" stroke="none" fill="#4c72b0"/>
</g>
<line x1="70" y1="640" x2="465" y2="640" stroke="#888888" stroke-width="1.2" fill="none"/>
<line x1="70" y1="416" x2="70" y2="640" stroke="#888888" stroke-width="1.2" fill="none"/>
<line x1="109.5" y1="640" x2="109.5" y2="645" stroke="#888888" stroke-width="1" fill="none"/>
<text x="109.5" y="648" font-size="11" font-family="system-ui, -apple-system, BlinkMacSystemFont, 'Segoe UI', sans-serif" text-anchor="middle" dominant-baseline="hanging" fill="#333333">A</text>
<line x1="188.5" y1="640" x2="188.5" y2="645" stroke="#888888" stroke-width="1" fill="none"/>
<text x="188.5" y="648" font-size="11" font-family="system-ui, -apple-system, BlinkMacSystemFont, 'Segoe UI', sans-serif" text-anchor="middle" dominant-baseline="hanging" fill="#333333">B</text>
<line x1="267.5" y1="640" x2="267.5" y2="645" stroke="#888888" stroke-width="1" fill="none"/>
<text x="267.5" y="648" font-size="11" font-family="system-ui, -apple-system, BlinkMacSystemFont, 'Segoe UI', sans-serif" text-anchor="middle" dominant-baseline="hanging" fill="#333333">C</text>
<line x1="346.5" y1="640" x2="346.5" y2="645" stroke="#888888" stroke-width="1" fill="none"/>
<text x="346.5" y="648" font-size="11" font-family="system-ui, -apple-system, BlinkMacSystemFont, 'Segoe UI', sans-serif" text-anchor="middle" dominant-baseline="hanging" fill="#333333">D</text>
<line x1="425.5" y1="640" x2="425.5" y2="645" stroke="#888888" stroke-width="1" fill="none"/>
<text x="425.5" y="648" font-size="11" font-family="system-ui, -apple-system, BlinkMacSystemFont, 'Segoe UI', sans-serif" text-anchor="middle" dominant-baseline="hanging" fill="#333333">E</text>
<line x1="65" y1="640" x2="70" y2="640" stroke="#888888" stroke-width="1" fill="none"/>
<text x="62" y="640" font-size="11" font-family="system-ui, -apple-system, BlinkMacSystemFont, 'Segoe UI', sans-serif" text-anchor="end" dominant-baseline="middle" fill="#333333">0</text>
<line x1="65" y1="614.3" x2="70" y2="614.3" stroke="#888888" stroke-width="1" fill="none"/>
<text x="62" y="614.3" font-size="11" font-family="system-ui, -apple-system, BlinkMacSystemFont, 'Segoe UI', sans-serif" text-anchor="end" dominant-baseline="middle" fill="#333333">10</text>
<line x1="65" y1="588.6" x2="70" y2="588.6" stroke="#888888" stroke-width="1" fill="none"/>
<text x="62" y="588.6" font-size="11" font-family="system-ui, -apple-system, BlinkMacSystemFont, 'Segoe UI', sans-serif" text-anchor="end" dominant-baseline="middle" fill="#333333">20</text>
<line x1="65" y1="562.9" x2="70" y2="562.9" stroke="#888888" stroke-width="1" fill="none"/>
<text x="62" y="562.9" font-size="11" font-family="system-ui, -apple-system, BlinkMacSystemFont, 'Segoe UI', sans-serif" text-anchor="end" dominant-baseline="middle" fill="#333333">30</text>
<line x1="65" y1="537.2" x2="70" y2="537.2" stroke="#888888" stroke-width="1" fill="none"/>
<text x="62" y="537.2" font-size="11" font-family="system-ui, -apple-system, BlinkMacSystemFont, 'Segoe UI', sans-serif" text-anchor="end" dominant-baseline="middle" fill="#333333">40</text>
<line x1="65" y1="511.5" x2="70" y2="511.5" stroke="#888888" stroke-width="1" fill="none"/>
<text x="62" y="511.5" font-size="11" font-family="system-ui, -apple-system, BlinkMacSystemFont, 'Segoe UI', sans-serif" text-anchor="end" dominant-baseline="middle" fill="#333333">50</text>
<line x1="65" y1="485.8" x2="70" y2="485.8" stroke="#888888" stroke-width="1" fill="none"/>
<text x="62" y="485.8" font-size="11" font-family="system-ui, -apple-system, BlinkMacSystemFont, 'Segoe UI', sans-serif" text-anchor="end" dominant-baseline="middle" fill="#333333">60</text>
<line x1="65" y1="460.1" x2="70" y2="460.1" stroke="#888888" stroke-width="1" fill="none"/>
<text x="62" y="460.1" font-size="11" font-family="system-ui, -apple-system, BlinkMacSystemFont, 'Segoe UI', sans-serif" text-anchor="end" dominant-baseline="middle" fill="#333333">70</text>
<line x1="65" y1="434.4" x2="70" y2="434.4" stroke="#888888" stroke-width="1" fill="none"/>
<text x="62" y="434.4" font-size="11" font-family="system-ui, -apple-system, BlinkMacSystemFont, 'Segoe UI', sans-serif" text-anchor="end" dominant-baseline="middle" fill="#333333">80</text>
<text x="267.5" y="401" font-size="16" font-family="system-ui, -apple-system, BlinkMacSystemFont, 'Segoe UI', sans-serif" font-weight="bold" text-anchor="middle" dominant-baseline="auto" fill="#1a1a1a">Bar</text>
<rect x="365.4" y="426" width="89.6" height="42" rx="4" ry="4" stroke="#e5e5e5" stroke-width="0.8" fill="rgba(255,255,255,0.9)"/>
<rect x="375.4" y="442" width="20" height="10" rx="2" ry="2" stroke="none" fill="#4c72b0"/>
<text x="399.4" y="447" font-size="12" font-family="system-ui, -apple-system, BlinkMacSystemFont, 'Segoe UI', sans-serif" text-anchor="start" dominant-baseline="middle" fill="#333333">metric</text>
<rect x="575" y="416" width="395" height="224" stroke="none" fill="#f7f7f7"/>
<g clip-path="url(#axes-clip-4)">
<line x1="575" y1="601.6" x2="970" y2="601.6" stroke="#e5e5e5" stroke-width="0.8" fill="none"/>
<line x1="575" y1="558.9" x2="970" y2="558.9" stroke="#e5e5e5" stroke-width="0.8" fill="none"/>
<line x1="575" y1="516.3" x2="970" y2="516.3" stroke="#e5e5e5" stroke-width="0.8" fill="none"/>
<line x1="575" y1="473.6" x2="970" y2="473.6" stroke="#e5e5e5" stroke-width="0.8" fill="none"/>
<line x1="575" y1="430.9" x2="970" y2="430.9" stroke="#e5e5e5" stroke-width="0.8" fill="none"/>
</g>
<g clip-path="url(#axes-clip-4)">
<line x1="575" y1="416" x2="575" y2="640" stroke="#e5e5e5" stroke-width="0.8" fill="none"/>
<line x1="640.8" y1="416" x2="640.8" y2="640" stroke="#e5e5e5" stroke-width="0.8" fill="none"/>
<line x1="706.7" y1="416" x2="706.7" y2="640" stroke="#e5e5e5" stroke-width="0.8" fill="none"/>
<line x1="772.5" y1="416" x2="772.5" y2="640" stroke="#e5e5e5" stroke-width="0.8" fill="none"/>
<line x1="838.3" y1="416" x2="838.3" y2="640" stroke="#e5e5e5" stroke-width="0.8" fill="none"/>
<line x1="904.2" y1="416" x2="904.2" y2="640" stroke="#e5e5e5" stroke-width="0.8" fill="none"/>
<line x1="970" y1="416" x2="970" y2="640" stroke="#e5e5e5" stroke-width="0.8" fill="none"/>
</g>
<g clip-path="url(#axes-clip-4)">
<circle cx="575" cy="640" r="6" stroke="rgba(255,255,255,0.8)" stroke-width="1.2" fill="#4c72b0"/>
<circle cx="640.8" cy="567.5" r="6" stroke="rgba(255,255,255,0.8)" stroke-width="1.2" fill="#4c72b0"/>
<circle cx="706.7" cy="593.1" r="6" stroke="rgba(255,255,255,0.8)" stroke-width="1.2" fill="#4c72b0"/>
<circle cx="772.5" cy="512" r="6" stroke="rgba(255,255,255,0.8)" stroke-width="1.2" fill="#4c72b0"/>
<circle cx="838.3" cy="520.5" r="6" stroke="rgba(255,255,255,0.8)" stroke-width="1.2" fill="#4c72b0"/>
<circle cx="904.2" cy="465.1" r="6" stroke="rgba(255,255,255,0.8)" stroke-width="1.2" fill="#4c72b0"/>
<circle cx="970" cy="426.7" r="6" stroke="rgba(255,255,255,0.8)" stroke-width="1.2" fill="#4c72b0"/>
</g>
<line x1="575" y1="640" x2="970" y2="640" stroke="#888888" stroke-width="1.2" fill="none"/>
<line x1="575" y1="416" x2="575" y2="640" stroke="#888888" stroke-width="1.2" fill="none"/>
<line x1="575" y1="640" x2="575" y2="645" stroke="#888888" stroke-width="1" fill="none"/>
<text x="575" y="648" font-size="11" font-family="system-ui, -apple-system, BlinkMacSystemFont, 'Segoe UI', sans-serif" text-anchor="middle" dominant-baseline="hanging" fill="#333333">1</text>
<line x1="640.8" y1="640" x2="640.8" y2="645" stroke="#888888" stroke-width="1" fill="none"/>
<text x="640.8" y="648" font-size="11" font-family="system-ui, -apple-system, BlinkMacSystemFont, 'Segoe UI', sans-serif" text-anchor="middle" dominant-baseline="hanging" fill="#333333">2</text>
<line x1="706.7" y1="640" x2="706.7" y2="645" stroke="#888888" stroke-width="1" fill="none"/>
<text x="706.7" y="648" font-size="11" font-family="system-ui, -apple-system, BlinkMacSystemFont, 'Segoe UI', sans-serif" text-anchor="middle" dominant-baseline="hanging" fill="#333333">3</text>
<line x1="772.5" y1="640" x2="772.5" y2="645" stroke="#888888" stroke-width="1" fill="none"/>
<text x="772.5" y="648" font-size="11" font-family="system-ui, -apple-system, BlinkMacSystemFont, 'Segoe UI', sans-serif" text-anchor="middle" dominant-baseline="hanging" fill="#333333">4</text>
<line x1="838.3" y1="640" x2="838.3" y2="645" stroke="#888888" stroke-width="1" fill="none"/>
<text x="838.3" y="648" font-size="11" font-family="system-ui, -apple-system, BlinkMacSystemFont, 'Segoe UI', sans-serif" text-anchor="middle" dominant-baseline="hanging" fill="#333333">5</text>
<line x1="904.2" y1="640" x2="904.2" y2="645" stroke="#888888" stroke-width="1" fill="none"/>
<text x="904.2" y="648" font-size="11" font-family="system-ui, -apple-system, BlinkMacSystemFont, 'Segoe UI', sans-serif" text-anchor="middle" dominant-baseline="hanging" fill="#333333">6</text>
<line x1="970" y1="640" x2="970" y2="645" stroke="#888888" stroke-width="1" fill="none"/>
<text x="970" y="648" font-size="11" font-family="system-ui, -apple-system, BlinkMacSystemFont, 'Segoe UI', sans-serif" text-anchor="middle" dominant-baseline="hanging" fill="#333333">7</text>
<line x1="570" y1="601.6" x2="575" y2="601.6" stroke="#888888" stroke-width="1" fill="none"/>
<text x="567" y="601.6" font-size="11" font-family="system-ui, -apple-system, BlinkMacSystemFont, 'Segoe UI', sans-serif" text-anchor="end" dominant-baseline="middle" fill="#333333">3</text>
<line x1="570" y1="558.9" x2="575" y2="558.9" stroke="#888888" stroke-width="1" fill="none"/>
<text x="567" y="558.9" font-size="11" font-family="system-ui, -apple-system, BlinkMacSystemFont, 'Segoe UI', sans-serif" text-anchor="end" dominant-baseline="middle" fill="#333333">4</text>
<line x1="570" y1="516.3" x2="575" y2="516.3" stroke="#888888" stroke-width="1" fill="none"/>
<text x="567" y="516.3" font-size="11" font-family="system-ui, -apple-system, BlinkMacSystemFont, 'Segoe UI', sans-serif" text-anchor="end" dominant-baseline="middle" fill="#333333">5</text>
<line x1="570" y1="473.6" x2="575" y2="473.6" stroke="#888888" stroke-width="1" fill="none"/>
<text x="567" y="473.6" font-size="11" font-family="system-ui, -apple-system, BlinkMacSystemFont, 'Segoe UI', sans-serif" text-anchor="end" dominant-baseline="middle" fill="#333333">6</text>
<line x1="570" y1="430.9" x2="575" y2="430.9" stroke="#888888" stroke-width="1" fill="none"/>
<text x="567" y="430.9" font-size="11" font-family="system-ui, -apple-system, BlinkMacSystemFont, 'Segoe UI', sans-serif" text-anchor="end" dominant-baseline="middle" fill="#333333">7</text>
<text x="772.5" y="401" font-size="16" font-family="system-ui, -apple-system, BlinkMacSystemFont, 'Segoe UI', sans-serif" font-weight="bold" text-anchor="middle" dominant-baseline="auto" fill="#1a1a1a">Scatter</text>
<rect x="883.6" y="426" width="76.4" height="42" rx="4" ry="4" stroke="#e5e5e5" stroke-width="0.8" fill="rgba(255,255,255,0.9)"/>
<line x1="893.6" y1="447" x2="913.6" y2="447" stroke="#4c72b0" stroke-width="2.5" fill="none" stroke-linecap="round"/>
<circle cx="903.6" cy="447" r="3" stroke="none" fill="#4c72b0"/>
<text x="917.6" y="447" font-size="12" font-family="system-ui, -apple-system, BlinkMacSystemFont, 'Segoe UI', sans-serif" text-anchor="start" dominant-baseline="middle" fill="#333333">data</text>
<text x="500" y="18" font-size="18" font-family="system-ui, -apple-system, BlinkMacSystemFont, 'Segoe UI', sans-serif" font-weight="bold" text-anchor="middle" dominant-baseline="middle" fill="#1a1a1a">Dashboard</text>
</svg>
