<svg xmlns="http://www.w3.org/2000/svg" width="800" height="450">
<defs>
<clipPath id="axes-clip-1"><rect x="65" y="40" width="710" height="355"/></clipPath>
</defs>
<rect x="0" y="0" width="800" height="450" stroke="none" fill="#ffffff"/>
<rect x="65" y="40" width="710" height="355" stroke="none" fill="#ffffff"/>
<g clip-path="url(#axes-clip-1)">
<line x1="65" y1="395" x2="775" y2="395" stroke="#eeeeee" stroke-width="0.6" fill="none" stroke-dasharray="4,4"/>
<line x1="65" y1="320.7" x2="775" y2="320.7" stroke="#eeeeee" stroke-width="0.6" fill="none" stroke-dasharray="4,4"/>
<line x1="65" y1="246.4" x2="775" y2="246.4" stroke="#eeeeee" stroke-width="0.6" fill="none" stroke-dasharray="4,4"/>
<line x1="65" y1="172.1" x2="775" y2="172.1" stroke="#eeeeee" stroke-width="0.6" fill="none" stroke-dasharray="4,4"/>
<line x1="65" y1="97.8" x2="775" y2="97.8" stroke="#eeeeee" stroke-width="0.6" fill="none" stroke-dasharray="4,4"/>
</g>
<g clip-path="url(#axes-clip-1)">
<rect x="79.8" y="239.0" width="88.8" height="156.0" rx="4" ry="4" stroke="none" fill="#4c72b0"/>
<rect x="198.1" y="179.5" width="88.8" height="215.5" rx="4" ry="4" stroke="none" fill="#4c72b0"/>
<rect x="316.5" y="131.2" width="88.8" height="263.8" rx="4" ry="4" stroke="none" fill="#4c72b0"/>
<rect x="434.8" y="153.5" width="88.8" height="241.5" rx="4" ry="4" stroke="none" fill="#4c72b0"/>
<rect x="553.1" y="86.6" width="88.8" height="308.4" rx="4" ry="4" stroke="none" fill="#4c72b0"/>
<rect x="671.5" y="56.9" width="88.8" height="338.1" rx="4" ry="4" stroke="none" fill="#4c72b0"/>
</g>
<line x1="65" y1="395" x2="775" y2="395" stroke="#aaaaaa" stroke-width="0.8" fill="none"/>
<line x1="124.2" y1="395" x2="124.2" y2="400" stroke="#aaaaaa" stroke-width="1" fill="none"/>
<text x="124.2" y="403" font-size="11" font-family="system-ui, -apple-system, BlinkMacSystemFont, 'Segoe UI', sans-serif" text-anchor="middle" dominant-baseline="hanging" fill="#444444">Jan</text>
<line x1="242.5" y1="395" x2="242.5" y2="400" stroke="#aaaaaa" stroke-width="1" fill="none"/>
<text x="242.5" y="403" font-size="11" font-family="system-ui, -apple-system, BlinkMacSystemFont, 'Segoe UI', sans-serif" text-anchor="middle" dominant-baseline="hanging" fill="#444444">Feb</text>
<line x1="360.8" y1="395" x2="360.8" y2="400" stroke="#aaaaaa" stroke-width="1" fill="none"/>
<text x="360.8" y="403" font-size="11" font-family="system-ui, -apple-system, BlinkMacSystemFont, 'Segoe UI', sans-serif" text-anchor="middle" dominant-baseline="hanging" fill="#444444">Mar</text>
<line x1="479.2" y1="395" x2="479.2" y2="400" stroke="#aaaaaa" stroke-width="1" fill="none"/>
<text x="479.2" y="403" font-size="11" font-family="system-ui, -apple-system, BlinkMacSystemFont, 'Segoe UI', sans-serif" text-anchor="middle" dominant-baseline="hanging" fill="#444444">Apr</text>
<line x1="597.5" y1="395" x2="597.5" y2="400" stroke="#aaaaaa" stroke-width="1" fill="none"/>
<text x="597.5" y="403" font-size="11" font-family="system-ui, -apple-system, BlinkMacSystemFont, 'Segoe UI', sans-serif" text-anchor="middle" dominant-baseline="hanging" fill="#444444">May</text>
<line x1="715.8" y1="395" x2="715.8" y2="400" stroke="#aaaaaa" stroke-width="1" fill="none"/>
<text x="715.8" y="403" font-size="11" font-family="system-ui, -apple-system, BlinkMacSystemFont, 'Segoe UI', sans-serif" text-anchor="middle" dominant-baseline="hanging" fill="#444444">Jun</text>
<line x1="60" y1="395" x2="65" y2="395" stroke="#aaaaaa" stroke-width="1" fill="none"/>
<text x="57" y="395" font-size="11" font-family="system-ui, -apple-system, BlinkMacSystemFont, 'Segoe UI', sans-serif" text-anchor="end" dominant-baseline="middle" fill="#444444">0</text>
<line x1="60" y1="320.7" x2="65" y2="320.7" stroke="#aaaaaa" stroke-width="1" fill="none"/>
<text x="57" y="320.7" font-size="11" font-family="system-ui, -apple-system, BlinkMacSystemFont, 'Segoe UI', sans-serif" text-anchor="end" dominant-baseline="middle" fill="#444444">20</text>
<line x1="60" y1="246.4" x2="65" y2="246.4" stroke="#aaaaaa" stroke-width="1" fill="none"/>
<text x="57" y="246.4" font-size="11" font-family="system-ui, -apple-system, BlinkMacSystemFont, 'Segoe UI', sans-serif" text-anchor="end" dominant-baseline="middle" fill="#444444">40</text>
<line x1="60" y1="172.1" x2="65" y2="172.1" stroke="#aaaaaa" stroke-width="1" fill="none"/>
<text x="57" y="172.1" font-size="11" font-family="system-ui, -apple-system, BlinkMacSystemFont, 'Segoe UI', sans-serif" text-anchor="end" dominant-baseline="middle" fill="#444444">60</text>
<line x1="60" y1="97.8" x2="65" y2="97.8" stroke="#aaaaaa" stroke-width="1" fill="none"/>
<text x="57" y="97.8" font-size="11" font-family="system-ui, -apple-system, BlinkMacSystemFont, 'Segoe UI', sans-serif" text-anchor="end" dominant-baseline="middle" fill="#444444">80</text>
<text x="420" y="25" font-size="16" font-family="system-ui, -apple-system, BlinkMacSystemFont, 'Segoe UI', sans-serif" font-weight="bold" text-anchor="middle" dominant-baseline="auto" fill="#222222">Minimal — Bar</text>
<rect x="668.8" y="50" width="96.2" height="42" rx="4" ry="4" stroke="#eeeeee" stroke-width="0.8" fill="rgba(255,255,255,0.9)"/>
<rect x="678.8" y="66" width="20" height="10" rx="2" ry="2" stroke="none" fill="#4c72b0"/>
<text x="702.8" y="71" font-size="12" font-family="system-ui, -apple-system, BlinkMacSystemFont, 'Segoe UI', sans-serif" text-anchor="start" dominant-baseline="middle" fill="#444444">revenue</text>
</svg>
