<svg xmlns="http://www.w3.org/2000/svg" width="800" height="450">
<defs>
<clipPath id="axes-clip-1"><rect x="70" y="50" width="705" height="340"/></clipPath>
</defs>
<rect x="0" y="0" width="800" height="450" stroke="none" fill="#f0f0f0"/>
<rect x="70" y="50" width="705" height="340" stroke="none" fill="#f0f0f0"/>
<g clip-path="url(#axes-clip-1)">
<line x1="70" y1="390" x2="775" y2="390" stroke="#ffffff" stroke-width="1.8" fill="none"/>
<line x1="70" y1="324.6" x2="775" y2="324.6" stroke="#ffffff" stroke-width="1.8" fill="none"/>
<line x1="70" y1="259.2" x2="775" y2="259.2" stroke="#ffffff" stroke-width="1.8" fill="none"/>
<line x1="70" y1="193.8" x2="775" y2="193.8" stroke="#ffffff" stroke-width="1.8" fill="none"/>
<line x1="70" y1="128.3" x2="775" y2="128.3" stroke="#ffffff" stroke-width="1.8" fill="none"/>
<line x1="70" y1="62.9" x2="775" y2="62.9" stroke="#ffffff" stroke-width="1.8" fill="none"/>
</g>
<g clip-path="url(#axes-clip-1)">
<rect x="92.0" y="291.9" width="132.2" height="98.1" stroke="none" fill="#008fd5"/>
<rect x="92.0" y="226.5" width="132.2" height="65.4" stroke="none" fill="#fc4f30"/>
<rect x="92.0" y="193.8" width="132.2" height="32.7" stroke="none" fill="#e5ae38"/>
<rect x="268.3" y="265.7" width="132.2" height="124.3" stroke="none" fill="#008fd5"/>
<rect x="268.3" y="187.2" width="132.2" height="78.5" stroke="none" fill="#fc4f30"/>
<rect x="268.3" y="144.7" width="132.2" height="42.5" stroke="none" fill="#e5ae38"/>
<rect x="444.5" y="252.6" width="132.2" height="137.4" stroke="none" fill="#008fd5"/>
<rect x="444.5" y="161.0" width="132.2" height="91.6" stroke="none" fill="#fc4f30"/>
<rect x="444.5" y="108.7" width="132.2" height="52.3" stroke="none" fill="#e5ae38"/>
<rect x="620.8" y="233" width="132.2" height="157" stroke="none" fill="#008fd5"/>
<rect x="620.8" y="128.3" width="132.2" height="104.7" stroke="none" fill="#fc4f30"/>
<rect x="620.8" y="66.2" width="132.2" height="62.2" stroke="none" fill="#e5ae38"/>
</g>
<line x1="158.1" y1="390" x2="158.1" y2="395" stroke="#999999" stroke-width="1" fill="none"/>
<text x="158.1" y="398" font-size="11" font-family="system-ui, -apple-system, BlinkMacSystemFont, 'Segoe UI', sans-serif" text-anchor="middle" dominant-baseline="hanging" fill="#444444">2020</text>
<line x1="334.4" y1="390" x2="334.4" y2="395" stroke="#999999" stroke-width="1" fill="none"/>
<text x="334.4" y="398" font-size="11" font-family="system-ui, -apple-system, BlinkMacSystemFont, 'Segoe UI', sans-serif" text-anchor="middle" dominant-baseline="hanging" fill="#444444">2021</text>
<line x1="510.6" y1="390" x2="510.6" y2="395" stroke="#999999" stroke-width="1" fill="none"/>
<text x="510.6" y="398" font-size="11" font-family="system-ui, -apple-system, BlinkMacSystemFont, 'Segoe UI', sans-serif" text-anchor="middle" dominant-baseline="hanging" fill="#444444">2022</text>
<line x1="686.9" y1="390" x2="686.9" y2="395" stroke="#999999" stroke-width="1" fill="none"/>
<text x="686.9" y="398" font-size="11" font-family="system-ui, -apple-system, BlinkMacSystemFont, 'Segoe UI', sans-serif" text-anchor="middle" dominant-baseline="hanging" fill="#444444">2023</text>
<line x1="65" y1="390" x2="70" y2="390" stroke="#999999" stroke-width="1" fill="none"/>
<text x="62" y="390" font-size="11" font-family="system-ui, -apple-system, BlinkMacSystemFont, 'Segoe UI', sans-serif" text-anchor="end" dominant-baseline="middle" fill="#444444">0</text>
<line x1="65" y1="324.6" x2="70" y2="324.6" stroke="#999999" stroke-width="1" fill="none"/>
<text x="62" y="324.6" font-size="11" font-family="system-ui, -apple-system, BlinkMacSystemFont, 'Segoe UI', sans-serif" text-anchor="end" dominant-baseline="middle" fill="#444444">20</text>
<line x1="65" y1="259.2" x2="70" y2="259.2" stroke="#999999" stroke-width="1" fill="none"/>
<text x="62" y="259.2" font-size="11" font-family="system-ui, -apple-system, BlinkMacSystemFont, 'Segoe UI', sans-serif" text-anchor="end" dominant-baseline="middle" fill="#444444">40</text>
<line x1="65" y1="193.8" x2="70" y2="193.8" stroke="#999999" stroke-width="1" fill="none"/>
<text x="62" y="193.8" font-size="11" font-family="system-ui, -apple-system, BlinkMacSystemFont, 'Segoe UI', sans-serif" text-anchor="end" dominant-baseline="middle" fill="#444444">60</text>
<line x1="65" y1="128.3" x2="70" y2="128.3" stroke="#999999" stroke-width="1" fill="none"/>
<text x="62" y="128.3" font-size="11" font-family="system-ui, -apple-system, BlinkMacSystemFont, 'Segoe UI', sans-serif" text-anchor="end" dominant-baseline="middle" fill="#444444">80</text>
<line x1="65" y1="62.9" x2="70" y2="62.9" stroke="#999999" stroke-width="1" fill="none"/>
<text x="62" y="62.9" font-size="11" font-family="system-ui, -apple-system, BlinkMacSystemFont, 'Segoe UI', sans-serif" text-anchor="end" dominant-baseline="middle" fill="#444444">100</text>
<text x="422.5" y="35" font-size="18" font-family="system-ui, -apple-system, BlinkMacSystemFont, 'Segoe UI', sans-serif" font-weight="bold" text-anchor="middle" dominant-baseline="auto" fill="#2e2e2e">FiveThirtyEight — Stacked Bar</text>
<rect x="655.6" y="60" width="109.4" height="86" rx="4" ry="4" stroke="#ffffff" stroke-width="0.8" fill="rgba(240,240,240,0.9)"/>
<rect x="665.6" y="76" width="20" height="10" rx="2" ry="2" stroke="none" fill="#008fd5"/>
<text x="689.6" y="81" font-size="12" font-family="system-ui, -apple-system, BlinkMacSystemFont, 'Segoe UI', sans-serif" text-anchor="start" dominant-baseline="middle" fill="#444444">Product A</text>
<rect x="665.6" y="98" width="20" height="10" rx="2" ry="2" stroke="none" fill="#fc4f30"/>
<text x="689.6" y="103" font-size="12" font-family="system-ui, -apple-system, BlinkMacSystemFont, 'Segoe UI', sans-serif" text-anchor="start" dominant-baseline="middle" fill="#444444">Product B</text>
<rect x="665.6" y="120" width="20" height="10" rx="2" ry="2" stroke="none" fill="#e5ae38"/>
<text x="689.6" y="125" font-size="12" font-family="system-ui, -apple-system, BlinkMacSystemFont, 'Segoe UI', sans-serif" text-anchor="start" dominant-baseline="middle" fill="#444444">Product C</text>
</svg>
