<svg xmlns="http://www.w3.org/2000/svg" width="800" height="450">
<defs>
<clipPath id="axes-clip-1"><rect x="70" y="50" width="705" height="340"/></clipPath>
</defs>
<rect x="0" y="0" width="800" height="450" stroke="none" fill="#f0f0f0"/>
<rect x="70" y="50" width="705" height="340" stroke="none" fill="#f0f0f0"/>
<g clip-path="url(#axes-clip-1)">
<line x1="70" y1="340.6" x2="775" y2="340.6" stroke="#ffffff" stroke-width="1.8" fill="none"/>
<line x1="70" y1="285.7" x2="775" y2="285.7" stroke="#ffffff" stroke-width="1.8" fill="none"/>
<line x1="70" y1="230.8" x2="775" y2="230.8" stroke="#ffffff" stroke-width="1.8" fill="none"/>
<line x1="70" y1="176.0" x2="775" y2="176.0" stroke="#ffffff" stroke-width="1.8" fill="none"/>
<line x1="70" y1="121.1" x2="775" y2="121.1" stroke="#ffffff" stroke-width="1.8" fill="none"/>
<line x1="70" y1="66.2" x2="775" y2="66.2" stroke="#ffffff" stroke-width="1.8" fill="none"/>
</g>
<g clip-path="url(#axes-clip-1)">
<line x1="70" y1="50" x2="70" y2="390" stroke="#ffffff" stroke-width="1.8" fill="none"/>
<line x1="170.7" y1="50" x2="170.7" y2="390" stroke="#ffffff" stroke-width="1.8" fill="none"/>
<line x1="271.4" y1="50" x2="271.4" y2="390" stroke="#ffffff" stroke-width="1.8" fill="none"/>
<line x1="372.1" y1="50" x2="372.1" y2="390" stroke="#ffffff" stroke-width="1.8" fill="none"/>
<line x1="472.9" y1="50" x2="472.9" y2="390" stroke="#ffffff" stroke-width="1.8" fill="none"/>
<line x1="573.6" y1="50" x2="573.6" y2="390" stroke="#ffffff" stroke-width="1.8" fill="none"/>
<line x1="674.3" y1="50" x2="674.3" y2="390" stroke="#ffffff" stroke-width="1.8" fill="none"/>
<line x1="775" y1="50" x2="775" y2="390" stroke="#ffffff" stroke-width="1.8" fill="none"/>
</g>
<g clip-path="url(#axes-clip-1)">
<circle cx="70" cy="390" r="7" stroke="rgba(255,255,255,0.8)" stroke-width="1.2" fill="#008fd5"/>
<circle cx="170.7" cy="296.7" r="7" stroke="rgba(255,255,255,0.8)" stroke-width="1.2" fill="#008fd5"/>
<circle cx="271.4" cy="329.6" r="7" stroke="rgba(255,255,255,0.8)" stroke-width="1.2" fill="#008fd5"/>
<circle cx="372.1" cy="225.4" r="7" stroke="rgba(255,255,255,0.8)" stroke-width="1.2" fill="#008fd5"/>
<circle cx="472.9" cy="236.3" r="7" stroke="rgba(255,255,255,0.8)" stroke-width="1.2" fill="#008fd5"/>
<circle cx="573.6" cy="165.0" r="7" stroke="rgba(255,255,255,0.8)" stroke-width="1.2" fill="#008fd5"/>
<circle cx="674.3" cy="115.6" r="7" stroke="rgba(255,255,255,0.8)" stroke-width="1.2" fill="#008fd5"/>
<circle cx="775" cy="132.1" r="7" stroke="rgba(255,255,255,0.8)" stroke-width="1.2" fill="#008fd5"/>
<path d="M70 222.4 L77 230.8 L70 239.2 L63 230.8 Z" stroke="rgba(255,255,255,0.8)" stroke-width="1.2" fill="#fc4f30"/>
<path d="M170.7 266.4 L177.7 274.8 L170.7 283.2 L163.7 274.8 Z" stroke="rgba(255,255,255,0.8)" stroke-width="1.2" fill="#fc4f30"/>
<path d="M271.4 162.1 L278.4 170.5 L271.4 178.9 L264.4 170.5 Z" stroke="rgba(255,255,255,0.8)" stroke-width="1.2" fill="#fc4f30"/>
<path d="M372.1 288.3 L379.1 296.7 L372.1 305.1 L365.1 296.7 Z" stroke="rgba(255,255,255,0.8)" stroke-width="1.2" fill="#fc4f30"/>
<path d="M472.9 101.7 L479.9 110.1 L472.9 118.5 L465.9 110.1 Z" stroke="rgba(255,255,255,0.8)" stroke-width="1.2" fill="#fc4f30"/>
<path d="M573.6 195 L580.6 203.4 L573.6 211.8 L566.6 203.4 Z" stroke="rgba(255,255,255,0.8)" stroke-width="1.2" fill="#fc4f30"/>
<path d="M674.3 271.8 L681.3 280.2 L674.3 288.6 L667.3 280.2 Z" stroke="rgba(255,255,255,0.8)" stroke-width="1.2" fill="#fc4f30"/>
<path d="M775 57.8 L782 66.2 L775 74.6 L768 66.2 Z" stroke="rgba(255,255,255,0.8)" stroke-width="1.2" fill="#fc4f30"/>
</g>
<line x1="70" y1="390" x2="70" y2="395" stroke="#999999" stroke-width="1" fill="none"/>
<text x="70" y="398" font-size="11" font-family="system-ui, -apple-system, BlinkMacSystemFont, 'Segoe UI', sans-serif" text-anchor="middle" dominant-baseline="hanging" fill="#444444">1</text>
<line x1="170.7" y1="390" x2="170.7" y2="395" stroke="#999999" stroke-width="1" fill="none"/>
<text x="170.7" y="398" font-size="11" font-family="system-ui, -apple-system, BlinkMacSystemFont, 'Segoe UI', sans-serif" text-anchor="middle" dominant-baseline="hanging" fill="#444444">2</text>
<line x1="271.4" y1="390" x2="271.4" y2="395" stroke="#999999" stroke-width="1" fill="none"/>
<text x="271.4" y="398" font-size="11" font-family="system-ui, -apple-system, BlinkMacSystemFont, 'Segoe UI', sans-serif" text-anchor="middle" dominant-baseline="hanging" fill="#444444">3</text>
<line x1="372.1" y1="390" x2="372.1" y2="395" stroke="#999999" stroke-width="1" fill="none"/>
<text x="372.1" y="398" font-size="11" font-family="system-ui, -apple-system, BlinkMacSystemFont, 'Segoe UI', sans-serif" text-anchor="middle" dominant-baseline="hanging" fill="#444444">4</text>
<line x1="472.9" y1="390" x2="472.9" y2="395" stroke="#999999" stroke-width="1" fill="none"/>
<text x="472.9" y="398" font-size="11" font-family="system-ui, -apple-system, BlinkMacSystemFont, 'Segoe UI', sans-serif" text-anchor="middle" dominant-baseline="hanging" fill="#444444">5</text>
<line x1="573.6" y1="390" x2="573.6" y2="395" stroke="#999999" stroke-width="1" fill="none"/>
<text x="573.6" y="398" font-size="11" font-family="system-ui, -apple-system, BlinkMacSystemFont, 'Segoe UI', sans-serif" text-anchor="middle" dominant-baseline="hanging" fill="#444444">6</text>
<line x1="674.3" y1="390" x2="674.3" y2="395" stroke="#999999" stroke-width="1" fill="none"/>
<text x="674.3" y="398" font-size="11" font-family="system-ui, -apple-system, BlinkMacSystemFont, 'Segoe UI', sans-serif" text-anchor="middle" dominant-baseline="hanging" fill="#444444">7</text>
<line x1="775" y1="390" x2="775" y2="395" stroke="#999999" stroke-width="1" fill="none"/>
<text x="775" y="398" font-size="11" font-family="system-ui, -apple-system, BlinkMacSystemFont, 'Segoe UI', sans-serif" text-anchor="middle" dominant-baseline="hanging" fill="#444444">8</text>
<line x1="65" y1="340.6" x2="70" y2="340.6" stroke="#999999" stroke-width="1" fill="none"/>
<text x="62" y="340.6" font-size="11" font-family="system-ui, -apple-system, BlinkMacSystemFont, 'Segoe UI', sans-serif" text-anchor="end" dominant-baseline="middle" fill="#444444">3</text>
<line x1="65" y1="285.7" x2="70" y2="285.7" stroke="#999999" stroke-width="1" fill="none"/>
<text x="62" y="285.7" font-size="11" font-family="system-ui, -apple-system, BlinkMacSystemFont, 'Segoe UI', sans-serif" text-anchor="end" dominant-baseline="middle" fill="#444444">4</text>
<line x1="65" y1="230.8" x2="70" y2="230.8" stroke="#999999" stroke-width="1" fill="none"/>
<text x="62" y="230.8" font-size="11" font-family="system-ui, -apple-system, BlinkMacSystemFont, 'Segoe UI', sans-serif" text-anchor="end" dominant-baseline="middle" fill="#444444">5</text>
<line x1="65" y1="176.0" x2="70" y2="176.0" stroke="#999999" stroke-width="1" fill="none"/>
<text x="62" y="176.0" font-size="11" font-family="system-ui, -apple-system, BlinkMacSystemFont, 'Segoe UI', sans-serif" text-anchor="end" dominant-baseline="middle" fill="#444444">6</text>
<line x1="65" y1="121.1" x2="70" y2="121.1" stroke="#999999" stroke-width="1" fill="none"/>
<text x="62" y="121.1" font-size="11" font-family="system-ui, -apple-system, BlinkMacSystemFont, 'Segoe UI', sans-serif" text-anchor="end" dominant-baseline="middle" fill="#444444">7</text>
<line x1="65" y1="66.2" x2="70" y2="66.2" stroke="#999999" stroke-width="1" fill="none"/>
<text x="62" y="66.2" font-size="11" font-family="system-ui, -apple-system, BlinkMacSystemFont, 'Segoe UI', sans-serif" text-anchor="end" dominant-baseline="middle" fill="#444444">8</text>
<text x="422.5" y="35" font-size="18" font-family="system-ui, -apple-system, BlinkMacSystemFont, 'Segoe UI', sans-serif" font-weight="bold" text-anchor="middle" dominant-baseline="auto" fill="#2e2e2e">FiveThirtyEight — Scatter</text>
<rect x="668.8" y="60" width="96.2" height="64" rx="4" ry="4" stroke="#ffffff" stroke-width="0.8" fill="rgba(240,240,240,0.9)"/>
<line x1="678.8" y1="81" x2="698.8" y2="81" stroke="#008fd5" stroke-width="2.5" fill="none" stroke-linecap="round"/>
<circle cx="688.8" cy="81" r="3" stroke="none" fill="#008fd5"/>
<text x="702.8" y="81" font-size="12" font-family="system-ui, -apple-system, BlinkMacSystemFont, 'Segoe UI', sans-serif" text-anchor="start" dominant-baseline="middle" fill="#444444">Group A</text>
<line x1="678.8" y1="103" x2="698.8" y2="103" stroke="#fc4f30" stroke-width="2.5" fill="none" stroke-linecap="round"/>
<circle cx="688.8" cy="103" r="3" stroke="none" fill="#fc4f30"/>
<text x="702.8" y="103" font-size="12" font-family="system-ui, -apple-system, BlinkMacSystemFont, 'Segoe UI', sans-serif" text-anchor="start" dominant-baseline="middle" fill="#444444">Group B</text>
</svg>
