<svg xmlns="http://www.w3.org/2000/svg" width="900" height="500">
<defs>
<clipPath id="axes-clip-1"><rect x="70" y="77" width="345" height="363"/></clipPath>
<clipPath id="axes-clip-2"><rect x="525" y="77" width="345" height="363"/></clipPath>
</defs>
<rect x="0" y="0" width="900" height="500" stroke="none" fill="#1a1b2e"/>
<rect x="70" y="77" width="345" height="363" stroke="none" fill="#22233a"/>
<g clip-path="url(#axes-clip-1)">
<line x1="70" y1="423.6" x2="415" y2="423.6" stroke="#2e3050" stroke-width="0.8" fill="none"/>
<line x1="70" y1="382.3" x2="415" y2="382.3" stroke="#2e3050" stroke-width="0.8" fill="none"/>
<line x1="70" y1="341.0" x2="415" y2="341.0" stroke="#2e3050" stroke-width="0.8" fill="none"/>
<line x1="70" y1="299.8" x2="415" y2="299.8" stroke="#2e3050" stroke-width="0.8" fill="none"/>
<line x1="70" y1="258.5" x2="415" y2="258.5" stroke="#2e3050" stroke-width="0.8" fill="none"/>
<line x1="70" y1="217.3" x2="415" y2="217.3" stroke="#2e3050" stroke-width="0.8" fill="none"/>
<line x1="70" y1="176.0" x2="415" y2="176.0" stroke="#2e3050" stroke-width="0.8" fill="none"/>
<line x1="70" y1="134.8" x2="415" y2="134.8" stroke="#2e3050" stroke-width="0.8" fill="none"/>
<line x1="70" y1="93.5" x2="415" y2="93.5" stroke="#2e3050" stroke-width="0.8" fill="none"/>
</g>
<g clip-path="url(#axes-clip-1)">
<line x1="70" y1="77" x2="70" y2="440" stroke="#2e3050" stroke-width="0.8" fill="none"/>
<line x1="124.9" y1="77" x2="124.9" y2="440" stroke="#2e3050" stroke-width="0.8" fill="none"/>
<line x1="179.8" y1="77" x2="179.8" y2="440" stroke="#2e3050" stroke-width="0.8" fill="none"/>
<line x1="234.7" y1="77" x2="234.7" y2="440" stroke="#2e3050" stroke-width="0.8" fill="none"/>
<line x1="289.6" y1="77" x2="289.6" y2="440" stroke="#2e3050" stroke-width="0.8" fill="none"/>
<line x1="344.5" y1="77" x2="344.5" y2="440" stroke="#2e3050" stroke-width="0.8" fill="none"/>
<line x1="399.5" y1="77" x2="399.5" y2="440" stroke="#2e3050" stroke-width="0.8" fill="none"/>
</g>
<g clip-path="url(#axes-clip-1)">
<path d="M70 258.5 C71.0 252.7 73.9 235.0 75.9 223.6 C77.8 212.3 79.8 200.9 81.7 190.3 C83.6 179.8 85.6 169.5 87.5 160.1 C89.5 150.8 91.4 142.0 93.4 134.3 C95.3 126.7 97.3 119.8 99.2 114.2 C101.2 108.5 103.1 103.9 105.1 100.5 C107.0 97.2 109.0 95.0 110.9 94.0 C112.9 93.1 114.8 93.4 116.8 95.0 C118.7 96.5 120.7 99.3 122.6 103.3 C124.6 107.2 126.5 112.5 128.5 118.6 C130.4 124.8 132.4 132.2 134.3 140.3 C136.3 148.4 138.2 157.6 140.2 167.3 C142.1 177.0 144.1 187.6 146.0 198.4 C148.0 209.3 149.9 220.8 151.9 232.3 C153.8 243.8 155.8 255.7 157.7 267.3 C159.7 278.9 161.6 290.7 163.6 302.0 C165.5 313.2 167.5 324.3 169.4 334.6 C171.4 344.9 173.3 354.9 175.3 363.9 C177.2 372.8 179.2 381.2 181.1 388.3 C183.1 395.5 185 401.9 187.0 406.9 C188.9 412.0 190.9 416.1 192.8 418.8 C194.8 421.6 196.7 423.2 198.6 423.5 C200.6 423.8 202.5 422.9 204.5 420.7 C206.4 418.6 208.4 415.1 210.3 410.6 C212.3 406.1 214.2 400.3 216.2 393.6 C218.1 386.9 220.1 379.0 222.0 370.5 C224.0 361.9 225.9 352.3 227.9 342.3 C229.8 332.3 231.8 321.4 233.7 310.4 C235.7 299.3 237.6 287.6 239.6 276.1 C241.5 264.5 243.5 252.6 245.4 241.0 C247.4 229.4 249.3 217.7 251.3 206.7 C253.2 195.7 255.2 184.8 257.1 174.8 C259.1 164.7 261.0 155.1 263.0 146.6 C264.9 138.0 266.9 130.2 268.8 123.5 C270.8 116.8 272.7 111.0 274.7 106.5 C276.6 102.0 278.6 98.5 280.5 96.4 C282.5 94.2 284.4 93.3 286.4 93.6 C288.3 93.9 290.3 95.5 292.2 98.2 C294.2 101.0 296.1 105.0 298.1 110.1 C300 115.2 302.0 121.5 303.9 128.7 C305.9 135.9 307.8 144.3 309.8 153.2 C311.7 162.2 313.6 172.1 315.6 182.4 C317.5 192.8 319.5 203.9 321.4 215.1 C323.4 226.3 325.3 238.1 327.3 249.8 C329.2 261.4 331.2 273.3 333.1 284.8 C335.1 296.3 337.0 307.8 339.0 318.6 C340.9 329.5 342.9 340.1 344.8 349.8 C346.8 359.5 348.7 368.7 350.7 376.8 C352.6 384.9 354.6 392.3 356.5 398.4 C358.5 404.6 360.4 409.8 362.4 413.8 C364.3 417.7 366.3 420.6 368.2 422.1 C370.2 423.6 372.1 424.0 374.1 423.0 C376.0 422.1 378.0 419.9 379.9 416.5 C381.9 413.2 383.8 408.5 385.8 402.9 C387.7 397.3 389.7 390.4 391.6 382.7 C393.6 375.1 395.5 366.3 397.5 357.0 C399.4 347.6 401.4 337.3 403.3 326.7 C405.3 316.1 407.2 304.8 409.2 293.4 C411.1 282.1 414.0 264.3 415 258.5" stroke="#4c72b0" stroke-width="2.5" fill="none" stroke-linecap="round" stroke-linejoin="round"/>
<circle cx="70" cy="258.5" r="5" stroke="#ffffff" stroke-width="1" fill="#4c72b0"/>
<circle cx="75.9" cy="223.6" r="5" stroke="#ffffff" stroke-width="1" fill="#4c72b0"/>
<circle cx="81.7" cy="190.3" r="5" stroke="#ffffff" stroke-width="1" fill="#4c72b0"/>
<circle cx="87.5" cy="160.1" r="5" stroke="#ffffff" stroke-width="1" fill="#4c72b0"/>
<circle cx="93.4" cy="134.3" r="5" stroke="#ffffff" stroke-width="1" fill="#4c72b0"/>
<circle cx="99.2" cy="114.2" r="5" stroke="#ffffff" stroke-width="1" fill="#4c72b0"/>
<circle cx="105.1" cy="100.5" r="5" stroke="#ffffff" stroke-width="1" fill="#4c72b0"/>
<circle cx="110.9" cy="94.0" r="5" stroke="#ffffff" stroke-width="1" fill="#4c72b0"/>
<circle cx="116.8" cy="95.0" r="5" stroke="#ffffff" stroke-width="1" fill="#4c72b0"/>
<circle cx="122.6" cy="103.3" r="5" stroke="#ffffff" stroke-width="1" fill="#4c72b0"/>
<circle cx="128.5" cy="118.6" r="5" stroke="#ffffff" stroke-width="1" fill="#4c72b0"/>
<circle cx="134.3" cy="140.3" r="5" stroke="#ffffff" stroke-width="1" fill="#4c72b0"/>
<circle cx="140.2" cy="167.3" r="5" stroke="#ffffff" stroke-width="1" fill="#4c72b0"/>
<circle cx="146.0" cy="198.4" r="5" stroke="#ffffff" stroke-width="1" fill="#4c72b0"/>
<circle cx="151.9" cy="232.3" r="5" stroke="#ffffff" stroke-width="1" fill="#4c72b0"/>
<circle cx="157.7" cy="267.3" r="5" stroke="#ffffff" stroke-width="1" fill="#4c72b0"/>
<circle cx="163.6" cy="302.0" r="5" stroke="#ffffff" stroke-width="1" fill="#4c72b0"/>
<circle cx="169.4" cy="334.6" r="5" stroke="#ffffff" stroke-width="1" fill="#4c72b0"/>
<circle cx="175.3" cy="363.9" r="5" stroke="#ffffff" stroke-width="1" fill="#4c72b0"/>
<circle cx="181.1" cy="388.3" r="5" stroke="#ffffff" stroke-width="1" fill="#4c72b0"/>
<circle cx="187.0" cy="406.9" r="5" stroke="#ffffff" stroke-width="1" fill="#4c72b0"/>
<circle cx="192.8" cy="418.8" r="5" stroke="#ffffff" stroke-width="1" fill="#4c72b0"/>
<circle cx="198.6" cy="423.5" r="5" stroke="#ffffff" stroke-width="1" fill="#4c72b0"/>
<circle cx="204.5" cy="420.7" r="5" stroke="#ffffff" stroke-width="1" fill="#4c72b0"/>
<circle cx="210.3" cy="410.6" r="5" stroke="#ffffff" stroke-width="1" fill="#4c72b0"/>
<circle cx="216.2" cy="393.6" r="5" stroke="#ffffff" stroke-width="1" fill="#4c72b0"/>
<circle cx="222.0" cy="370.5" r="5" stroke="#ffffff" stroke-width="1" fill="#4c72b0"/>
<circle cx="227.9" cy="342.3" r="5" stroke="#ffffff" stroke-width="1" fill="#4c72b0"/>
<circle cx="233.7" cy="310.4" r="5" stroke="#ffffff" stroke-width="1" fill="#4c72b0"/>
<circle cx="239.6" cy="276.1" r="5" stroke="#ffffff" stroke-width="1" fill="#4c72b0"/>
<circle cx="245.4" cy="241.0" r="5" stroke="#ffffff" stroke-width="1" fill="#4c72b0"/>
<circle cx="251.3" cy="206.7" r="5" stroke="#ffffff" stroke-width="1" fill="#4c72b0"/>
<circle cx="257.1" cy="174.8" r="5" stroke="#ffffff" stroke-width="1" fill="#4c72b0"/>
<circle cx="263.0" cy="146.6" r="5" stroke="#ffffff" stroke-width="1" fill="#4c72b0"/>
<circle cx="268.8" cy="123.5" r="5" stroke="#ffffff" stroke-width="1" fill="#4c72b0"/>
<circle cx="274.7" cy="106.5" r="5" stroke="#ffffff" stroke-width="1" fill="#4c72b0"/>
<circle cx="280.5" cy="96.4" r="5" stroke="#ffffff" stroke-width="1" fill="#4c72b0"/>
<circle cx="286.4" cy="93.6" r="5" stroke="#ffffff" stroke-width="1" fill="#4c72b0"/>
<circle cx="292.2" cy="98.2" r="5" stroke="#ffffff" stroke-width="1" fill="#4c72b0"/>
<circle cx="298.1" cy="110.1" r="5" stroke="#ffffff" stroke-width="1" fill="#4c72b0"/>
<circle cx="303.9" cy="128.7" r="5" stroke="#ffffff" stroke-width="1" fill="#4c72b0"/>
<circle cx="309.8" cy="153.2" r="5" stroke="#ffffff" stroke-width="1" fill="#4c72b0"/>
<circle cx="315.6" cy="182.4" r="5" stroke="#ffffff" stroke-width="1" fill="#4c72b0"/>
<circle cx="321.4" cy="215.1" r="5" stroke="#ffffff" stroke-width="1" fill="#4c72b0"/>
<circle cx="327.3" cy="249.8" r="5" stroke="#ffffff" stroke-width="1" fill="#4c72b0"/>
<circle cx="333.1" cy="284.8" r="5" stroke="#ffffff" stroke-width="1" fill="#4c72b0"/>
<circle cx="339.0" cy="318.6" r="5" stroke="#ffffff" stroke-width="1" fill="#4c72b0"/>
<circle cx="344.8" cy="349.8" r="5" stroke="#ffffff" stroke-width="1" fill="#4c72b0"/>
<circle cx="350.7" cy="376.8" r="5" stroke="#ffffff" stroke-width="1" fill="#4c72b0"/>
<circle cx="356.5" cy="398.4" r="5" stroke="#ffffff" stroke-width="1" fill="#4c72b0"/>
<circle cx="362.4" cy="413.8" r="5" stroke="#ffffff" stroke-width="1" fill="#4c72b0"/>
<circle cx="368.2" cy="422.1" r="5" stroke="#ffffff" stroke-width="1" fill="#4c72b0"/>
<circle cx="374.1" cy="423.0" r="5" stroke="#ffffff" stroke-width="1" fill="#4c72b0"/>
<circle cx="379.9" cy="416.5" r="5" stroke="#ffffff" stroke-width="1" fill="#4c72b0"/>
<circle cx="385.8" cy="402.9" r="5" stroke="#ffffff" stroke-width="1" fill="#4c72b0"/>
<circle cx="391.6" cy="382.7" r="5" stroke="#ffffff" stroke-width="1" fill="#4c72b0"/>
<circle cx="397.5" cy="357.0" r="5" stroke="#ffffff" stroke-width="1" fill="#4c72b0"/>
<circle cx="403.3" cy="326.7" r="5" stroke="#ffffff" stroke-width="1" fill="#4c72b0"/>
<circle cx="409.2" cy="293.4" r="5" stroke="#ffffff" stroke-width="1" fill="#4c72b0"/>
<circle cx="415" cy="258.5" r="5" stroke="#ffffff" stroke-width="1" fill="#4c72b0"/>
<path d="M70 93.5 C71.0 94.1 73.9 94.8 75.9 97.2 C77.8 99.7 79.8 103.4 81.7 108.3 C83.6 113.1 85.6 119.1 87.5 126.1 C89.5 133.0 91.4 141.1 93.4 149.9 C95.3 158.6 97.3 168.4 99.2 178.6 C101.2 188.7 103.1 199.8 105.1 210.9 C107.0 222.0 109.0 233.8 110.9 245.4 C112.9 257.0 114.8 268.9 116.8 280.4 C118.7 292.0 120.7 303.6 122.6 314.5 C124.6 325.5 126.5 336.2 128.5 346.1 C130.4 355.9 132.4 365.3 134.3 373.7 C136.3 382.0 138.2 389.6 140.2 396.1 C142.1 402.5 144.1 408.0 146.0 412.2 C148.0 416.5 149.9 419.6 151.9 421.5 C153.8 423.3 155.8 423.9 157.7 423.3 C159.7 422.7 161.6 420.8 163.6 417.7 C165.5 414.7 167.5 410.3 169.4 405.0 C171.4 399.6 173.3 393 175.3 385.6 C177.2 378.2 179.2 369.6 181.1 360.4 C183.1 351.3 185 341.2 187.0 330.7 C188.9 320.2 190.9 309.0 192.8 297.7 C194.8 286.4 196.7 274.6 198.6 262.9 C200.6 251.3 202.5 239.4 204.5 228.0 C206.4 216.5 208.4 205.1 210.3 194.4 C212.3 183.7 214.2 173.2 216.2 163.7 C218.1 154.2 220.1 145.2 222.0 137.3 C224.0 129.4 225.9 122.3 227.9 116.4 C229.8 110.4 231.8 105.5 233.7 101.9 C235.7 98.2 237.6 95.7 239.6 94.4 C241.5 93.2 243.5 93.2 245.4 94.4 C247.4 95.7 249.3 98.2 251.3 101.9 C253.2 105.5 255.2 110.4 257.1 116.4 C259.1 122.3 261.0 129.4 263.0 137.3 C264.9 145.2 266.9 154.2 268.8 163.7 C270.8 173.2 272.7 183.7 274.7 194.4 C276.6 205.1 278.6 216.5 280.5 228.0 C282.5 239.4 284.4 251.3 286.4 262.9 C288.3 274.6 290.3 286.4 292.2 297.7 C294.2 309.0 296.1 320.2 298.1 330.7 C300 341.2 302.0 351.3 303.9 360.4 C305.9 369.6 307.8 378.2 309.8 385.6 C311.7 393 313.6 399.6 315.6 405.0 C317.5 410.3 319.5 414.7 321.4 417.7 C323.4 420.8 325.3 422.7 327.3 423.3 C329.2 423.9 331.2 423.3 333.1 421.5 C335.1 419.6 337.0 416.5 339.0 412.2 C340.9 408.0 342.9 402.5 344.8 396.1 C346.8 389.6 348.7 382.0 350.7 373.7 C352.6 365.3 354.6 355.9 356.5 346.1 C358.5 336.2 360.4 325.5 362.4 314.5 C364.3 303.6 366.3 292.0 368.2 280.4 C370.2 268.9 372.1 257.0 374.1 245.4 C376.0 233.8 378.0 222.0 379.9 210.9 C381.9 199.8 383.8 188.7 385.8 178.6 C387.7 168.4 389.7 158.6 391.6 149.9 C393.6 141.1 395.5 133.0 397.5 126.1 C399.4 119.1 401.4 113.1 403.3 108.3 C405.3 103.4 407.2 99.7 409.2 97.2 C411.1 94.8 414.0 94.1 415 93.5" stroke="#dd8452" stroke-width="2.5" fill="none" stroke-linecap="round" stroke-linejoin="round"/>
<circle cx="70" cy="93.5" r="5" stroke="#ffffff" stroke-width="1" fill="#dd8452"/>
<circle cx="75.9" cy="97.2" r="5" stroke="#ffffff" stroke-width="1" fill="#dd8452"/>
<circle cx="81.7" cy="108.3" r="5" stroke="#ffffff" stroke-width="1" fill="#dd8452"/>
<circle cx="87.5" cy="126.1" r="5" stroke="#ffffff" stroke-width="1" fill="#dd8452"/>
<circle cx="93.4" cy="149.9" r="5" stroke="#ffffff" stroke-width="1" fill="#dd8452"/>
<circle cx="99.2" cy="178.6" r="5" stroke="#ffffff" stroke-width="1" fill="#dd8452"/>
<circle cx="105.1" cy="210.9" r="5" stroke="#ffffff" stroke-width="1" fill="#dd8452"/>
<circle cx="110.9" cy="245.4" r="5" stroke="#ffffff" stroke-width="1" fill="#dd8452"/>
<circle cx="116.8" cy="280.4" r="5" stroke="#ffffff" stroke-width="1" fill="#dd8452"/>
<circle cx="122.6" cy="314.5" r="5" stroke="#ffffff" stroke-width="1" fill="#dd8452"/>
<circle cx="128.5" cy="346.1" r="5" stroke="#ffffff" stroke-width="1" fill="#dd8452"/>
<circle cx="134.3" cy="373.7" r="5" stroke="#ffffff" stroke-width="1" fill="#dd8452"/>
<circle cx="140.2" cy="396.1" r="5" stroke="#ffffff" stroke-width="1" fill="#dd8452"/>
<circle cx="146.0" cy="412.2" r="5" stroke="#ffffff" stroke-width="1" fill="#dd8452"/>
<circle cx="151.9" cy="421.5" r="5" stroke="#ffffff" stroke-width="1" fill="#dd8452"/>
<circle cx="157.7" cy="423.3" r="5" stroke="#ffffff" stroke-width="1" fill="#dd8452"/>
<circle cx="163.6" cy="417.7" r="5" stroke="#ffffff" stroke-width="1" fill="#dd8452"/>
<circle cx="169.4" cy="405.0" r="5" stroke="#ffffff" stroke-width="1" fill="#dd8452"/>
<circle cx="175.3" cy="385.6" r="5" stroke="#ffffff" stroke-width="1" fill="#dd8452"/>
<circle cx="181.1" cy="360.4" r="5" stroke="#ffffff" stroke-width="1" fill="#dd8452"/>
<circle cx="187.0" cy="330.7" r="5" stroke="#ffffff" stroke-width="1" fill="#dd8452"/>
<circle cx="192.8" cy="297.7" r="5" stroke="#ffffff" stroke-width="1" fill="#dd8452"/>
<circle cx="198.6" cy="262.9" r="5" stroke="#ffffff" stroke-width="1" fill="#dd8452"/>
<circle cx="204.5" cy="228.0" r="5" stroke="#ffffff" stroke-width="1" fill="#dd8452"/>
<circle cx="210.3" cy="194.4" r="5" stroke="#ffffff" stroke-width="1" fill="#dd8452"/>
<circle cx="216.2" cy="163.7" r="5" stroke="#ffffff" stroke-width="1" fill="#dd8452"/>
<circle cx="222.0" cy="137.3" r="5" stroke="#ffffff" stroke-width="1" fill="#dd8452"/>
<circle cx="227.9" cy="116.4" r="5" stroke="#ffffff" stroke-width="1" fill="#dd8452"/>
<circle cx="233.7" cy="101.9" r="5" stroke="#ffffff" stroke-width="1" fill="#dd8452"/>
<circle cx="239.6" cy="94.4" r="5" stroke="#ffffff" stroke-width="1" fill="#dd8452"/>
<circle cx="245.4" cy="94.4" r="5" stroke="#ffffff" stroke-width="1" fill="#dd8452"/>
<circle cx="251.3" cy="101.9" r="5" stroke="#ffffff" stroke-width="1" fill="#dd8452"/>
<circle cx="257.1" cy="116.4" r="5" stroke="#ffffff" stroke-width="1" fill="#dd8452"/>
<circle cx="263.0" cy="137.3" r="5" stroke="#ffffff" stroke-width="1" fill="#dd8452"/>
<circle cx="268.8" cy="163.7" r="5" stroke="#ffffff" stroke-width="1" fill="#dd8452"/>
<circle cx="274.7" cy="194.4" r="5" stroke="#ffffff" stroke-width="1" fill="#dd8452"/>
<circle cx="280.5" cy="228.0" r="5" stroke="#ffffff" stroke-width="1" fill="#dd8452"/>
<circle cx="286.4" cy="262.9" r="5" stroke="#ffffff" stroke-width="1" fill="#dd8452"/>
<circle cx="292.2" cy="297.7" r="5" stroke="#ffffff" stroke-width="1" fill="#dd8452"/>
<circle cx="298.1" cy="330.7" r="5" stroke="#ffffff" stroke-width="1" fill="#dd8452"/>
<circle cx="303.9" cy="360.4" r="5" stroke="#ffffff" stroke-width="1" fill="#dd8452"/>
<circle cx="309.8" cy="385.6" r="5" stroke="#ffffff" stroke-width="1" fill="#dd8452"/>
<circle cx="315.6" cy="405.0" r="5" stroke="#ffffff" stroke-width="1" fill="#dd8452"/>
<circle cx="321.4" cy="417.7" r="5" stroke="#ffffff" stroke-width="1" fill="#dd8452"/>
<circle cx="327.3" cy="423.3" r="5" stroke="#ffffff" stroke-width="1" fill="#dd8452"/>
<circle cx="333.1" cy="421.5" r="5" stroke="#ffffff" stroke-width="1" fill="#dd8452"/>
<circle cx="339.0" cy="412.2" r="5" stroke="#ffffff" stroke-width="1" fill="#dd8452"/>
<circle cx="344.8" cy="396.1" r="5" stroke="#ffffff" stroke-width="1" fill="#dd8452"/>
<circle cx="350.7" cy="373.7" r="5" stroke="#ffffff" stroke-width="1" fill="#dd8452"/>
<circle cx="356.5" cy="346.1" r="5" stroke="#ffffff" stroke-width="1" fill="#dd8452"/>
<circle cx="362.4" cy="314.5" r="5" stroke="#ffffff" stroke-width="1" fill="#dd8452"/>
<circle cx="368.2" cy="280.4" r="5" stroke="#ffffff" stroke-width="1" fill="#dd8452"/>
<circle cx="374.1" cy="245.4" r="5" stroke="#ffffff" stroke-width="1" fill="#dd8452"/>
<circle cx="379.9" cy="210.9" r="5" stroke="#ffffff" stroke-width="1" fill="#dd8452"/>
<circle cx="385.8" cy="178.6" r="5" stroke="#ffffff" stroke-width="1" fill="#dd8452"/>
<circle cx="391.6" cy="149.9" r="5" stroke="#ffffff" stroke-width="1" fill="#dd8452"/>
<circle cx="397.5" cy="126.1" r="5" stroke="#ffffff" stroke-width="1" fill="#dd8452"/>
<circle cx="403.3" cy="108.3" r="5" stroke="#ffffff" stroke-width="1" fill="#dd8452"/>
<circle cx="409.2" cy="97.2" r="5" stroke="#ffffff" stroke-width="1" fill="#dd8452"/>
<circle cx="415" cy="93.5" r="5" stroke="#ffffff" stroke-width="1" fill="#dd8452"/>
</g>
<line x1="70" y1="440" x2="415" y2="440" stroke="#5a5b7a" stroke-width="1" fill="none"/>
<line x1="70" y1="77" x2="70" y2="440" stroke="#5a5b7a" stroke-width="1" fill="none"/>
<line x1="70" y1="440" x2="70" y2="445" stroke="#5a5b7a" stroke-width="1" fill="none"/>
<text x="70" y="448" font-size="11" font-family="system-ui, -apple-system, BlinkMacSystemFont, 'Segoe UI', sans-serif" text-anchor="middle" dominant-baseline="hanging" fill="#c8cae8">0</text>
<line x1="124.9" y1="440" x2="124.9" y2="445" stroke="#5a5b7a" stroke-width="1" fill="none"/>
<text x="124.9" y="448" font-size="11" font-family="system-ui, -apple-system, BlinkMacSystemFont, 'Segoe UI', sans-serif" text-anchor="middle" dominant-baseline="hanging" fill="#c8cae8">2</text>
<line x1="179.8" y1="440" x2="179.8" y2="445" stroke="#5a5b7a" stroke-width="1" fill="none"/>
<text x="179.8" y="448" font-size="11" font-family="system-ui, -apple-system, BlinkMacSystemFont, 'Segoe UI', sans-serif" text-anchor="middle" dominant-baseline="hanging" fill="#c8cae8">4</text>
<line x1="234.7" y1="440" x2="234.7" y2="445" stroke="#5a5b7a" stroke-width="1" fill="none"/>
<text x="234.7" y="448" font-size="11" font-family="system-ui, -apple-system, BlinkMacSystemFont, 'Segoe UI', sans-serif" text-anchor="middle" dominant-baseline="hanging" fill="#c8cae8">6</text>
<line x1="289.6" y1="440" x2="289.6" y2="445" stroke="#5a5b7a" stroke-width="1" fill="none"/>
<text x="289.6" y="448" font-size="11" font-family="system-ui, -apple-system, BlinkMacSystemFont, 'Segoe UI', sans-serif" text-anchor="middle" dominant-baseline="hanging" fill="#c8cae8">8</text>
<line x1="344.5" y1="440" x2="344.5" y2="445" stroke="#5a5b7a" stroke-width="1" fill="none"/>
<text x="344.5" y="448" font-size="11" font-family="system-ui, -apple-system, BlinkMacSystemFont, 'Segoe UI', sans-serif" text-anchor="middle" dominant-baseline="hanging" fill="#c8cae8">10</text>
<line x1="399.5" y1="440" x2="399.5" y2="445" stroke="#5a5b7a" stroke-width="1" fill="none"/>
<text x="399.5" y="448" font-size="11" font-family="system-ui, -apple-system, BlinkMacSystemFont, 'Segoe UI', sans-serif" text-anchor="middle" dominant-baseline="hanging" fill="#c8cae8">12</text>
<line x1="65" y1="423.6" x2="70" y2="423.6" stroke="#5a5b7a" stroke-width="1" fill="none"/>
<text x="62" y="423.6" font-size="11" font-family="system-ui, -apple-system, BlinkMacSystemFont, 'Segoe UI', sans-serif" text-anchor="end" dominant-baseline="middle" fill="#c8cae8">-1.0</text>
<line x1="65" y1="382.3" x2="70" y2="382.3" stroke="#5a5b7a" stroke-width="1" fill="none"/>
<text x="62" y="382.3" font-size="11" font-family="system-ui, -apple-system, BlinkMacSystemFont, 'Segoe UI', sans-serif" text-anchor="end" dominant-baseline="middle" fill="#c8cae8">-0.8</text>
<line x1="65" y1="341.0" x2="70" y2="341.0" stroke="#5a5b7a" stroke-width="1" fill="none"/>
<text x="62" y="341.0" font-size="11" font-family="system-ui, -apple-system, BlinkMacSystemFont, 'Segoe UI', sans-serif" text-anchor="end" dominant-baseline="middle" fill="#c8cae8">-0.5</text>
<line x1="65" y1="299.8" x2="70" y2="299.8" stroke="#5a5b7a" stroke-width="1" fill="none"/>
<text x="62" y="299.8" font-size="11" font-family="system-ui, -apple-system, BlinkMacSystemFont, 'Segoe UI', sans-serif" text-anchor="end" dominant-baseline="middle" fill="#c8cae8">-0.2</text>
<line x1="65" y1="258.5" x2="70" y2="258.5" stroke="#5a5b7a" stroke-width="1" fill="none"/>
<text x="62" y="258.5" font-size="11" font-family="system-ui, -apple-system, BlinkMacSystemFont, 'Segoe UI', sans-serif" text-anchor="end" dominant-baseline="middle" fill="#c8cae8">0.0</text>
<line x1="65" y1="217.3" x2="70" y2="217.3" stroke="#5a5b7a" stroke-width="1" fill="none"/>
<text x="62" y="217.3" font-size="11" font-family="system-ui, -apple-system, BlinkMacSystemFont, 'Segoe UI', sans-serif" text-anchor="end" dominant-baseline="middle" fill="#c8cae8">0.2</text>
<line x1="65" y1="176.0" x2="70" y2="176.0" stroke="#5a5b7a" stroke-width="1" fill="none"/>
<text x="62" y="176.0" font-size="11" font-family="system-ui, -apple-system, BlinkMacSystemFont, 'Segoe UI', sans-serif" text-anchor="end" dominant-baseline="middle" fill="#c8cae8">0.5</text>
<line x1="65" y1="134.8" x2="70" y2="134.8" stroke="#5a5b7a" stroke-width="1" fill="none"/>
<text x="62" y="134.8" font-size="11" font-family="system-ui, -apple-system, BlinkMacSystemFont, 'Segoe UI', sans-serif" text-anchor="end" dominant-baseline="middle" fill="#c8cae8">0.8</text>
<line x1="65" y1="93.5" x2="70" y2="93.5" stroke="#5a5b7a" stroke-width="1" fill="none"/>
<text x="62" y="93.5" font-size="11" font-family="system-ui, -apple-system, BlinkMacSystemFont, 'Segoe UI', sans-serif" text-anchor="end" dominant-baseline="middle" fill="#c8cae8">1.0</text>
<text x="242.5" y="62" font-size="16" font-family="system-ui, -apple-system, BlinkMacSystemFont, 'Segoe UI', sans-serif" font-weight="bold" text-anchor="middle" dominant-baseline="auto" fill="#e0e2ff">Lines</text>
<rect x="335.2" y="87" width="69.8" height="64" rx="4" ry="4" stroke="#2e3050" stroke-width="0.8" fill="rgba(26,27,46,0.9)"/>
<line x1="345.2" y1="108" x2="365.2" y2="108" stroke="#4c72b0" stroke-width="2.5" fill="none" stroke-linecap="round"/>
<circle cx="355.2" cy="108" r="3" stroke="none" fill="#4c72b0"/>
<text x="369.2" y="108" font-size="12" font-family="system-ui, -apple-system, BlinkMacSystemFont, 'Segoe UI', sans-serif" text-anchor="start" dominant-baseline="middle" fill="#c8cae8">sin</text>
<line x1="345.2" y1="130" x2="365.2" y2="130" stroke="#dd8452" stroke-width="2.5" fill="none" stroke-linecap="round"/>
<circle cx="355.2" cy="130" r="3" stroke="none" fill="#dd8452"/>
<text x="369.2" y="130" font-size="12" font-family="system-ui, -apple-system, BlinkMacSystemFont, 'Segoe UI', sans-serif" text-anchor="start" dominant-baseline="middle" fill="#c8cae8">cos</text>
<rect x="525" y="77" width="345" height="363" stroke="none" fill="#22233a"/>
<g clip-path="url(#axes-clip-2)">
<line x1="525" y1="440" x2="870" y2="440" stroke="#2e3050" stroke-width="0.8" fill="none"/>
<line x1="525" y1="364.0" x2="870" y2="364.0" stroke="#2e3050" stroke-width="0.8" fill="none"/>
<line x1="525" y1="288.0" x2="870" y2="288.0" stroke="#2e3050" stroke-width="0.8" fill="none"/>
<line x1="525" y1="212.1" x2="870" y2="212.1" stroke="#2e3050" stroke-width="0.8" fill="none"/>
<line x1="525" y1="136.1" x2="870" y2="136.1" stroke="#2e3050" stroke-width="0.8" fill="none"/>
</g>
<g clip-path="url(#axes-clip-2)">
<rect x="532.2" y="280.4" width="43.1" height="159.6" rx="4" ry="4" stroke="none" fill="#4c72b0"/>
<rect x="589.7" y="219.7" width="43.1" height="220.4" rx="4" ry="4" stroke="none" fill="#4c72b0"/>
<rect x="647.2" y="170.3" width="43.1" height="269.7" rx="4" ry="4" stroke="none" fill="#4c72b0"/>
<rect x="704.7" y="193.1" width="43.1" height="246.9" rx="4" ry="4" stroke="none" fill="#4c72b0"/>
<rect x="762.2" y="124.7" width="43.1" height="315.3" rx="4" ry="4" stroke="none" fill="#4c72b0"/>
<rect x="819.7" y="94.3" width="43.1" height="345.7" rx="4" ry="4" stroke="none" fill="#4c72b0"/>
</g>
<line x1="525" y1="440" x2="870" y2="440" stroke="#5a5b7a" stroke-width="1" fill="none"/>
<line x1="525" y1="77" x2="525" y2="440" stroke="#5a5b7a" stroke-width="1" fill="none"/>
<line x1="553.8" y1="440" x2="553.8" y2="445" stroke="#5a5b7a" stroke-width="1" fill="none"/>
<text x="553.8" y="448" font-size="11" font-family="system-ui, -apple-system, BlinkMacSystemFont, 'Segoe UI', sans-serif" text-anchor="middle" dominant-baseline="hanging" fill="#c8cae8">Jan</text>
<line x1="611.3" y1="440" x2="611.3" y2="445" stroke="#5a5b7a" stroke-width="1" fill="none"/>
<text x="611.3" y="448" font-size="11" font-family="system-ui, -apple-system, BlinkMacSystemFont, 'Segoe UI', sans-serif" text-anchor="middle" dominant-baseline="hanging" fill="#c8cae8">Feb</text>
<line x1="668.8" y1="440" x2="668.8" y2="445" stroke="#5a5b7a" stroke-width="1" fill="none"/>
<text x="668.8" y="448" font-size="11" font-family="system-ui, -apple-system, BlinkMacSystemFont, 'Segoe UI', sans-serif" text-anchor="middle" dominant-baseline="hanging" fill="#c8cae8">Mar</text>
<line x1="726.3" y1="440" x2="726.3" y2="445" stroke="#5a5b7a" stroke-width="1" fill="none"/>
<text x="726.3" y="448" font-size="11" font-family="system-ui, -apple-system, BlinkMacSystemFont, 'Segoe UI', sans-serif" text-anchor="middle" dominant-baseline="hanging" fill="#c8cae8">Apr</text>
<line x1="783.8" y1="440" x2="783.8" y2="445" stroke="#5a5b7a" stroke-width="1" fill="none"/>
<text x="783.8" y="448" font-size="11" font-family="system-ui, -apple-system, BlinkMacSystemFont, 'Segoe UI', sans-serif" text-anchor="middle" dominant-baseline="hanging" fill="#c8cae8">May</text>
<line x1="841.3" y1="440" x2="841.3" y2="445" stroke="#5a5b7a" stroke-width="1" fill="none"/>
<text x="841.3" y="448" font-size="11" font-family="system-ui, -apple-system, BlinkMacSystemFont, 'Segoe UI', sans-serif" text-anchor="middle" dominant-baseline="hanging" fill="#c8cae8">Jun</text>
<line x1="520" y1="440" x2="525" y2="440" stroke="#5a5b7a" stroke-width="1" fill="none"/>
<text x="517" y="440" font-size="11" font-family="system-ui, -apple-system, BlinkMacSystemFont, 'Segoe UI', sans-serif" text-anchor="end" dominant-baseline="middle" fill="#c8cae8">0</text>
<line x1="520" y1="364.0" x2="525" y2="364.0" stroke="#5a5b7a" stroke-width="1" fill="none"/>
<text x="517" y="364.0" font-size="11" font-family="system-ui, -apple-system, BlinkMacSystemFont, 'Segoe UI', sans-serif" text-anchor="end" dominant-baseline="middle" fill="#c8cae8">20</text>
<line x1="520" y1="288.0" x2="525" y2="288.0" stroke="#5a5b7a" stroke-width="1" fill="none"/>
<text x="517" y="288.0" font-size="11" font-family="system-ui, -apple-system, BlinkMacSystemFont, 'Segoe UI', sans-serif" text-anchor="end" dominant-baseline="middle" fill="#c8cae8">40</text>
<line x1="520" y1="212.1" x2="525" y2="212.1" stroke="#5a5b7a" stroke-width="1" fill="none"/>
<text x="517" y="212.1" font-size="11" font-family="system-ui, -apple-system, BlinkMacSystemFont, 'Segoe UI', sans-serif" text-anchor="end" dominant-baseline="middle" fill="#c8cae8">60</text>
<line x1="520" y1="136.1" x2="525" y2="136.1" stroke="#5a5b7a" stroke-width="1" fill="none"/>
<text x="517" y="136.1" font-size="11" font-family="system-ui, -apple-system, BlinkMacSystemFont, 'Segoe UI', sans-serif" text-anchor="end" dominant-baseline="middle" fill="#c8cae8">80</text>
<text x="697.5" y="62" font-size="16" font-family="system-ui, -apple-system, BlinkMacSystemFont, 'Segoe UI', sans-serif" font-weight="bold" text-anchor="middle" dominant-baseline="auto" fill="#e0e2ff">Bars</text>
<rect x="763.8" y="87" width="96.2" height="42" rx="4" ry="4" stroke="#2e3050" stroke-width="0.8" fill="rgba(26,27,46,0.9)"/>
<rect x="773.8" y="103" width="20" height="10" rx="2" ry="2" stroke="none" fill="#4c72b0"/>
<text x="797.8" y="108" font-size="12" font-family="system-ui, -apple-system, BlinkMacSystemFont, 'Segoe UI', sans-serif" text-anchor="start" dominant-baseline="middle" fill="#c8cae8">revenue</text>
<text x="450" y="18" font-size="18" font-family="system-ui, -apple-system, BlinkMacSystemFont, 'Segoe UI', sans-serif" font-weight="bold" text-anchor="middle" dominant-baseline="middle" fill="#e0e2ff">Dark Theme Dashboard</text>
</svg>
