<svg xmlns="http://www.w3.org/2000/svg" width="800" height="450">
<defs>
<clipPath id="axes-clip-1"><rect x="65" y="40" width="710" height="355"/></clipPath>
</defs>
<rect x="0" y="0" width="800" height="450" stroke="none" fill="#ffffff"/>
<rect x="65" y="40" width="710" height="355" stroke="none" fill="#ffffff"/>
<g clip-path="url(#axes-clip-1)">
<line x1="65" y1="334.1" x2="775" y2="334.1" stroke="#eeeeee" stroke-width="0.6" fill="none" stroke-dasharray="4,4"/>
<line x1="65" y1="266.5" x2="775" y2="266.5" stroke="#eeeeee" stroke-width="0.6" fill="none" stroke-dasharray="4,4"/>
<line x1="65" y1="198.9" x2="775" y2="198.9" stroke="#eeeeee" stroke-width="0.6" fill="none" stroke-dasharray="4,4"/>
<line x1="65" y1="131.3" x2="775" y2="131.3" stroke="#eeeeee" stroke-width="0.6" fill="none" stroke-dasharray="4,4"/>
<line x1="65" y1="63.7" x2="775" y2="63.7" stroke="#eeeeee" stroke-width="0.6" fill="none" stroke-dasharray="4,4"/>
</g>
<g clip-path="url(#axes-clip-1)">
<line x1="65" y1="40" x2="65" y2="395" stroke="#eeeeee" stroke-width="0.6" fill="none" stroke-dasharray="4,4"/>
<line x1="166.4" y1="40" x2="166.4" y2="395" stroke="#eeeeee" stroke-width="0.6" fill="none" stroke-dasharray="4,4"/>
<line x1="267.9" y1="40" x2="267.9" y2="395" stroke="#eeeeee" stroke-width="0.6" fill="none" stroke-dasharray="4,4"/>
<line x1="369.3" y1="40" x2="369.3" y2="395" stroke="#eeeeee" stroke-width="0.6" fill="none" stroke-dasharray="4,4"/>
<line x1="470.7" y1="40" x2="470.7" y2="395" stroke="#eeeeee" stroke-width="0.6" fill="none" stroke-dasharray="4,4"/>
<line x1="572.1" y1="40" x2="572.1" y2="395" stroke="#eeeeee" stroke-width="0.6" fill="none" stroke-dasharray="4,4"/>
<line x1="673.6" y1="40" x2="673.6" y2="395" stroke="#eeeeee" stroke-width="0.6" fill="none" stroke-dasharray="4,4"/>
<line x1="775" y1="40" x2="775" y2="395" stroke="#eeeeee" stroke-width="0.6" fill="none" stroke-dasharray="4,4"/>
</g>
<g clip-path="url(#axes-clip-1)">
<circle cx="65" cy="395" r="7" stroke="rgba(255,255,255,0.8)" stroke-width="1.2" fill="#4c72b0"/>
<circle cx="166.4" cy="280.1" r="7" stroke="rgba(255,255,255,0.8)" stroke-width="1.2" fill="#4c72b0"/>
<circle cx="267.9" cy="320.6" r="7" stroke="rgba(255,255,255,0.8)" stroke-width="1.2" fill="#4c72b0"/>
<circle cx="369.3" cy="192.1" r="7" stroke="rgba(255,255,255,0.8)" stroke-width="1.2" fill="#4c72b0"/>
<circle cx="470.7" cy="205.7" r="7" stroke="rgba(255,255,255,0.8)" stroke-width="1.2" fill="#4c72b0"/>
<circle cx="572.1" cy="117.8" r="7" stroke="rgba(255,255,255,0.8)" stroke-width="1.2" fill="#4c72b0"/>
<circle cx="673.6" cy="56.9" r="7" stroke="rgba(255,255,255,0.8)" stroke-width="1.2" fill="#4c72b0"/>
<circle cx="775" cy="77.2" r="7" stroke="rgba(255,255,255,0.8)" stroke-width="1.2" fill="#4c72b0"/>
</g>
<line x1="65" y1="395" x2="775" y2="395" stroke="#aaaaaa" stroke-width="0.8" fill="none"/>
<line x1="65" y1="395" x2="65" y2="400" stroke="#aaaaaa" stroke-width="1" fill="none"/>
<text x="65" y="403" font-size="11" font-family="system-ui, -apple-system, BlinkMacSystemFont, 'Segoe UI', sans-serif" text-anchor="middle" dominant-baseline="hanging" fill="#444444">1</text>
<line x1="166.4" y1="395" x2="166.4" y2="400" stroke="#aaaaaa" stroke-width="1" fill="none"/>
<text x="166.4" y="403" font-size="11" font-family="system-ui, -apple-system, BlinkMacSystemFont, 'Segoe UI', sans-serif" text-anchor="middle" dominant-baseline="hanging" fill="#444444">2</text>
<line x1="267.9" y1="395" x2="267.9" y2="400" stroke="#aaaaaa" stroke-width="1" fill="none"/>
<text x="267.9" y="403" font-size="11" font-family="system-ui, -apple-system, BlinkMacSystemFont, 'Segoe UI', sans-serif" text-anchor="middle" dominant-baseline="hanging" fill="#444444">3</text>
<line x1="369.3" y1="395" x2="369.3" y2="400" stroke="#aaaaaa" stroke-width="1" fill="none"/>
<text x="369.3" y="403" font-size="11" font-family="system-ui, -apple-system, BlinkMacSystemFont, 'Segoe UI', sans-serif" text-anchor="middle" dominant-baseline="hanging" fill="#444444">4</text>
<line x1="470.7" y1="395" x2="470.7" y2="400" stroke="#aaaaaa" stroke-width="1" fill="none"/>
<text x="470.7" y="403" font-size="11" font-family="system-ui, -apple-system, BlinkMacSystemFont, 'Segoe UI', sans-serif" text-anchor="middle" dominant-baseline="hanging" fill="#444444">5</text>
<line x1="572.1" y1="395" x2="572.1" y2="400" stroke="#aaaaaa" stroke-width="1" fill="none"/>
<text x="572.1" y="403" font-size="11" font-family="system-ui, -apple-system, BlinkMacSystemFont, 'Segoe UI', sans-serif" text-anchor="middle" dominant-baseline="hanging" fill="#444444">6</text>
<line x1="673.6" y1="395" x2="673.6" y2="400" stroke="#aaaaaa" stroke-width="1" fill="none"/>
<text x="673.6" y="403" font-size="11" font-family="system-ui, -apple-system, BlinkMacSystemFont, 'Segoe UI', sans-serif" text-anchor="middle" dominant-baseline="hanging" fill="#444444">7</text>
<line x1="775" y1="395" x2="775" y2="400" stroke="#aaaaaa" stroke-width="1" fill="none"/>
<text x="775" y="403" font-size="11" font-family="system-ui, -apple-system, BlinkMacSystemFont, 'Segoe UI', sans-serif" text-anchor="middle" dominant-baseline="hanging" fill="#444444">8</text>
<line x1="60" y1="334.1" x2="65" y2="334.1" stroke="#aaaaaa" stroke-width="1" fill="none"/>
<text x="57" y="334.1" font-size="11" font-family="system-ui, -apple-system, BlinkMacSystemFont, 'Segoe UI', sans-serif" text-anchor="end" dominant-baseline="middle" fill="#444444">3</text>
<line x1="60" y1="266.5" x2="65" y2="266.5" stroke="#aaaaaa" stroke-width="1" fill="none"/>
<text x="57" y="266.5" font-size="11" font-family="system-ui, -apple-system, BlinkMacSystemFont, 'Segoe UI', sans-serif" text-anchor="end" dominant-baseline="middle" fill="#444444">4</text>
<line x1="60" y1="198.9" x2="65" y2="198.9" stroke="#aaaaaa" stroke-width="1" fill="none"/>
<text x="57" y="198.9" font-size="11" font-family="system-ui, -apple-system, BlinkMacSystemFont, 'Segoe UI', sans-serif" text-anchor="end" dominant-baseline="middle" fill="#444444">5</text>
<line x1="60" y1="131.3" x2="65" y2="131.3" stroke="#aaaaaa" stroke-width="1" fill="none"/>
<text x="57" y="131.3" font-size="11" font-family="system-ui, -apple-system, BlinkMacSystemFont, 'Segoe UI', sans-serif" text-anchor="end" dominant-baseline="middle" fill="#444444">6</text>
<line x1="60" y1="63.7" x2="65" y2="63.7" stroke="#aaaaaa" stroke-width="1" fill="none"/>
<text x="57" y="63.7" font-size="11" font-family="system-ui, -apple-system, BlinkMacSystemFont, 'Segoe UI', sans-serif" text-anchor="end" dominant-baseline="middle" fill="#444444">7</text>
<text x="420" y="25" font-size="16" font-family="system-ui, -apple-system, BlinkMacSystemFont, 'Segoe UI', sans-serif" font-weight="bold" text-anchor="middle" dominant-baseline="auto" fill="#222222">Minimal — Scatter</text>
<rect x="635.8" y="50" width="129.2" height="42" rx="4" ry="4" stroke="#eeeeee" stroke-width="0.8" fill="rgba(255,255,255,0.9)"/>
<line x1="645.8" y1="71" x2="665.8" y2="71" stroke="#4c72b0" stroke-width="2.5" fill="none" stroke-linecap="round"/>
<circle cx="655.8" cy="71" r="3" stroke="none" fill="#4c72b0"/>
<text x="669.8" y="71" font-size="12" font-family="system-ui, -apple-system, BlinkMacSystemFont, 'Segoe UI', sans-serif" text-anchor="start" dominant-baseline="middle" fill="#444444">measurements</text>
</svg>
