<svg xmlns="http://www.w3.org/2000/svg" width="800" height="450">
<defs>
<clipPath id="axes-clip-1"><rect x="70" y="50" width="705" height="340"/></clipPath>
<linearGradient id="linefill-0" x1="0" y1="220.0" x2="0" y2="220.0" gradientUnits="userSpaceOnUse">
  <stop offset="0" stop-color="#008fd5" stop-opacity="0.4"/>
  <stop offset="1" stop-color="#008fd5" stop-opacity="0.0"/>
</linearGradient>
</defs>
<rect x="0" y="0" width="800" height="450" stroke="none" fill="#f0f0f0"/>
<rect x="70" y="50" width="705" height="340" stroke="none" fill="#f0f0f0"/>
<g clip-path="url(#axes-clip-1)">
<line x1="70" y1="374.6" x2="775" y2="374.6" stroke="#ffffff" stroke-width="1.8" fill="none"/>
<line x1="70" y1="336.0" x2="775" y2="336.0" stroke="#ffffff" stroke-width="1.8" fill="none"/>
<line x1="70" y1="297.3" x2="775" y2="297.3" stroke="#ffffff" stroke-width="1.8" fill="none"/>
<line x1="70" y1="258.7" x2="775" y2="258.7" stroke="#ffffff" stroke-width="1.8" fill="none"/>
<line x1="70" y1="220.0" x2="775" y2="220.0" stroke="#ffffff" stroke-width="1.8" fill="none"/>
<line x1="70" y1="181.4" x2="775" y2="181.4" stroke="#ffffff" stroke-width="1.8" fill="none"/>
<line x1="70" y1="142.7" x2="775" y2="142.7" stroke="#ffffff" stroke-width="1.8" fill="none"/>
<line x1="70" y1="104.1" x2="775" y2="104.1" stroke="#ffffff" stroke-width="1.8" fill="none"/>
<line x1="70" y1="65.5" x2="775" y2="65.5" stroke="#ffffff" stroke-width="1.8" fill="none"/>
</g>
<g clip-path="url(#axes-clip-1)">
<line x1="70" y1="50" x2="70" y2="390" stroke="#ffffff" stroke-width="1.8" fill="none"/>
<line x1="182.2" y1="50" x2="182.2" y2="390" stroke="#ffffff" stroke-width="1.8" fill="none"/>
<line x1="294.4" y1="50" x2="294.4" y2="390" stroke="#ffffff" stroke-width="1.8" fill="none"/>
<line x1="406.6" y1="50" x2="406.6" y2="390" stroke="#ffffff" stroke-width="1.8" fill="none"/>
<line x1="518.8" y1="50" x2="518.8" y2="390" stroke="#ffffff" stroke-width="1.8" fill="none"/>
<line x1="631.0" y1="50" x2="631.0" y2="390" stroke="#ffffff" stroke-width="1.8" fill="none"/>
<line x1="743.2" y1="50" x2="743.2" y2="390" stroke="#ffffff" stroke-width="1.8" fill="none"/>
</g>
<g clip-path="url(#axes-clip-1)">
<path d="M70 220.0 C72.0 214.6 78.0 198 82.0 187.4 C85.9 176.7 89.9 166.1 93.9 156.2 C97.9 146.2 101.9 136.6 105.9 127.9 C109.8 119.1 113.8 110.9 117.8 103.7 C121.8 96.5 125.8 90.1 129.8 84.8 C133.7 79.5 137.7 75.2 141.7 72.0 C145.7 68.9 149.7 66.8 153.6 66.0 C157.6 65.1 161.6 65.4 165.6 66.8 C169.6 68.3 173.6 70.9 177.5 74.6 C181.5 78.3 185.5 83.2 189.5 89.0 C193.5 94.8 197.5 101.7 201.4 109.3 C205.4 116.9 209.4 125.5 213.4 134.6 C217.4 143.7 221.4 153.6 225.3 163.7 C229.3 173.9 233.3 184.7 237.3 195.4 C241.3 206.2 245.3 217.4 249.2 228.3 C253.2 239.1 257.2 250.2 261.2 260.7 C265.2 271.2 269.2 281.6 273.1 291.3 C277.1 301.0 281.1 310.3 285.1 318.7 C289.1 327.1 293.1 334.9 297.0 341.6 C301.0 348.3 305 354.3 309.0 359.0 C313.0 363.8 317.0 367.6 320.9 370.2 C324.9 372.8 328.9 374.3 332.9 374.6 C336.9 374.8 340.9 373.9 344.8 371.9 C348.8 369.9 352.8 366.7 356.8 362.4 C360.8 358.2 364.8 352.8 368.7 346.5 C372.7 340.3 376.7 332.9 380.7 324.9 C384.7 316.9 388.6 307.9 392.6 298.5 C396.6 289.1 400.6 278.9 404.6 268.6 C408.6 258.2 412.5 247.3 416.5 236.5 C420.5 225.6 424.5 214.4 428.5 203.6 C432.5 192.8 436.4 181.8 440.4 171.5 C444.4 161.1 448.4 150.9 452.4 141.6 C456.4 132.2 460.3 123.2 464.3 115.2 C468.3 107.2 472.3 99.8 476.3 93.5 C480.3 87.3 484.2 81.9 488.2 77.6 C492.2 73.4 496.2 70.2 500.2 68.1 C504.2 66.1 508.1 65.2 512.1 65.5 C516.1 65.8 520.1 67.3 524.1 69.9 C528.1 72.5 532.0 76.3 536.0 81.0 C540 85.8 544.0 91.7 548.0 98.5 C552.0 105.2 555.9 113.0 559.9 121.4 C563.9 129.8 567.9 139.1 571.9 148.8 C575.9 158.4 579.8 168.9 583.8 179.4 C587.8 189.9 591.8 200.9 595.8 211.8 C599.8 222.7 603.7 233.9 607.7 244.6 C611.7 255.4 615.7 266.2 619.7 276.3 C623.6 286.5 627.6 296.4 631.6 305.5 C635.6 314.6 639.6 323.2 643.6 330.8 C647.5 338.4 651.5 345.3 655.5 351.1 C659.5 356.8 663.5 361.7 667.5 365.4 C671.4 369.1 675.4 371.8 679.4 373.2 C683.4 374.7 687.4 375.0 691.4 374.1 C695.3 373.2 699.3 371.2 703.3 368.0 C707.3 364.9 711.3 360.5 715.3 355.2 C719.2 350.0 723.2 343.5 727.2 336.4 C731.2 329.2 735.2 321.0 739.2 312.2 C743.1 303.5 747.1 293.8 751.1 283.9 C755.1 274.0 759.1 263.4 763.1 252.7 C767.0 242.1 773.0 225.5 775 220.0 L775 220.0 L70 220.0 Z" stroke="none" fill="url(#linefill-0)"/>
<path d="M70 220.0 C72.0 214.6 78.0 198 82.0 187.4 C85.9 176.7 89.9 166.1 93.9 156.2 C97.9 146.2 101.9 136.6 105.9 127.9 C109.8 119.1 113.8 110.9 117.8 103.7 C121.8 96.5 125.8 90.1 129.8 84.8 C133.7 79.5 137.7 75.2 141.7 72.0 C145.7 68.9 149.7 66.8 153.6 66.0 C157.6 65.1 161.6 65.4 165.6 66.8 C169.6 68.3 173.6 70.9 177.5 74.6 C181.5 78.3 185.5 83.2 189.5 89.0 C193.5 94.8 197.5 101.7 201.4 109.3 C205.4 116.9 209.4 125.5 213.4 134.6 C217.4 143.7 221.4 153.6 225.3 163.7 C229.3 173.9 233.3 184.7 237.3 195.4 C241.3 206.2 245.3 217.4 249.2 228.3 C253.2 239.1 257.2 250.2 261.2 260.7 C265.2 271.2 269.2 281.6 273.1 291.3 C277.1 301.0 281.1 310.3 285.1 318.7 C289.1 327.1 293.1 334.9 297.0 341.6 C301.0 348.3 305 354.3 309.0 359.0 C313.0 363.8 317.0 367.6 320.9 370.2 C324.9 372.8 328.9 374.3 332.9 374.6 C336.9 374.8 340.9 373.9 344.8 371.9 C348.8 369.9 352.8 366.7 356.8 362.4 C360.8 358.2 364.8 352.8 368.7 346.5 C372.7 340.3 376.7 332.9 380.7 324.9 C384.7 316.9 388.6 307.9 392.6 298.5 C396.6 289.1 400.6 278.9 404.6 268.6 C408.6 258.2 412.5 247.3 416.5 236.5 C420.5 225.6 424.5 214.4 428.5 203.6 C432.5 192.8 436.4 181.8 440.4 171.5 C444.4 161.1 448.4 150.9 452.4 141.6 C456.4 132.2 460.3 123.2 464.3 115.2 C468.3 107.2 472.3 99.8 476.3 93.5 C480.3 87.3 484.2 81.9 488.2 77.6 C492.2 73.4 496.2 70.2 500.2 68.1 C504.2 66.1 508.1 65.2 512.1 65.5 C516.1 65.8 520.1 67.3 524.1 69.9 C528.1 72.5 532.0 76.3 536.0 81.0 C540 85.8 544.0 91.7 548.0 98.5 C552.0 105.2 555.9 113.0 559.9 121.4 C563.9 129.8 567.9 139.1 571.9 148.8 C575.9 158.4 579.8 168.9 583.8 179.4 C587.8 189.9 591.8 200.9 595.8 211.8 C599.8 222.7 603.7 233.9 607.7 244.6 C611.7 255.4 615.7 266.2 619.7 276.3 C623.6 286.5 627.6 296.4 631.6 305.5 C635.6 314.6 639.6 323.2 643.6 330.8 C647.5 338.4 651.5 345.3 655.5 351.1 C659.5 356.8 663.5 361.7 667.5 365.4 C671.4 369.1 675.4 371.8 679.4 373.2 C683.4 374.7 687.4 375.0 691.4 374.1 C695.3 373.2 699.3 371.2 703.3 368.0 C707.3 364.9 711.3 360.5 715.3 355.2 C719.2 350.0 723.2 343.5 727.2 336.4 C731.2 329.2 735.2 321.0 739.2 312.2 C743.1 303.5 747.1 293.8 751.1 283.9 C755.1 274.0 759.1 263.4 763.1 252.7 C767.0 242.1 773.0 225.5 775 220.0" stroke="#008fd5" stroke-width="2.5" fill="none" stroke-linecap="round" stroke-linejoin="round"/>
<circle cx="70" cy="220.0" r="5" stroke="#ffffff" stroke-width="1" fill="#008fd5"/>
<circle cx="82.0" cy="187.4" r="5" stroke="#ffffff" stroke-width="1" fill="#008fd5"/>
<circle cx="93.9" cy="156.2" r="5" stroke="#ffffff" stroke-width="1" fill="#008fd5"/>
<circle cx="105.9" cy="127.9" r="5" stroke="#ffffff" stroke-width="1" fill="#008fd5"/>
<circle cx="117.8" cy="103.7" r="5" stroke="#ffffff" stroke-width="1" fill="#008fd5"/>
<circle cx="129.8" cy="84.8" r="5" stroke="#ffffff" stroke-width="1" fill="#008fd5"/>
<circle cx="141.7" cy="72.0" r="5" stroke="#ffffff" stroke-width="1" fill="#008fd5"/>
<circle cx="153.6" cy="66.0" r="5" stroke="#ffffff" stroke-width="1" fill="#008fd5"/>
<circle cx="165.6" cy="66.8" r="5" stroke="#ffffff" stroke-width="1" fill="#008fd5"/>
<circle cx="177.5" cy="74.6" r="5" stroke="#ffffff" stroke-width="1" fill="#008fd5"/>
<circle cx="189.5" cy="89.0" r="5" stroke="#ffffff" stroke-width="1" fill="#008fd5"/>
<circle cx="201.4" cy="109.3" r="5" stroke="#ffffff" stroke-width="1" fill="#008fd5"/>
<circle cx="213.4" cy="134.6" r="5" stroke="#ffffff" stroke-width="1" fill="#008fd5"/>
<circle cx="225.3" cy="163.7" r="5" stroke="#ffffff" stroke-width="1" fill="#008fd5"/>
<circle cx="237.3" cy="195.4" r="5" stroke="#ffffff" stroke-width="1" fill="#008fd5"/>
<circle cx="249.2" cy="228.3" r="5" stroke="#ffffff" stroke-width="1" fill="#008fd5"/>
<circle cx="261.2" cy="260.7" r="5" stroke="#ffffff" stroke-width="1" fill="#008fd5"/>
<circle cx="273.1" cy="291.3" r="5" stroke="#ffffff" stroke-width="1" fill="#008fd5"/>
<circle cx="285.1" cy="318.7" r="5" stroke="#ffffff" stroke-width="1" fill="#008fd5"/>
<circle cx="297.0" cy="341.6" r="5" stroke="#ffffff" stroke-width="1" fill="#008fd5"/>
<circle cx="309.0" cy="359.0" r="5" stroke="#ffffff" stroke-width="1" fill="#008fd5"/>
<circle cx="320.9" cy="370.2" r="5" stroke="#ffffff" stroke-width="1" fill="#008fd5"/>
<circle cx="332.9" cy="374.6" r="5" stroke="#ffffff" stroke-width="1" fill="#008fd5"/>
<circle cx="344.8" cy="371.9" r="5" stroke="#ffffff" stroke-width="1" fill="#008fd5"/>
<circle cx="356.8" cy="362.4" r="5" stroke="#ffffff" stroke-width="1" fill="#008fd5"/>
<circle cx="368.7" cy="346.5" r="5" stroke="#ffffff" stroke-width="1" fill="#008fd5"/>
<circle cx="380.7" cy="324.9" r="5" stroke="#ffffff" stroke-width="1" fill="#008fd5"/>
<circle cx="392.6" cy="298.5" r="5" stroke="#ffffff" stroke-width="1" fill="#008fd5"/>
<circle cx="404.6" cy="268.6" r="5" stroke="#ffffff" stroke-width="1" fill="#008fd5"/>
<circle cx="416.5" cy="236.5" r="5" stroke="#ffffff" stroke-width="1" fill="#008fd5"/>
<circle cx="428.5" cy="203.6" r="5" stroke="#ffffff" stroke-width="1" fill="#008fd5"/>
<circle cx="440.4" cy="171.5" r="5" stroke="#ffffff" stroke-width="1" fill="#008fd5"/>
<circle cx="452.4" cy="141.6" r="5" stroke="#ffffff" stroke-width="1" fill="#008fd5"/>
<circle cx="464.3" cy="115.2" r="5" stroke="#ffffff" stroke-width="1" fill="#008fd5"/>
<circle cx="476.3" cy="93.5" r="5" stroke="#ffffff" stroke-width="1" fill="#008fd5"/>
<circle cx="488.2" cy="77.6" r="5" stroke="#ffffff" stroke-width="1" fill="#008fd5"/>
<circle cx="500.2" cy="68.1" r="5" stroke="#ffffff" stroke-width="1" fill="#008fd5"/>
<circle cx="512.1" cy="65.5" r="5" stroke="#ffffff" stroke-width="1" fill="#008fd5"/>
<circle cx="524.1" cy="69.9" r="5" stroke="#ffffff" stroke-width="1" fill="#008fd5"/>
<circle cx="536.0" cy="81.0" r="5" stroke="#ffffff" stroke-width="1" fill="#008fd5"/>
<circle cx="548.0" cy="98.5" r="5" stroke="#ffffff" stroke-width="1" fill="#008fd5"/>
<circle cx="559.9" cy="121.4" r="5" stroke="#ffffff" stroke-width="1" fill="#008fd5"/>
<circle cx="571.9" cy="148.8" r="5" stroke="#ffffff" stroke-width="1" fill="#008fd5"/>
<circle cx="583.8" cy="179.4" r="5" stroke="#ffffff" stroke-width="1" fill="#008fd5"/>
<circle cx="595.8" cy="211.8" r="5" stroke="#ffffff" stroke-width="1" fill="#008fd5"/>
<circle cx="607.7" cy="244.6" r="5" stroke="#ffffff" stroke-width="1" fill="#008fd5"/>
<circle cx="619.7" cy="276.3" r="5" stroke="#ffffff" stroke-width="1" fill="#008fd5"/>
<circle cx="631.6" cy="305.5" r="5" stroke="#ffffff" stroke-width="1" fill="#008fd5"/>
<circle cx="643.6" cy="330.8" r="5" stroke="#ffffff" stroke-width="1" fill="#008fd5"/>
<circle cx="655.5" cy="351.1" r="5" stroke="#ffffff" stroke-width="1" fill="#008fd5"/>
<circle cx="667.5" cy="365.4" r="5" stroke="#ffffff" stroke-width="1" fill="#008fd5"/>
<circle cx="679.4" cy="373.2" r="5" stroke="#ffffff" stroke-width="1" fill="#008fd5"/>
<circle cx="691.4" cy="374.1" r="5" stroke="#ffffff" stroke-width="1" fill="#008fd5"/>
<circle cx="703.3" cy="368.0" r="5" stroke="#ffffff" stroke-width="1" fill="#008fd5"/>
<circle cx="715.3" cy="355.2" r="5" stroke="#ffffff" stroke-width="1" fill="#008fd5"/>
<circle cx="727.2" cy="336.4" r="5" stroke="#ffffff" stroke-width="1" fill="#008fd5"/>
<circle cx="739.2" cy="312.2" r="5" stroke="#ffffff" stroke-width="1" fill="#008fd5"/>
<circle cx="751.1" cy="283.9" r="5" stroke="#ffffff" stroke-width="1" fill="#008fd5"/>
<circle cx="763.1" cy="252.7" r="5" stroke="#ffffff" stroke-width="1" fill="#008fd5"/>
<circle cx="775" cy="220.0" r="5" stroke="#ffffff" stroke-width="1" fill="#008fd5"/>
<path d="M70 65.5 C72.0 66.0 78.0 66.7 82.0 69.0 C85.9 71.3 89.9 74.8 93.9 79.3 C97.9 83.8 101.9 89.5 105.9 96.0 C109.8 102.5 113.8 110.0 117.8 118.2 C121.8 126.4 125.8 135.6 129.8 145.1 C133.7 154.7 137.7 165.0 141.7 175.4 C145.7 185.8 149.7 196.8 153.6 207.7 C157.6 218.6 161.6 229.8 165.6 240.5 C169.6 251.3 173.6 262.2 177.5 272.5 C181.5 282.7 185.5 292.8 189.5 302.0 C193.5 311.3 197.5 320.1 201.4 327.9 C205.4 335.7 209.4 342.8 213.4 348.8 C217.4 354.9 221.4 360.0 225.3 364.0 C229.3 368.0 233.3 370.9 237.3 372.6 C241.3 374.4 245.3 375.0 249.2 374.4 C253.2 373.8 257.2 372.0 261.2 369.2 C265.2 366.3 269.2 362.2 273.1 357.2 C277.1 352.2 281.1 346.0 285.1 339.0 C289.1 332.1 293.1 324.1 297.0 315.5 C301.0 306.9 305 297.4 309.0 287.6 C313.0 277.8 317.0 267.3 320.9 256.7 C324.9 246.1 328.9 235.0 332.9 224.1 C336.9 213.3 340.9 202.1 344.8 191.4 C348.8 180.7 352.8 170.0 356.8 159.9 C360.8 149.9 364.8 140.1 368.7 131.2 C372.7 122.3 376.7 113.8 380.7 106.5 C384.7 99.1 388.6 92.4 392.6 86.9 C396.6 81.3 400.6 76.7 404.6 73.3 C408.6 69.9 412.5 67.5 416.5 66.3 C420.5 65.2 424.5 65.2 428.5 66.3 C432.5 67.5 436.4 69.9 440.4 73.3 C444.4 76.7 448.4 81.3 452.4 86.9 C456.4 92.4 460.3 99.1 464.3 106.5 C468.3 113.8 472.3 122.3 476.3 131.2 C480.3 140.1 484.2 149.9 488.2 159.9 C492.2 170.0 496.2 180.7 500.2 191.4 C504.2 202.1 508.1 213.3 512.1 224.1 C516.1 235.0 520.1 246.1 524.1 256.7 C528.1 267.3 532.0 277.8 536.0 287.6 C540 297.4 544.0 306.9 548.0 315.5 C552.0 324.1 555.9 332.1 559.9 339.0 C563.9 346.0 567.9 352.2 571.9 357.2 C575.9 362.2 579.8 366.3 583.8 369.2 C587.8 372.0 591.8 373.8 595.8 374.4 C599.8 375.0 603.7 374.4 607.7 372.6 C611.7 370.9 615.7 368.0 619.7 364.0 C623.6 360.0 627.6 354.9 631.6 348.8 C635.6 342.8 639.6 335.7 643.6 327.9 C647.5 320.1 651.5 311.3 655.5 302.0 C659.5 292.8 663.5 282.7 667.5 272.5 C671.4 262.2 675.4 251.3 679.4 240.5 C683.4 229.8 687.4 218.6 691.4 207.7 C695.3 196.8 699.3 185.8 703.3 175.4 C707.3 165.0 711.3 154.7 715.3 145.1 C719.2 135.6 723.2 126.4 727.2 118.2 C731.2 110.0 735.2 102.5 739.2 96.0 C743.1 89.5 747.1 83.8 751.1 79.3 C755.1 74.8 759.1 71.3 763.1 69.0 C767.0 66.7 773.0 66.0 775 65.5" stroke="#fc4f30" stroke-width="2.5" fill="none" stroke-linecap="round" stroke-linejoin="round"/>
<circle cx="70" cy="65.5" r="5" stroke="#ffffff" stroke-width="1" fill="#fc4f30"/>
<circle cx="82.0" cy="69.0" r="5" stroke="#ffffff" stroke-width="1" fill="#fc4f30"/>
<circle cx="93.9" cy="79.3" r="5" stroke="#ffffff" stroke-width="1" fill="#fc4f30"/>
<circle cx="105.9" cy="96.0" r="5" stroke="#ffffff" stroke-width="1" fill="#fc4f30"/>
<circle cx="117.8" cy="118.2" r="5" stroke="#ffffff" stroke-width="1" fill="#fc4f30"/>
<circle cx="129.8" cy="145.1" r="5" stroke="#ffffff" stroke-width="1" fill="#fc4f30"/>
<circle cx="141.7" cy="175.4" r="5" stroke="#ffffff" stroke-width="1" fill="#fc4f30"/>
<circle cx="153.6" cy="207.7" r="5" stroke="#ffffff" stroke-width="1" fill="#fc4f30"/>
<circle cx="165.6" cy="240.5" r="5" stroke="#ffffff" stroke-width="1" fill="#fc4f30"/>
<circle cx="177.5" cy="272.5" r="5" stroke="#ffffff" stroke-width="1" fill="#fc4f30"/>
<circle cx="189.5" cy="302.0" r="5" stroke="#ffffff" stroke-width="1" fill="#fc4f30"/>
<circle cx="201.4" cy="327.9" r="5" stroke="#ffffff" stroke-width="1" fill="#fc4f30"/>
<circle cx="213.4" cy="348.8" r="5" stroke="#ffffff" stroke-width="1" fill="#fc4f30"/>
<circle cx="225.3" cy="364.0" r="5" stroke="#ffffff" stroke-width="1" fill="#fc4f30"/>
<circle cx="237.3" cy="372.6" r="5" stroke="#ffffff" stroke-width="1" fill="#fc4f30"/>
<circle cx="249.2" cy="374.4" r="5" stroke="#ffffff" stroke-width="1" fill="#fc4f30"/>
<circle cx="261.2" cy="369.2" r="5" stroke="#ffffff" stroke-width="1" fill="#fc4f30"/>
<circle cx="273.1" cy="357.2" r="5" stroke="#ffffff" stroke-width="1" fill="#fc4f30"/>
<circle cx="285.1" cy="339.0" r="5" stroke="#ffffff" stroke-width="1" fill="#fc4f30"/>
<circle cx="297.0" cy="315.5" r="5" stroke="#ffffff" stroke-width="1" fill="#fc4f30"/>
<circle cx="309.0" cy="287.6" r="5" stroke="#ffffff" stroke-width="1" fill="#fc4f30"/>
<circle cx="320.9" cy="256.7" r="5" stroke="#ffffff" stroke-width="1" fill="#fc4f30"/>
<circle cx="332.9" cy="224.1" r="5" stroke="#ffffff" stroke-width="1" fill="#fc4f30"/>
<circle cx="344.8" cy="191.4" r="5" stroke="#ffffff" stroke-width="1" fill="#fc4f30"/>
<circle cx="356.8" cy="159.9" r="5" stroke="#ffffff" stroke-width="1" fill="#fc4f30"/>
<circle cx="368.7" cy="131.2" r="5" stroke="#ffffff" stroke-width="1" fill="#fc4f30"/>
<circle cx="380.7" cy="106.5" r="5" stroke="#ffffff" stroke-width="1" fill="#fc4f30"/>
<circle cx="392.6" cy="86.9" r="5" stroke="#ffffff" stroke-width="1" fill="#fc4f30"/>
<circle cx="404.6" cy="73.3" r="5" stroke="#ffffff" stroke-width="1" fill="#fc4f30"/>
<circle cx="416.5" cy="66.3" r="5" stroke="#ffffff" stroke-width="1" fill="#fc4f30"/>
<circle cx="428.5" cy="66.3" r="5" stroke="#ffffff" stroke-width="1" fill="#fc4f30"/>
<circle cx="440.4" cy="73.3" r="5" stroke="#ffffff" stroke-width="1" fill="#fc4f30"/>
<circle cx="452.4" cy="86.9" r="5" stroke="#ffffff" stroke-width="1" fill="#fc4f30"/>
<circle cx="464.3" cy="106.5" r="5" stroke="#ffffff" stroke-width="1" fill="#fc4f30"/>
<circle cx="476.3" cy="131.2" r="5" stroke="#ffffff" stroke-width="1" fill="#fc4f30"/>
<circle cx="488.2" cy="159.9" r="5" stroke="#ffffff" stroke-width="1" fill="#fc4f30"/>
<circle cx="500.2" cy="191.4" r="5" stroke="#ffffff" stroke-width="1" fill="#fc4f30"/>
<circle cx="512.1" cy="224.1" r="5" stroke="#ffffff" stroke-width="1" fill="#fc4f30"/>
<circle cx="524.1" cy="256.7" r="5" stroke="#ffffff" stroke-width="1" fill="#fc4f30"/>
<circle cx="536.0" cy="287.6" r="5" stroke="#ffffff" stroke-width="1" fill="#fc4f30"/>
<circle cx="548.0" cy="315.5" r="5" stroke="#ffffff" stroke-width="1" fill="#fc4f30"/>
<circle cx="559.9" cy="339.0" r="5" stroke="#ffffff" stroke-width="1" fill="#fc4f30"/>
<circle cx="571.9" cy="357.2" r="5" stroke="#ffffff" stroke-width="1" fill="#fc4f30"/>
<circle cx="583.8" cy="369.2" r="5" stroke="#ffffff" stroke-width="1" fill="#fc4f30"/>
<circle cx="595.8" cy="374.4" r="5" stroke="#ffffff" stroke-width="1" fill="#fc4f30"/>
<circle cx="607.7" cy="372.6" r="5" stroke="#ffffff" stroke-width="1" fill="#fc4f30"/>
<circle cx="619.7" cy="364.0" r="5" stroke="#ffffff" stroke-width="1" fill="#fc4f30"/>
<circle cx="631.6" cy="348.8" r="5" stroke="#ffffff" stroke-width="1" fill="#fc4f30"/>
<circle cx="643.6" cy="327.9" r="5" stroke="#ffffff" stroke-width="1" fill="#fc4f30"/>
<circle cx="655.5" cy="302.0" r="5" stroke="#ffffff" stroke-width="1" fill="#fc4f30"/>
<circle cx="667.5" cy="272.5" r="5" stroke="#ffffff" stroke-width="1" fill="#fc4f30"/>
<circle cx="679.4" cy="240.5" r="5" stroke="#ffffff" stroke-width="1" fill="#fc4f30"/>
<circle cx="691.4" cy="207.7" r="5" stroke="#ffffff" stroke-width="1" fill="#fc4f30"/>
<circle cx="703.3" cy="175.4" r="5" stroke="#ffffff" stroke-width="1" fill="#fc4f30"/>
<circle cx="715.3" cy="145.1" r="5" stroke="#ffffff" stroke-width="1" fill="#fc4f30"/>
<circle cx="727.2" cy="118.2" r="5" stroke="#ffffff" stroke-width="1" fill="#fc4f30"/>
<circle cx="739.2" cy="96.0" r="5" stroke="#ffffff" stroke-width="1" fill="#fc4f30"/>
<circle cx="751.1" cy="79.3" r="5" stroke="#ffffff" stroke-width="1" fill="#fc4f30"/>
<circle cx="763.1" cy="69.0" r="5" stroke="#ffffff" stroke-width="1" fill="#fc4f30"/>
<circle cx="775" cy="65.5" r="5" stroke="#ffffff" stroke-width="1" fill="#fc4f30"/>
</g>
<line x1="70" y1="390" x2="70" y2="395" stroke="#999999" stroke-width="1" fill="none"/>
<text x="70" y="398" font-size="11" font-family="system-ui, -apple-system, BlinkMacSystemFont, 'Segoe UI', sans-serif" text-anchor="middle" dominant-baseline="hanging" fill="#444444">0</text>
<line x1="182.2" y1="390" x2="182.2" y2="395" stroke="#999999" stroke-width="1" fill="none"/>
<text x="182.2" y="398" font-size="11" font-family="system-ui, -apple-system, BlinkMacSystemFont, 'Segoe UI', sans-serif" text-anchor="middle" dominant-baseline="hanging" fill="#444444">2</text>
<line x1="294.4" y1="390" x2="294.4" y2="395" stroke="#999999" stroke-width="1" fill="none"/>
<text x="294.4" y="398" font-size="11" font-family="system-ui, -apple-system, BlinkMacSystemFont, 'Segoe UI', sans-serif" text-anchor="middle" dominant-baseline="hanging" fill="#444444">4</text>
<line x1="406.6" y1="390" x2="406.6" y2="395" stroke="#999999" stroke-width="1" fill="none"/>
<text x="406.6" y="398" font-size="11" font-family="system-ui, -apple-system, BlinkMacSystemFont, 'Segoe UI', sans-serif" text-anchor="middle" dominant-baseline="hanging" fill="#444444">6</text>
<line x1="518.8" y1="390" x2="518.8" y2="395" stroke="#999999" stroke-width="1" fill="none"/>
<text x="518.8" y="398" font-size="11" font-family="system-ui, -apple-system, BlinkMacSystemFont, 'Segoe UI', sans-serif" text-anchor="middle" dominant-baseline="hanging" fill="#444444">8</text>
<line x1="631.0" y1="390" x2="631.0" y2="395" stroke="#999999" stroke-width="1" fill="none"/>
<text x="631.0" y="398" font-size="11" font-family="system-ui, -apple-system, BlinkMacSystemFont, 'Segoe UI', sans-serif" text-anchor="middle" dominant-baseline="hanging" fill="#444444">10</text>
<line x1="743.2" y1="390" x2="743.2" y2="395" stroke="#999999" stroke-width="1" fill="none"/>
<text x="743.2" y="398" font-size="11" font-family="system-ui, -apple-system, BlinkMacSystemFont, 'Segoe UI', sans-serif" text-anchor="middle" dominant-baseline="hanging" fill="#444444">12</text>
<line x1="65" y1="374.6" x2="70" y2="374.6" stroke="#999999" stroke-width="1" fill="none"/>
<text x="62" y="374.6" font-size="11" font-family="system-ui, -apple-system, BlinkMacSystemFont, 'Segoe UI', sans-serif" text-anchor="end" dominant-baseline="middle" fill="#444444">-1.0</text>
<line x1="65" y1="336.0" x2="70" y2="336.0" stroke="#999999" stroke-width="1" fill="none"/>
<text x="62" y="336.0" font-size="11" font-family="system-ui, -apple-system, BlinkMacSystemFont, 'Segoe UI', sans-serif" text-anchor="end" dominant-baseline="middle" fill="#444444">-0.8</text>
<line x1="65" y1="297.3" x2="70" y2="297.3" stroke="#999999" stroke-width="1" fill="none"/>
<text x="62" y="297.3" font-size="11" font-family="system-ui, -apple-system, BlinkMacSystemFont, 'Segoe UI', sans-serif" text-anchor="end" dominant-baseline="middle" fill="#444444">-0.5</text>
<line x1="65" y1="258.7" x2="70" y2="258.7" stroke="#999999" stroke-width="1" fill="none"/>
<text x="62" y="258.7" font-size="11" font-family="system-ui, -apple-system, BlinkMacSystemFont, 'Segoe UI', sans-serif" text-anchor="end" dominant-baseline="middle" fill="#444444">-0.2</text>
<line x1="65" y1="220.0" x2="70" y2="220.0" stroke="#999999" stroke-width="1" fill="none"/>
<text x="62" y="220.0" font-size="11" font-family="system-ui, -apple-system, BlinkMacSystemFont, 'Segoe UI', sans-serif" text-anchor="end" dominant-baseline="middle" fill="#444444">0.0</text>
<line x1="65" y1="181.4" x2="70" y2="181.4" stroke="#999999" stroke-width="1" fill="none"/>
<text x="62" y="181.4" font-size="11" font-family="system-ui, -apple-system, BlinkMacSystemFont, 'Segoe UI', sans-serif" text-anchor="end" dominant-baseline="middle" fill="#444444">0.2</text>
<line x1="65" y1="142.7" x2="70" y2="142.7" stroke="#999999" stroke-width="1" fill="none"/>
<text x="62" y="142.7" font-size="11" font-family="system-ui, -apple-system, BlinkMacSystemFont, 'Segoe UI', sans-serif" text-anchor="end" dominant-baseline="middle" fill="#444444">0.5</text>
<line x1="65" y1="104.1" x2="70" y2="104.1" stroke="#999999" stroke-width="1" fill="none"/>
<text x="62" y="104.1" font-size="11" font-family="system-ui, -apple-system, BlinkMacSystemFont, 'Segoe UI', sans-serif" text-anchor="end" dominant-baseline="middle" fill="#444444">0.8</text>
<line x1="65" y1="65.5" x2="70" y2="65.5" stroke="#999999" stroke-width="1" fill="none"/>
<text x="62" y="65.5" font-size="11" font-family="system-ui, -apple-system, BlinkMacSystemFont, 'Segoe UI', sans-serif" text-anchor="end" dominant-baseline="middle" fill="#444444">1.0</text>
<text x="422.5" y="35" font-size="18" font-family="system-ui, -apple-system, BlinkMacSystemFont, 'Segoe UI', sans-serif" font-weight="bold" text-anchor="middle" dominant-baseline="auto" fill="#2e2e2e">FiveThirtyEight — Line</text>
<rect x="675.4" y="60" width="89.6" height="64" rx="4" ry="4" stroke="#ffffff" stroke-width="0.8" fill="rgba(240,240,240,0.9)"/>
<line x1="685.4" y1="81" x2="705.4" y2="81" stroke="#008fd5" stroke-width="2.5" fill="none" stroke-linecap="round"/>
<circle cx="695.4" cy="81" r="3" stroke="none" fill="#008fd5"/>
<text x="709.4" y="81" font-size="12" font-family="system-ui, -apple-system, BlinkMacSystemFont, 'Segoe UI', sans-serif" text-anchor="start" dominant-baseline="middle" fill="#444444">sin(x)</text>
<line x1="685.4" y1="103" x2="705.4" y2="103" stroke="#fc4f30" stroke-width="2.5" fill="none" stroke-linecap="round"/>
<circle cx="695.4" cy="103" r="3" stroke="none" fill="#fc4f30"/>
<text x="709.4" y="103" font-size="12" font-family="system-ui, -apple-system, BlinkMacSystemFont, 'Segoe UI', sans-serif" text-anchor="start" dominant-baseline="middle" fill="#444444">cos(x)</text>
</svg>
