<svg xmlns="http://www.w3.org/2000/svg" width="800" height="450">
<defs>
<clipPath id="axes-clip-1"><rect x="70" y="45" width="645" height="345"/></clipPath>
</defs>
<rect x="0" y="0" width="800" height="450" stroke="none" fill="#ffffff"/>
<rect x="70" y="45" width="645" height="345" stroke="none" fill="#f7f7f7"/>
<g clip-path="url(#axes-clip-1)">
<line x1="70" y1="390" x2="715" y2="390" stroke="#e5e5e5" stroke-width="0.8" fill="none"/>
<line x1="70" y1="337.9" x2="715" y2="337.9" stroke="#e5e5e5" stroke-width="0.8" fill="none"/>
<line x1="70" y1="285.7" x2="715" y2="285.7" stroke="#e5e5e5" stroke-width="0.8" fill="none"/>
<line x1="70" y1="233.5" x2="715" y2="233.5" stroke="#e5e5e5" stroke-width="0.8" fill="none"/>
<line x1="70" y1="181.4" x2="715" y2="181.4" stroke="#e5e5e5" stroke-width="0.8" fill="none"/>
<line x1="70" y1="129.2" x2="715" y2="129.2" stroke="#e5e5e5" stroke-width="0.8" fill="none"/>
<line x1="70" y1="77.1" x2="715" y2="77.1" stroke="#e5e5e5" stroke-width="0.8" fill="none"/>
</g>
<g clip-path="url(#axes-clip-1)">
<rect x="80.1" y="171.0" width="60.5" height="219.1" rx="4" ry="4" stroke="none" fill="#4c72b0"/>
<rect x="160.7" y="144.9" width="60.5" height="245.1" rx="4" ry="4" stroke="none" fill="#4c72b0"/>
<rect x="241.3" y="152.2" width="60.5" height="237.8" rx="4" ry="4" stroke="none" fill="#4c72b0"/>
<rect x="322.0" y="118.8" width="60.5" height="271.2" rx="4" ry="4" stroke="none" fill="#4c72b0"/>
<rect x="402.6" y="103.2" width="60.5" height="286.9" rx="4" ry="4" stroke="none" fill="#4c72b0"/>
<rect x="483.2" y="87.5" width="60.5" height="302.5" rx="4" ry="4" stroke="none" fill="#4c72b0"/>
<rect x="563.8" y="95.9" width="60.5" height="294.2" rx="4" ry="4" stroke="none" fill="#4c72b0"/>
<rect x="644.5" y="61.4" width="60.5" height="328.6" rx="4" ry="4" stroke="none" fill="#4c72b0"/>
<path d="M190.9 100.0 C204.4 145.7 244.7 380.9 271.6 374.3 C298.4 367.8 325.3 87.6 352.2 60.7 C379.1 33.8 405.9 186.7 432.8 213.1 C459.7 239.4 486.6 192.7 513.4 218.9 C540.3 245.1 567.2 389.5 594.1 370.3 C620.9 351.1 661.3 148.1 674.7 103.7" stroke="#dd8452" stroke-width="2" fill="none" stroke-linecap="round" stroke-linejoin="round"/>
<circle cx="190.9" cy="100.0" r="5" stroke="#ffffff" stroke-width="1" fill="#dd8452"/>
<circle cx="271.6" cy="374.3" r="5" stroke="#ffffff" stroke-width="1" fill="#dd8452"/>
<circle cx="352.2" cy="60.7" r="5" stroke="#ffffff" stroke-width="1" fill="#dd8452"/>
<circle cx="432.8" cy="213.1" r="5" stroke="#ffffff" stroke-width="1" fill="#dd8452"/>
<circle cx="513.4" cy="218.9" r="5" stroke="#ffffff" stroke-width="1" fill="#dd8452"/>
<circle cx="594.1" cy="370.3" r="5" stroke="#ffffff" stroke-width="1" fill="#dd8452"/>
<circle cx="674.7" cy="103.7" r="5" stroke="#ffffff" stroke-width="1" fill="#dd8452"/>
</g>
<line x1="70" y1="390" x2="715" y2="390" stroke="#888888" stroke-width="1.2" fill="none"/>
<line x1="70" y1="45" x2="70" y2="390" stroke="#888888" stroke-width="1.2" fill="none"/>
<line x1="110.3" y1="390" x2="110.3" y2="395" stroke="#888888" stroke-width="1" fill="none"/>
<text x="110.3" y="398" font-size="11" font-family="system-ui, -apple-system, BlinkMacSystemFont, 'Segoe UI', sans-serif" text-anchor="middle" dominant-baseline="hanging" fill="#333333">Q1 '22</text>
<line x1="190.9" y1="390" x2="190.9" y2="395" stroke="#888888" stroke-width="1" fill="none"/>
<text x="190.9" y="398" font-size="11" font-family="system-ui, -apple-system, BlinkMacSystemFont, 'Segoe UI', sans-serif" text-anchor="middle" dominant-baseline="hanging" fill="#333333">Q2 '22</text>
<line x1="271.6" y1="390" x2="271.6" y2="395" stroke="#888888" stroke-width="1" fill="none"/>
<text x="271.6" y="398" font-size="11" font-family="system-ui, -apple-system, BlinkMacSystemFont, 'Segoe UI', sans-serif" text-anchor="middle" dominant-baseline="hanging" fill="#333333">Q3 '22</text>
<line x1="352.2" y1="390" x2="352.2" y2="395" stroke="#888888" stroke-width="1" fill="none"/>
<text x="352.2" y="398" font-size="11" font-family="system-ui, -apple-system, BlinkMacSystemFont, 'Segoe UI', sans-serif" text-anchor="middle" dominant-baseline="hanging" fill="#333333">Q4 '22</text>
<line x1="432.8" y1="390" x2="432.8" y2="395" stroke="#888888" stroke-width="1" fill="none"/>
<text x="432.8" y="398" font-size="11" font-family="system-ui, -apple-system, BlinkMacSystemFont, 'Segoe UI', sans-serif" text-anchor="middle" dominant-baseline="hanging" fill="#333333">Q1 '23</text>
<line x1="513.4" y1="390" x2="513.4" y2="395" stroke="#888888" stroke-width="1" fill="none"/>
<text x="513.4" y="398" font-size="11" font-family="system-ui, -apple-system, BlinkMacSystemFont, 'Segoe UI', sans-serif" text-anchor="middle" dominant-baseline="hanging" fill="#333333">Q2 '23</text>
<line x1="594.1" y1="390" x2="594.1" y2="395" stroke="#888888" stroke-width="1" fill="none"/>
<text x="594.1" y="398" font-size="11" font-family="system-ui, -apple-system, BlinkMacSystemFont, 'Segoe UI', sans-serif" text-anchor="middle" dominant-baseline="hanging" fill="#333333">Q3 '23</text>
<line x1="674.7" y1="390" x2="674.7" y2="395" stroke="#888888" stroke-width="1" fill="none"/>
<text x="674.7" y="398" font-size="11" font-family="system-ui, -apple-system, BlinkMacSystemFont, 'Segoe UI', sans-serif" text-anchor="middle" dominant-baseline="hanging" fill="#333333">Q4 '23</text>
<line x1="65" y1="390" x2="70" y2="390" stroke="#888888" stroke-width="1" fill="none"/>
<text x="62" y="390" font-size="11" font-family="system-ui, -apple-system, BlinkMacSystemFont, 'Segoe UI', sans-serif" text-anchor="end" dominant-baseline="middle" fill="#333333">0</text>
<line x1="65" y1="337.9" x2="70" y2="337.9" stroke="#888888" stroke-width="1" fill="none"/>
<text x="62" y="337.9" font-size="11" font-family="system-ui, -apple-system, BlinkMacSystemFont, 'Segoe UI', sans-serif" text-anchor="end" dominant-baseline="middle" fill="#333333">50</text>
<line x1="65" y1="285.7" x2="70" y2="285.7" stroke="#888888" stroke-width="1" fill="none"/>
<text x="62" y="285.7" font-size="11" font-family="system-ui, -apple-system, BlinkMacSystemFont, 'Segoe UI', sans-serif" text-anchor="end" dominant-baseline="middle" fill="#333333">100</text>
<line x1="65" y1="233.5" x2="70" y2="233.5" stroke="#888888" stroke-width="1" fill="none"/>
<text x="62" y="233.5" font-size="11" font-family="system-ui, -apple-system, BlinkMacSystemFont, 'Segoe UI', sans-serif" text-anchor="end" dominant-baseline="middle" fill="#333333">150</text>
<line x1="65" y1="181.4" x2="70" y2="181.4" stroke="#888888" stroke-width="1" fill="none"/>
<text x="62" y="181.4" font-size="11" font-family="system-ui, -apple-system, BlinkMacSystemFont, 'Segoe UI', sans-serif" text-anchor="end" dominant-baseline="middle" fill="#333333">200</text>
<line x1="65" y1="129.2" x2="70" y2="129.2" stroke="#888888" stroke-width="1" fill="none"/>
<text x="62" y="129.2" font-size="11" font-family="system-ui, -apple-system, BlinkMacSystemFont, 'Segoe UI', sans-serif" text-anchor="end" dominant-baseline="middle" fill="#333333">250</text>
<line x1="65" y1="77.1" x2="70" y2="77.1" stroke="#888888" stroke-width="1" fill="none"/>
<text x="62" y="77.1" font-size="11" font-family="system-ui, -apple-system, BlinkMacSystemFont, 'Segoe UI', sans-serif" text-anchor="end" dominant-baseline="middle" fill="#333333">300</text>
<line x1="715" y1="365.5" x2="720" y2="365.5" stroke="#888888" stroke-width="1" fill="none"/>
<text x="723" y="365.5" font-size="11" font-family="system-ui, -apple-system, BlinkMacSystemFont, 'Segoe UI', sans-serif" text-anchor="start" dominant-baseline="middle" fill="#333333">-2</text>
<line x1="715" y1="319.4" x2="720" y2="319.4" stroke="#888888" stroke-width="1" fill="none"/>
<text x="723" y="319.4" font-size="11" font-family="system-ui, -apple-system, BlinkMacSystemFont, 'Segoe UI', sans-serif" text-anchor="start" dominant-baseline="middle" fill="#333333">0</text>
<line x1="715" y1="273.3" x2="720" y2="273.3" stroke="#888888" stroke-width="1" fill="none"/>
<text x="723" y="273.3" font-size="11" font-family="system-ui, -apple-system, BlinkMacSystemFont, 'Segoe UI', sans-serif" text-anchor="start" dominant-baseline="middle" fill="#333333">2</text>
<line x1="715" y1="227.2" x2="720" y2="227.2" stroke="#888888" stroke-width="1" fill="none"/>
<text x="723" y="227.2" font-size="11" font-family="system-ui, -apple-system, BlinkMacSystemFont, 'Segoe UI', sans-serif" text-anchor="start" dominant-baseline="middle" fill="#333333">5</text>
<line x1="715" y1="181.2" x2="720" y2="181.2" stroke="#888888" stroke-width="1" fill="none"/>
<text x="723" y="181.2" font-size="11" font-family="system-ui, -apple-system, BlinkMacSystemFont, 'Segoe UI', sans-serif" text-anchor="start" dominant-baseline="middle" fill="#333333">8</text>
<line x1="715" y1="135.1" x2="720" y2="135.1" stroke="#888888" stroke-width="1" fill="none"/>
<text x="723" y="135.1" font-size="11" font-family="system-ui, -apple-system, BlinkMacSystemFont, 'Segoe UI', sans-serif" text-anchor="start" dominant-baseline="middle" fill="#333333">10</text>
<line x1="715" y1="89.0" x2="720" y2="89.0" stroke="#888888" stroke-width="1" fill="none"/>
<text x="723" y="89.0" font-size="11" font-family="system-ui, -apple-system, BlinkMacSystemFont, 'Segoe UI', sans-serif" text-anchor="start" dominant-baseline="middle" fill="#333333">12</text>
<line x1="715" y1="45" x2="715" y2="390" stroke="#888888" stroke-width="1.2" fill="none"/>
<text x="22" y="217.5" transform="rotate(-90,22,217.5)" font-size="12" font-family="system-ui, -apple-system, BlinkMacSystemFont, 'Segoe UI', sans-serif" text-anchor="middle" dominant-baseline="middle" fill="#333333">Revenue ($M)</text>
<text x="756" y="217.5" transform="rotate(-90,756,217.5)" font-size="12" font-family="system-ui, -apple-system, BlinkMacSystemFont, 'Segoe UI', sans-serif" text-anchor="middle" dominant-baseline="middle" fill="#333333">QoQ Growth (%)</text>
<text x="392.5" y="30" font-size="16" font-family="system-ui, -apple-system, BlinkMacSystemFont, 'Segoe UI', sans-serif" font-weight="bold" text-anchor="middle" dominant-baseline="auto" fill="#1a1a1a">Quarterly Revenue and Growth</text>
<rect x="562.6" y="55" width="142.4" height="64" rx="4" ry="4" stroke="#e5e5e5" stroke-width="0.8" fill="rgba(255,255,255,0.9)"/>
<rect x="572.6" y="71" width="20" height="10" rx="2" ry="2" stroke="none" fill="#4c72b0"/>
<text x="596.6" y="76" font-size="12" font-family="system-ui, -apple-system, BlinkMacSystemFont, 'Segoe UI', sans-serif" text-anchor="start" dominant-baseline="middle" fill="#333333">Revenue ($M)</text>
<line x1="572.6" y1="98" x2="592.6" y2="98" stroke="#dd8452" stroke-width="2.5" fill="none" stroke-linecap="round"/>
<circle cx="582.6" cy="98" r="3" stroke="none" fill="#dd8452"/>
<text x="596.6" y="98" font-size="12" font-family="system-ui, -apple-system, BlinkMacSystemFont, 'Segoe UI', sans-serif" text-anchor="start" dominant-baseline="middle" fill="#333333">QoQ Growth (%)</text>
</svg>
