<svg xmlns="http://www.w3.org/2000/svg" width="800" height="450">
<defs>
<clipPath id="axes-clip-1"><rect x="70" y="45" width="645" height="345"/></clipPath>
</defs>
<rect x="0" y="0" width="800" height="450" stroke="none" fill="#ffffff"/>
<rect x="70" y="45" width="645" height="345" stroke="none" fill="#f7f7f7"/>
<g clip-path="url(#axes-clip-1)">
<line x1="70" y1="380.3" x2="715" y2="380.3" stroke="#e5e5e5" stroke-width="0.8" fill="none"/>
<line x1="70" y1="328.9" x2="715" y2="328.9" stroke="#e5e5e5" stroke-width="0.8" fill="none"/>
<line x1="70" y1="277.4" x2="715" y2="277.4" stroke="#e5e5e5" stroke-width="0.8" fill="none"/>
<line x1="70" y1="226.0" x2="715" y2="226.0" stroke="#e5e5e5" stroke-width="0.8" fill="none"/>
<line x1="70" y1="174.6" x2="715" y2="174.6" stroke="#e5e5e5" stroke-width="0.8" fill="none"/>
<line x1="70" y1="123.1" x2="715" y2="123.1" stroke="#e5e5e5" stroke-width="0.8" fill="none"/>
<line x1="70" y1="71.7" x2="715" y2="71.7" stroke="#e5e5e5" stroke-width="0.8" fill="none"/>
</g>
<g clip-path="url(#axes-clip-1)">
<line x1="70" y1="45" x2="70" y2="390" stroke="#e5e5e5" stroke-width="0.8" fill="none"/>
<line x1="201.6" y1="45" x2="201.6" y2="390" stroke="#e5e5e5" stroke-width="0.8" fill="none"/>
<line x1="333.3" y1="45" x2="333.3" y2="390" stroke="#e5e5e5" stroke-width="0.8" fill="none"/>
<line x1="464.9" y1="45" x2="464.9" y2="390" stroke="#e5e5e5" stroke-width="0.8" fill="none"/>
<line x1="596.5" y1="45" x2="596.5" y2="390" stroke="#e5e5e5" stroke-width="0.8" fill="none"/>
</g>
<g clip-path="url(#axes-clip-1)">
<path d="M70 226.0 C72.2 220.5 78.8 204.0 83.2 193.3 C87.6 182.6 91.9 171.9 96.3 161.9 C100.7 151.8 105.1 142.0 109.5 133.0 C113.9 124.0 118.3 115.5 122.7 107.9 C127.0 100.3 131.4 93.4 135.8 87.5 C140.2 81.6 144.6 76.5 149.0 72.6 C153.4 68.6 157.8 65.6 162.1 63.8 C166.5 61.9 170.9 61.1 175.3 61.4 C179.7 61.8 184.1 63.2 188.5 65.7 C192.9 68.1 197.2 71.8 201.6 76.3 C206.0 80.8 210.4 86.5 214.8 92.9 C219.2 99.3 223.6 106.8 228.0 114.8 C232.4 122.8 236.7 131.8 241.1 141.1 C245.5 150.5 249.9 160.6 254.3 170.8 C258.7 181.1 263.1 192.0 267.5 202.8 C271.8 213.6 276.2 224.7 280.6 235.6 C285 246.5 289.4 257.5 293.8 268.1 C298.2 278.6 302.6 289.1 306.9 298.9 C311.3 308.6 315.7 318.1 320.1 326.7 C324.5 335.4 328.9 343.5 333.3 350.6 C337.7 357.7 342.0 364.1 346.4 369.5 C350.8 374.8 355.2 379.3 359.6 382.7 C364.0 386.0 368.4 388.4 372.8 389.6 C377.1 390.8 381.5 391.0 385.9 390 C390.3 389.1 394.7 387.0 399.1 383.9 C403.5 380.8 407.9 376.6 412.2 371.4 C416.6 366.3 421.0 360.1 425.4 353.2 C429.8 346.3 434.2 338.4 438.6 329.9 C443.0 321.5 447.4 312.1 451.7 302.5 C456.1 292.8 460.5 282.5 464.9 272 C469.3 261.5 473.7 250.5 478.1 239.7 C482.5 228.8 486.8 217.6 491.2 206.8 C495.6 196.0 500 185.1 504.4 174.7 C508.8 164.3 513.2 154.1 517.6 144.7 C521.9 135.2 526.3 126.1 530.7 117.8 C535.1 109.6 539.5 102.0 543.9 95.3 C548.3 88.7 552.7 82.8 557.0 78.0 C561.4 73.3 565.8 69.4 570.2 66.6 C574.6 63.9 579.0 62.2 583.4 61.6 C587.8 61.0 592.1 61.5 596.5 63.1 C600.9 64.7 605.3 67.4 609.7 71.1 C614.1 74.8 618.5 79.6 622.9 85.3 C627.2 91.0 631.6 97.7 636.0 105.1 C640.4 112.5 644.8 120.9 649.2 129.7 C653.6 138.5 658.0 148.2 662.4 158.2 C666.7 168.1 671.1 178.7 675.5 189.3 C679.9 199.9 684.3 211.0 688.7 221.9 C693.1 232.8 697.5 244.0 701.8 254.7 C706.2 265.4 712.8 281.1 715 286.3" stroke="#4c72b0" stroke-width="2.5" fill="none" stroke-linecap="round" stroke-linejoin="round"/>
<circle cx="70" cy="226.0" r="5" stroke="#ffffff" stroke-width="1" fill="#4c72b0"/>
<circle cx="83.2" cy="193.3" r="5" stroke="#ffffff" stroke-width="1" fill="#4c72b0"/>
<circle cx="96.3" cy="161.9" r="5" stroke="#ffffff" stroke-width="1" fill="#4c72b0"/>
<circle cx="109.5" cy="133.0" r="5" stroke="#ffffff" stroke-width="1" fill="#4c72b0"/>
<circle cx="122.7" cy="107.9" r="5" stroke="#ffffff" stroke-width="1" fill="#4c72b0"/>
<circle cx="135.8" cy="87.5" r="5" stroke="#ffffff" stroke-width="1" fill="#4c72b0"/>
<circle cx="149.0" cy="72.6" r="5" stroke="#ffffff" stroke-width="1" fill="#4c72b0"/>
<circle cx="162.1" cy="63.8" r="5" stroke="#ffffff" stroke-width="1" fill="#4c72b0"/>
<circle cx="175.3" cy="61.4" r="5" stroke="#ffffff" stroke-width="1" fill="#4c72b0"/>
<circle cx="188.5" cy="65.7" r="5" stroke="#ffffff" stroke-width="1" fill="#4c72b0"/>
<circle cx="201.6" cy="76.3" r="5" stroke="#ffffff" stroke-width="1" fill="#4c72b0"/>
<circle cx="214.8" cy="92.9" r="5" stroke="#ffffff" stroke-width="1" fill="#4c72b0"/>
<circle cx="228.0" cy="114.8" r="5" stroke="#ffffff" stroke-width="1" fill="#4c72b0"/>
<circle cx="241.1" cy="141.1" r="5" stroke="#ffffff" stroke-width="1" fill="#4c72b0"/>
<circle cx="254.3" cy="170.8" r="5" stroke="#ffffff" stroke-width="1" fill="#4c72b0"/>
<circle cx="267.5" cy="202.8" r="5" stroke="#ffffff" stroke-width="1" fill="#4c72b0"/>
<circle cx="280.6" cy="235.6" r="5" stroke="#ffffff" stroke-width="1" fill="#4c72b0"/>
<circle cx="293.8" cy="268.1" r="5" stroke="#ffffff" stroke-width="1" fill="#4c72b0"/>
<circle cx="306.9" cy="298.9" r="5" stroke="#ffffff" stroke-width="1" fill="#4c72b0"/>
<circle cx="320.1" cy="326.7" r="5" stroke="#ffffff" stroke-width="1" fill="#4c72b0"/>
<circle cx="333.3" cy="350.6" r="5" stroke="#ffffff" stroke-width="1" fill="#4c72b0"/>
<circle cx="346.4" cy="369.5" r="5" stroke="#ffffff" stroke-width="1" fill="#4c72b0"/>
<circle cx="359.6" cy="382.7" r="5" stroke="#ffffff" stroke-width="1" fill="#4c72b0"/>
<circle cx="372.8" cy="389.6" r="5" stroke="#ffffff" stroke-width="1" fill="#4c72b0"/>
<circle cx="385.9" cy="390" r="5" stroke="#ffffff" stroke-width="1" fill="#4c72b0"/>
<circle cx="399.1" cy="383.9" r="5" stroke="#ffffff" stroke-width="1" fill="#4c72b0"/>
<circle cx="412.2" cy="371.4" r="5" stroke="#ffffff" stroke-width="1" fill="#4c72b0"/>
<circle cx="425.4" cy="353.2" r="5" stroke="#ffffff" stroke-width="1" fill="#4c72b0"/>
<circle cx="438.6" cy="329.9" r="5" stroke="#ffffff" stroke-width="1" fill="#4c72b0"/>
<circle cx="451.7" cy="302.5" r="5" stroke="#ffffff" stroke-width="1" fill="#4c72b0"/>
<circle cx="464.9" cy="272" r="5" stroke="#ffffff" stroke-width="1" fill="#4c72b0"/>
<circle cx="478.1" cy="239.7" r="5" stroke="#ffffff" stroke-width="1" fill="#4c72b0"/>
<circle cx="491.2" cy="206.8" r="5" stroke="#ffffff" stroke-width="1" fill="#4c72b0"/>
<circle cx="504.4" cy="174.7" r="5" stroke="#ffffff" stroke-width="1" fill="#4c72b0"/>
<circle cx="517.6" cy="144.7" r="5" stroke="#ffffff" stroke-width="1" fill="#4c72b0"/>
<circle cx="530.7" cy="117.8" r="5" stroke="#ffffff" stroke-width="1" fill="#4c72b0"/>
<circle cx="543.9" cy="95.3" r="5" stroke="#ffffff" stroke-width="1" fill="#4c72b0"/>
<circle cx="557.0" cy="78.0" r="5" stroke="#ffffff" stroke-width="1" fill="#4c72b0"/>
<circle cx="570.2" cy="66.6" r="5" stroke="#ffffff" stroke-width="1" fill="#4c72b0"/>
<circle cx="583.4" cy="61.6" r="5" stroke="#ffffff" stroke-width="1" fill="#4c72b0"/>
<circle cx="596.5" cy="63.1" r="5" stroke="#ffffff" stroke-width="1" fill="#4c72b0"/>
<circle cx="609.7" cy="71.1" r="5" stroke="#ffffff" stroke-width="1" fill="#4c72b0"/>
<circle cx="622.9" cy="85.3" r="5" stroke="#ffffff" stroke-width="1" fill="#4c72b0"/>
<circle cx="636.0" cy="105.1" r="5" stroke="#ffffff" stroke-width="1" fill="#4c72b0"/>
<circle cx="649.2" cy="129.7" r="5" stroke="#ffffff" stroke-width="1" fill="#4c72b0"/>
<circle cx="662.4" cy="158.2" r="5" stroke="#ffffff" stroke-width="1" fill="#4c72b0"/>
<circle cx="675.5" cy="189.3" r="5" stroke="#ffffff" stroke-width="1" fill="#4c72b0"/>
<circle cx="688.7" cy="221.9" r="5" stroke="#ffffff" stroke-width="1" fill="#4c72b0"/>
<circle cx="701.8" cy="254.7" r="5" stroke="#ffffff" stroke-width="1" fill="#4c72b0"/>
<circle cx="715" cy="286.3" r="5" stroke="#ffffff" stroke-width="1" fill="#4c72b0"/>
<path d="M70 102.5 C72.2 102.8 78.8 103.0 83.2 104.1 C87.6 105.1 91.9 106.6 96.3 108.7 C100.7 110.7 105.1 113.3 109.5 116.2 C113.9 119.2 118.3 122.7 122.7 126.6 C127.0 130.5 131.4 134.8 135.8 139.5 C140.2 144.2 144.6 149.3 149.0 154.7 C153.4 160.1 157.8 165.9 162.1 171.8 C166.5 177.8 170.9 184.1 175.3 190.5 C179.7 196.9 184.1 203.6 188.5 210.3 C192.9 217.0 197.2 223.9 201.6 230.7 C206.0 237.6 210.4 244.6 214.8 251.4 C219.2 258.3 223.6 265.2 228.0 271.9 C232.4 278.6 236.7 285.2 241.1 291.6 C245.5 298.0 249.9 304.2 254.3 310.2 C258.7 316.1 263.1 321.8 267.5 327.2 C271.8 332.5 276.2 337.6 280.6 342.3 C285 346.9 289.4 351.2 293.8 355.1 C298.2 358.9 302.6 362.3 306.9 365.3 C311.3 368.2 315.7 370.7 320.1 372.7 C324.5 374.7 328.9 376.2 333.3 377.1 C337.7 378.1 342.0 378.6 346.4 378.5 C350.8 378.4 355.2 377.9 359.6 376.8 C364.0 375.7 368.4 374.1 372.8 372.0 C377.1 369.9 381.5 367.3 385.9 364.3 C390.3 361.2 394.7 357.7 399.1 353.7 C403.5 349.8 407.9 345.4 412.2 340.7 C416.6 336.0 421.0 330.8 425.4 325.4 C429.8 320.0 434.2 314.2 438.6 308.2 C443.0 302.2 447.4 295.9 451.7 289.4 C456.1 283.0 460.5 276.3 464.9 269.6 C469.3 262.9 473.7 256.0 478.1 249.1 C482.5 242.2 486.8 235.3 491.2 228.4 C495.6 221.6 500 214.7 504.4 208.0 C508.8 201.3 513.2 194.7 517.6 188.3 C521.9 182.0 526.3 175.7 530.7 169.8 C535.1 163.9 539.5 158.2 543.9 152.9 C548.3 147.6 552.7 142.6 557.0 138.0 C561.4 133.4 565.8 129.1 570.2 125.3 C574.6 121.5 579.0 118.1 583.4 115.3 C587.8 112.4 592.1 109.9 596.5 108 C600.9 106.1 605.3 104.6 609.7 103.7 C614.1 102.8 618.5 102.4 622.9 102.5 C627.2 102.6 631.6 103.3 636.0 104.4 C640.4 105.6 644.8 107.2 649.2 109.4 C653.6 111.5 658.0 114.2 662.4 117.3 C666.7 120.4 671.1 124.0 675.5 127.9 C679.9 131.9 684.3 136.4 688.7 141.1 C693.1 145.9 697.5 151.1 701.8 156.6 C706.2 162 712.8 171.0 715 173.9" stroke="#dd8452" stroke-width="2.5" fill="none" stroke-linecap="round" stroke-linejoin="round"/>
<circle cx="70" cy="102.5" r="5" stroke="#ffffff" stroke-width="1" fill="#dd8452"/>
<circle cx="83.2" cy="104.1" r="5" stroke="#ffffff" stroke-width="1" fill="#dd8452"/>
<circle cx="96.3" cy="108.7" r="5" stroke="#ffffff" stroke-width="1" fill="#dd8452"/>
<circle cx="109.5" cy="116.2" r="5" stroke="#ffffff" stroke-width="1" fill="#dd8452"/>
<circle cx="122.7" cy="126.6" r="5" stroke="#ffffff" stroke-width="1" fill="#dd8452"/>
<circle cx="135.8" cy="139.5" r="5" stroke="#ffffff" stroke-width="1" fill="#dd8452"/>
<circle cx="149.0" cy="154.7" r="5" stroke="#ffffff" stroke-width="1" fill="#dd8452"/>
<circle cx="162.1" cy="171.8" r="5" stroke="#ffffff" stroke-width="1" fill="#dd8452"/>
<circle cx="175.3" cy="190.5" r="5" stroke="#ffffff" stroke-width="1" fill="#dd8452"/>
<circle cx="188.5" cy="210.3" r="5" stroke="#ffffff" stroke-width="1" fill="#dd8452"/>
<circle cx="201.6" cy="230.7" r="5" stroke="#ffffff" stroke-width="1" fill="#dd8452"/>
<circle cx="214.8" cy="251.4" r="5" stroke="#ffffff" stroke-width="1" fill="#dd8452"/>
<circle cx="228.0" cy="271.9" r="5" stroke="#ffffff" stroke-width="1" fill="#dd8452"/>
<circle cx="241.1" cy="291.6" r="5" stroke="#ffffff" stroke-width="1" fill="#dd8452"/>
<circle cx="254.3" cy="310.2" r="5" stroke="#ffffff" stroke-width="1" fill="#dd8452"/>
<circle cx="267.5" cy="327.2" r="5" stroke="#ffffff" stroke-width="1" fill="#dd8452"/>
<circle cx="280.6" cy="342.3" r="5" stroke="#ffffff" stroke-width="1" fill="#dd8452"/>
<circle cx="293.8" cy="355.1" r="5" stroke="#ffffff" stroke-width="1" fill="#dd8452"/>
<circle cx="306.9" cy="365.3" r="5" stroke="#ffffff" stroke-width="1" fill="#dd8452"/>
<circle cx="320.1" cy="372.7" r="5" stroke="#ffffff" stroke-width="1" fill="#dd8452"/>
<circle cx="333.3" cy="377.1" r="5" stroke="#ffffff" stroke-width="1" fill="#dd8452"/>
<circle cx="346.4" cy="378.5" r="5" stroke="#ffffff" stroke-width="1" fill="#dd8452"/>
<circle cx="359.6" cy="376.8" r="5" stroke="#ffffff" stroke-width="1" fill="#dd8452"/>
<circle cx="372.8" cy="372.0" r="5" stroke="#ffffff" stroke-width="1" fill="#dd8452"/>
<circle cx="385.9" cy="364.3" r="5" stroke="#ffffff" stroke-width="1" fill="#dd8452"/>
<circle cx="399.1" cy="353.7" r="5" stroke="#ffffff" stroke-width="1" fill="#dd8452"/>
<circle cx="412.2" cy="340.7" r="5" stroke="#ffffff" stroke-width="1" fill="#dd8452"/>
<circle cx="425.4" cy="325.4" r="5" stroke="#ffffff" stroke-width="1" fill="#dd8452"/>
<circle cx="438.6" cy="308.2" r="5" stroke="#ffffff" stroke-width="1" fill="#dd8452"/>
<circle cx="451.7" cy="289.4" r="5" stroke="#ffffff" stroke-width="1" fill="#dd8452"/>
<circle cx="464.9" cy="269.6" r="5" stroke="#ffffff" stroke-width="1" fill="#dd8452"/>
<circle cx="478.1" cy="249.1" r="5" stroke="#ffffff" stroke-width="1" fill="#dd8452"/>
<circle cx="491.2" cy="228.4" r="5" stroke="#ffffff" stroke-width="1" fill="#dd8452"/>
<circle cx="504.4" cy="208.0" r="5" stroke="#ffffff" stroke-width="1" fill="#dd8452"/>
<circle cx="517.6" cy="188.3" r="5" stroke="#ffffff" stroke-width="1" fill="#dd8452"/>
<circle cx="530.7" cy="169.8" r="5" stroke="#ffffff" stroke-width="1" fill="#dd8452"/>
<circle cx="543.9" cy="152.9" r="5" stroke="#ffffff" stroke-width="1" fill="#dd8452"/>
<circle cx="557.0" cy="138.0" r="5" stroke="#ffffff" stroke-width="1" fill="#dd8452"/>
<circle cx="570.2" cy="125.3" r="5" stroke="#ffffff" stroke-width="1" fill="#dd8452"/>
<circle cx="583.4" cy="115.3" r="5" stroke="#ffffff" stroke-width="1" fill="#dd8452"/>
<circle cx="596.5" cy="108" r="5" stroke="#ffffff" stroke-width="1" fill="#dd8452"/>
<circle cx="609.7" cy="103.7" r="5" stroke="#ffffff" stroke-width="1" fill="#dd8452"/>
<circle cx="622.9" cy="102.5" r="5" stroke="#ffffff" stroke-width="1" fill="#dd8452"/>
<circle cx="636.0" cy="104.4" r="5" stroke="#ffffff" stroke-width="1" fill="#dd8452"/>
<circle cx="649.2" cy="109.4" r="5" stroke="#ffffff" stroke-width="1" fill="#dd8452"/>
<circle cx="662.4" cy="117.3" r="5" stroke="#ffffff" stroke-width="1" fill="#dd8452"/>
<circle cx="675.5" cy="127.9" r="5" stroke="#ffffff" stroke-width="1" fill="#dd8452"/>
<circle cx="688.7" cy="141.1" r="5" stroke="#ffffff" stroke-width="1" fill="#dd8452"/>
<circle cx="701.8" cy="156.6" r="5" stroke="#ffffff" stroke-width="1" fill="#dd8452"/>
<circle cx="715" cy="173.9" r="5" stroke="#ffffff" stroke-width="1" fill="#dd8452"/>
</g>
<line x1="70" y1="390" x2="715" y2="390" stroke="#888888" stroke-width="1.2" fill="none"/>
<line x1="70" y1="45" x2="70" y2="390" stroke="#888888" stroke-width="1.2" fill="none"/>
<line x1="70" y1="390" x2="70" y2="395" stroke="#888888" stroke-width="1" fill="none"/>
<text x="70" y="398" font-size="11" font-family="system-ui, -apple-system, BlinkMacSystemFont, 'Segoe UI', sans-serif" text-anchor="middle" dominant-baseline="hanging" fill="#333333">0</text>
<line x1="201.6" y1="390" x2="201.6" y2="395" stroke="#888888" stroke-width="1" fill="none"/>
<text x="201.6" y="398" font-size="11" font-family="system-ui, -apple-system, BlinkMacSystemFont, 'Segoe UI', sans-serif" text-anchor="middle" dominant-baseline="hanging" fill="#333333">10</text>
<line x1="333.3" y1="390" x2="333.3" y2="395" stroke="#888888" stroke-width="1" fill="none"/>
<text x="333.3" y="398" font-size="11" font-family="system-ui, -apple-system, BlinkMacSystemFont, 'Segoe UI', sans-serif" text-anchor="middle" dominant-baseline="hanging" fill="#333333">20</text>
<line x1="464.9" y1="390" x2="464.9" y2="395" stroke="#888888" stroke-width="1" fill="none"/>
<text x="464.9" y="398" font-size="11" font-family="system-ui, -apple-system, BlinkMacSystemFont, 'Segoe UI', sans-serif" text-anchor="middle" dominant-baseline="hanging" fill="#333333">30</text>
<line x1="596.5" y1="390" x2="596.5" y2="395" stroke="#888888" stroke-width="1" fill="none"/>
<text x="596.5" y="398" font-size="11" font-family="system-ui, -apple-system, BlinkMacSystemFont, 'Segoe UI', sans-serif" text-anchor="middle" dominant-baseline="hanging" fill="#333333">40</text>
<line x1="65" y1="380.3" x2="70" y2="380.3" stroke="#888888" stroke-width="1" fill="none"/>
<text x="62" y="380.3" font-size="11" font-family="system-ui, -apple-system, BlinkMacSystemFont, 'Segoe UI', sans-serif" text-anchor="end" dominant-baseline="middle" fill="#333333">12</text>
<line x1="65" y1="328.9" x2="70" y2="328.9" stroke="#888888" stroke-width="1" fill="none"/>
<text x="62" y="328.9" font-size="11" font-family="system-ui, -apple-system, BlinkMacSystemFont, 'Segoe UI', sans-serif" text-anchor="end" dominant-baseline="middle" fill="#333333">15</text>
<line x1="65" y1="277.4" x2="70" y2="277.4" stroke="#888888" stroke-width="1" fill="none"/>
<text x="62" y="277.4" font-size="11" font-family="system-ui, -apple-system, BlinkMacSystemFont, 'Segoe UI', sans-serif" text-anchor="end" dominant-baseline="middle" fill="#333333">18</text>
<line x1="65" y1="226.0" x2="70" y2="226.0" stroke="#888888" stroke-width="1" fill="none"/>
<text x="62" y="226.0" font-size="11" font-family="system-ui, -apple-system, BlinkMacSystemFont, 'Segoe UI', sans-serif" text-anchor="end" dominant-baseline="middle" fill="#333333">20</text>
<line x1="65" y1="174.6" x2="70" y2="174.6" stroke="#888888" stroke-width="1" fill="none"/>
<text x="62" y="174.6" font-size="11" font-family="system-ui, -apple-system, BlinkMacSystemFont, 'Segoe UI', sans-serif" text-anchor="end" dominant-baseline="middle" fill="#333333">22</text>
<line x1="65" y1="123.1" x2="70" y2="123.1" stroke="#888888" stroke-width="1" fill="none"/>
<text x="62" y="123.1" font-size="11" font-family="system-ui, -apple-system, BlinkMacSystemFont, 'Segoe UI', sans-serif" text-anchor="end" dominant-baseline="middle" fill="#333333">25</text>
<line x1="65" y1="71.7" x2="70" y2="71.7" stroke="#888888" stroke-width="1" fill="none"/>
<text x="62" y="71.7" font-size="11" font-family="system-ui, -apple-system, BlinkMacSystemFont, 'Segoe UI', sans-serif" text-anchor="end" dominant-baseline="middle" fill="#333333">28</text>
<line x1="715" y1="390" x2="720" y2="390" stroke="#888888" stroke-width="1" fill="none"/>
<text x="723" y="390" font-size="11" font-family="system-ui, -apple-system, BlinkMacSystemFont, 'Segoe UI', sans-serif" text-anchor="start" dominant-baseline="middle" fill="#333333">1.0k</text>
<line x1="715" y1="332.5" x2="720" y2="332.5" stroke="#888888" stroke-width="1" fill="none"/>
<text x="723" y="332.5" font-size="11" font-family="system-ui, -apple-system, BlinkMacSystemFont, 'Segoe UI', sans-serif" text-anchor="start" dominant-baseline="middle" fill="#333333">1.0k</text>
<line x1="715" y1="275" x2="720" y2="275" stroke="#888888" stroke-width="1" fill="none"/>
<text x="723" y="275" font-size="11" font-family="system-ui, -apple-system, BlinkMacSystemFont, 'Segoe UI', sans-serif" text-anchor="start" dominant-baseline="middle" fill="#333333">1.0k</text>
<line x1="715" y1="217.5" x2="720" y2="217.5" stroke="#888888" stroke-width="1" fill="none"/>
<text x="723" y="217.5" font-size="11" font-family="system-ui, -apple-system, BlinkMacSystemFont, 'Segoe UI', sans-serif" text-anchor="start" dominant-baseline="middle" fill="#333333">1.0k</text>
<line x1="715" y1="160" x2="720" y2="160" stroke="#888888" stroke-width="1" fill="none"/>
<text x="723" y="160" font-size="11" font-family="system-ui, -apple-system, BlinkMacSystemFont, 'Segoe UI', sans-serif" text-anchor="start" dominant-baseline="middle" fill="#333333">1.0k</text>
<line x1="715" y1="102.5" x2="720" y2="102.5" stroke="#888888" stroke-width="1" fill="none"/>
<text x="723" y="102.5" font-size="11" font-family="system-ui, -apple-system, BlinkMacSystemFont, 'Segoe UI', sans-serif" text-anchor="start" dominant-baseline="middle" fill="#333333">1.0k</text>
<line x1="715" y1="45" x2="720" y2="45" stroke="#888888" stroke-width="1" fill="none"/>
<text x="723" y="45" font-size="11" font-family="system-ui, -apple-system, BlinkMacSystemFont, 'Segoe UI', sans-serif" text-anchor="start" dominant-baseline="middle" fill="#333333">1.0k</text>
<line x1="715" y1="45" x2="715" y2="390" stroke="#888888" stroke-width="1.2" fill="none"/>
<text x="22" y="217.5" transform="rotate(-90,22,217.5)" font-size="12" font-family="system-ui, -apple-system, BlinkMacSystemFont, 'Segoe UI', sans-serif" text-anchor="middle" dominant-baseline="middle" fill="#333333">Temperature (°C)</text>
<text x="756" y="217.5" transform="rotate(-90,756,217.5)" font-size="12" font-family="system-ui, -apple-system, BlinkMacSystemFont, 'Segoe UI', sans-serif" text-anchor="middle" dominant-baseline="middle" fill="#333333">Pressure (hPa)</text>
<rect x="542.8" y="55" width="162.2" height="64" rx="4" ry="4" stroke="#e5e5e5" stroke-width="0.8" fill="rgba(255,255,255,0.9)"/>
<line x1="552.8" y1="76" x2="572.8" y2="76" stroke="#4c72b0" stroke-width="2.5" fill="none" stroke-linecap="round"/>
<circle cx="562.8" cy="76" r="3" stroke="none" fill="#4c72b0"/>
<text x="576.8" y="76" font-size="12" font-family="system-ui, -apple-system, BlinkMacSystemFont, 'Segoe UI', sans-serif" text-anchor="start" dominant-baseline="middle" fill="#333333">Temperature (°C)</text>
<line x1="552.8" y1="98" x2="572.8" y2="98" stroke="#dd8452" stroke-width="2.5" fill="none" stroke-linecap="round"/>
<circle cx="562.8" cy="98" r="3" stroke="none" fill="#dd8452"/>
<text x="576.8" y="98" font-size="12" font-family="system-ui, -apple-system, BlinkMacSystemFont, 'Segoe UI', sans-serif" text-anchor="start" dominant-baseline="middle" fill="#333333">Pressure (hPa)</text>
</svg>
